<?xml version="1.0" encoding="UTF-8"?>
<svg version="1.1" xmlns="http://www.w3.org/2000/svg" width="512" height="512">
<path d="M0 0 C10.34263178 8.46819797 19.43727661 17.86004838 25.75512695 29.7434082 C26.27284668 30.70174561 26.27284668 30.70174561 26.80102539 31.67944336 C27.47238434 32.93768352 28.12386467 34.20679132 28.75219727 35.48706055 C30.38894088 38.58166397 31.32281916 39.88782527 34.6730957 41.06762695 C38.03990275 41.04212084 40.11489375 40.40820325 43.2043457 39.10668945 C53.31380988 35.50691747 63.58520835 35.72318883 73.47387695 39.9152832 C84.2798315 45.23542096 90.282017 52.99766507 94.7668457 64.04418945 C97.04305073 72.6719606 96.14305572 81.57894127 93.7668457 90.04418945 C93.43090438 93.29596797 93.43090438 93.29596797 93.7668457 96.04418945 C95.59195127 98.30572999 95.59195127 98.30572999 98.26611328 98.22363281 C99.30405029 98.19406494 100.3419873 98.16449707 101.41137695 98.1340332 C102.56444336 98.11405273 103.71750977 98.09407227 104.90551758 98.07348633 C107.31189708 98.01335882 109.71816263 97.94843474 112.12426758 97.87817383 C129.57788271 97.59868468 144.92307436 102.60571332 157.63452148 114.71630859 C169.44151644 126.52530405 176.87002978 141.01011509 177.14746094 157.85913086 C177.10937432 176.91899815 172.50781713 191.64086796 159.07543945 205.7980957 C146.27808042 218.24899493 131.09105853 224.38790023 113.21330261 224.38407898 C112.12108902 224.36859512 111.02887543 224.35311127 109.90356445 224.3371582 C108.16657036 224.33079094 108.16657036 224.33079094 106.39448547 224.32429504 C102.74752117 224.30769334 99.10113894 224.27007675 95.4543457 224.23168945 C92.96021314 224.21661868 90.46607179 224.2029345 87.97192383 224.19067383 C81.90337064 224.1578508 75.83514977 224.10784047 69.7668457 224.04418945 C69.76445735 223.46919205 69.762069 222.89419464 69.75960827 222.30177307 C69.70037834 208.28725591 69.6247774 194.27290618 69.53113079 180.25857544 C69.4862348 173.48123737 69.44680605 166.70395113 69.42041016 159.92651367 C69.39491426 153.38415224 69.35396782 146.84199248 69.30365944 140.29977417 C69.28699327 137.80560179 69.27547746 135.31138943 69.2692318 132.81716919 C69.25958839 129.31968026 69.23152456 125.82278244 69.19921875 122.32543945 C69.20137138 120.78363258 69.20137138 120.78363258 69.2035675 119.2106781 C69.0964422 110.99313479 67.5828045 103.7857038 61.65635681 97.70623016 C53.19975129 90.26768027 41.50862488 91.475943 30.98168945 91.52661133 C29.08512842 91.52118432 27.18857161 91.51405842 25.29202271 91.50537109 C20.16390178 91.48720369 15.03610432 91.49417805 9.90797806 91.50688744 C4.52881276 91.51704928 -0.85032575 91.50761293 -6.22949219 91.50134277 C-15.26103665 91.49407563 -24.29245006 91.50362958 -33.32397461 91.52270508 C-43.74984649 91.54447196 -54.17540542 91.53741994 -64.60126972 91.51539946 C-73.56973343 91.49721887 -82.5381032 91.49470014 -91.5065794 91.50515413 C-96.85560418 91.51137444 -102.2044821 91.51226501 -107.55349731 91.49900818 C-112.58352353 91.4874116 -117.61314819 91.49554487 -122.64313126 91.51858521 C-124.48369812 91.52385199 -126.32429906 91.52239351 -128.16485214 91.51353455 C-143.31075093 91.35831033 -143.31075093 91.35831033 -156.6706543 97.9387207 C-157.1862793 98.57165039 -157.7019043 99.20458008 -158.2331543 99.85668945 C-158.7694043 100.48188477 -159.3056543 101.10708008 -159.8581543 101.7512207 C-163.71100968 108.17629488 -163.53676935 114.93850355 -163.55200195 122.21191406 C-163.56204758 123.31508972 -163.5720932 124.41826538 -163.58244324 125.55487061 C-163.61322651 129.18541972 -163.63029712 132.81589524 -163.6472168 136.4465332 C-163.66593232 138.9700229 -163.68550602 141.49350636 -163.7059021 144.01698303 C-163.75195223 149.97014197 -163.78937503 155.92331517 -163.82257497 161.87655598 C-163.86087709 168.65778419 -163.91026588 175.43891772 -163.96055913 182.22006595 C-164.0637096 196.16137011 -164.15302456 210.10273533 -164.2331543 224.04418945 C-168.9430001 224.11956245 -173.65247854 224.17335416 -178.36279297 224.20898438 C-179.95790742 224.22387104 -181.55298247 224.24418714 -183.14794922 224.27050781 C-208.40340588 224.67618601 -230.06175128 217.92687789 -248.6081543 200.10668945 C-265.81179037 182.04008782 -271.81095398 160.80378436 -271.50268555 136.43481445 C-270.90093955 116.21852029 -261.05068586 95.69030276 -246.31518555 81.78637695 C-222.53403062 61.88694901 -197.26114477 58.88556626 -167.2331543 61.04418945 C-164.70830964 57.20989814 -163.35303651 53.55859543 -162.0456543 49.16918945 C-153.55441061 22.45082432 -134.17830622 1.60486163 -109.5456543 -11.20581055 C-75.03160446 -28.4270019 -30.27640982 -23.87823729 0 0 Z " fill="#183B56" transform="translate(303.233154296875,57.955810546875)"/>
<path d="M0 0 C1.20168084 -0.01169993 1.20168084 -0.01169993 2.42763805 -0.02363622 C5.10953576 -0.04356509 7.79001584 -0.02778884 10.47192383 -0.01205444 C12.3955671 -0.01883018 14.31920389 -0.02773307 16.24282837 -0.03860474 C21.46600353 -0.06140973 26.6886852 -0.05255666 31.91186905 -0.03670931 C37.37615547 -0.02405661 42.84039944 -0.03578867 48.3046875 -0.04364014 C57.4812784 -0.05273852 66.65766815 -0.04074376 75.83422852 -0.01693726 C86.44590087 0.01027428 97.05709291 0.00146026 107.66875362 -0.02606928 C116.77717928 -0.0487539 125.88546029 -0.05196357 134.99390507 -0.03887594 C140.43509355 -0.0310779 145.87605622 -0.03004963 151.31723022 -0.04655838 C156.43261592 -0.06099435 161.54738195 -0.05099712 166.66270065 -0.0220871 C168.54083603 -0.01547165 170.4190235 -0.01738178 172.29713821 -0.02840042 C174.85976784 -0.0420497 177.42040762 -0.0249493 179.98291016 0 C181.09988675 -0.01673041 181.09988675 -0.01673041 182.23942852 -0.03379881 C185.87245615 0.03489159 187.90096842 0.57537657 190.95272732 2.58348179 C193.78539524 6.82323672 193.68586062 10.0957611 193.61964417 15.09281921 C193.62673855 16.04982033 193.63383294 17.00682144 193.64114231 17.99282259 C193.65875568 21.20213506 193.64059993 24.41024183 193.62255859 27.61953735 C193.62769607 29.91917981 193.63497605 32.21881834 193.64424133 34.51844788 C193.66278402 40.76630279 193.64979869 47.01373197 193.63015103 53.26156926 C193.61378909 59.79401871 193.62257392 66.32644068 193.62767029 72.85890198 C193.63311211 83.82865952 193.61640961 94.79825625 193.58837891 105.76797485 C193.55953487 117.05613279 193.55246111 128.34404798 193.56787109 139.63223267 C193.586415 153.23471732 193.58470097 166.83702648 193.56565666 180.43951225 C193.55877486 185.63603142 193.5598302 190.83246041 193.56720161 196.02897835 C193.5748483 202.14479464 193.56279084 208.26026019 193.53535271 214.37601662 C193.52845116 216.62384754 193.52838973 218.87171111 193.53556824 221.11954117 C193.54422156 224.18142252 193.52837629 227.24221115 193.50611877 230.30400085 C193.51435954 231.19942079 193.52260031 232.09484073 193.5310908 233.0173946 C193.45010086 239.0287308 193.45010086 239.0287308 191.0842886 242.15560055 C187.18536948 244.91154834 184.05015887 244.77825367 179.41287231 244.76863098 C178.62177657 244.77089654 177.83068083 244.77316209 177.01561248 244.7754963 C174.35015608 244.78185429 171.68475028 244.78100579 169.01928711 244.78018188 C167.11417576 244.78317227 165.20906502 244.78657451 163.30395508 244.7903595 C158.11801668 244.79921628 152.93209477 244.80153832 147.74614954 244.80217528 C143.42195328 244.8031231 139.0977609 244.80679994 134.77356613 244.81034738 C124.57389562 244.81849841 114.37423394 244.82093103 104.17456055 244.82022095 C93.64203067 244.81962006 83.10955199 244.83017257 72.57703507 244.84596461 C63.54430815 244.85902689 54.51159799 244.86440539 45.47886169 244.86376554 C40.07964078 244.86351015 34.68046534 244.8663836 29.28125381 244.87694359 C24.20386688 244.88660245 19.12656909 244.88671899 14.04917908 244.87942696 C12.18351487 244.87837834 10.31784517 244.88076036 8.4521904 244.88678741 C5.9093561 244.89447126 3.36683243 244.88988657 0.82400513 244.88215637 C-0.28873742 244.88987172 -0.28873742 244.88987172 -1.42395961 244.89774293 C-5.09059021 244.87303692 -7.97230227 244.81082513 -11.00854492 242.63491821 C-13.03262097 239.59880414 -13.2592195 239.02722363 -13.26860714 235.62527657 C-13.27920553 234.39827024 -13.27920553 234.39827024 -13.29001802 233.14647591 C-13.28760294 232.24814313 -13.28518785 231.34981035 -13.28269958 230.42425537 C-13.28793626 229.46966867 -13.29317294 228.51508198 -13.29856831 227.53156841 C-13.31362315 224.31874341 -13.31427466 221.1060769 -13.31494141 217.89321899 C-13.32255917 215.59549692 -13.330986 213.29777741 -13.34016418 211.00006104 C-13.36215308 204.74803135 -13.37091392 198.49605059 -13.37599063 192.24398661 C-13.37962884 188.34078163 -13.38586607 184.43758957 -13.39299202 180.5343895 C-13.41245219 169.72897828 -13.42896253 158.92358024 -13.43186855 148.11815071 C-13.43205612 147.42659285 -13.43224369 146.73503499 -13.43243695 146.02252083 C-13.4328032 144.62054817 -13.4331669 143.21857551 -13.43352806 141.81660284 C-13.43371087 141.1206557 -13.43389368 140.42470856 -13.43408203 139.70767212 C-13.43426258 139.01087632 -13.43444313 138.31408052 -13.43462915 137.5961697 C-13.43817168 126.30263097 -13.46519873 115.00928281 -13.50257992 103.71581019 C-13.5406455 92.12288046 -13.55958463 80.53005447 -13.56032807 68.93706119 C-13.56112255 62.42717948 -13.56994019 55.91754357 -13.59832573 49.40771866 C-13.62442039 43.28617683 -13.62675947 37.16508611 -13.61067009 31.04351425 C-13.60884878 28.79447194 -13.61560733 26.54540421 -13.6314888 24.29641724 C-13.65182386 21.23025458 -13.64147095 18.16568899 -13.62327576 15.09954834 C-13.63647572 14.20567701 -13.64967569 13.31180567 -13.66327566 12.39084733 C-13.60625435 8.19542539 -13.35101622 6.14778945 -10.9706583 2.58306122 C-7.25824889 0.14145838 -4.30366449 -0.06446159 0 0 Z M15.99145508 38.63491821 C15.39570584 40.76903674 15.39570584 40.76903674 15.47387695 43.06460571 C15.46126831 43.93230591 15.44865967 44.8000061 15.43566895 45.69400024 C15.44376587 46.62325317 15.45186279 47.5525061 15.46020508 48.50991821 C15.45637817 49.47139771 15.45255127 50.4328772 15.4486084 51.42349243 C15.44588906 53.45426481 15.45325179 55.48507221 15.4699707 57.51577759 C15.49137983 60.62399392 15.47016961 63.72989877 15.44458008 66.83804321 C15.44722335 68.81200665 15.45234832 70.78596864 15.46020508 72.75991821 C15.45210815 73.68917114 15.44401123 74.61842407 15.43566895 75.57583618 C15.44827759 76.44353638 15.46088623 77.31123657 15.47387695 78.20523071 C15.47705933 78.96593872 15.4802417 79.72664673 15.48352051 80.51040649 C16.20970046 83.54776191 17.58905043 84.67595136 19.99145508 86.63491821 C22.71445157 87.23347281 22.71445157 87.23347281 25.76049805 87.14285278 C26.93819763 87.15413208 28.11589722 87.16541138 29.32928467 87.17703247 C30.61772278 87.16893555 31.90616089 87.16083862 33.23364258 87.15249634 C34.60704287 87.15791769 35.98043734 87.16504043 37.3538208 87.17373657 C41.08115141 87.19197176 44.80803915 87.18490191 48.5353775 87.17222023 C52.43595066 87.16209344 56.3364859 87.17148501 60.23706055 87.17776489 C66.78742278 87.18504226 73.33760461 87.17545136 79.88793945 87.15640259 C87.46116276 87.13463353 95.03395533 87.14168485 102.6071682 87.16370821 C109.10920588 87.18185977 115.61111388 87.18442177 122.11316872 87.17395353 C125.99663987 87.1677172 129.87990855 87.16688664 133.7633667 87.18009949 C137.41444818 87.19165399 141.06497431 87.18364041 144.71599579 87.16052246 C146.69519792 87.15270977 148.67444702 87.16459473 150.65362549 87.17703247 C152.42017487 87.16011353 152.42017487 87.16011353 154.22241211 87.14285278 C155.24593781 87.14134468 156.2694635 87.13983658 157.32400513 87.13828278 C160.69546834 86.50206649 161.88295016 85.2857655 163.99145508 82.63491821 C164.58720432 80.50079968 164.58720432 80.50079968 164.5090332 78.20523071 C164.52794617 76.90368042 164.52794617 76.90368042 164.54724121 75.57583618 C164.53914429 74.64658325 164.53104736 73.71733032 164.52270508 72.75991821 C164.52653198 71.79843872 164.53035889 70.83695923 164.53430176 69.84634399 C164.5370211 67.81557161 164.52965837 65.78476422 164.51293945 63.75405884 C164.49153032 60.64584251 164.51274054 57.53993766 164.53833008 54.43179321 C164.53568681 52.45782978 164.53056184 50.48386778 164.52270508 48.50991821 C164.530802 47.58066528 164.53889893 46.65141235 164.54724121 45.69400024 C164.53463257 44.82630005 164.52202393 43.95859985 164.5090332 43.06460571 C164.50585083 42.30389771 164.50266846 41.5431897 164.49938965 40.75942993 C163.7732097 37.72207451 162.39385973 36.59388507 159.99145508 34.63491821 C157.26845859 34.03636361 157.26845859 34.03636361 154.22241211 34.12698364 C153.04471252 34.11570435 151.86701294 34.10442505 150.65362549 34.09280396 C149.36518738 34.10090088 148.07674927 34.1089978 146.74926758 34.11734009 C145.37586729 34.11191874 144.00247281 34.104796 142.62908936 34.09609985 C138.90175875 34.07786466 135.174871 34.08493452 131.44753265 34.0976162 C127.54695949 34.10774299 123.64642426 34.09835142 119.74584961 34.09207153 C113.19548738 34.08479417 106.64530554 34.09438507 100.0949707 34.11343384 C92.5217474 34.13520289 84.94895483 34.12815158 77.37574196 34.10612822 C70.87370428 34.08797666 64.37179627 34.08541465 57.86974144 34.09588289 C53.98627029 34.10211922 50.1030016 34.10294979 46.21954346 34.08973694 C42.56846198 34.07818244 38.91793585 34.08619601 35.26691437 34.10931396 C33.28771224 34.11712665 31.30846314 34.10524169 29.32928467 34.09280396 C27.56273529 34.1097229 27.56273529 34.1097229 25.76049805 34.12698364 C24.73697235 34.12849174 23.71344666 34.12999985 22.65890503 34.13155365 C19.28744182 34.76776994 18.09995999 35.98407093 15.99145508 38.63491821 Z M15.99145508 131.63491821 C15.97083008 135.57429321 15.95020508 139.51366821 15.92895508 143.57241821 C15.91985107 144.81628296 15.91074707 146.06014771 15.90136719 147.34170532 C15.89886963 148.31373901 15.89637207 149.28577271 15.89379883 150.28726196 C15.88856201 151.2874939 15.8833252 152.28772583 15.87792969 153.31826782 C15.72964413 155.59699049 15.72964413 155.59699049 16.99145508 156.63491821 C18.68704234 156.73423975 20.38671255 156.76571828 22.08520508 156.76773071 C23.11516602 156.76901978 24.14512695 156.77030884 25.20629883 156.77163696 C26.29040039 156.76776978 27.37450195 156.76390259 28.49145508 156.75991821 C30.11760742 156.76571899 30.11760742 156.76571899 31.77661133 156.77163696 C32.80657227 156.7703479 33.8365332 156.76905884 34.89770508 156.76773071 C35.84967773 156.76660278 36.80165039 156.76547485 37.7824707 156.76431274 C39.96597646 156.88191278 39.96597646 156.88191278 40.99145508 155.63491821 C41.07871731 153.85420575 41.09844549 152.07008681 41.08911133 150.28726196 C41.08661377 149.31522827 41.08411621 148.34319458 41.08154297 147.34170532 C41.07243896 146.09784058 41.06333496 144.85397583 41.05395508 143.57241821 C41.03333008 139.63304321 41.01270508 135.69366821 40.99145508 131.63491821 C32.74145508 131.63491821 24.49145508 131.63491821 15.99145508 131.63491821 Z M76.99145508 132.63491821 C76.89213354 134.33050547 76.86065501 136.03017569 76.85864258 137.72866821 C76.85735352 138.75862915 76.85606445 139.78859009 76.85473633 140.84976196 C76.85860352 141.93386353 76.8624707 143.01796509 76.86645508 144.13491821 C76.86258789 145.21901978 76.8587207 146.30312134 76.85473633 147.42007446 C76.85602539 148.4500354 76.85731445 149.47999634 76.85864258 150.54116821 C76.85977051 151.49314087 76.86089844 152.44511353 76.86206055 153.42593384 C76.74446051 155.60943959 76.74446051 155.60943959 77.99145508 156.63491821 C79.76004701 156.73438274 81.53256959 156.76572039 83.30395508 156.76773071 C84.3790332 156.76901978 85.45411133 156.77030884 86.56176758 156.77163696 C87.69356445 156.76776978 88.82536133 156.76390259 89.99145508 156.75991821 C91.12325195 156.7637854 92.25504883 156.76765259 93.42114258 156.77163696 C94.4962207 156.7703479 95.57129883 156.76905884 96.67895508 156.76773071 C97.67282227 156.76660278 98.66668945 156.76547485 99.69067383 156.76431274 C101.95520734 156.89326151 101.95520734 156.89326151 102.99145508 155.63491821 C103.09077661 153.93933096 103.12225515 152.23966074 103.12426758 150.54116821 C103.12555664 149.51120728 103.1268457 148.48124634 103.12817383 147.42007446 C103.12237305 145.79392212 103.12237305 145.79392212 103.11645508 144.13491821 C103.12032227 143.05081665 103.12418945 141.96671509 103.12817383 140.84976196 C103.12624023 139.30482056 103.12624023 139.30482056 103.12426758 137.72866821 C103.12313965 136.77669556 103.12201172 135.8247229 103.12084961 134.84390259 C103.23844964 132.66039683 103.23844964 132.66039683 101.99145508 131.63491821 C100.22286315 131.53545368 98.45034057 131.50411604 96.67895508 131.50210571 C95.60387695 131.50081665 94.52879883 131.49952759 93.42114258 131.49819946 C92.2893457 131.50206665 91.15754883 131.50593384 89.99145508 131.50991821 C88.8596582 131.50605103 87.72786133 131.50218384 86.56176758 131.49819946 C85.48668945 131.49948853 84.41161133 131.50077759 83.30395508 131.50210571 C82.31008789 131.50323364 81.3162207 131.50436157 80.29223633 131.50552368 C78.02770282 131.37657491 78.02770282 131.37657491 76.99145508 132.63491821 Z M138.99145508 131.63491821 C138.96890433 142.43950279 138.95054015 153.24407185 138.93964291 164.04867458 C138.93441401 169.06514291 138.92731625 174.08159436 138.91601562 179.09805298 C138.90518697 183.93501515 138.89917829 188.77196105 138.89657784 193.6089344 C138.89472354 195.45860106 138.89110286 197.30826679 138.88572502 199.15792656 C138.87851488 201.73938835 138.87746412 204.32078203 138.87792969 206.9022522 C138.87433441 207.67476822 138.87073914 208.44728424 138.86703491 209.24320984 C138.55434445 212.73023512 138.55434445 212.73023512 139.99145508 215.63491821 C141.68704234 215.73423975 143.38671255 215.76571828 145.08520508 215.76773071 C146.11516602 215.76901978 147.14512695 215.77030884 148.20629883 215.77163696 C149.29040039 215.76776978 150.37450195 215.76390259 151.49145508 215.75991821 C153.11760742 215.76571899 153.11760742 215.76571899 154.77661133 215.77163696 C155.80657227 215.7703479 156.8365332 215.76905884 157.89770508 215.76773071 C158.84967773 215.76660278 159.80165039 215.76547485 160.7824707 215.76431274 C162.96597646 215.88191278 162.96597646 215.88191278 163.99145508 214.63491821 C164.08653329 212.04852783 164.11701883 209.48893261 164.10498047 206.9022522 C164.1051265 206.09255981 164.10527252 205.28286743 164.10542297 204.44863892 C164.10472362 201.75940313 164.09693018 199.07023572 164.08911133 196.38101196 C164.08724723 194.52156105 164.08582329 192.66210966 164.08482361 190.80265808 C164.08099779 185.89862726 164.07116696 180.99462585 164.06011963 176.09060669 C164.04990689 171.09040729 164.04532628 166.09020315 164.0402832 161.08999634 C164.02954474 151.27162193 164.01194743 141.45327712 163.99145508 131.63491821 C155.74145508 131.63491821 147.49145508 131.63491821 138.99145508 131.63491821 Z M15.99145508 191.63491821 C15.89213354 193.33050547 15.86065501 195.03017569 15.85864258 196.72866821 C15.85735352 197.75862915 15.85606445 198.78859009 15.85473633 199.84976196 C15.85860352 200.93386353 15.8624707 202.01796509 15.86645508 203.13491821 C15.86258789 204.21901978 15.8587207 205.30312134 15.85473633 206.42007446 C15.85602539 207.4500354 15.85731445 208.47999634 15.85864258 209.54116821 C15.85977051 210.49314087 15.86089844 211.44511353 15.86206055 212.42593384 C15.74446051 214.60943959 15.74446051 214.60943959 16.99145508 215.63491821 C18.68704234 215.73423975 20.38671255 215.76571828 22.08520508 215.76773071 C23.11516602 215.76901978 24.14512695 215.77030884 25.20629883 215.77163696 C26.29040039 215.76776978 27.37450195 215.76390259 28.49145508 215.75991821 C30.11760742 215.76571899 30.11760742 215.76571899 31.77661133 215.77163696 C32.80657227 215.7703479 33.8365332 215.76905884 34.89770508 215.76773071 C35.84967773 215.76660278 36.80165039 215.76547485 37.7824707 215.76431274 C39.96597646 215.88191278 39.96597646 215.88191278 40.99145508 214.63491821 C41.07871731 212.85420575 41.09844549 211.07008681 41.08911133 209.28726196 C41.08427734 207.6678772 41.08427734 207.6678772 41.0793457 206.01577759 C41.0709668 204.87946899 41.06258789 203.7431604 41.05395508 202.57241821 C41.04944336 201.43224243 41.04493164 200.29206665 41.0402832 199.11734009 C41.02845255 196.2898147 41.01196917 193.46239181 40.99145508 190.63491821 C37.01230349 190.60604838 33.03317855 190.58816415 29.05395508 190.57241821 C27.91764648 190.56403931 26.78133789 190.5556604 25.6105957 190.54702759 C24.53100586 190.54380493 23.45141602 190.54058228 22.33911133 190.53726196 C21.33887939 190.53202515 20.33864746 190.52678833 19.30810547 190.52139282 C17.0293828 190.37310726 17.0293828 190.37310726 15.99145508 191.63491821 Z M76.99145508 191.63491821 C76.89213354 193.33050547 76.86065501 195.03017569 76.85864258 196.72866821 C76.85735352 197.75862915 76.85606445 198.78859009 76.85473633 199.84976196 C76.85860352 200.93386353 76.8624707 202.01796509 76.86645508 203.13491821 C76.86258789 204.21901978 76.8587207 205.30312134 76.85473633 206.42007446 C76.85602539 207.4500354 76.85731445 208.47999634 76.85864258 209.54116821 C76.85977051 210.49314087 76.86089844 211.44511353 76.86206055 212.42593384 C76.74446051 214.60943959 76.74446051 214.60943959 77.99145508 215.63491821 C79.76004701 215.73438274 81.53256959 215.76572039 83.30395508 215.76773071 C84.3790332 215.76901978 85.45411133 215.77030884 86.56176758 215.77163696 C87.69356445 215.76776978 88.82536133 215.76390259 89.99145508 215.75991821 C91.12325195 215.7637854 92.25504883 215.76765259 93.42114258 215.77163696 C94.4962207 215.7703479 95.57129883 215.76905884 96.67895508 215.76773071 C97.67282227 215.76660278 98.66668945 215.76547485 99.69067383 215.76431274 C101.95520734 215.89326151 101.95520734 215.89326151 102.99145508 214.63491821 C103.09077661 212.93933096 103.12225515 211.23966074 103.12426758 209.54116821 C103.12555664 208.51120728 103.1268457 207.48124634 103.12817383 206.42007446 C103.12237305 204.79392212 103.12237305 204.79392212 103.11645508 203.13491821 C103.12032227 202.05081665 103.12418945 200.96671509 103.12817383 199.84976196 C103.12624023 198.30482056 103.12624023 198.30482056 103.12426758 196.72866821 C103.12313965 195.77669556 103.12201172 194.8247229 103.12084961 193.84390259 C103.23844964 191.66039683 103.23844964 191.66039683 101.99145508 190.63491821 C100.22286315 190.53545368 98.45034057 190.50411604 96.67895508 190.50210571 C95.60387695 190.50081665 94.52879883 190.49952759 93.42114258 190.49819946 C92.2893457 190.50206665 91.15754883 190.50593384 89.99145508 190.50991821 C88.8596582 190.50605103 87.72786133 190.50218384 86.56176758 190.49819946 C85.48668945 190.49948853 84.41161133 190.50077759 83.30395508 190.50210571 C82.31008789 190.50323364 81.3162207 190.50436157 80.29223633 190.50552368 C78.02770282 190.37657491 78.02770282 190.37657491 76.99145508 191.63491821 Z " fill="#183B56" transform="translate(166.008544921875,162.36508178710938)"/>
<path d="M0 0 C0.920728 0.00007553 1.84145599 0.00015106 2.79008484 0.00022888 C3.78079483 0.00539017 4.77150482 0.01055145 5.79223633 0.01586914 C6.80900955 0.01728409 7.82578278 0.01869904 8.87336731 0.02015686 C12.12369721 0.02575832 15.37395846 0.03831107 18.62426758 0.05102539 C20.82674054 0.0560402 23.02921459 0.06060314 25.23168945 0.06469727 C30.63340865 0.07572823 36.03507647 0.09299385 41.43676758 0.11352539 C41.43676758 5.39352539 41.43676758 10.67352539 41.43676758 16.11352539 C27.90676758 16.11352539 14.37676758 16.11352539 0.43676758 16.11352539 C-0.22323242 17.43352539 -0.88323242 18.75352539 -1.56323242 20.11352539 C-2.38451468 21.37114514 -3.23239663 22.61168625 -4.10229492 23.83618164 C-4.59713379 24.53453125 -5.09197266 25.23288086 -5.60180664 25.95239258 C-6.12532715 26.68619141 -6.64884766 27.41999023 -7.18823242 28.17602539 C-7.98704834 29.30959473 -7.98704834 29.30959473 -8.80200195 30.46606445 C-11.2050851 33.86470028 -13.62379633 37.23329662 -16.20385742 40.50024414 C-16.94120117 41.44512695 -17.67854492 42.39000977 -18.43823242 43.36352539 C-19.0956543 44.17305664 -19.75307617 44.98258789 -20.43041992 45.81665039 C-21.87242566 48.10064833 -21.87242566 48.10064833 -20.86010742 50.68774414 C-20.43213867 51.48825195 -20.00416992 52.28875977 -19.56323242 53.11352539 C-15.76127312 61.44859002 -15.00873468 69.68573243 -18.18823242 78.42602539 C-22.02153036 86.76044321 -27.28586892 91.29805498 -35.56323242 95.11352539 C-42.28755891 97.35496755 -50.85018949 97.24613386 -57.43823242 94.55102539 C-66.39603787 89.79688283 -71.39528069 83.6173806 -74.56323242 74.11352539 C-75.43102308 63.04563795 -74.26942627 55.47637012 -67.31323242 46.80102539 C-63.09163459 42.23369326 -58.37890102 40.05208159 -52.56323242 38.11352539 C-50.51134783 38.32222664 -48.45947646 38.53106003 -46.40771484 38.7409668 C-40.6024045 39.18730266 -36.21274961 39.49903256 -31.61010742 35.63305664 C-29.391412 32.70931797 -27.6228548 29.52735484 -25.8527832 26.31811523 C-23.4364031 22.18712085 -20.5245284 18.39974937 -17.68823242 14.55102539 C-16.60696006 13.05011448 -15.52620364 11.5488317 -14.44604492 10.04711914 C-7.09329179 -0.01943368 -7.09329179 -0.01943368 0 0 Z " fill="#183B56" transform="translate(97.563232421875,378.886474609375)"/>
<path d="M0 0 C6.45952852 -0.0742212 12.91880816 -0.12863632 19.37866211 -0.16479492 C21.57564621 -0.17987052 23.77260026 -0.20033426 25.96948242 -0.22631836 C29.12947 -0.26275502 32.28905924 -0.27973884 35.44921875 -0.29296875 C36.91979988 -0.31619453 36.91979988 -0.31619453 38.42008972 -0.33988953 C46.99562568 -0.34200033 46.99562568 -0.34200033 51 3 C52.62792212 4.99764387 54.07059108 6.93367603 55.5 9.0625 C56.36365357 10.31053975 57.22828988 11.55789983 58.09375 12.8046875 C58.55523437 13.47467773 59.01671875 14.14466797 59.4921875 14.83496094 C62.2718042 18.82615927 65.14241059 22.75195731 68 26.6875 C69.10486188 28.21173589 70.20907357 29.73644339 71.3125 31.26171875 C71.78300781 31.91100342 72.25351562 32.56028809 72.73828125 33.22924805 C73.85615217 34.79811759 74.93142985 36.39714477 76 38 C78.72883657 38.11669367 81.28429346 38.08159161 84 37.9375 C94.34455425 37.68514097 101.61295852 39.84881364 109.30859375 47.0625 C115.32969436 53.95964989 116.36489822 61.53189285 116.2734375 70.421875 C115.62793696 78.86871063 111.25410025 85.4267897 105 91 C96.99978905 96.08836946 89.36710777 96.72526134 80 96 C72.87462075 94.17964764 66.59444057 89.86477545 62.4921875 83.75390625 C58.15381419 76.20513669 57.17558916 69.71520027 58 61 C58.85709104 58.25281735 59.88084172 55.74824642 61.125 53.15625 C62.25067787 50.77009538 62.25067787 50.77009538 62 47 C61.06436272 45.1144804 61.06436272 45.1144804 59.69140625 43.3125 C59.19543945 42.61906494 58.69947266 41.92562988 58.18847656 41.21118164 C57.6519043 40.4814917 57.11533203 39.75180176 56.5625 39 C56.02206055 38.24904053 55.48162109 37.49808105 54.92480469 36.72436523 C50.89665376 31.1497133 46.76252426 25.65665805 42.546875 20.22265625 C41 18 41 18 41 16 C27.47 16 13.94 16 0 16 C0 10.72 0 5.44 0 0 Z " fill="#183B56" transform="translate(373,379)"/>
<path d="M0 0 C6.64205217 4.65192418 10.65633845 9.87202864 12.8359375 17.7109375 C13.82621007 27.42942645 13.18069459 36.06177253 7.10546875 43.9609375 C1.65105071 49.88349921 -3.71072527 53.29343713 -11.7890625 54.05078125 C-23.27795532 54.33572403 -29.77279927 52.76164718 -38.17578125 44.91015625 C-41.22247215 41.54024078 -44.1640625 37.42190275 -44.1640625 32.7109375 C-63.6340625 32.7109375 -83.1040625 32.7109375 -103.1640625 32.7109375 C-103.1640625 27.7609375 -103.1640625 22.8109375 -103.1640625 17.7109375 C-74.4540625 17.2159375 -74.4540625 17.2159375 -45.1640625 16.7109375 C-43.1840625 13.0809375 -41.2040625 9.4509375 -39.1640625 5.7109375 C-27.93627097 -4.70324595 -13.73666909 -8.18249242 0 0 Z " fill="#183B56" transform="translate(476.1640625,308.2890625)"/>
<path d="M0 0 C3.1875 3.4375 3.1875 3.4375 9.1875 14.4375 C28.3275 14.7675 47.4675 15.0975 67.1875 15.4375 C67.1875 20.3875 67.1875 25.3375 67.1875 30.4375 C47.7175 30.4375 28.2475 30.4375 8.1875 30.4375 C7.5275 32.7475 6.8675 35.0575 6.1875 37.4375 C1.30276602 44.81046702 -4.51818657 48.67272886 -12.8125 51.4375 C-23.44679961 52.33980421 -31.18878685 51.47561386 -39.8359375 44.8984375 C-45.63841229 39.73252113 -48.23335495 33.73324549 -49.26171875 26.10546875 C-49.73550394 16.55606503 -47.47972018 8.71031027 -41.06640625 1.46484375 C-29.41506857 -9.09661379 -12.54737429 -9.53489897 0 0 Z " fill="#183B56" transform="translate(71.8125,310.5625)"/>
</svg>
