<svg width="65" height="102" viewBox="0 0 65 102" fill="none" xmlns="http://www.w3.org/2000/svg">
<mask id="mask0_1022_484" style="mask-type:alpha" maskUnits="userSpaceOnUse" x="0" y="0" width="65" height="102">
<path d="M55.5688 0H9.24375C6.69375 0 4.51563 0.903125 2.70938 2.70938C0.903125 4.51563 0 6.69375 0 9.24375V92.7563C0 95.3063 0.903125 97.4844 2.70938 99.2907C4.51563 101.097 6.69375 102 9.24375 102H55.5688C58.1188 102 60.2969 101.097 62.1031 99.2907C63.9094 97.4844 64.8125 95.3063 64.8125 92.7563V9.24375C64.8125 6.69375 63.9094 4.51563 62.1031 2.70938C60.2969 0.903125 58.1188 0 55.5688 0ZM52.7 83.5125H12.1125C11.2625 83.5125 10.5719 83.2292 10.0406 82.6625C9.50938 82.0959 9.24375 81.3875 9.24375 80.5375V17.6375C9.24375 16.8583 9.50938 16.1854 10.0406 15.6188C10.5719 15.0521 11.2625 14.7688 12.1125 14.7688H52.7C53.4792 14.7688 54.1521 15.0521 54.7188 15.6188C55.2854 16.1854 55.5688 16.8583 55.5688 17.6375V80.5375C55.5688 81.3875 55.2854 82.0959 54.7188 82.6625C54.1521 83.2292 53.4792 83.5125 52.7 83.5125Z" fill="black"/>
</mask>
<g mask="url(#mask0_1022_484)">
<rect x="-10.3652" y="-7.1745" width="110.009" height="129.141" fill="#163153"/>
</g>
</svg>
