<?xml version="1.0" encoding="UTF-8"?>
<svg version="1.1" xmlns="http://www.w3.org/2000/svg" width="512" height="512">
<path d="M0 0 C1.11822647 -0.00921478 2.23645294 -0.01842957 3.38856506 -0.02792358 C4.65675583 -0.04698761 5.92494659 -0.06605164 7.23156738 -0.08569336 C8.61731578 -0.0851705 10.00306423 -0.08329638 11.3888092 -0.08016968 C12.8098399 -0.08794412 14.23086596 -0.09661357 15.65188599 -0.10614014 C18.63034631 -0.12106374 21.60833253 -0.12048366 24.58680725 -0.10995483 C28.40185429 -0.09836544 32.2149592 -0.13221903 36.02968502 -0.17864418 C38.96461306 -0.2081267 41.89907373 -0.20986172 44.83412361 -0.20362473 C46.24035553 -0.20465088 47.6466137 -0.21512212 49.05270195 -0.23524857 C60.2987377 -0.37646224 60.2987377 -0.37646224 63.94081116 3.11074829 C64.36837708 4.23626099 64.79594299 5.36177368 65.23646545 6.52139282 C65.74983459 7.67478149 66.26320374 8.82817017 66.79212952 10.01651001 C67.28642006 11.28080341 67.77280069 12.54821182 68.25209045 13.81826782 C68.5127832 14.49311218 68.77347595 15.16795654 69.04206848 15.86325073 C69.58656955 17.27710261 70.12756512 18.69230914 70.66517639 20.10879517 C71.49055164 22.28215247 72.32743462 24.45081048 73.16615295 26.61904907 C73.6954727 27.99769677 74.22414211 29.37659437 74.75209045 30.75576782 C75.00202759 31.40471008 75.25196472 32.05365234 75.50947571 32.72225952 C77.23646545 37.28875274 77.23646545 37.28875274 77.23646545 39.52139282 C77.8706842 39.65674438 78.50490295 39.79209595 79.15834045 39.93154907 C96.91553255 44.02747598 115.68518372 50.32379597 130.92396545 60.52139282 C134.67698323 62.78736582 135.95197756 62.93801169 140.23646545 62.52139282 C142.79535572 61.58805036 145.15965201 60.61370607 147.61146545 59.45889282 C148.29901917 59.14814819 148.98657288 58.83740356 149.69496155 58.51724243 C151.88045761 57.52917991 154.05906667 56.52716206 156.23646545 55.52139282 C159.10580877 54.19600528 161.98131355 52.88559729 164.86146545 51.58389282 C165.51163635 51.27765991 166.16180725 50.971427 166.8316803 50.65591431 C170.85114752 48.84125995 173.84858477 48.06674768 178.23646545 48.52139282 C180.59716797 50.09327698 180.59716797 50.09327698 182.88075256 52.32583618 C184.17625282 53.57360085 184.17625282 53.57360085 185.4979248 54.84657288 C186.86703758 56.21508141 186.86703758 56.21508141 188.2638092 57.61123657 C189.22111954 58.55433615 190.17901977 59.49683727 191.13748169 60.43876648 C193.14069526 62.41511486 195.13166683 64.40291196 197.11561584 66.39859009 C199.6535568 68.94831935 202.22605547 71.45967057 204.80995846 73.96269894 C206.79800556 75.89891231 208.76251261 77.85775068 210.72114754 79.82367134 C212.11517776 81.21269009 213.53127808 82.57944531 214.94763184 83.94569397 C220.97810351 90.10952106 220.97810351 90.10952106 221.67462158 93.91578674 C221.28312825 98.78576307 219.38755577 103.15090181 217.2950592 107.53311157 C217.00792557 108.14983231 216.72079193 108.76655304 216.42495728 109.40196228 C215.52020119 111.3436568 214.59917625 113.27687059 213.67396545 115.20889282 C212.74582599 117.15187539 211.82206074 119.09631448 210.91226196 121.04795837 C210.09044051 122.8107685 209.25265078 124.56610848 208.41395569 126.32095337 C207.17489922 129.68873094 206.87951413 131.96707564 207.23646545 135.52139282 C208.48497242 138.02418687 209.76031825 140.28891911 211.23646545 142.64639282 C219.04505787 155.83819325 230.23646545 176.89684577 230.23646545 192.52139282 C231.44689514 192.91326782 232.65732483 193.30514282 233.9044342 193.70889282 C240.1855161 195.80463661 246.36479738 198.15757366 252.54896545 200.52139282 C253.71492249 200.95967407 254.88087952 201.39795532 256.08216858 201.84951782 C257.20171936 202.27748657 258.32127014 202.70545532 259.4747467 203.14639282 C260.48577454 203.53053345 261.49680237 203.91467407 262.53846741 204.31045532 C265.25037993 205.52763803 267.10343194 206.45339476 269.23646545 208.52139282 C269.75785828 211.28492737 269.75785828 211.28492737 269.78578186 214.67349243 C269.80484589 215.9416832 269.82390991 217.20987396 269.84355164 218.51649475 C269.84302878 219.90224315 269.84115465 221.2879916 269.83802795 222.67373657 C269.84580239 224.09476727 269.85447185 225.51579333 269.86399841 226.93681335 C269.87892202 229.91527368 269.87834194 232.8932599 269.86781311 235.87173462 C269.85622371 239.68678165 269.89007731 243.49988657 269.93650246 247.31461239 C269.96598498 250.24954043 269.96772 253.1840011 269.961483 256.11905098 C269.96250916 257.52528289 269.97298039 258.93154106 269.99310684 260.33762932 C270.13432052 271.58366507 270.13432052 271.58366507 266.64710999 275.22573853 C264.95884094 275.8670874 264.95884094 275.8670874 263.23646545 276.52139282 C261.50638245 277.29144653 261.50638245 277.29144653 259.74134827 278.07705688 C258.47705487 278.57134743 257.20964646 279.05772806 255.93959045 279.53701782 C255.26474609 279.79771057 254.58990173 280.05840332 253.89460754 280.32699585 C252.48075567 280.87149692 251.06554913 281.41249249 249.64906311 281.95010376 C247.4757058 282.77547901 245.30704779 283.61236199 243.1388092 284.45108032 C241.76016151 284.98040007 240.38126391 285.50906948 239.00209045 286.03701782 C238.35314819 286.28695496 237.70420593 286.53689209 237.03559875 286.79440308 C232.46910554 288.52139282 232.46910554 288.52139282 230.23646545 288.52139282 C230.10111389 289.15561157 229.96576233 289.78983032 229.8263092 290.44326782 C225.49197659 309.23402719 218.34791832 327.19994452 208.04896545 343.52920532 C206.38246785 347.61532926 207.03861031 350.97894499 208.5216217 355.04483032 C209.10343104 356.33354051 209.69647142 357.61722239 210.29896545 358.89639282 C210.60971008 359.58394653 210.92045471 360.27150024 211.24061584 360.97988892 C212.22867837 363.16538498 213.23069622 365.34399404 214.23646545 367.52139282 C215.561853 370.39073614 216.87226099 373.26624092 218.17396545 376.14639282 C218.48019836 376.79656372 218.78643127 377.44673462 219.10194397 378.11660767 C220.91659833 382.13607489 221.6911106 385.13351214 221.23646545 389.52139282 C219.6645813 391.88209534 219.6645813 391.88209534 217.43202209 394.16567993 C216.60017899 395.02934677 215.76833588 395.89301361 214.9112854 396.78285217 C213.54277687 398.15196495 213.54277687 398.15196495 212.1466217 399.54873657 C211.20352213 400.50604691 210.261021 401.46394714 209.3190918 402.42240906 C207.34274341 404.42562263 205.35494631 406.4165942 203.35926819 408.40054321 C200.80953893 410.93848417 198.2981877 413.51098284 195.79515934 416.09488583 C193.85894597 418.08293293 191.90010759 420.04743998 189.93418694 422.00607491 C188.54516819 423.40010513 187.17841296 424.81620545 185.81216431 426.2325592 C179.64833722 432.26303088 179.64833722 432.26303088 175.84207153 432.95954895 C170.97209521 432.56805562 166.60695647 430.67248314 162.2247467 428.57998657 C161.60802597 428.29285294 160.99130524 428.0057193 160.355896 427.70988464 C158.41420148 426.80512856 156.48098769 425.88410362 154.54896545 424.95889282 C152.60598289 424.03075336 150.6615438 423.10698811 148.7098999 422.19718933 C146.94708977 421.37536788 145.1917498 420.53757815 143.43690491 419.69888306 C140.06912733 418.45982659 137.79078264 418.1644415 134.23646545 418.52139282 C131.73367141 419.76989978 129.46893917 421.04524561 127.11146545 422.52139282 C113.91966503 430.32998524 92.86101251 441.52139282 77.23646545 441.52139282 C76.84459045 442.73182251 76.45271545 443.9422522 76.04896545 445.18936157 C73.95322166 451.47044346 71.60028462 457.64972475 69.23646545 463.83389282 C68.7981842 464.99984985 68.35990295 466.16580688 67.90834045 467.36709595 C67.26638733 469.04642212 67.26638733 469.04642212 66.61146545 470.75967407 C66.03525452 472.27621582 66.03525452 472.27621582 65.44740295 473.82339478 C64.23022025 476.5353073 63.30446352 478.38835931 61.23646545 480.52139282 C58.47293091 481.04278564 58.47293091 481.04278564 55.08436584 481.07070923 C53.81617508 481.08977325 52.54798431 481.10883728 51.24136353 481.128479 C49.85561513 481.12795614 48.46986667 481.12608202 47.0841217 481.12295532 C45.66309101 481.13072976 44.24206495 481.13939922 42.82104492 481.14892578 C39.8425846 481.16384938 36.86459838 481.16326931 33.88612366 481.15274048 C30.07107662 481.14115108 26.25797171 481.17500467 22.44324589 481.22142982 C19.50831785 481.25091235 16.57385718 481.25264737 13.6388073 481.24641037 C12.23257538 481.24743653 10.82631721 481.25790776 9.42022896 481.27803421 C-1.82580679 481.41924789 -1.82580679 481.41924789 -5.46788025 477.93203735 C-5.89544617 476.80652466 -6.32301208 475.68101196 -6.76353455 474.52139282 C-7.53358826 472.79130981 -7.53358826 472.79130981 -8.31919861 471.02627563 C-8.81348915 469.76198224 -9.29986978 468.49457383 -9.77915955 467.22451782 C-10.03985229 466.54967346 -10.30054504 465.8748291 -10.56913757 465.17953491 C-11.11363864 463.76568304 -11.65463421 462.3504765 -12.19224548 460.93399048 C-13.01762074 458.76063317 -13.85450371 456.59197516 -14.69322205 454.42373657 C-15.22254179 453.04508888 -15.7512112 451.66619127 -16.27915955 450.28701782 C-16.52909668 449.63807556 -16.77903381 448.9891333 -17.0365448 448.32052612 C-18.76353455 443.7540329 -18.76353455 443.7540329 -18.76353455 441.52139282 C-19.3977533 441.38604126 -20.03197205 441.2506897 -20.68540955 441.11123657 C-39.47616891 436.77690396 -57.44208625 429.63284569 -73.77134705 419.33389282 C-77.85747098 417.66739522 -81.22108671 418.32353768 -85.28697205 419.80654907 C-86.57568223 420.38835841 -87.85936411 420.98139879 -89.13853455 421.58389282 C-89.82608826 421.89463745 -90.51364197 422.20538208 -91.22203064 422.52554321 C-93.4075267 423.51360573 -95.58613576 424.51562359 -97.76353455 425.52139282 C-100.63287786 426.84678037 -103.50838264 428.15718836 -106.38853455 429.45889282 C-107.03870544 429.76512573 -107.68887634 430.07135864 -108.35874939 430.38687134 C-112.37821661 432.20152569 -115.37565386 432.97603797 -119.76353455 432.52139282 C-122.12423706 430.94950867 -122.12423706 430.94950867 -124.40782166 428.71694946 C-125.27148849 427.88510635 -126.13515533 427.05326324 -127.0249939 426.19621277 C-128.39410667 424.82770424 -128.39410667 424.82770424 -129.7908783 423.43154907 C-130.74818863 422.4884495 -131.70608886 421.54594837 -132.66455078 420.60401917 C-134.66776435 418.62767078 -136.65873592 416.63987368 -138.64268494 414.64419556 C-141.18062589 412.09446629 -143.75312456 409.58311507 -146.33702755 407.08008671 C-148.32507465 405.14387334 -150.2895817 403.18503496 -152.24821663 401.2191143 C-153.64224685 399.83009556 -155.05834718 398.46334033 -156.47470093 397.09709167 C-162.5051726 390.93326459 -162.5051726 390.93326459 -163.20169067 387.1269989 C-162.81019734 382.25702258 -160.91462486 377.89188383 -158.8221283 373.50967407 C-158.53499466 372.89295334 -158.24786102 372.2762326 -157.95202637 371.64082336 C-157.04727028 369.69912885 -156.12624534 367.76591506 -155.20103455 365.83389282 C-154.27289508 363.89091026 -153.34912983 361.94647116 -152.43933105 359.99482727 C-151.6175096 358.23201714 -150.77971987 356.47667717 -149.94102478 354.72183228 C-148.70196831 351.3540547 -148.40658323 349.07571 -148.76353455 345.52139282 C-150.01204151 343.01859878 -151.28738734 340.75386654 -152.76353455 338.39639282 C-160.57212696 325.20459239 -171.76353455 304.14593988 -171.76353455 288.52139282 C-172.97396423 288.12951782 -174.18439392 287.73764282 -175.4315033 287.33389282 C-181.71258519 285.23814903 -187.89186647 282.88521199 -194.07603455 280.52139282 C-195.24199158 280.08311157 -196.40794861 279.64483032 -197.60923767 279.19326782 C-198.72878845 278.76529907 -199.84833923 278.33733032 -201.0018158 277.89639282 C-202.01284363 277.5122522 -203.02387146 277.12811157 -204.0655365 276.73233032 C-206.77744902 275.51514761 -208.63050104 274.58939089 -210.76353455 272.52139282 C-211.28492737 269.75785828 -211.28492737 269.75785828 -211.31285095 266.36929321 C-211.33191498 265.10110245 -211.350979 263.83291168 -211.37062073 262.52629089 C-211.37009787 261.1405425 -211.36822375 259.75479404 -211.36509705 258.36904907 C-211.37287149 256.94801838 -211.38154094 255.52699232 -211.3910675 254.10597229 C-211.40599111 251.12751197 -211.40541103 248.14952575 -211.3948822 245.17105103 C-211.3832928 241.35600399 -211.4171464 237.54289907 -211.46357155 233.72817326 C-211.49305407 230.79324522 -211.49478909 227.85878455 -211.48855209 224.92373466 C-211.48957825 223.51750275 -211.50004949 222.11124458 -211.52017593 220.70515633 C-211.66138961 209.45912058 -211.66138961 209.45912058 -208.17417908 205.81704712 C-207.04866638 205.3894812 -205.92315369 204.96191528 -204.76353455 204.52139282 C-203.61014587 204.00802368 -202.4567572 203.49465454 -201.26841736 202.96572876 C-200.00412396 202.47143821 -198.73671555 201.98505759 -197.46665955 201.50576782 C-196.45439301 201.1147287 -196.45439301 201.1147287 -195.42167664 200.71578979 C-194.00782476 200.17128873 -192.59261823 199.63029316 -191.1761322 199.09268188 C-189.00277489 198.26730663 -186.83411689 197.43042366 -184.6658783 196.59170532 C-183.2872306 196.06238558 -181.908333 195.53371616 -180.52915955 195.00576782 C-179.88021729 194.75583069 -179.23127502 194.50589355 -178.56266785 194.24838257 C-173.99617463 192.52139282 -173.99617463 192.52139282 -171.76353455 192.52139282 C-171.62818298 191.88717407 -171.49283142 191.25295532 -171.3533783 190.59951782 C-167.25745139 172.84232573 -160.9611314 154.07267455 -150.76353455 138.83389282 C-148.49756155 135.08087505 -148.34691568 133.80588072 -148.76353455 129.52139282 C-149.696877 126.96250256 -150.6712213 124.59820627 -151.82603455 122.14639282 C-152.13677917 121.45883911 -152.4475238 120.7712854 -152.76768494 120.06289673 C-153.75574746 117.87740067 -154.75776531 115.69879161 -155.76353455 113.52139282 C-157.08892209 110.6520495 -158.39933008 107.77654473 -159.70103455 104.89639282 C-160.16038391 103.92113647 -160.16038391 103.92113647 -160.62901306 102.92617798 C-162.44366742 98.90671076 -163.21817969 95.90927351 -162.76353455 91.52139282 C-161.19165039 89.16069031 -161.19165039 89.16069031 -158.95909119 86.87710571 C-158.12724808 86.01343887 -157.29540497 85.14977203 -156.43835449 84.25993347 C-155.52601547 83.34719162 -154.61367645 82.43444977 -153.6736908 81.49404907 C-152.73059122 80.53673874 -151.7880901 79.5788385 -150.84616089 78.62037659 C-148.86981251 76.61716302 -146.88201541 74.62619145 -144.88633728 72.64224243 C-142.33660802 70.10430148 -139.82525679 67.53180281 -137.32222843 64.94789982 C-135.38601506 62.95985271 -133.42717668 60.99534567 -131.46125603 59.03671074 C-130.07223728 57.64268051 -128.70548206 56.22658019 -127.3392334 54.81022644 C-121.17540631 48.77975477 -121.17540631 48.77975477 -117.36914062 48.08323669 C-112.4991643 48.47473003 -108.13402556 50.37030251 -103.7518158 52.46279907 C-103.13509506 52.74993271 -102.51837433 53.03706635 -101.88296509 53.332901 C-99.94127057 54.23765709 -98.00805678 55.15868202 -96.07603455 56.08389282 C-94.13305198 57.01203229 -92.18861289 57.93579753 -90.23696899 58.84559631 C-88.47415887 59.66741777 -86.71881889 60.50520749 -84.963974 61.34390259 C-81.60509255 62.57968604 -79.308753 62.8631796 -75.76353455 62.52139282 C-72.68337686 61.06928698 -72.68337686 61.06928698 -69.57603455 59.02139282 C-56.04252706 50.86223533 -34.75463384 39.52139282 -18.76353455 39.52139282 C-18.37165955 38.31096313 -17.97978455 37.10053345 -17.57603455 35.85342407 C-15.48029075 29.57234218 -13.12735371 23.3930609 -10.76353455 17.20889282 C-10.3252533 16.04293579 -9.88697205 14.87697876 -9.43540955 13.6756897 C-9.0074408 12.55613892 -8.57947205 11.43658813 -8.13853455 10.28311157 C-7.75439392 9.27208374 -7.3702533 8.26105591 -6.97447205 7.21939087 C-4.07967229 0.76970699 -4.07967229 0.76970699 0 0 Z M-30.76353455 105.52139282 C-31.73516541 105.9600769 -31.73516541 105.9600769 -32.72642517 106.40762329 C-48.19956891 113.46771231 -61.09660712 123.27358175 -73.76353455 134.52139282 C-74.41708923 135.10147095 -75.07064392 135.68154907 -75.7440033 136.27920532 C-94.22903669 153.75436753 -107.05552911 178.206134 -113.76353455 202.52139282 C-113.97526306 203.27887817 -114.18699158 204.03636353 -114.40513611 204.81680298 C-120.55616523 227.95383568 -120.19702015 255.5047902 -113.76353455 278.52139282 C-113.54922791 279.29821411 -113.33492126 280.0750354 -113.11412048 280.87539673 C-109.93029413 292.0419609 -105.43348281 302.40167518 -99.76353455 312.52139282 C-99.39244568 313.18380981 -99.02135681 313.84622681 -98.63902283 314.52871704 C-89.61321585 330.34394934 -77.54543669 344.75190942 -63.13853455 355.95889282 C-62.53444763 356.42915894 -61.93036072 356.89942505 -61.30796814 357.38394165 C-29.0792997 382.07017726 10.24691949 391.95844522 50.34046936 386.94424438 C63.89230768 384.96550691 76.78773177 381.2203261 89.23646545 375.52139282 C89.88421936 375.22893677 90.53197327 374.93648071 91.19935608 374.63516235 C106.67249982 367.57507334 119.56953803 357.7692039 132.23646545 346.52139282 C132.89002014 345.9413147 133.54357483 345.36123657 134.2169342 344.76358032 C152.7019676 327.28841811 165.52846001 302.83665164 172.23646545 278.52139282 C172.44819397 277.76390747 172.65992249 277.00642212 172.87806702 276.22598267 C179.02909614 253.08894997 178.66995106 225.53799544 172.23646545 202.52139282 C172.02215881 201.74457153 171.80785217 200.96775024 171.58705139 200.16738892 C168.40322504 189.00082474 163.90641371 178.64111046 158.23646545 168.52139282 C157.67983215 167.52776733 157.67983215 167.52776733 157.11195374 166.5140686 C148.08614676 150.69883631 136.0183676 136.29087623 121.61146545 125.08389282 C121.00737854 124.61362671 120.40329163 124.1433606 119.78089905 123.65884399 C77.11268848 90.97621856 18.43853329 82.99706956 -30.76353455 105.52139282 Z " fill="#183B56" transform="translate(226.76353454589844,15.478607177734375)"/>
<path d="M0 0 C1.65497356 3.30994713 1.10084335 6.99123 1.0625 10.625 C1.05798828 11.42679688 1.05347656 12.22859375 1.04882812 13.0546875 C1.03703168 15.03649006 1.01909605 17.01825433 1 19 C2.96066406 18.94972656 2.96066406 18.94972656 4.9609375 18.8984375 C9.6945148 18.90398683 14.02432307 19.55882112 18.625 20.625 C19.79059448 20.89340698 19.79059448 20.89340698 20.97973633 21.16723633 C40.74225764 25.95099723 56.84036287 35.59450099 71 50 C71.76054687 50.76183594 72.52109375 51.52367187 73.3046875 52.30859375 C88.78128094 68.71860041 98.1227236 92.53409568 99 115 C99.03996094 115.83144531 99.07992187 116.66289062 99.12109375 117.51953125 C99.83921766 146.37121526 88.2735858 172.14342517 69 193 C51.0996032 211.43804123 25.26102689 221.64692088 -0.17651367 222.28564453 C-28.94834322 222.58589131 -55.31986451 212.37638764 -76.01171875 192.1171875 C-90.54965228 177.24238115 -102.52821619 156.23743346 -103.4375 135.125 C-103.27945555 130.34930897 -102.32470981 127.5871869 -99 124 C-95.32157337 120.59072654 -92.45589922 119.7010986 -87.5625 119.5 C-82.17257903 119.73434439 -79.19694273 120.5739243 -75 124 C-71.76831298 128.94258015 -70.30727951 134.19069687 -68.625 139.8125 C-63.1713483 157.91970852 -52.30402216 171.20520753 -35.953125 180.78515625 C-18.67973126 189.89172523 -0.69241984 190.84724312 18 186 C26.84297416 183.24049033 33.79048597 178.73093325 41 173 C41.63550781 172.54109375 42.27101563 172.0821875 42.92578125 171.609375 C51.87582385 164.77853789 58.18224705 153.37530507 62 143 C62.31839844 142.13761719 62.63679687 141.27523437 62.96484375 140.38671875 C68.19201375 123.35626165 65.63601864 104.58963849 58.25 88.6875 C49.257641 71.91675047 34.94881873 60.18630968 16.8125 54.6484375 C11.59189317 53.17945726 6.31686513 52.06337303 1 51 C1 58.26 1 65.52 1 73 C-0.98 73.99 -0.98 73.99 -3 75 C-11.44348922 68.53413866 -19.83683143 62.00841846 -28.18994141 55.42626953 C-31.33362411 52.94914594 -34.47909163 50.47429602 -37.625 48 C-38.20499756 47.54310791 -38.78499512 47.08621582 -39.38256836 46.61547852 C-41.67751353 44.81030204 -43.92044414 43.04975481 -46.3984375 41.5 C-48 40 -48 40 -48.57421875 37.60546875 C-47.74050196 33.8225497 -45.83555446 32.67853874 -42.8125 30.3125 C-42.27222168 29.88316162 -41.73194336 29.45382324 -41.17529297 29.01147461 C-39.46249149 27.65766566 -37.73340085 26.32729538 -36 25 C-34.93323753 24.17233392 -33.86682274 23.3442195 -32.80078125 22.515625 C-30.66828373 20.8646062 -28.52809548 19.2242077 -26.3828125 17.58984375 C-22.7289201 14.8015733 -19.11220218 11.96697422 -15.5 9.125 C-14.63689209 8.44642944 -14.63689209 8.44642944 -13.75634766 7.75415039 C-11.2394919 5.77281945 -8.7568084 3.78756498 -6.34375 1.6796875 C-4 0 -4 0 0 0 Z " fill="#183B56" transform="translate(259,139)"/>
</svg>
