<?xml version="1.0" standalone="no"?>
<!DOCTYPE svg PUBLIC "-//W3C//DTD SVG 20010904//EN"
 "http://www.w3.org/TR/2001/REC-SVG-20010904/DTD/svg10.dtd">
<svg version="1.0" xmlns="http://www.w3.org/2000/svg"
 width="512.000000pt" height="512.000000pt" viewBox="0 0 512.000000 512.000000"
 preserveAspectRatio="xMidYMid meet">

<g transform="translate(0.000000,512.000000) scale(0.100000,-0.100000)"
fill="#183B56" stroke="none">
<path d="M345 5096 c-84 -21 -147 -57 -211 -121 -65 -65 -105 -136 -123 -223
-7 -34 -11 -196 -11 -447 l0 -395 2560 0 2560 0 0 395 c0 256 -4 413 -11 447
-37 172 -176 311 -347 347 -81 17 -4349 14 -4417 -3z m485 -606 c45 -23 80
-80 80 -130 0 -76 -74 -150 -151 -150 -46 0 -108 39 -130 82 -37 72 -14 151
57 194 48 29 92 30 144 4z m600 0 c45 -23 80 -80 80 -130 0 -76 -74 -150 -151
-150 -46 0 -108 39 -130 82 -37 72 -14 151 57 194 48 29 92 30 144 4z m600 0
c45 -23 80 -80 80 -130 0 -76 -74 -150 -151 -150 -46 0 -108 39 -130 82 -37
72 -14 151 57 194 48 29 92 30 144 4z m2400 0 c45 -23 80 -80 80 -130 0 -50
-35 -107 -80 -130 -38 -19 -58 -20 -521 -20 -480 0 -481 0 -521 22 -101 57
-102 194 -2 254 l39 24 483 0 c464 0 484 -1 522 -20z"/>
<path d="M0 2015 c0 -1150 3 -1609 11 -1647 37 -172 175 -310 347 -347 75 -16
4328 -16 4404 0 170 36 311 178 347 347 8 38 11 518 11 1647 l0 1595 -2560 0
-2560 0 0 -1595z m3080 1125 c45 -23 80 -80 80 -130 0 -27 -844 -2018 -916
-2162 -27 -53 -80 -88 -135 -88 -73 0 -149 76 -149 150 0 19 176 442 446 1073
245 573 456 1062 468 1087 40 81 127 110 206 70z m-1350 -450 c44 -23 80 -80
80 -129 0 -68 -23 -92 -342 -346 -169 -136 -308 -251 -308 -255 0 -4 139 -119
308 -255 319 -254 342 -278 342 -346 0 -106 -124 -182 -216 -131 -17 9 -205
156 -417 326 -398 318 -417 337 -417 406 0 69 19 88 417 406 212 170 400 317
417 326 42 23 88 22 136 -2z m1796 2 c17 -9 205 -156 417 -326 398 -318 417
-337 417 -406 0 -69 -19 -88 -417 -406 -212 -170 -400 -317 -417 -326 -92 -51
-216 25 -216 131 0 68 23 92 342 346 169 136 308 251 308 255 0 4 -139 119
-308 255 -223 178 -314 256 -325 281 -61 127 78 263 199 196z"/>
</g>
</svg>
