<?xml version="1.0" encoding="UTF-8"?>
<svg version="1.1" xmlns="http://www.w3.org/2000/svg" width="512" height="512">
<path d="M0 0 C135.63 0 271.26 0 411 0 C411 199.45454545 411 199.45454545 407.625 203.75 C404.18041831 206.39967822 400.2340346 206.12234041 396.03808594 206.11352539 C394.83714294 206.11344986 393.63619995 206.11337433 392.39886475 206.11329651 C390.46119232 206.10555458 390.46119232 206.10555458 388.484375 206.09765625 C387.14487765 206.09579017 385.80537962 206.09436716 384.46588135 206.09336853 C380.94777528 206.08955835 377.42971079 206.07974091 373.91162109 206.06866455 C370.31869061 206.05841817 366.72575339 206.053864 363.1328125 206.04882812 C356.08852471 206.03811725 349.04426507 206.02105887 342 206 C342.00888245 207.06995712 342.01776489 208.13991425 342.0269165 209.24229431 C342.1081733 219.3494223 342.16804733 229.4564836 342.20724869 239.56386471 C342.22808041 244.75959374 342.25631724 249.95505805 342.30175781 255.15063477 C342.3453732 260.16920621 342.36917029 265.18752379 342.37950897 270.20627022 C342.38687223 272.11634883 342.4012508 274.02641431 342.42292023 275.9363842 C342.45216316 278.62187069 342.45594735 281.30632205 342.45410156 283.99194336 C342.46848267 284.77310013 342.48286377 285.5542569 342.49768066 286.35908508 C342.4334453 295.05521198 338.7683946 301.92050388 332.93359375 308.20703125 C327.58587721 313.16582295 322.19357986 316.12978443 314.83648682 316.12025452 C313.60397942 316.12231651 313.60397942 316.12231651 312.34657288 316.12442017 C311.45393234 316.12082489 310.56129181 316.11722961 309.64160156 316.11352539 C308.22158089 316.11374443 308.22158089 316.11374443 306.77287292 316.1139679 C303.6454336 316.11327153 300.51805392 316.10549198 297.390625 316.09765625 C295.22157829 316.09579109 293.05253117 316.09436765 290.88348389 316.09336853 C285.17558631 316.08955106 279.46771418 316.07972731 273.75982666 316.06866455 C267.93494003 316.0584339 262.11004928 316.05386736 256.28515625 316.04882812 C244.85675965 316.03810438 233.42838194 316.02103717 222 316 C222.41273163 315.52015656 222.82546326 315.04031311 223.2507019 314.54592896 C223.79171539 313.91605072 224.33272888 313.28617249 224.89013672 312.63720703 C225.42661835 312.01298859 225.96309998 311.38877014 226.51583862 310.74563599 C234.01503686 301.92525398 238.9083113 291.26085108 238.31640625 279.4609375 C237.19102502 270.7079724 234.36810327 263.05395388 229 256 C228.56531906 255.42541046 228.13063812 254.85082092 227.68278503 254.25881958 C224.34944248 250.37324751 221.91668007 248.54846685 216.74243164 248.09423828 C214.71551014 248.04835252 212.68740616 248.04249035 210.66015625 248.0703125 C209.57923203 248.06361542 208.4983078 248.05691833 207.3846283 248.05001831 C205.10608049 248.04526977 202.82743638 248.05808309 200.54907227 248.08740234 C197.07545548 248.12486029 193.60818525 248.08774897 190.13476562 248.04296875 C187.91404861 248.04759539 185.69333553 248.056566 183.47265625 248.0703125 C182.44221695 248.05614288 181.41177765 248.04197327 180.35011292 248.02737427 C173.76792481 248.17590253 170.29649214 249.52262094 165.56906128 254.14590454 C163.13021179 257.02779311 161.6460805 259.80710969 160.0625 263.25 C159.77310547 263.86101562 159.48371094 264.47203125 159.18554688 265.1015625 C154.79444649 274.47743185 154.23777751 286.10537495 157.625 296 C160.9958302 303.80988124 165.24302207 309.85182634 172 315 C172 315.33 172 315.66 172 316 C159.37788673 316.09282862 146.75585516 316.16383048 134.13346958 316.20724869 C128.27188083 316.22809108 122.41052626 316.25634793 116.54907227 316.30175781 C110.88860216 316.34533439 105.22835681 316.36916228 99.56773186 316.37950897 C97.41204225 316.38687911 95.25636444 316.4012712 93.10077095 316.42292023 C90.07285451 316.45211078 87.04585759 316.45594941 84.01782227 316.45410156 C83.13380737 316.46848267 82.24979248 316.48286377 81.33898926 316.49768066 C72.40031579 316.43895533 65.31534801 313.10318658 58.79296875 307.0625 C52.26015908 299.54763398 50.84127432 291.37036718 50.88647461 281.72143555 C50.88632858 280.90140549 50.88618256 280.08137543 50.8860321 279.23649597 C50.8867266 276.53654296 50.8944973 273.83665965 50.90234375 271.13671875 C50.90420957 269.26056455 50.9056327 267.38440987 50.90663147 265.508255 C50.9104437 260.577979 50.92026293 255.6477326 50.93133545 250.71746826 C50.94157741 245.68339437 50.94613506 240.64931569 50.95117188 235.61523438 C50.96188636 225.7434766 50.97894724 215.87174076 51 206 C49.09323486 206.02356567 49.09323486 206.02356567 47.14794922 206.04760742 C42.41803356 206.1020325 37.68814544 206.13639592 32.95800781 206.16479492 C30.91336406 206.17985288 28.86875245 206.20030357 26.82421875 206.22631836 C23.88012748 206.26283311 20.93646443 206.27975651 17.9921875 206.29296875 C17.0825827 206.30845261 16.17297791 206.32393646 15.23580933 206.33988953 C10.07788243 206.34124784 6.42819164 205.95601897 2 203 C-35.53653491 146.69519764 0 67.66995066 0 0 Z M215 39 C213.85334992 41.42834105 212.9891624 43.60885732 212.1875 46.14453125 C211.940569 46.87823944 211.693638 47.61194763 211.43922424 48.3678894 C210.6101349 50.8444141 209.80496608 53.32803861 209 55.8125 C208.41537869 57.58029678 207.82931595 59.34761741 207.24194336 61.11450195 C206.27091555 64.03959162 205.30243958 66.96542679 204.34056091 69.89353943 C201.65289431 78.07251816 198.89153231 86.22473159 196.11171341 94.37268257 C194.64842621 98.66736243 193.19387867 102.96500849 191.73978615 107.2628088 C190.53268693 110.82950312 189.32161965 114.39473853 188.10131836 117.9569397 C186.93860812 121.35281953 185.78939166 124.75298878 184.64976311 128.15668106 C184.01934193 130.02839048 183.37526126 131.8954816 182.73085022 133.76242065 C182.16713966 135.45723068 182.16713966 135.45723068 181.59204102 137.1862793 C181.25898453 138.16847946 180.92592804 139.15067963 180.58277893 140.16264343 C179.90670402 143.45422705 180.18320967 145.75518507 181 149 C182.5 151.5 182.5 151.5 185 153 C188.5 153.75 188.5 153.75 192 153 C195.99124639 149.05313296 197.47001809 144.59945109 199.1796875 139.3984375 C199.46914246 138.54509827 199.75859741 137.69175903 200.05682373 136.81256104 C201.00647352 134.00337766 201.940902 131.18938896 202.875 128.375 C203.53494947 126.41171284 204.19560429 124.44866264 204.85693359 122.48583984 C210.12989597 106.79098875 215.27082761 91.05126564 220.34326172 75.29052734 C220.88762885 73.60251763 221.43206059 71.91452874 221.9765625 70.2265625 C222.23376068 69.42580292 222.49095886 68.62504333 222.75595093 67.80001831 C224.69515581 61.80937292 226.83956172 55.92254925 229.13037109 50.05615234 C230.1337126 46.53009142 230.29686748 43.6494693 230 40 C227.7132584 36.92923271 226.27592854 35.28708392 222.5 34.4375 C219.08416496 35.20606288 217.53069116 36.57794219 215 39 Z M146.5 55.6328125 C145.64019531 56.45555664 144.78039062 57.27830078 143.89453125 58.12597656 C142.92878425 59.08307382 141.96399393 60.04113706 141 61 C139.90023103 62.07569799 138.79994836 63.15087097 137.69921875 64.22558594 C134.72000073 67.14782495 131.76547972 70.09376873 128.81982422 73.04980469 C126.97868962 74.89637328 125.13217138 76.73744027 123.28515625 78.578125 C122.10644948 79.75749141 120.92805231 80.93716735 119.75 82.1171875 C118.92665161 82.93749954 118.92665161 82.93749954 118.08666992 83.77438354 C113.68503168 88.08849673 113.68503168 88.08849673 111.4375 93.6875 C112.05191011 97.30569287 112.69794313 98.11492756 115.08666992 100.75024414 C116.04191055 101.80527634 116.04191055 101.80527634 117.01644897 102.88162231 C120.0133683 106.08224934 123.0703259 109.21337961 126.17578125 112.30859375 C126.82701462 112.96078384 127.47824799 113.61297394 128.1492157 114.28492737 C129.51011535 115.64650136 130.8722538 117.00683824 132.2355957 118.3659668 C134.32816325 120.45312274 136.41526824 122.54563632 138.50195312 124.63867188 C139.83040819 125.96646705 141.15917293 127.29395247 142.48828125 128.62109375 C143.11221268 129.24704941 143.7361441 129.87300507 144.37898254 130.51792908 C148.43717494 134.71515727 148.43717494 134.71515727 153.8125 136.375 C157.15633275 136.23748209 157.15633275 136.23748209 159.9375 133.9375 C162.30921154 131.15258614 162.30921154 131.15258614 162.02001953 127.7331543 C160.68603221 122.85091397 158.38551715 120.69691952 154.7421875 117.33203125 C154.11974152 116.72993332 153.49729553 116.12783539 152.85598755 115.50749207 C150.87615094 113.59408887 148.87798336 111.7016392 146.875 109.8125 C144.86591426 107.91172141 142.86190787 106.00684029 140.87258911 104.08537292 C139.63690765 102.89211619 138.3896275 101.71073355 137.13009644 100.54267883 C135.44091797 98.91333008 135.44091797 98.91333008 133 96 C133.4357103 91.47169684 136.60411091 89.03413534 139.71484375 86.02734375 C140.28578262 85.46302139 140.8567215 84.89869904 141.44496155 84.317276 C143.26884523 82.51677804 145.10258092 80.72674443 146.9375 78.9375 C148.7670932 77.14300346 150.59452188 75.34637779 152.41932678 73.54701233 C153.55469427 72.42857914 154.69312998 71.31325014 155.83494568 70.20140076 C160.39299992 65.8812297 160.39299992 65.8812297 162.4375 60.125 C162.2299848 56.83283342 162.2299848 56.83283342 159.875 54.125 C154.71216306 50.30899009 150.91089965 51.35489992 146.5 55.6328125 Z M251.125 53.625 C248.7547062 56.2741519 248 57.45691847 248 61 C250.26252802 65.59704782 253.59141599 68.85148466 257.19921875 72.39453125 C257.79426712 72.98674973 258.38931549 73.5789682 259.00239563 74.18913269 C260.89276401 76.06835999 262.78998729 77.94048955 264.6875 79.8125 C265.97506918 81.09003154 267.26218365 82.36802154 268.54882812 83.64648438 C271.69397895 86.76965543 274.8452939 89.88648219 278 93 C276.38053179 97.15423401 273.33753537 99.8476375 270.1875 102.8671875 C269.0179556 104.0114392 267.84869344 105.15597945 266.6796875 106.30078125 C264.84008961 108.09077973 262.99747673 109.87743206 261.14941406 111.65869141 C259.36152813 113.38596295 257.58645947 115.12563184 255.8125 116.8671875 C254.98431763 117.654991 254.98431763 117.654991 254.1394043 118.45870972 C250.8313751 121.72324291 248.91919628 124.41125005 248 129 C249.33126447 131.92878184 250.73304965 133.73304965 253 136 C256.20048682 136.85092889 256.20048682 136.85092889 260 136 C263.36229355 133.66526247 266.11588492 130.79304829 268.9609375 127.86328125 C270.2076976 126.61589424 270.2076976 126.61589424 271.47964478 125.3433075 C273.23097303 123.58360565 274.97375693 121.81536443 276.70849609 120.03930664 C279.3670519 117.32062785 282.05376601 114.63246039 284.74609375 111.94726562 C286.44445336 110.23349842 288.14112687 108.51805826 289.8359375 106.80078125 C290.64002045 105.99538406 291.44410339 105.18998688 292.27255249 104.36018372 C293.01067169 103.5997728 293.74879089 102.83936188 294.50927734 102.0559082 C295.16100922 101.39194534 295.81274109 100.72798248 296.48422241 100.04389954 C298.25626202 97.65445206 298.72635171 95.94577105 299 93 C296.83122097 87.76967589 292.2191747 83.85871072 288.296875 79.890625 C287.54085999 79.12320984 286.78484497 78.35579468 286.00592041 77.56512451 C284.40830388 75.94865778 282.80779211 74.33504808 281.20458984 72.72412109 C278.75841448 70.25848143 276.33439133 67.7723457 273.91015625 65.28515625 C272.35288729 63.71483095 270.7943354 62.14577666 269.234375 60.578125 C268.51433289 59.83338928 267.79429077 59.08865356 267.0524292 58.3213501 C263.74099618 55.03870123 261.72930349 53.20447241 257.16503906 51.92480469 C253.90910222 51.75343636 253.90910222 51.75343636 251.125 53.625 Z M69 206 C69 213.92 69 221.84 69 230 C153.15 230 237.3 230 324 230 C324 222.08 324 214.16 324 206 C239.85 206 155.7 206 69 206 Z " fill="#183B56" transform="translate(51,196)"/>
<path d="M0 0 C1.00110449 -0.00623996 2.00220899 -0.01247993 3.03364998 -0.01890898 C6.36838534 -0.03478832 9.70238462 -0.02225411 13.03712463 -0.00964355 C15.4359937 -0.01506693 17.83485943 -0.0221908 20.23371887 -0.03088379 C26.06128034 -0.04720592 31.88861027 -0.04484977 37.71617871 -0.03323323 C42.45512124 -0.0241799 47.19400608 -0.02298309 51.93295479 -0.02732849 C52.60881165 -0.02794142 53.28466852 -0.02855436 53.9810059 -0.02918586 C55.35423979 -0.03046484 56.72747367 -0.03176169 58.10070754 -0.03307623 C70.96242206 -0.04446862 83.82402234 -0.03138988 96.68571813 -0.00987476 C107.70671943 0.00799098 118.72755216 0.0048939 129.74855042 -0.0135498 C142.56437088 -0.03498729 155.38009131 -0.04336585 168.1959272 -0.03110075 C169.56426337 -0.02982663 170.93259955 -0.02856915 172.30093575 -0.02732849 C172.97408075 -0.02671139 173.64722576 -0.02609429 174.34076909 -0.02545848 C179.07008356 -0.02201389 183.79933425 -0.02781472 188.52863884 -0.0372467 C194.90223083 -0.0488236 201.27550532 -0.04074529 207.64906311 -0.01766968 C209.98468563 -0.01239227 212.32033498 -0.0138797 214.65594673 -0.02272034 C217.85122961 -0.03369743 221.04550356 -0.01988506 224.24072266 0 C225.61774492 -0.01338433 225.61774492 -0.01338433 227.02258581 -0.02703905 C234.523431 0.06312222 241.13213573 1.95413172 247.26979065 6.36730957 C254.64656961 14.16285765 257.84566796 21.05310943 257.79737854 31.83483887 C257.79752457 32.68383759 257.79767059 33.5328363 257.79782104 34.40756226 C257.79712398 37.2157852 257.78934121 40.02394195 257.7815094 42.83215332 C257.77964449 44.77842676 257.77822093 46.72470066 257.77722168 48.67097473 C257.77340227 53.79527074 257.76357688 58.91953843 257.7525177 64.04382324 C257.74229121 69.27209083 257.7377214 74.50036299 257.73268127 79.7286377 C257.72195412 89.98841576 257.70488458 100.24817281 257.68385315 110.50793457 C258.42443466 110.50349335 259.16501617 110.49905212 259.92803955 110.49447632 C266.91662957 110.45435685 273.90520232 110.42392842 280.89387798 110.40431023 C284.48659883 110.39388516 288.0792243 110.37974941 291.67189026 110.35705566 C295.14078518 110.33528154 298.60958852 110.32335634 302.07854652 110.31818008 C304.04220223 110.31270123 306.00582123 110.29709554 307.96942139 110.28134155 C309.17028885 110.28119049 310.37115631 110.28103943 311.6084137 110.28088379 C312.66320419 110.27644257 313.71799469 110.27200134 314.80474854 110.26742554 C318.57532879 110.58240493 321.45256679 111.54049529 324.43385315 113.88293457 C337.98223224 131.49582739 326.68385315 158.28694068 326.68385315 180.50793457 C191.05385315 180.50793457 55.42385315 180.50793457 -84.31614685 180.50793457 C-84.31614685 116.50793457 -84.31614685 116.50793457 -79.31614685 111.50793457 C-76.5355271 110.58106132 -74.89562826 110.38600061 -72.02830505 110.39440918 C-71.16763931 110.39448471 -70.30697357 110.39456024 -69.42022705 110.39463806 C-68.4951384 110.39979935 -67.57004974 110.40496063 -66.6169281 110.41027832 C-65.66674301 110.41169327 -64.71655792 110.41310822 -63.73757935 110.41456604 C-60.70123656 110.42016582 -57.66496737 110.43271825 -54.62864685 110.44543457 C-52.57070521 110.4504496 -50.51276241 110.4550125 -48.45481873 110.45910645 C-43.40856639 110.47013517 -38.3623691 110.48739964 -33.31614685 110.50793457 C-33.32280869 109.47778229 -33.32947052 108.44763 -33.33633423 107.38626099 C-33.39732035 97.64732243 -33.44220323 87.90842296 -33.47158337 78.16933632 C-33.48719609 73.16314316 -33.50835364 68.15710497 -33.54246521 63.15100098 C-33.57521594 58.31398382 -33.59303286 53.47711511 -33.60077858 48.63999557 C-33.60629399 46.80053752 -33.61706386 44.961087 -33.63333702 43.12169266 C-33.74565007 29.8927987 -33.66042986 18.78425604 -24.31614685 8.50793457 C-17.3838926 1.76303854 -9.38167281 -0.09096659 0 0 Z M53.68385315 39.50793457 C53.01718648 43.00793457 53.01718648 43.00793457 53.68385315 46.50793457 C55.5509382 48.87290896 57.00446746 50.16824172 59.68385315 51.50793457 C61.38299284 51.6136677 63.08620814 51.6566987 64.78858948 51.66906738 C66.38583611 51.6834787 66.38583611 51.6834787 68.01535034 51.69818115 C69.17052658 51.70243103 70.32570282 51.70668091 71.5158844 51.71105957 C73.29173164 51.71960968 73.29173164 51.71960968 75.10345459 51.72833252 C77.61274824 51.73779278 80.12205438 51.74432056 82.63136292 51.74816895 C86.47004407 51.7578681 90.30818852 51.78888007 94.14674377 51.82043457 C96.58228746 51.82696506 99.01783499 51.83221535 101.4533844 51.83605957 C102.60248795 51.84840637 103.75159149 51.86075317 104.93551636 51.87347412 C106.00980392 51.87047302 107.08409149 51.86747192 108.19093323 51.86437988 C109.13310196 51.86802551 110.07527069 51.87167114 111.04598999 51.87542725 C114.21450576 51.43400695 116.09222727 50.35104251 118.68385315 48.50793457 C120.43079307 46.12574376 120.70661588 44.96318924 120.55885315 42.00793457 C119.46812645 38.89157258 118.2397908 37.59054542 115.68385315 35.50793457 C112.97780033 34.90566042 112.97780033 34.90566042 109.9690094 34.99035645 C108.82101868 34.9777478 107.67302795 34.96513916 106.49024963 34.95214844 C105.25476379 34.96024536 104.01927795 34.96834229 102.74635315 34.97668457 C101.47412903 34.97285767 100.20190491 34.96903076 98.89112854 34.96508789 C96.20071488 34.9623653 93.51175444 34.96773643 90.82154846 34.9864502 C87.3779057 35.00924095 83.93550988 34.99611489 80.49191284 34.97216034 C77.20168187 34.95420905 73.9116004 34.96678737 70.62135315 34.97668457 C69.38586731 34.96858765 68.15038147 34.96049072 66.87745667 34.95214844 C65.15547058 34.9710614 65.15547058 34.9710614 63.3986969 34.99035645 C62.3892804 34.99353882 61.37986389 34.99672119 60.33985901 35 C56.94923257 35.64842341 55.76169139 36.79419964 53.68385315 39.50793457 Z M149.2736969 37.38293457 C147.38699369 39.90471969 146.76079591 41.35328121 146.68385315 44.50793457 C148.36150578 48.30472737 149.85638063 50.00380502 153.68385315 51.50793457 C158.59862557 52.07192485 163.16972892 52.15684495 167.74635315 50.19543457 C169.89946325 48.46956328 169.89946325 48.46956328 171.68385315 45.50793457 C171.57088015 40.71920007 171.57088015 40.71920007 169.09791565 36.81652832 C165.72520485 34.98827894 163.00071065 35.07419132 159.18385315 35.07043457 C157.87416565 35.05109863 156.56447815 35.0317627 155.21510315 35.01184082 C151.64895662 35.21380714 151.64895662 35.21380714 149.2736969 37.38293457 Z M-15.31614685 86.50793457 C-15.31614685 94.42793457 -15.31614685 102.34793457 -15.31614685 110.50793457 C68.83385315 110.50793457 152.98385315 110.50793457 239.68385315 110.50793457 C239.68385315 102.58793457 239.68385315 94.66793457 239.68385315 86.50793457 C155.53385315 86.50793457 71.38385315 86.50793457 -15.31614685 86.50793457 Z M-47.5700531 148.82043457 C-49.64530711 151.48040853 -49.64530711 151.48040853 -49.31614685 155.13293457 C-48.18319022 158.99013919 -48.18319022 158.99013919 -45.31614685 161.50793457 C-41.17473622 162.88840478 -37.27913462 162.73188059 -32.94114685 162.75793457 C-32.0903656 162.77855957 -31.23958435 162.79918457 -30.36302185 162.82043457 C-25.49664098 162.8507547 -22.27518478 162.65682188 -18.31614685 159.50793457 C-16.04405982 157.64081428 -16.04405982 157.64081428 -15.94114685 154.69543457 C-16.4341716 150.5047242 -17.09262876 149.27821769 -20.31614685 146.50793457 C-24.30131045 145.74104764 -28.20730417 145.81106347 -32.25364685 145.88293457 C-33.33839294 145.86359863 -34.42313904 145.8442627 -35.54075623 145.82434082 C-41.98114698 145.85909754 -41.98114698 145.85909754 -47.5700531 148.82043457 Z M2.68385315 150.50793457 C1.43054298 153.76654101 1.45105409 154.98107355 2.87135315 158.19543457 C4.79273723 160.64685564 5.84347461 161.36948842 8.68385315 162.50793457 C10.93389349 162.81180931 10.93389349 162.81180931 13.30885315 162.77355957 C14.1802594 162.7761377 15.05166565 162.77871582 15.94947815 162.78137207 C16.8518219 162.7736377 17.75416565 162.76590332 18.68385315 162.75793457 C19.5861969 162.76566895 20.48854065 162.77340332 21.41822815 162.78137207 C22.72533752 162.77750488 22.72533752 162.77750488 24.05885315 162.77355957 C24.85033752 162.77130371 25.6418219 162.76904785 26.45729065 162.76672363 C28.9814807 162.47334189 30.54481184 161.8721423 32.68385315 160.50793457 C35.16424222 156.78735097 35.14722518 154.90996886 34.68385315 150.50793457 C32.62996733 147.83071828 31.43168915 146.65716389 28.09010315 145.99035645 C27.13104065 145.98584473 26.17197815 145.98133301 25.18385315 145.97668457 C24.13197815 145.97152832 23.08010315 145.96637207 21.99635315 145.96105957 C20.35666565 145.9842627 20.35666565 145.9842627 18.68385315 146.00793457 C17.59072815 145.99246582 16.49760315 145.97699707 15.37135315 145.96105957 C14.31947815 145.96621582 13.26760315 145.97137207 12.18385315 145.97668457 C10.7452594 145.98345215 10.7452594 145.98345215 9.27760315 145.99035645 C5.96133579 146.6521116 4.78413872 147.91247917 2.68385315 150.50793457 Z M53.68385315 150.50793457 C53.01718648 154.00793457 53.01718648 154.00793457 53.68385315 157.50793457 C55.5509382 159.87290896 57.00446746 161.16824172 59.68385315 162.50793457 C62.94848768 162.77312334 66.22214202 162.73947531 69.49635315 162.75793457 C70.85083557 162.78887207 70.85083557 162.78887207 72.23268127 162.82043457 C77.16585448 162.84943191 80.74690716 162.84765921 84.68385315 159.50793457 C86.35458357 156.74578485 86.35458357 156.74578485 86.68385315 153.50793457 C85.15473236 149.18177177 85.15473236 149.18177177 81.68385315 146.50793457 C77.73170239 146.21235903 73.77076192 146.22994597 69.80885315 146.19543457 C68.70670471 146.16643066 67.60455627 146.13742676 66.4690094 146.10754395 C65.40811096 146.09916504 64.34721252 146.09078613 63.25416565 146.08215332 C61.79647766 146.06027954 61.79647766 146.06027954 60.30934143 146.03796387 C56.92033733 146.64460632 55.75791342 147.80660194 53.68385315 150.50793457 Z " fill="#183B56" transform="translate(135.31614685058594,-0.5079345703125)"/>
<path d="M0 0 C6.30436382 4.19880481 10.56225346 9.36527049 12.6875 16.70703125 C13.72642012 25.43396022 12.66822682 33.05834708 7.52734375 40.44921875 C2.66727667 45.8033352 -3.40268452 48.71153468 -10.546875 49.67578125 C-18.00175291 49.95360279 -24.76649541 48.33146888 -30.75 43.76953125 C-36.7979201 38.00356547 -39.29133798 31.62849222 -39.625 23.33203125 C-39.28939422 14.98723893 -36.80571468 8.60087957 -30.625 2.89453125 C-21.61570226 -3.90094333 -10.2556125 -5.33518077 0 0 Z " fill="#183B56" transform="translate(261,454.66796875)"/>
</svg>
