<?xml version="1.0" standalone="no"?>
<!DOCTYPE svg PUBLIC "-//W3C//DTD SVG 20010904//EN"
 "http://www.w3.org/TR/2001/REC-SVG-20010904/DTD/svg10.dtd">
<svg version="1.0" xmlns="http://www.w3.org/2000/svg"
 width="512.000000pt" height="512.000000pt" viewBox="0 0 512.000000 512.000000"
 preserveAspectRatio="xMidYMid meet">

<g transform="translate(0.000000,512.000000) scale(0.100000,-0.100000)"
fill="#183B56" stroke="none">
<path d="M959 4916 c-87 -31 -139 -79 -178 -166 -20 -45 -21 -57 -21 -2191 l0
-2146 31 -61 c32 -65 66 -99 133 -135 l41 -22 1155 0 1155 0 51 27 c59 31 108
84 138 147 20 44 21 61 21 406 l0 360 -110 6 c-60 3 -118 9 -127 13 -16 7 -18
2 -18 -48 l0 -56 -1110 0 -1110 0 2 1587 3 1588 1108 3 1107 2 0 -456 c0 -431
1 -456 18 -448 9 4 68 9 130 12 l113 4 -3 682 c-3 627 -4 684 -21 720 -28 62
-80 119 -138 151 l-54 30 -1140 2 c-915 2 -1147 0 -1176 -11z m1401 -286 c11
-11 20 -33 20 -50 0 -17 -9 -39 -20 -50 -19 -19 -33 -20 -240 -20 -207 0 -221
1 -240 20 -11 11 -20 33 -20 50 0 17 9 39 20 50 19 19 33 20 240 20 207 0 221
-1 240 -20z m60 -3992 c26 -28 26 -72 0 -98 -19 -19 -33 -20 -299 -20 l-280 0
-20 26 c-12 15 -21 34 -21 44 0 10 9 29 21 44 l20 26 279 0 c274 0 280 0 300
-22z"/>
<path d="M2272 4043 c-7 -2 -17 -14 -23 -25 -23 -43 -449 -1124 -449 -1139 0
-9 9 -28 21 -43 24 -31 66 -35 98 -8 25 21 461 1112 461 1154 0 50 -56 82
-108 61z"/>
<path d="M1585 3810 c-11 -4 -95 -84 -187 -177 -151 -152 -168 -173 -168 -203
0 -30 18 -51 173 -207 94 -96 182 -176 195 -180 27 -6 70 20 81 50 15 38 -7
69 -142 205 l-132 132 138 138 c119 119 138 143 139 171 2 51 -52 90 -97 71z"/>
<path d="M2610 3813 c-32 -12 -50 -37 -50 -71 0 -32 13 -49 137 -174 l137
-138 -137 -138 c-125 -126 -137 -142 -137 -175 0 -39 36 -77 73 -77 13 0 84
63 199 177 164 163 178 180 178 213 0 32 -14 49 -172 207 -167 165 -196 187
-228 176z"/>
<path d="M3283 3178 c-29 -14 -34 -28 -47 -131 l-11 -89 -54 -19 c-30 -10 -72
-28 -93 -39 -21 -11 -43 -20 -49 -20 -5 0 -42 23 -81 50 -100 71 -120 69 -208
-16 -38 -36 -74 -79 -81 -95 -15 -37 -2 -67 66 -150 l46 -56 -30 -59 c-16 -32
-34 -77 -40 -100 l-11 -41 -82 -12 c-140 -22 -147 -30 -148 -174 0 -100 2
-110 24 -132 17 -17 39 -25 82 -30 111 -12 127 -18 137 -50 5 -17 23 -61 40
-98 l30 -68 -51 -74 c-75 -106 -73 -121 27 -218 99 -97 111 -98 210 -22 72 56
89 63 107 45 5 -5 46 -23 89 -39 l79 -29 16 -90 c23 -130 25 -132 172 -132
140 0 152 7 162 91 18 142 16 137 44 144 15 4 60 22 100 40 l73 34 76 -54
c105 -76 115 -74 214 23 102 100 103 116 24 216 -30 38 -55 72 -55 76 0 5 14
37 30 72 17 34 33 77 36 95 6 31 7 32 101 49 132 23 133 25 133 172 0 148 -1
150 -132 166 l-92 11 -28 72 c-15 40 -35 84 -44 98 -16 25 -16 27 13 68 68 94
83 121 83 145 0 37 -156 192 -192 192 -17 0 -53 -21 -102 -60 l-76 -60 -48 23
c-26 14 -70 32 -99 41 -57 19 -52 11 -74 139 -16 97 -32 107 -163 106 -55 0
-111 -5 -123 -11z m263 -652 c191 -87 244 -340 105 -498 -22 -24 -63 -57 -92
-73 -49 -27 -63 -30 -144 -30 -75 0 -98 4 -139 24 -163 80 -229 278 -145 437
79 149 261 210 415 140z"/>
</g>
</svg>
