<?xml version="1.0" encoding="UTF-8"?>
<svg version="1.1" xmlns="http://www.w3.org/2000/svg" width="512" height="512">
<path d="M0 0 C1.16137463 0.00056958 1.16137463 0.00056958 2.34621137 0.00115067 C3.23646829 -0.00084038 4.12672521 -0.00283143 5.04395962 -0.00488281 C6.03323859 -0.00196997 7.02251757 0.00094287 8.04177469 0.00394398 C9.08393497 0.00308955 10.12609524 0.00223513 11.19983613 0.00135481 C14.72072865 -0.0003031 18.24157437 0.00522646 21.76246256 0.01067311 C24.27489337 0.01095494 26.78732427 0.01079733 29.29975504 0.0102306 C34.72365098 0.01000228 40.14753163 0.01285375 45.57142442 0.01846844 C53.41354703 0.02658116 61.25566382 0.02919842 69.09779017 0.03045643 C81.81983921 0.03264731 94.54188184 0.03930837 107.2639274 0.04875904 C119.6252552 0.05793223 131.98658126 0.06500206 144.34791178 0.06926686 C145.11710705 0.06953485 145.88630232 0.06980285 146.67880654 0.07007897 C152.69404704 0.07215828 158.70928758 0.07411524 164.72452813 0.07603353 C194.22993597 0.0854743 223.73532781 0.10559092 253.24073404 0.1241985 C253.24073404 64.1441985 253.24073404 128.1641985 253.24073404 194.1241985 C237.89573404 194.6191985 237.89573404 194.6191985 222.24073404 195.1241985 C221.25073404 195.7841985 220.26073404 196.4441985 219.24073404 197.1241985 C218.91073404 199.7641985 218.58073404 202.4041985 218.24073404 205.1241985 C136.07073404 205.1241985 53.90073404 205.1241985 -30.75926596 205.1241985 C-31.33676596 179.2604485 -31.91426596 153.3966985 -32.50926596 126.7491985 C-32.76417807 118.6740276 -33.01909018 110.5988567 -33.2817269 102.27898365 C-33.39973964 95.73719711 -33.49839214 89.20482578 -33.49364096 82.663261 C-33.49424489 81.81475465 -33.49484883 80.9662483 -33.49547106 80.09202963 C-33.43725998 48.9591287 -27.78302593 26.92626179 -5.41533285 3.76613575 C-4.53883078 2.89429646 -3.6623287 2.02245716 -2.75926596 1.1241985 C-1.75926596 0.1241985 -1.75926596 0.1241985 0 0 Z M-2.75926596 51.1241985 C-6.37986747 56.61529373 -7.34984529 61.46953058 -7.30858237 67.95183522 C-7.31880423 68.79525471 -7.32902609 69.6386742 -7.33955771 70.50765187 C-7.36717388 73.27335854 -7.36545004 76.03805852 -7.36082846 78.803886 C-7.36861229 80.74148125 -7.37728367 82.67907313 -7.38679892 84.61666065 C-7.40168559 88.66990448 -7.4011688 92.72279979 -7.39061362 96.77605397 C-7.37903073 101.94994487 -7.41288496 107.12240227 -7.45930296 112.29605633 C-7.48888185 116.29576047 -7.49050712 120.29512349 -7.48428351 124.29491764 C-7.4853048 126.2013669 -7.49568346 128.10783655 -7.51590735 130.01417881 C-7.8244224 144.65806754 -7.8244224 144.65806754 -0.75926596 157.1241985 C5.51230197 162.46170312 12.51433115 163.42503723 20.5320701 163.39162403 C21.74327312 163.3984207 21.74327312 163.3984207 22.9789449 163.40535468 C25.67018954 163.41796079 28.36123082 163.41638077 31.05250162 163.41472584 C32.98802569 163.42071345 34.92354738 163.42751953 36.85906595 163.43508106 C42.1071022 163.45272436 47.3550732 163.45743574 52.60313624 163.45871264 C55.88460666 163.46013571 59.16606056 163.46440827 62.44752687 163.46970707 C73.90310206 163.48820165 85.35863075 163.49637838 96.81422037 163.49480397 C107.48028708 163.49360265 118.14615142 163.51470467 128.81216693 163.54629129 C137.98012638 163.57247078 147.14801979 163.58317056 156.31601632 163.58189315 C161.78694916 163.58138402 167.25770208 163.58704019 172.72859758 163.60824925 C177.87591956 163.62765978 183.02289049 163.62773674 188.17022508 163.61321598 C190.05434045 163.61113031 191.93847796 163.61581432 193.82255548 163.6279369 C209.17266242 163.86483446 209.17266242 163.86483446 222.67823404 157.194511 C223.19385904 156.55255787 223.70948404 155.91060475 224.24073404 155.2491985 C224.77698404 154.61240162 225.31323404 153.97560475 225.86573404 153.319511 C229.14872789 148.07791286 229.54182678 142.84370294 229.54713053 136.79900318 C229.5596158 135.57820309 229.5596158 135.57820309 229.5723533 134.33274037 C229.59636155 131.65380208 229.60521475 128.97510781 229.61182779 126.2960735 C229.62080208 124.4228835 229.62992407 122.54969421 229.6391868 120.67650563 C229.65565513 116.75263948 229.66337281 112.82885843 229.66627115 108.90496022 C229.67164838 103.89713132 229.70931049 98.89011154 229.75501531 93.88251072 C229.78488074 90.01324818 229.79199679 86.14417812 229.7929973 82.27481037 C229.79718186 80.42975626 229.80954467 78.58470062 229.83051485 76.73976094 C230.14926018 62.64988494 230.14926018 62.64988494 224.24073404 50.1241985 C222.04405094 47.83859725 222.04405094 47.83859725 219.61573404 46.5616985 C218.86034342 46.10665943 218.10495279 45.65162037 217.32667154 45.18279225 C212.95956503 42.96652658 209.03799845 42.9783952 204.2583732 42.9837566 C203.43587131 42.98078548 202.61336942 42.97781436 201.76594323 42.9747532 C199.00004298 42.96605696 196.23418596 42.96455717 193.4682731 42.96306568 C191.4890648 42.95843814 189.5098574 42.95341357 187.53065103 42.94802052 C182.14623321 42.9348878 176.76182786 42.92844978 171.37739652 42.92400986 C168.0142315 42.92108035 164.65106989 42.91697576 161.28790659 42.91250569 C150.76776204 42.89882805 140.2476253 42.88916287 129.72747248 42.8853038 C117.57919461 42.88082317 105.43102925 42.86327613 93.28278559 42.8343032 C83.89585453 42.81269225 74.50895513 42.80259982 65.12199944 42.80126268 C59.51419735 42.80021417 53.90650099 42.79429664 48.29872507 42.77644306 C43.0226602 42.75997274 37.74678066 42.75780189 32.47069925 42.76658207 C30.53533806 42.76735302 28.59996696 42.76300216 26.66463083 42.75312382 C24.01987634 42.74041738 21.37577952 42.74627402 18.73102945 42.75670582 C17.96749414 42.74864942 17.20395884 42.74059301 16.4172861 42.73229247 C8.59375682 42.80432468 2.84933004 45.51560249 -2.75926596 51.1241985 Z " fill="#183B56" transform="translate(145.75926595926285,153.8758015036583)"/>
<path d="M0 0 C0.82406188 -0.00523668 1.64812376 -0.01047336 2.49715722 -0.01586872 C5.26232405 -0.03088733 8.02730614 -0.03157428 10.79251099 -0.03224182 C12.77349155 -0.03986201 14.75446915 -0.04828926 16.73544312 -0.0574646 C22.11974061 -0.07942923 27.5039813 -0.08821105 32.88831854 -0.09329104 C36.25131881 -0.09693202 39.61430415 -0.10317071 42.97729874 -0.11029243 C54.70705063 -0.1347929 66.43675825 -0.14784031 78.16653442 -0.15138245 C89.10474547 -0.15501909 100.04267614 -0.18492227 110.98080146 -0.22678703 C120.36859377 -0.26145998 129.75629302 -0.27693036 139.14414895 -0.27762848 C144.75253645 -0.27842226 150.36063839 -0.28720743 155.96895981 -0.31562614 C161.24349977 -0.3417556 166.51751636 -0.3440405 171.79209137 -0.3279705 C173.72787998 -0.32615199 175.66369834 -0.3328829 177.59942245 -0.34878922 C180.24268502 -0.36918532 182.88410524 -0.35873687 185.52734375 -0.34057617 C186.67599279 -0.36037612 186.67599279 -0.36037612 187.84784687 -0.38057607 C193.63530971 -0.2897732 195.98643306 1.29801132 199.89065552 5.27415466 C201.45896464 8.4107729 201.0557553 11.76411599 201.06765747 15.20872498 C201.07422867 16.02843277 201.08079987 16.84814056 201.08757019 17.69268799 C201.10732273 20.41255276 201.11897084 23.13236224 201.12893677 25.85227966 C201.13301229 26.78072441 201.13708782 27.70916916 201.14128685 28.6657486 C201.1621571 33.58095071 201.17645402 38.49612483 201.18582153 43.41136169 C201.19688093 48.48681228 201.23127266 53.56182383 201.27099323 58.63711929 C201.29715011 62.54052033 201.3055126 66.4438167 201.30910301 70.34729767 C201.3139723 72.21797904 201.32559602 74.08865562 201.34414101 75.9592514 C201.36851023 78.58052225 201.36757153 81.20065658 201.36062622 83.82200623 C201.37984131 84.97715477 201.37984131 84.97715477 201.39944458 86.15563965 C201.34948463 91.3399903 200.25708367 94.33754499 196.89065552 98.27415466 C193.19102085 100.86365426 189.1983429 100.55921462 184.85723877 100.5415802 C184.04134399 100.54611131 183.22544922 100.55064243 182.38483036 100.55531085 C179.64729415 100.56798446 176.90995613 100.56633257 174.1723938 100.56468201 C172.211118 100.57066539 170.24984455 100.5774705 168.28857422 100.58503723 C162.95798715 100.60272339 157.62746426 100.6073937 152.29685068 100.6086688 C147.84847104 100.61056684 143.40010639 100.61792326 138.95173252 100.62501299 C128.45757023 100.64130437 117.96344227 100.64618125 107.4692688 100.64476013 C96.64015973 100.64355838 85.81124986 100.6646653 74.98219121 100.69624746 C65.68781664 100.72238894 56.39350723 100.73312833 47.09909618 100.73184931 C41.54664605 100.73133907 35.99437293 100.73705679 30.44195938 100.75820541 C25.22000039 100.77755198 19.9983879 100.77773673 14.77641678 100.76317215 C12.8599853 100.76107853 10.94353234 100.76581777 9.02713776 100.77789307 C6.41036313 100.7933134 3.79478806 100.78405907 1.17803955 100.76863098 C0.42005542 100.77891811 -0.33792871 100.78920523 -1.11888206 100.79980409 C-6.24931252 100.73298114 -9.16675558 99.52358649 -13.10934448 96.27415466 C-16.16731142 91.72848587 -16.54655838 87.60804272 -16.51339722 82.26853943 C-16.52026047 81.4888681 -16.52712372 80.70919678 -16.53419495 79.90589905 C-16.55241643 77.34226494 -16.5486322 74.77924555 -16.54293823 72.21556091 C-16.54750231 70.42486371 -16.55280855 68.63416826 -16.55882263 66.84347534 C-16.56774462 63.09527967 -16.56534107 59.34729716 -16.5553894 55.59910583 C-16.54390143 50.80628165 -16.56411305 46.01419442 -16.59330654 41.22146702 C-16.61169156 37.52473308 -16.6113715 33.82817499 -16.60566902 30.13140678 C-16.60551609 28.36484175 -16.61153747 26.5982646 -16.62396049 24.83174324 C-16.63891249 22.357086 -16.62816366 19.88378065 -16.61105347 17.40916443 C-16.62072144 16.68634781 -16.6303894 15.96353119 -16.64035034 15.21881104 C-16.56128074 9.73130802 -15.22330935 6.64838856 -12.10934448 2.27415466 C-8.44112449 -0.37310506 -4.33948536 -0.01360666 0 0 Z M38.01565552 24.33665466 C36.42737946 25.4365781 34.8374479 26.53411372 33.24612427 27.62962341 C32.39324829 28.21791931 31.54037231 28.80621521 30.66165161 29.41233826 C27.68968093 31.40918834 24.67017691 33.31039149 21.62893677 35.19993591 C20.58270142 35.85663269 19.53646606 36.51332947 18.45852661 37.18992615 C16.39596719 38.48083547 14.32478711 39.75808727 12.24465942 41.02049255 C10.8299939 41.91562561 10.8299939 41.91562561 9.38674927 42.82884216 C8.54297729 43.34946228 7.69920532 43.8700824 6.8298645 44.40647888 C4.27389025 46.8681688 4.16316469 48.80900463 3.89065552 52.27415466 C11.44549444 58.0392677 19.25941916 63.35177403 27.17312622 68.60838318 C28.7859937 69.68357359 30.39469234 70.76504218 31.9992981 71.8525238 C34.3326636 73.43332851 36.67820956 74.99430063 39.02737427 76.55149841 C39.74205368 77.0409343 40.45673309 77.53037018 41.19306946 78.03463745 C45.16567339 80.70086667 45.16567339 80.70086667 49.8196106 81.13182068 C51.84424669 80.44814861 51.84424669 80.44814861 52.89065552 79.27415466 C53.57240565 76.46263881 53.57240565 76.46263881 52.89065552 73.27415466 C50.82056035 71.01640215 48.32301987 69.49964676 45.74221802 67.87571716 C45.01449188 67.39589386 44.28676575 66.91607056 43.5369873 66.42170715 C41.20882387 64.89433992 38.86265578 63.3973728 36.51565552 61.89915466 C34.94155118 60.86841406 33.36861839 59.83588195 31.79690552 58.80149841 C30.30054181 57.82465512 28.80317845 56.84934106 27.30471802 55.87571716 C26.2374498 55.18211594 26.2374498 55.18211594 25.14862061 54.47450256 C21.78702945 52.09887737 21.78702945 52.09887737 17.89065552 51.27415466 C20.63840235 48.35618292 23.37115754 46.17124067 26.77737427 44.06712341 C27.7164563 43.47995544 28.65553833 42.89278748 29.62307739 42.28782654 C30.59825317 41.68518982 31.57342896 41.0825531 32.57815552 40.46165466 C38.18269125 36.99613931 43.7559574 33.50017462 49.09768677 29.63743591 C49.83092163 29.11061218 50.56415649 28.58378845 51.3196106 28.04100037 C53.12510122 26.3392663 53.12510122 26.3392663 53.25271606 23.68894958 C53.10852444 21.09572843 53.10852444 21.09572843 50.89065552 19.27415466 C45.59754951 18.178695 42.1134991 21.43748146 38.01565552 24.33665466 Z M72.89065552 21.27415466 C72.40277284 25.31231556 73.31554503 27.59840274 75.39065552 31.02806091 C75.94060181 31.95207703 76.4905481 32.87609314 77.05715942 33.82810974 C77.66221313 34.82092957 78.26726685 35.81374939 78.89065552 36.83665466 C80.17109024 38.9762101 81.44965644 41.11688461 82.72659302 43.25852966 C83.40302856 44.38968201 84.07946411 45.52083435 84.77639771 46.68626404 C86.98958483 50.41771967 89.12107818 54.19294234 91.24221802 57.97727966 C91.77900177 58.93180275 91.77900177 58.93180275 92.32662964 59.90560913 C93.73899063 62.41750818 95.15127396 64.92929268 96.54837036 67.44972229 C97.52182081 69.20416206 98.50680101 70.95218936 99.49221802 72.69993591 C100.05247681 73.70451843 100.6127356 74.70910095 101.18997192 75.74412537 C102.8940019 78.27913293 104.24556103 79.76404017 106.89065552 81.27415466 C109.63369124 80.86027968 109.63369124 80.86027968 111.89065552 79.27415466 C112.84928789 76.94132818 113.06282266 75.76178489 112.21658325 73.36497498 C111.83961304 72.70078552 111.46264282 72.03659607 111.07424927 71.35227966 C110.64652222 70.58577087 110.21879517 69.81926208 109.77810669 69.02952576 C109.2996228 68.2027533 108.82113892 67.37598083 108.32815552 66.52415466 C107.8387146 65.65742126 107.34927368 64.79068787 106.84500122 63.89768982 C105.20904259 61.01400942 103.55227594 58.14311935 101.89065552 55.27415466 C101.29575317 54.24322693 100.70085083 53.21229919 100.08792114 52.15013123 C96.05556364 45.17171019 91.99167303 38.21243948 87.89065552 31.27415466 C87.33587524 30.32959412 86.78109497 29.38503357 86.20950317 28.41184998 C85.67760376 27.51305115 85.14570435 26.61425232 84.59768677 25.68821716 C84.12435913 24.88593689 83.65103149 24.08365662 83.1633606 23.25706482 C81.91370803 21.15511698 81.91370803 21.15511698 79.89065552 19.27415466 C75.92320462 18.83945939 75.92320462 18.83945939 72.89065552 21.27415466 Z M133.07815552 20.46165466 C131.67436364 22.23760926 131.67436364 22.23760926 131.91409302 24.60227966 C133.30931246 28.41960005 136.00072738 29.80741648 139.32815552 31.83665466 C140.68259788 32.70210877 142.03675118 33.56801537 143.39065552 34.43431091 C144.11381958 34.88951111 144.83698364 35.3447113 145.58206177 35.81370544 C149.69716747 38.4169798 153.76307655 41.093709 157.82815552 43.77415466 C158.6272937 44.29050476 159.42643188 44.80685486 160.24978638 45.33885193 C160.98592163 45.82281433 161.72205688 46.30677673 162.48049927 46.80540466 C163.13912964 47.23401794 163.79776001 47.66263123 164.47634888 48.10423279 C164.94307007 48.49030701 165.40979126 48.87638123 165.89065552 49.27415466 C165.89065552 49.93415466 165.89065552 50.59415466 165.89065552 51.27415466 C164.04568481 52.65940857 164.04568481 52.65940857 161.46487427 54.25071716 C160.527323 54.83538757 159.58977173 55.42005798 158.62380981 56.02244568 C157.6187439 56.64175964 156.61367798 57.26107361 155.57815552 57.89915466 C153.55592277 59.16906434 151.53507374 60.4411803 149.51565552 61.71556091 C148.54241333 62.3293158 147.56917114 62.94307068 146.56643677 63.57542419 C143.36166087 65.60998904 140.19865746 67.67471116 137.07815552 69.83665466 C136.26733521 70.39481873 135.45651489 70.95298279 134.62112427 71.52806091 C132.47582523 73.6927306 132.20197421 75.28855737 131.89065552 78.27415466 C133.50760356 80.03066997 133.50760356 80.03066997 135.89065552 81.27415466 C140.62825407 80.14359137 144.31916249 77.89778408 148.26565552 75.14915466 C149.56699327 74.25744061 150.86913916 73.36690527 152.17190552 72.47727966 C152.90151489 71.97776794 153.63112427 71.47825623 154.38284302 70.96360779 C157.28994186 69.00516503 160.22877943 67.09988641 163.17190552 65.19602966 C164.25939087 64.48720642 165.34687622 63.77838318 166.46731567 63.04808044 C168.64906509 61.62663275 170.83618653 60.21339329 173.02883911 58.80882263 C174.0325354 58.15027283 175.03623169 57.49172302 176.07034302 56.81321716 C176.97510376 56.22749939 177.8798645 55.64178162 178.81204224 55.03831482 C180.99706864 53.44574743 180.99706864 53.44574743 181.79959106 51.19456482 C182.10706542 49.05539812 182.10706542 49.05539812 180.16799927 47.00852966 C175.69369127 42.97318131 170.48016184 39.81360232 165.45315552 36.52415466 C164.38162231 35.81839294 163.31008911 35.11263123 162.20608521 34.38548279 C160.07615174 32.98439699 157.94451759 31.58589265 155.81106567 30.19017029 C153.31086437 28.54984427 150.82243589 26.89410175 148.33987427 25.22727966 C147.10713081 24.40907473 145.87409084 23.59131625 144.64065552 22.77415466 C143.60424927 22.08321716 142.56784302 21.39227966 141.50003052 20.68040466 C138.39086701 19.00480756 136.17473216 18.43286307 133.07815552 20.46165466 Z " fill="#183B56" transform="translate(164.10934448242188,206.72584533691406)"/>
<path d="M0 0 C31.42348218 -0.11413732 62.84690939 -0.20258664 94.27054974 -0.25532665 C97.98293845 -0.26157995 101.69532675 -0.26805159 105.40771484 -0.2746582 C106.1467642 -0.27596976 106.88581356 -0.27728131 107.64725836 -0.2786326 C119.60364065 -0.30037125 131.55990238 -0.33978422 143.51621322 -0.38576398 C155.79044868 -0.43257163 168.06462112 -0.46030448 180.33894217 -0.47044247 C187.90894493 -0.47729275 195.47860685 -0.49890462 203.04850467 -0.53958233 C208.85951034 -0.56921206 214.67029908 -0.57226327 220.4813652 -0.56553841 C222.86054581 -0.56691192 225.23973953 -0.57683053 227.61884308 -0.59602737 C230.87383694 -0.62099946 234.12738669 -0.61488892 237.38241577 -0.60127258 C238.31824253 -0.61583679 239.2540693 -0.630401 240.21825445 -0.64540654 C247.7300952 -0.56079145 254.52174593 1.52817015 259.94827116 6.94467276 C264.72056987 12.68912325 266.10661196 18.41128025 266.0390625 25.75390625 C266.03342285 26.55256104 266.0277832 27.35121582 266.02197266 28.17407227 C266.01472168 28.77662842 266.0074707 29.37918457 266 30 C234.39821446 30.27377531 202.79676638 30.48612667 171.194072 30.61278395 C167.4627941 30.62779236 163.73151854 30.64332424 160.00024414 30.65917969 C158.88600378 30.66390128 158.88600378 30.66390128 157.74925352 30.66871825 C145.72264432 30.7209292 133.69672372 30.81553972 121.67052298 30.92583355 C109.32966673 31.03806883 96.98917098 31.10470832 84.6478253 31.12906194 C77.03258526 31.14552541 69.41929134 31.19750571 61.80465049 31.2949976 C55.96482008 31.36595556 50.1259873 31.37345916 44.2857132 31.35729218 C41.89065884 31.36059611 39.49553149 31.38450372 37.10091591 31.4304657 C18.96401635 31.7615344 18.96401635 31.7615344 14.10243416 27.40116119 C12.26841085 24.29747306 11.12663482 21.41244328 10 18 C8.47962702 15.45373469 8.47962702 15.45373469 6.91015625 13.328125 C6.43642578 12.64492187 5.96269531 11.96171875 5.47460938 11.2578125 C5.00861328 10.59523438 4.54261719 9.93265625 4.0625 9.25 C3.32290039 8.18652344 3.32290039 8.18652344 2.56835938 7.1015625 C1.38293337 5.39823193 0.19208954 3.69867371 -1 2 C-0.67 1.34 -0.34 0.68 0 0 Z " fill="#183B56" transform="translate(133,115)"/>
<path d="M0 0 C82.17 0 164.34 0 249 0 C249.33 6.27 249.66 12.54 250 19 C253.33803691 21.22535794 254.62819711 21.28978404 258.54296875 21.4140625 C260.15268555 21.47207031 260.15268555 21.47207031 261.79492188 21.53125 C262.91447266 21.5621875 264.03402344 21.593125 265.1875 21.625 C266.31865234 21.66367187 267.44980469 21.70234375 268.61523438 21.7421875 C271.4099925 21.83652533 274.20474278 21.92211652 277 22 C270.67300944 28.67849004 270.67300944 28.67849004 265.89657998 29.25299966 C265.13691926 29.25440851 264.37725853 29.25581736 263.59457779 29.25726891 C262.27330836 29.26694224 262.27330836 29.26694224 260.92534661 29.276811 C259.96193597 29.2737138 258.99852532 29.2706166 258.00592041 29.26742554 C256.97909204 29.27195665 255.95226367 29.27648776 254.8943193 29.28115618 C251.44284721 29.2938479 247.99153195 29.29217672 244.54003906 29.29052734 C242.06970007 29.29650966 239.59936296 29.30331452 237.12902832 29.31088257 C231.10833569 29.32674156 225.08770506 29.33299235 219.06699732 29.33410732 C214.17203704 29.33505774 209.27708968 29.33916769 204.38213348 29.34550858 C190.50122767 29.36312352 176.62035278 29.37234724 162.7394357 29.37084763 C161.99107622 29.37076772 161.24271673 29.3706878 160.47167969 29.37060547 C159.34776804 29.37048283 159.34776804 29.37048283 158.2011511 29.37035771 C146.06261988 29.3695451 133.92421283 29.38867572 121.78571752 29.4168822 C109.3192466 29.44562193 96.85283621 29.45942185 84.38633132 29.45769465 C77.38848488 29.45703104 70.39076855 29.46251016 63.39295197 29.48405075 C56.81018599 29.50418389 50.22764771 29.50357765 43.64485168 29.48901749 C41.22936858 29.48692453 38.81386842 29.49165915 36.39841461 29.5037384 C33.09929082 29.51916736 29.8011174 29.50989719 26.50201416 29.49447632 C25.07028252 29.50990701 25.07028252 29.50990701 23.60962701 29.52564943 C16.64558258 29.45378354 11.10842685 27.96440707 5.9765625 23.0703125 C0.23798738 14.81074484 0 10.82759704 0 0 Z " fill="#183B56" transform="translate(115,369)"/>
<path d="M0 0 C1.31454468 1.62330627 1.31454468 1.62330627 2.82568359 3.92797852 C3.67699356 5.21545738 3.67699356 5.21545738 4.54550171 6.52894592 C5.15697052 7.46943283 5.76843933 8.40991974 6.3984375 9.37890625 C7.34549057 10.81894264 7.34549057 10.81894264 8.31167603 12.28807068 C9.65146127 14.32802011 10.98789946 16.37017104 12.32128906 18.41430664 C14.35306474 21.5288748 16.39427922 24.6370717 18.4375 27.74414062 C19.73754218 29.72619333 21.03703865 31.7086041 22.3359375 33.69140625 C22.94335785 34.61772354 23.5507782 35.54404083 24.17660522 36.49842834 C27.27706749 41.25511674 30.2463632 46.03402873 33 51 C28.94342177 57.15656115 24.88659205 63.31295651 20.82958984 69.46923828 C19.45030052 71.56229931 18.07106815 73.65539788 16.69189453 75.74853516 C14.70620563 78.76214377 12.72030997 81.77561604 10.734375 84.7890625 C9.81383331 86.18628036 9.81383331 86.18628036 8.87469482 87.61172485 C5.92814542 92.08237799 2.97599623 96.54888875 0 101 C-4.72843614 99.42686828 -8.3433843 96.79358765 -12.3125 93.875 C-13.28026367 93.17310547 -13.28026367 93.17310547 -14.26757812 92.45703125 C-15.84848894 91.3094071 -17.42472301 90.15534523 -19 89 C-18.38324133 85.8096393 -17.30081383 83.7065476 -15.42578125 81.06640625 C-14.92369141 80.33486328 -14.42160156 79.60332031 -13.90429688 78.84960938 C-12.84108479 77.32197582 -11.7680878 75.80110718 -10.68554688 74.28710938 C-10.18732422 73.55427734 -9.68910156 72.82144531 -9.17578125 72.06640625 C-8.71083252 71.40584229 -8.24588379 70.74527832 -7.7668457 70.06469727 C-6.55117639 67.49945855 -6.55117639 67.49945855 -9 63 C-42.165 62.505 -42.165 62.505 -76 62 C-76 54.41 -76 46.82 -76 39 C-53.89 38.67 -31.78 38.34 -9 38 C-6.51305935 33.46856234 -6.51305935 33.46856234 -7.89038086 30.84350586 C-8.40995361 30.14104736 -8.92952637 29.43858887 -9.46484375 28.71484375 C-10.01720703 27.93689453 -10.56957031 27.15894531 -11.13867188 26.35742188 C-12.0290918 25.15956055 -12.0290918 25.15956055 -12.9375 23.9375 C-14.10372249 22.35067268 -15.25922935 20.75589771 -16.40234375 19.15234375 C-16.92304443 18.45101318 -17.44374512 17.74968262 -17.98022461 17.02709961 C-19 15 -19 15 -18.8828125 12.9152832 C-17.78196164 10.52696047 -16.6460657 9.66870677 -14.47265625 8.203125 C-13.76302734 7.71972656 -13.05339844 7.23632812 -12.32226562 6.73828125 C-11.57654297 6.24714844 -10.83082031 5.75601562 -10.0625 5.25 C-8.9497168 4.49009766 -8.9497168 4.49009766 -7.81445312 3.71484375 C-2.29225278 0 -2.29225278 0 0 0 Z " fill="#183B56" transform="translate(449,319)"/>
<path d="M0 0 C2.4565392 1.55532696 3.55816448 3.06825452 5.15133667 5.49537659 C6.01210312 6.79231194 6.01210312 6.79231194 6.89025879 8.115448 C7.49767914 9.05188644 8.10509949 9.98832489 8.73092651 10.95314026 C9.36420868 11.91507797 9.99749084 12.87701569 10.64996338 13.86810303 C11.98736932 15.90371855 13.32023628 17.94232236 14.64889526 19.98365784 C16.68130557 23.10489408 18.72826331 26.21617787 20.77780151 29.32618713 C22.07554819 31.30543358 23.37245145 33.28523334 24.66842651 35.26564026 C25.27989532 36.19600601 25.89136414 37.12637177 26.5213623 38.08493042 C27.37267227 39.39605049 27.37267227 39.39605049 28.24118042 40.73365784 C28.73985626 41.49817764 29.2385321 42.26269745 29.75231934 43.05038452 C31.16996483 45.48572341 32.32903309 47.57984518 33.06686401 50.30860901 C32.2333374 52.54664612 32.2333374 52.54664612 30.69528198 54.83595276 C30.12743988 55.70034973 29.55959778 56.5647467 28.97454834 57.45533752 C28.34243439 58.37629211 27.71032043 59.2972467 27.05905151 60.24610901 C26.10350876 61.68264832 26.10350876 61.68264832 25.12866211 63.14820862 C23.08338537 66.21345447 21.012866 69.26070116 18.94186401 72.30860901 C17.56783726 74.36220622 16.19542112 76.41688206 14.82467651 78.47267151 C4.10298955 94.49279163 4.10298955 94.49279163 0.06686401 99.30860901 C-4.4887766 97.72328092 -8.24789367 95.3185782 -12.24563599 92.68360901 C-12.89081177 92.26337463 -13.53598755 91.84314026 -14.20071411 91.41017151 C-15.78074323 90.3802266 -17.35729646 89.34495273 -18.93313599 88.30860901 C-17.10033541 82.83127395 -13.72786908 78.47931208 -10.39016724 73.83595276 C-8.40578967 70.97220087 -7.04138428 68.93404359 -6.44094849 65.46485901 C-6.76015507 62.92722515 -6.76015507 62.92722515 -9.93313599 61.30860901 C-12.86497627 60.9788168 -12.86497627 60.9788168 -16.24050903 60.98976135 C-17.54163132 60.96989166 -18.8427536 60.95002197 -20.18330383 60.92955017 C-21.60381907 60.9176737 -23.02433611 60.90601084 -24.44485474 60.89454651 C-25.89789432 60.87583666 -27.35092302 60.85626338 -28.80393982 60.83586121 C-32.62611476 60.78451437 -36.44832494 60.74490247 -40.2706604 60.7077179 C-44.17191299 60.66769414 -48.07301868 60.6165944 -51.97415161 60.56642151 C-59.62705332 60.46963197 -67.28001178 60.38626084 -74.93313599 60.30860901 C-74.93313599 53.04860901 -74.93313599 45.78860901 -74.93313599 38.30860901 C-72.97980347 38.28878967 -71.02647095 38.26897034 -69.01394653 38.24855042 C-62.56376241 38.18080911 -56.11373541 38.10403614 -49.66372967 38.02108192 C-45.75267275 37.97111286 -41.84164293 37.92478301 -37.93045044 37.88673401 C-34.15669314 37.8498887 -30.38316215 37.80353107 -26.60959816 37.7505455 C-25.16912616 37.73199748 -23.72860564 37.716891 -22.28806114 37.70526505 C-20.27211405 37.68841036 -18.25629154 37.65824007 -16.24050903 37.62745667 C-14.51842476 37.60747116 -14.51842476 37.60747116 -12.7615509 37.58708191 C-9.72922933 37.51248068 -9.72922933 37.51248068 -6.93313599 35.30860901 C-6.33666804 31.31683014 -7.28331872 29.18928656 -9.55813599 25.95314026 C-10.09954224 25.1661676 -10.64094849 24.37919495 -11.19876099 23.56837463 C-11.77110474 22.76077698 -12.34344849 21.95317932 -12.93313599 21.12110901 C-14.06202193 19.50532744 -15.18722196 17.88696233 -16.30813599 16.26564026 C-16.81087036 15.55383606 -17.31360474 14.84203186 -17.83157349 14.10865784 C-18.93313599 12.30860901 -18.93313599 12.30860901 -18.93313599 10.30860901 C-16.37154569 8.13802467 -13.49299449 6.39072813 -10.68313599 4.55860901 C-9.9058313 4.0262262 -9.12852661 3.49384338 -8.32766724 2.94532776 C-7.57356567 2.45161682 -6.81946411 1.95790588 -6.04251099 1.44923401 C-5.35125122 0.99065002 -4.65999146 0.53206604 -3.94778442 0.05958557 C-1.93313599 -0.69139099 -1.93313599 -0.69139099 0 0 Z " fill="#183B56" transform="translate(105.93313598632813,94.69139099121094)"/>
</svg>
