<?xml version="1.0" encoding="UTF-8"?>
<svg version="1.1" xmlns="http://www.w3.org/2000/svg" width="512" height="512">
<path d="M0 0 C90.75 0 181.5 0 275 0 C275.0928125 43.56 275.0928125 43.56 275.1875 88 C275.21481201 97.1678125 275.24212402 106.335625 275.27026367 115.78125 C275.28381348 126.98046875 275.28381348 126.98046875 275.28633118 132.22412109 C275.28912494 135.88465841 275.30036267 139.54506506 275.31672668 143.20556641 C275.33733802 147.87821813 275.34346716 152.55068045 275.33921683 157.22337341 C275.34010531 158.93608155 275.3460341 160.64879645 275.35764539 162.36146545 C275.37263535 164.6806673 275.36894603 166.99913969 275.36076355 169.31835938 C275.36352893 170.6162439 275.36629431 171.91412842 275.36914349 173.25134277 C274.86748438 178.34569796 273.62952552 183.04827284 270.28125 187.05859375 C269.6934375 187.51363281 269.105625 187.96867188 268.5 188.4375 C267.9121875 188.91058594 267.324375 189.38367188 266.71875 189.87109375 C263.75715684 191.81632198 261.1912536 192.12637332 257.74886036 192.13701439 C256.44102769 192.1446262 256.44102769 192.1446262 255.10677415 192.15239179 C254.14823256 192.15288955 253.18969097 192.15338731 252.20210266 192.15390015 C250.6753924 192.16047353 250.6753924 192.16047353 249.11783952 192.1671797 C245.69094391 192.18058547 242.26407403 192.18675057 238.8371582 192.19287109 C236.38667178 192.20077064 233.93618653 192.20903949 231.48570251 192.21765137 C224.12015183 192.24162243 216.75460538 192.2568015 209.38902906 192.26971143 C207.30841682 192.27342388 205.22780524 192.27739707 203.14719367 192.2814641 C190.22488459 192.30670114 177.30257444 192.32875268 164.38024616 192.34119225 C161.38736784 192.34412191 158.39448956 192.34708358 155.40161133 192.35009766 C154.65775262 192.35084371 153.91389392 192.35158976 153.14749404 192.35235842 C141.09941176 192.36501006 129.05147712 192.39823093 117.00346384 192.43989949 C104.63195349 192.48233586 92.26051869 192.50588923 79.88893574 192.51111281 C72.94356482 192.51452501 65.99842462 192.52625736 59.05312538 192.55921555 C52.51878353 192.59017289 45.98477071 192.59562335 39.45034218 192.58383179 C37.05258689 192.58361069 34.65481318 192.59194544 32.25712204 192.60948563 C28.98186789 192.63214051 25.70807704 192.62389789 22.43281555 192.60800171 C21.48542757 192.6218838 20.53803959 192.63576588 19.56194288 192.65006864 C13.22255341 192.57433399 8.86629316 191.15666314 4 187 C-1.90121117 180.04318306 -0.5308075 170.24338446 -0.45410156 161.66015625 C-0.45287514 159.86697932 -0.45341204 158.07380045 -0.45556259 156.28062439 C-0.45646301 151.49284571 -0.43333558 146.7054696 -0.40512085 141.91778564 C-0.3822852 137.41978736 -0.38126536 132.92188536 -0.37841797 128.42382812 C-0.3574562 115.28249908 -0.30161131 102.14124441 -0.25 89 C-0.1675 59.63 -0.085 30.26 0 0 Z M22.02755451 59.33559036 C20.35179691 62.04994475 20.6179452 64.56591028 20.61181641 67.71875 C20.60655945 68.39711914 20.60130249 69.07548828 20.59588623 69.77441406 C20.58268365 72.01651035 20.59142462 74.25789651 20.6015625 76.5 C20.59954182 78.0579441 20.59663044 79.61588727 20.59286499 81.17382812 C20.58844131 84.43889369 20.59487391 87.70371305 20.60888672 90.96875 C20.62597887 95.15551349 20.61613789 99.34170007 20.59816933 103.52844238 C20.58733254 106.74548699 20.59077729 109.96239465 20.5985527 113.17944336 C20.60055501 114.7232266 20.59809434 116.26702225 20.59111404 117.81079102 C20.58350099 119.96794604 20.59510028 122.12416478 20.61181641 124.28125 C20.61420319 125.50908203 20.61658997 126.73691406 20.61904907 128.00195312 C20.77604891 130.89495234 20.77604891 130.89495234 22.02881622 132.66272736 C25.10604815 134.75035517 28.32740119 134.41939548 31.91989136 134.39440918 C33.14351023 134.40354584 33.14351023 134.40354584 34.39184868 134.41286707 C37.13490771 134.42956288 39.87750587 134.42471194 42.62060547 134.41992188 C44.58335861 134.42725844 46.54610743 134.43584345 48.5088501 134.44558716 C53.84771889 134.46785647 59.1864336 134.4707311 64.52534246 134.46883965 C68.97874395 134.46872018 73.43211249 134.47727449 77.88550484 134.48561716 C88.39065175 134.50487111 98.89571919 134.50772796 109.40087891 134.50097656 C120.24537717 134.4943354 131.08953534 134.51719872 141.93396461 134.55429029 C151.23765557 134.58495974 160.54123698 134.59635027 169.8449775 134.59245348 C175.4047094 134.59038297 180.96417679 134.59591174 186.52386093 134.62034607 C191.75244214 134.64256479 196.98046958 134.64077588 202.20905304 134.62041855 C204.12912804 134.61699975 206.04923995 134.62213485 207.96926498 134.63640213 C210.58887394 134.65452599 213.20659059 134.64189779 215.82614136 134.62145996 C216.58772045 134.63397781 217.34929954 134.64649566 218.13395679 134.65939283 C222.0826057 134.59325183 223.78721976 134.17701457 226.86340523 131.61789703 C227.5684815 130.75399101 228.27355778 129.89008499 229 129 C229.77859375 128.17242187 230.5571875 127.34484375 231.359375 126.4921875 C236.4058421 120.96746044 241.2726096 115.34894208 245.9453125 109.50390625 C247.7572283 107.29584916 249.65536738 105.25243742 251.625 103.1875 C254.31436681 100.27485454 254.31436681 100.27485454 253.88671875 97.10546875 C252.87863355 93.57495008 251.61363522 91.86150568 249.1875 89.125 C245.20763836 84.47758968 241.46345898 79.72278522 237.8125 74.8125 C237.32612061 74.15975098 236.83974121 73.50700195 236.33862305 72.83447266 C235.86207275 72.19429199 235.38552246 71.55411133 234.89453125 70.89453125 C234.42354004 70.26240723 233.95254883 69.6302832 233.46728516 68.97900391 C232.42965659 67.57950022 231.39872083 66.17502261 230.37255859 64.76708984 C229.84098145 64.04344238 229.3094043 63.31979492 228.76171875 62.57421875 C228.28049561 61.91381592 227.79927246 61.25341309 227.3034668 60.57299805 C226.0667454 58.86530826 226.0667454 58.86530826 224 58 C221.38698847 57.89782717 218.80037127 57.85661838 216.18690491 57.85955811 C215.37060228 57.85658698 214.55429966 57.85361586 213.71326059 57.8505547 C210.96255738 57.84184402 208.21189757 57.84035747 205.46118164 57.83886719 C203.49533494 57.83424075 201.52948915 57.82921633 199.56364441 57.82382202 C194.21249274 57.81068072 188.86135363 57.8042499 183.51018834 57.79981136 C180.17034373 57.79688393 176.83050259 57.7927798 173.49065971 57.78830719 C163.0506104 57.77462882 152.61056896 57.76496335 142.17051131 57.7611053 C130.10085379 57.75662104 118.03130932 57.73905749 105.96168619 57.7101047 C96.64362703 57.68852469 87.32559975 57.67840302 78.00751585 57.67706418 C72.4367145 57.67601367 66.86601936 57.67005363 61.29524422 57.65224457 C56.05778103 57.63582701 50.82050464 57.6335775 45.58302498 57.64238358 C43.65727236 57.6431573 41.73150995 57.63876737 39.80578232 57.62892532 C37.18365531 57.61630653 34.56220003 57.62202721 31.94007874 57.63250732 C30.78794839 57.62042272 30.78794839 57.62042272 29.61254269 57.60809398 C25.5861412 57.63775619 25.5861412 57.63775619 22.02755451 59.33559036 Z " fill="#183B56" transform="translate(119,100)"/>
<path d="M0 0 C1.1707608 0.0001133 1.1707608 0.0001133 2.36517334 0.00022888 C3.19760559 0.00539017 4.03003784 0.01055145 4.88769531 0.01586914 C5.74768127 0.01728409 6.60766724 0.01869904 7.49371338 0.02015686 C10.2344514 0.02574442 12.97510707 0.03829465 15.71582031 0.05102539 C17.57649621 0.056042 19.4371734 0.06060462 21.29785156 0.06469727 C25.85387277 0.07570978 30.40983259 0.09296588 34.96582031 0.11352539 C34.96728687 0.75883146 34.96875343 1.40413754 34.97026443 2.06899834 C35.00738872 17.80335711 35.06647748 33.5374592 35.14972305 49.27163506 C35.18945647 56.88071907 35.22187776 64.48970052 35.23681641 72.09887695 C35.24986262 78.7345209 35.27690246 85.36993863 35.32043338 92.00545514 C35.34298199 95.51581746 35.358735 99.02590146 35.35770416 102.53634262 C35.35681377 106.46448264 35.38717902 110.39205809 35.41992188 114.32006836 C35.41489151 115.47165939 35.40986115 116.62325043 35.40467834 117.80973816 C35.51233617 126.18495624 37.3325515 132.65722433 41.59082031 139.86352539 C46.95487192 144.94525849 53.72369168 149.23003332 61.24540138 149.24774647 C62.12363992 149.25220431 63.00187846 149.25666216 63.90673029 149.26125509 C64.87237166 149.26107072 65.83801303 149.26088636 66.83291626 149.26069641 C68.37081883 149.26621144 68.37081883 149.26621144 69.93979013 149.27183789 C73.391994 149.2828936 76.84416778 149.28672179 80.29638672 149.29052734 C82.76495459 149.29679059 85.23352152 149.30343727 87.7020874 149.31044006 C95.12252361 149.32968151 102.54295183 149.34027081 109.96340567 149.34916785 C113.45889504 149.35355186 116.95438289 149.35891843 120.44987106 149.36415672 C132.07193245 149.38116963 143.6939929 149.39566297 155.31606483 149.40290546 C158.33196641 149.40481533 161.34786798 149.40673566 164.36376953 149.40869141 C165.11334716 149.40917515 165.86292478 149.40965889 166.63521688 149.41015729 C178.77312999 149.41845447 190.91094444 149.4437858 203.04881449 149.47627208 C215.5141217 149.50936233 227.97937881 149.52735605 240.44473016 149.53054971 C247.44207334 149.53271313 254.4392727 149.54143693 261.43657303 149.56701088 C268.02095821 149.5910202 274.60513139 149.5945312 281.18956757 149.5842495 C283.60463445 149.58375362 286.01971399 149.59008914 288.43474197 149.60380554 C291.73574539 149.62150293 295.03581829 149.61442795 298.33682251 149.60127258 C299.28907955 149.61224183 300.24133659 149.62321108 301.2224499 149.63451272 C309.82121125 149.5519685 317.00626062 146.7928439 323.39550781 140.95336914 C328.85552951 134.55617954 331.06535995 127.07843694 331.1240387 118.80473328 C331.13382751 117.75450485 331.14361633 116.70427643 331.15370178 115.6222229 C331.15945724 114.4807077 331.16521271 113.3391925 331.17114258 112.16308594 C331.18104218 110.95291306 331.19094177 109.74274017 331.20114136 108.49589539 C331.22727776 105.18638499 331.24916087 101.87689805 331.26914334 98.56734824 C331.29105537 95.10532306 331.31841847 91.64334103 331.34519958 88.18135071 C331.39505609 81.62958692 331.44002095 75.07779909 331.48322195 68.5259884 C331.53265462 61.06528461 331.58755034 53.60462413 331.64290154 46.14396226 C331.75661343 30.80052336 331.86347584 15.45704458 331.96582031 0.11352539 C337.41012614 0.03914963 342.85413361 -0.01518327 348.29882812 -0.05126953 C350.1494665 -0.06631932 352.00006942 -0.08676394 353.85058594 -0.11279297 C356.51669076 -0.14934441 359.18232239 -0.16623915 361.84863281 -0.17944336 C362.67074249 -0.19492722 363.49285217 -0.21041107 364.33987427 -0.22636414 C369.26798871 -0.22779512 372.75630881 0.2606623 376.96582031 3.11352539 C406.18529631 61.55247739 378.96582031 133.77679079 378.96582031 199.11352539 C249.93582031 199.11352539 120.90582031 199.11352539 -12.03417969 199.11352539 C-12.03417969 6.11352539 -12.03417969 6.11352539 -8.03417969 1.11352539 C-5.36251527 0.0364895 -2.86206805 -0.00929243 0 0 Z " fill="#183B56" transform="translate(73.0341796875,152.886474609375)"/>
<path d="M0 0 C129.03 0 258.06 0 391 0 C391 30 391 30 388 35 C384.70706677 37.38705185 381.60156387 37.25145779 377.61840916 37.25447559 C376.97708651 37.25768207 376.33576386 37.26088855 375.67500719 37.26419219 C373.51734312 37.27252023 371.35995459 37.26655825 369.20228577 37.26069641 C367.64322061 37.26371582 366.08415693 37.26760424 364.52509588 37.27228898 C360.23396604 37.28260487 355.94291941 37.28037806 351.65178263 37.27610838 C347.02661963 37.27364766 342.40147701 37.28264715 337.77632141 37.29014587 C328.71261505 37.30291302 319.64893829 37.30468407 310.58522446 37.30234561 C303.22027463 37.30056459 295.85533381 37.30230744 288.49038506 37.30657005 C287.44328408 37.30716524 286.39618311 37.30776043 285.3173518 37.30837366 C283.19036059 37.30958537 281.06336938 37.31079951 278.93637817 37.31201603 C258.97727768 37.32289927 239.01819408 37.32072533 219.05909263 37.31463119 C200.78829971 37.30946095 182.51756009 37.3207189 164.24677772 37.33972941 C145.49858615 37.35908753 126.75041982 37.36736739 108.00221819 37.36360615 C97.47161031 37.36169108 86.94104782 37.36421147 76.41044807 37.37832069 C67.44603227 37.39020967 58.48168978 37.39166735 49.51727302 37.37953053 C44.94150103 37.37362442 40.36586329 37.37259003 35.7901001 37.38453293 C31.60363828 37.39533298 27.41742374 37.39235896 23.23097377 37.37827124 C21.71419087 37.37560802 20.19738894 37.37804144 18.68062461 37.38600711 C16.62259291 37.39606756 14.56542842 37.38773146 12.50743198 37.37473011 C10.7911209 37.37481263 10.7911209 37.37481263 9.04013687 37.37489682 C5.62928327 36.95428478 3.74281652 36.03769733 1 34 C-4.0706125 23.858775 0 11.33823423 0 0 Z M261.0234375 14.36328125 C259.5277048 16.75531179 259.51710369 18.24059253 260 21 C262.40943415 23.46863401 263.85838291 23.98146286 267.3125 24.43359375 C269.1378125 24.43552734 269.1378125 24.43552734 271 24.4375 C272.216875 24.45683594 273.43375 24.47617187 274.6875 24.49609375 C278.0627075 24.2624487 278.0627075 24.2624487 280.4453125 22.13671875 C282.2786419 20.08574535 282.2786419 20.08574535 281.875 17.375 C281.13532087 14.85594875 281.13532087 14.85594875 279 13 C276.30837575 12.77447762 273.75330256 12.6756671 271.0625 12.6875 C269.96905273 12.66333008 269.96905273 12.66333008 268.85351562 12.63867188 C264.69257882 12.61551266 264.69257882 12.61551266 261.0234375 14.36328125 Z M302.0234375 14.36328125 C300.5277048 16.75531179 300.51710369 18.24059253 301 21 C303.40943415 23.46863401 304.85838291 23.98146286 308.3125 24.43359375 C310.1378125 24.43552734 310.1378125 24.43552734 312 24.4375 C313.216875 24.45683594 314.43375 24.47617187 315.6875 24.49609375 C319.0627075 24.2624487 319.0627075 24.2624487 321.4453125 22.13671875 C323.2786419 20.08574535 323.2786419 20.08574535 322.875 17.375 C322.13532087 14.85594875 322.13532087 14.85594875 320 13 C317.30837575 12.77447762 314.75330256 12.6756671 312.0625 12.6875 C310.96905273 12.66333008 310.96905273 12.66333008 309.85351562 12.63867188 C305.69257882 12.61551266 305.69257882 12.61551266 302.0234375 14.36328125 Z M342.28100586 14.36645508 C340.79861785 15.99205093 340.79861785 15.99205093 340.5625 18.5 C340.76964813 21.07178034 340.76964813 21.07178034 342.59375 22.62890625 C345.81783349 24.46600577 348.24295947 24.43355705 351.9375 24.4375 C353.14277344 24.45683594 354.34804688 24.47617187 355.58984375 24.49609375 C359.52208242 23.92404987 361.16784312 22.71392643 364 20 C363.42547254 16.06924356 363.42547254 16.06924356 361 13 C358.14434641 12.77447659 355.4174649 12.67571237 352.5625 12.6875 C351.78583984 12.67138672 351.00917969 12.65527344 350.20898438 12.63867188 C345.95124175 12.5180175 345.95124175 12.5180175 342.28100586 14.36645508 Z " fill="#183B56" transform="translate(61,363)"/>
<path d="M0 0 C1.30260758 -0.00761181 1.30260758 -0.00761181 2.63153046 -0.0153774 C3.58618111 -0.01587516 4.54083175 -0.01637292 5.5244112 -0.01688576 C7.04499613 -0.02345914 7.04499613 -0.02345914 8.59629995 -0.03016531 C12.00937603 -0.04357086 15.42242628 -0.04973613 18.83552265 -0.0558567 C21.27615698 -0.06375626 23.71679014 -0.07202512 26.15742207 -0.08063698 C33.49330988 -0.10460787 40.82919343 -0.11978708 48.16510698 -0.13269705 C50.23735017 -0.1364095 52.3095927 -0.14038269 54.38183522 -0.14444971 C67.25224341 -0.16968678 80.12265267 -0.19173825 92.99308014 -0.20417786 C95.9739269 -0.20710752 98.95477363 -0.21006918 101.93562031 -0.21308327 C102.6764884 -0.21382932 103.41735649 -0.21457537 104.18067513 -0.21534403 C116.18025875 -0.22799561 128.17969414 -0.26121641 140.17920848 -0.3028851 C152.50099829 -0.34532188 164.82271225 -0.36887489 177.14457494 -0.37409842 C184.0620006 -0.37751058 190.97919459 -0.3892424 197.89654827 -0.42220116 C204.40462562 -0.45315918 210.91237261 -0.45860873 217.42053699 -0.4468174 C219.808617 -0.44659631 222.19671551 -0.45493063 224.5847311 -0.47247124 C227.84684998 -0.49512718 231.10749978 -0.48688305 234.36962605 -0.47098732 C235.31312308 -0.48486941 236.25662012 -0.49875149 237.22870797 -0.51305425 C243.57095682 -0.43698601 247.88124338 1.00960988 252.76447773 5.13701439 C263.05182465 18.06214257 257.76447773 33.00628721 257.76447773 50.13701439 C167.01447773 50.13701439 76.26447773 50.13701439 -17.23552227 50.13701439 C-17.23552227 10.38928712 -17.23552227 10.38928712 -12.51677227 5.27373314 C-11.92895977 4.79549095 -11.34114727 4.31724876 -10.73552227 3.82451439 C-10.14770977 3.33338158 -9.55989727 2.84224876 -8.95427227 2.33623314 C-6.02861612 0.29492305 -3.45610993 0.01072668 0 0 Z M-0.23552227 23.13701439 C-0.07402022 26.52855734 0.3474453 27.71998196 2.76447773 30.13701439 C5.13024532 30.44719142 5.13024532 30.44719142 7.92010212 30.40443993 C9.55848293 30.41723488 9.55848293 30.41723488 11.22996235 30.43028831 C12.43365467 30.42938194 13.63734699 30.42847557 14.87751484 30.42754173 C16.77267086 30.43761757 16.77267086 30.43761757 18.70611286 30.44789696 C22.17717881 30.4655959 25.64814622 30.47025394 29.11925292 30.47152853 C32.01448856 30.47342534 34.90970111 30.48078031 37.80492789 30.48787272 C44.63414841 30.50416888 51.46331618 30.50904054 58.2925539 30.50761986 C65.34314183 30.50641791 72.39342388 30.52752725 79.44393438 30.55910718 C85.49239386 30.58523589 91.54075323 30.5959886 97.58926874 30.59470904 C101.20393781 30.59419842 104.81833513 30.59993628 108.43294811 30.62106514 C112.46286107 30.64397771 116.49208626 30.63494769 120.52204609 30.62285423 C121.72371418 30.63409325 122.92538227 30.64533226 124.16346455 30.65691185 C125.25853825 30.64852287 126.35361195 30.6401339 127.4818697 30.63149071 C128.91182223 30.63312501 128.91182223 30.63312501 130.37066269 30.63479233 C132.90737469 30.33494428 132.90737469 30.33494428 134.63760948 28.27017212 C136.07759583 26.12609161 136.07759583 26.12609161 135.07697773 23.51201439 C133.85625927 21.04421494 133.85625927 21.04421494 131.76447773 19.13701439 C129.43524824 18.8269518 129.43524824 18.8269518 126.6915102 18.86958885 C125.08053959 18.8567939 125.08053959 18.8567939 123.43702412 18.84374046 C121.66189442 18.84510002 121.66189442 18.84510002 119.85090351 18.84648705 C118.6085796 18.83976982 117.36625568 18.8330526 116.08628559 18.82613182 C112.67294667 18.81035465 109.25985101 18.80377478 105.84649229 18.80250025 C102.99857198 18.80060311 100.15067512 18.79324762 97.30276382 18.78615606 C90.5837723 18.76985909 83.86483439 18.76498825 77.14582539 18.76640892 C70.21227076 18.76761032 63.27902745 18.74651218 56.34555161 18.71492159 C50.39558925 18.68877707 44.44572867 18.67804087 38.4957093 18.67931974 C34.94081018 18.67982997 31.38618753 18.67411368 27.83134556 18.65296364 C23.86638682 18.63001871 19.9018554 18.63909107 15.93684101 18.65117455 C14.167784 18.63431602 14.167784 18.63431602 12.36298847 18.61711693 C11.28336842 18.62550591 10.20374836 18.63389488 9.09141254 18.64253807 C8.15378134 18.64144854 7.21615013 18.640359 6.25010586 18.63923645 C2.99947047 19.29021661 1.77563341 20.55144757 -0.23552227 23.13701439 Z M163.76447773 23.13701439 C163.92597978 26.52855734 164.3474453 27.71998196 166.76447773 30.13701439 C170.89198921 30.59517427 175.05198541 30.46102296 179.20197773 30.44951439 C180.93931171 30.47368431 180.93931171 30.47368431 182.71174335 30.49834251 C183.82098164 30.49898705 184.93021992 30.49963158 186.07307148 30.50029564 C187.09199482 30.5032766 188.11091816 30.50625755 189.16071796 30.50932884 C191.78563615 30.33781013 191.78563615 30.33781013 193.62800312 28.80571556 C195.06575607 27.05100366 195.06575607 27.05100366 194.63947773 24.07451439 C194.0179736 20.84446024 194.0179736 20.84446024 190.76447773 19.13701439 C186.96723232 18.67511906 183.14932324 18.76669004 179.32697773 18.76201439 C178.27703632 18.7375222 177.22709492 18.71303001 176.1453371 18.68779564 C175.13406757 18.68392845 174.12279804 18.68006126 173.08088398 18.67607689 C172.15735126 18.66785912 171.23381855 18.65964134 170.2823 18.65117455 C167.00145593 19.28424734 165.79048445 20.53082895 163.76447773 23.13701439 Z M210.04572773 21.66826439 C209.41150898 22.89029564 209.41150898 22.89029564 208.76447773 24.13701439 C209.85232741 27.38684574 209.85232741 27.38684574 211.76447773 30.13701439 C215.88318688 30.39044065 220.01389706 30.32224259 224.13947773 30.32451439 C225.88357929 30.34288353 225.88357929 30.34288353 227.66291523 30.36162376 C229.33354023 30.36452415 229.33354023 30.36452415 231.03791523 30.36748314 C232.57584736 30.37364647 232.57584736 30.37364647 234.14484882 30.37993431 C236.99800009 30.32475207 236.99800009 30.32475207 239.76447773 28.13701439 C240.34793249 25.17954946 240.34793249 25.17954946 239.76447773 22.13701439 C235.31959972 17.78420519 230.11948643 18.6225754 224.26447773 18.63701439 C223.21904804 18.60865501 222.17361835 18.58029564 221.09650898 18.55107689 C214.96806777 18.39566504 214.96806777 18.39566504 210.04572773 21.66826439 Z " fill="#183B56" transform="translate(136.23552227020264,38.862985610961914)"/>
<path d="M0 0 C19.8 0 39.6 0 60 0 C61.48725843 4.4617753 62.59925448 8.50434059 63.5078125 13.078125 C63.70333206 14.05709747 63.70333206 14.05709747 63.90280151 15.05584717 C64.17514927 16.42358712 64.44564343 17.79169737 64.71435547 19.16015625 C65.1267145 21.25872539 65.54531651 23.35597833 65.96484375 25.453125 C68 35.70443053 68 35.70443053 68 38 C81.53 38 95.06 38 109 38 C109 46.58 109 55.16 109 64 C56.2 64 3.4 64 -51 64 C-51 55.42 -51 46.84 -51 38 C-37.14 38 -23.28 38 -9 38 C-7.68 31.73 -6.36 25.46 -5 19 C-3.35 12.73 -1.7 6.46 0 0 Z " fill="#183B56" transform="translate(227,411)"/>
<path d="M0 0 C5.92200238 -0.29891684 11.83953227 -0.51538244 17.76733398 -0.65917969 C19.77852924 -0.71916242 21.78920919 -0.80078792 23.79858398 -0.90527344 C41.4004188 -1.79694821 41.4004188 -1.79694821 46.66552734 2.53125 C49.52150174 5.4012977 51.73867333 8.64652122 54 12 C55.63905016 13.85806444 57.30169477 15.69593563 59 17.5 C60.34803422 18.98680245 61.68309366 20.48555771 63 22 C63.61875 22.6496875 64.2375 23.299375 64.875 23.96875 C66 26 66 26 65.41796875 28.51171875 C63.94794227 31.09135199 62.47769835 32.79193179 60.3125 34.8125 C55.87339634 39.0830301 51.27357359 43.55313503 47.8671875 48.71740723 C45.8190413 51.57435535 44.23479386 53.65928502 40.7628479 54.61729431 C38.07927224 54.80900185 35.47748477 54.78786883 32.7890625 54.68359375 C31.82092621 54.67368912 30.85278992 54.66378448 29.85531616 54.65357971 C26.77697307 54.61453605 23.70225656 54.52673419 20.625 54.4375 C18.53260375 54.40237313 16.44015135 54.37043653 14.34765625 54.34179688 C9.23038326 54.26480668 4.11580544 54.14409381 -1 54 C-0.03832522 52.87737585 0.92344428 51.75483284 1.88525391 50.63232422 C2.42082916 50.0071994 2.95640442 49.38207458 3.50820923 48.73800659 C5.1212123 46.85878195 6.74359932 44.98827489 8.375 43.125 C8.95121094 42.45984375 9.52742187 41.7946875 10.12109375 41.109375 C11.45575302 39.61100493 12.82726712 38.14510884 14.22265625 36.703125 C14.95355469 35.93484375 15.68445313 35.1665625 16.4375 34.375 C17.11683594 33.68148437 17.79617187 32.98796875 18.49609375 32.2734375 C20.57498487 29.1308021 20.74052709 27.71172165 20 24 C18.07828572 21.23169371 15.7662073 18.92724524 13.375 16.5625 C12.13145832 15.29429518 10.88926097 14.02477071 9.6484375 12.75390625 C9.0409668 12.13531738 8.43349609 11.51672852 7.80761719 10.87939453 C0 2.76175041 0 2.76175041 0 0 Z " fill="#183B56" transform="translate(184,169)"/>
<path d="M0 0 C6.13791169 -0.19837865 12.27394235 -0.34321671 18.41430664 -0.43945312 C20.50090045 -0.47958304 22.5872707 -0.53410272 24.6730957 -0.60351562 C27.67976041 -0.70103683 30.68344386 -0.74602902 33.69140625 -0.78125 C34.61772354 -0.82254028 35.54404083 -0.86383057 36.49842834 -0.90637207 C40.43422972 -0.90907339 42.97379699 -0.84333855 46.08439636 1.71296692 C47.86065126 3.73572939 49.43125145 5.81449471 51 8 C52.03924902 9.16489338 53.09270307 10.31748608 54.16796875 11.44921875 C54.91916992 12.25649414 54.91916992 12.25649414 55.68554688 13.08007812 C56.69815728 14.16379511 57.71118731 15.24712012 58.72460938 16.33007812 C61.62843358 19.45234825 64.38030462 22.63003387 67 26 C65.68120833 28.86994188 64.22904698 31.08745747 62.125 33.4375 C61.21041016 34.46230469 61.21041016 34.46230469 60.27734375 35.5078125 C58.50553023 37.44677824 56.72686738 39.37834104 54.94140625 41.3046875 C54.40563965 41.8829126 53.86987305 42.4611377 53.31787109 43.05688477 C52.24389382 44.21336434 51.16745255 45.36756133 50.08837891 46.51928711 C47.8403008 48.93229194 45.83383482 51.24924777 44 54 C42.08908081 54.36076355 42.08908081 54.36076355 39.73388672 54.34057617 C38.85312469 54.34034958 37.97236267 54.34012299 37.06491089 54.33988953 C36.11278717 54.32440567 35.16066345 54.30892181 34.1796875 54.29296875 C33.20589142 54.28872391 32.23209534 54.28447906 31.22879028 54.28010559 C28.11058195 54.26327786 24.99301383 54.22561811 21.875 54.1875 C19.76433223 54.17245846 17.65365436 54.15876914 15.54296875 54.14648438 C10.36175977 54.11336109 5.18092561 54.06312151 0 54 C0.94928663 52.71743388 1.90091164 51.43659828 2.85351562 50.15649414 C3.64804138 49.08631798 3.64804138 49.08631798 4.45861816 47.99452209 C6.30337941 45.60743217 8.31907086 43.51965518 10.5 41.4375 C14.58992347 37.43240444 14.58992347 37.43240444 18.5625 33.3125 C19.03816406 32.81363281 19.51382812 32.31476563 20.00390625 31.80078125 C21.62555606 28.86909278 21.60392838 27.31963247 21 24 C18.92149927 21.07978918 16.42611118 18.63311492 13.875 16.125 C12.53512791 14.77733796 11.19915615 13.42578648 9.8671875 12.0703125 C9.27019043 11.48008301 8.67319336 10.88985352 8.05810547 10.28173828 C5.12962529 7.03505077 2.58126342 3.52544356 0 0 Z " fill="#183B56" transform="translate(241,169)"/>
<path d="M0 0 C34.44884179 -2.85245187 34.44884179 -2.85245187 43.15576172 1.62158203 C47.63533544 5.53117911 50.31451022 10.21931573 52.75048828 15.58544922 C54.58488303 19.13022532 57.11666132 21.98816503 59.73999023 24.97680664 C61 27 61 27 60.86401367 29.04760742 C59.91547322 31.19100329 58.86128755 32.63989346 57.3046875 34.390625 C56.75296875 35.01839844 56.20125 35.64617187 55.6328125 36.29296875 C54.76269531 37.26169922 54.76269531 37.26169922 53.875 38.25 C53.318125 38.88035156 52.76125 39.51070312 52.1875 40.16015625 C51.04244301 41.45560091 49.87944206 42.73537151 48.70043945 44 C46.93634102 45.94740936 46.93634102 45.94740936 45.72729492 48.25 C44.01449611 50.9851436 42.79749651 52.33727745 40 54 C33.31989693 55.3480561 26.32754607 54.74836605 19.5625 54.5 C17.66739252 54.4598405 15.77220366 54.42334404 13.87695312 54.390625 C9.24928418 54.30277667 4.62553775 54.16491461 0 54 C0.92500301 52.73709894 1.85422962 51.47729092 2.78515625 50.21875 C3.30215088 49.51685547 3.81914551 48.81496094 4.35180664 48.09179688 C6.43982629 45.44179653 8.76967472 43.14551486 11.19140625 40.8046875 C13.80932733 38.19242068 16.20515868 35.40297714 18.6171875 32.6015625 C19.38570483 31.71147181 20.16847119 30.83152881 21 30 C21.67166707 27.25696104 21.67166707 27.25696104 21 24 C19.48362734 22.07416172 17.80366854 20.50247824 15.99609375 18.84765625 C13.37673207 16.42308076 11.10422256 13.76400102 8.77734375 11.0625 C6.31223353 8.20188858 3.79630821 5.38662307 1.28515625 2.56640625 C0 1 0 1 0 0 Z " fill="#183B56" transform="translate(299,169)"/>
<path d="M0 0 C18 0 18 0 22.35546875 2.78125 C23.85009766 4.57299805 23.85009766 4.57299805 25.1875 6.5 C25.70103027 7.1391333 26.21456055 7.7782666 26.74365234 8.43676758 C27.74964279 9.69401665 28.73496668 10.96816651 29.69580078 12.26025391 C31.38548474 14.5142202 33.23856417 16.59712516 35.125 18.6875 C35.62257812 19.26886719 36.12015625 19.85023438 36.6328125 20.44921875 C37.97695842 22.06366713 37.97695842 22.06366713 39.7421875 23.39453125 C41 25 41 25 40.9140625 27.44921875 C39.85510501 30.4043437 38.67772804 31.70092506 36.375 33.8125 C33.59661921 36.45220938 30.94759311 39.10286306 28.4375 42 C27.56351563 42.97453125 27.56351563 42.97453125 26.671875 43.96875 C24.94318287 45.96506294 24.94318287 45.96506294 23.640625 48.28125 C22.1875 50.5 22.1875 50.5 18 54 C12.06 54 6.12 54 0 54 C0 36.18 0 18.36 0 0 Z " fill="#183B56" transform="translate(151,169)"/>
</svg>
