<?xml version="1.0" standalone="no"?>
<!DOCTYPE svg PUBLIC "-//W3C//DTD SVG 20010904//EN"
 "http://www.w3.org/TR/2001/REC-SVG-20010904/DTD/svg10.dtd">
<svg version="1.0" xmlns="http://www.w3.org/2000/svg"
 width="512.000000pt" height="512.000000pt" viewBox="0 0 512.000000 512.000000"
 preserveAspectRatio="xMidYMid meet">

<g transform="translate(0.000000,512.000000) scale(0.100000,-0.100000)"
fill="#183B56" stroke="none">
<path d="M1689 5106 c-345 -73 -609 -385 -609 -722 0 -77 -1 -82 -23 -88 -41
-10 -150 -87 -208 -147 -103 -107 -158 -239 -166 -399 -4 -84 -1 -120 15 -180
l20 -75 -58 -61 c-67 -72 -102 -132 -138 -234 -21 -62 -26 -93 -26 -185 -1
-177 48 -304 166 -431 77 -81 151 -130 258 -168 l85 -31 358 -3 357 -4 0 -259
0 -259 -289 0 -289 0 -23 48 c-34 70 -104 135 -175 162 -48 18 -73 21 -134 18
-121 -7 -215 -69 -267 -176 -24 -49 -28 -69 -28 -142 0 -73 4 -92 27 -136 15
-28 50 -72 78 -97 155 -140 403 -91 496 98 l26 55 350 0 349 0 24 25 25 24 0
321 0 320 105 0 105 0 -2 -677 -3 -678 -287 -3 -287 -2 -32 60 c-59 112 -161
174 -285 174 -176 1 -314 -139 -314 -317 0 -86 23 -147 77 -207 88 -98 215
-133 338 -95 72 23 156 97 187 166 l23 49 348 0 349 0 29 29 29 29 0 736 0
736 100 0 100 0 0 -875 0 -875 -43 -20 c-67 -32 -111 -73 -148 -142 -31 -58
-34 -70 -33 -148 0 -69 4 -93 23 -130 40 -75 77 -115 143 -151 58 -31 70 -34
148 -33 73 0 93 4 137 27 116 60 178 160 178 287 -1 124 -58 222 -165 279
l-60 32 0 875 0 874 100 0 100 0 0 -736 0 -736 29 -29 29 -29 349 0 348 0 18
-44 c22 -54 95 -128 156 -158 37 -18 63 -23 136 -23 78 0 97 4 141 27 65 34
138 114 158 175 53 155 -16 323 -161 395 -56 27 -77 32 -137 32 -124 0 -226
-62 -285 -174 l-32 -60 -287 2 -287 3 -3 678 -2 677 105 0 105 0 0 -324 0
-325 26 -20 c26 -20 38 -21 374 -21 l348 0 26 -55 c94 -191 343 -238 500 -94
74 67 100 129 101 234 0 68 -4 89 -28 137 -52 107 -146 169 -267 176 -61 3
-86 0 -134 -18 -71 -27 -141 -92 -175 -162 l-23 -48 -289 0 -289 0 0 259 0
259 358 4 c391 5 395 5 531 71 76 37 185 136 237 214 53 80 94 204 100 305 22
325 -231 624 -553 656 l-67 7 -2 85 c-7 314 -211 574 -515 657 -97 27 -263 24
-359 -6 -41 -13 -92 -32 -113 -43 l-38 -19 -39 44 c-75 85 -193 147 -309 163
l-47 6 -23 73 c-25 80 -80 180 -138 252 -89 109 -247 210 -388 248 -84 22
-264 28 -346 11z"/>
</g>
</svg>
