<svg width="112" height="112" viewBox="0 0 112 112" fill="none" xmlns="http://www.w3.org/2000/svg">
<mask id="mask0_1022_479" style="mask-type:alpha" maskUnits="userSpaceOnUse" x="9" y="13" width="94" height="86">
<path d="M59.3158 52.6868C58.4435 51.8317 57.2707 51.3528 56.0491 51.3528C54.8276 51.3528 53.6548 51.8317 52.7825 52.6868L38.7825 66.2201C38.2873 66.6287 37.8817 67.1351 37.5912 67.7076C37.3007 68.2801 37.1314 68.9064 37.0939 69.5473C37.0564 70.1882 37.1516 70.8299 37.3735 71.4323C37.5953 72.0348 37.9391 72.585 38.3833 73.0485C38.8275 73.512 39.3626 73.8789 39.955 74.1262C40.5475 74.3734 41.1846 74.4958 41.8265 74.4857C42.4684 74.4755 43.1014 74.333 43.6857 74.067C44.27 73.8011 44.7932 73.4175 45.2225 72.9401L51.3358 67.0134V93.3335C51.3358 94.5711 51.8275 95.7581 52.7026 96.6333C53.5778 97.5085 54.7648 98.0001 56.0025 98.0001C57.2402 98.0001 58.4271 97.5085 59.3023 96.6333C60.1775 95.7581 60.6691 94.5711 60.6691 93.3335V67.2468L66.6891 73.3135C67.123 73.7509 67.6391 74.098 68.2078 74.3349C68.7765 74.5719 69.3864 74.6938 70.0025 74.6938C70.6185 74.6938 71.2285 74.5719 71.7972 74.3349C72.3658 74.098 72.882 73.7509 73.3158 73.3135C73.7532 72.8796 74.1004 72.3635 74.3373 71.7948C74.5742 71.2261 74.6962 70.6162 74.6962 70.0001C74.6962 69.3841 74.5742 68.7741 74.3373 68.2054C74.1004 67.6367 73.7532 67.1206 73.3158 66.6868L59.3158 52.6868Z" fill="#231F20"/>
<path d="M82.4624 32.6667C80.5583 27.1649 76.9864 22.3936 72.244 19.0165C67.5016 15.6394 61.8244 13.8246 56.0024 13.8246C50.1805 13.8246 44.5033 15.6394 39.7609 19.0165C35.0184 22.3936 31.4466 27.1649 29.5424 32.6667C25.3497 33.2282 21.3885 34.9191 18.0825 37.5582C14.7766 40.1974 12.2503 43.6857 10.7739 47.6499C9.29749 51.6141 8.92655 55.9051 9.70074 60.0638C10.4749 64.2226 12.3651 68.0926 15.1691 71.26C15.5078 71.8566 15.9739 72.3712 16.5341 72.7671C17.0944 73.1631 17.7351 73.4306 18.4105 73.5507C19.086 73.6707 19.7796 73.6404 20.442 73.4619C21.1044 73.2833 21.7193 72.9609 22.2428 72.5176C22.7664 72.0743 23.1858 71.521 23.4712 70.8972C23.7565 70.2733 23.9008 69.5942 23.8938 68.9082C23.8868 68.2222 23.7286 67.5461 23.4305 66.9283C23.1323 66.3104 22.7017 65.7658 22.1691 65.3333C20.3636 63.3148 19.1824 60.816 18.7684 58.1397C18.3545 55.4633 18.7257 52.7244 19.8371 50.2547C20.9484 47.7851 22.7521 45.6908 25.0297 44.2257C27.3073 42.7605 29.961 41.9874 32.6691 42H33.1358C34.2275 42.022 35.2924 41.6605 36.1451 40.9783C36.9978 40.2962 37.5843 39.3366 37.8024 38.2667C38.6593 34.0469 40.9486 30.2532 44.2825 27.5282C47.6165 24.8032 51.7899 23.3146 56.0958 23.3146C60.4016 23.3146 64.5751 24.8032 67.909 27.5282C71.2429 30.2532 73.5322 34.0469 74.3891 38.2667C74.6073 39.3366 75.1938 40.2962 76.0464 40.9783C76.8991 41.6605 77.964 42.022 79.0558 42H79.3358C82.0439 41.9874 84.6976 42.7605 86.9751 44.2257C89.2527 45.6908 91.0565 47.7851 92.1678 50.2547C93.2792 52.7244 93.6504 55.4633 93.2364 58.1397C92.8225 60.816 91.6412 63.3148 89.8358 65.3333C89.4247 65.7943 89.1092 66.3323 88.9076 66.9161C88.7061 67.5 88.6224 68.118 88.6614 68.7344C88.7005 69.3508 88.8615 69.9533 89.1352 70.507C89.4089 71.0607 89.7898 71.5546 90.2558 71.96C91.1065 72.7103 92.2014 73.125 93.3358 73.1267C93.9984 73.1258 94.6532 72.9839 95.2567 72.7103C95.8602 72.4367 96.3985 72.0378 96.8358 71.54C99.7175 68.3781 101.675 64.4847 102.493 60.2856C103.311 56.0865 102.959 51.7432 101.476 47.7305C99.9919 43.7179 97.4336 40.1904 94.0804 37.5337C90.7271 34.877 86.708 33.1933 82.4624 32.6667Z" fill="#231F20"/>
</mask>
<g mask="url(#mask0_1022_479)">
<rect x="-26" width="137.485" height="101.939" fill="#163153"/>
</g>
</svg>
