<?xml version="1.0" encoding="UTF-8"?>
<svg version="1.1" xmlns="http://www.w3.org/2000/svg" width="512" height="512">
<path d="M0 0 C0.68562012 0.18804199 1.37124023 0.37608398 2.07763672 0.56982422 C19.88058965 5.53726303 35.96320046 13.98685439 50 26 C50.75869385 26.63542725 50.75869385 26.63542725 51.53271484 27.28369141 C69.92298288 42.77299223 85.37149672 65.39978449 91 89 C91 90.32 91 91.64 91 93 C91.70640625 92.95359375 92.4128125 92.9071875 93.140625 92.859375 C119.52529671 91.93127097 146.32905449 102.67882613 166 120 C166.81726563 120.68578125 167.63453125 121.3715625 168.4765625 122.078125 C179.08431274 131.2080153 187.13094977 141.85278347 194 154 C194.53367187 154.91910156 195.06734375 155.83820313 195.6171875 156.78515625 C209.95617964 183.197134 211.81583847 215.84068966 203.78125 244.4453125 C198.88524623 260.80808749 190.94244979 274.95460383 180 288 C179.33226562 288.81984375 178.66453125 289.6396875 177.9765625 290.484375 C159.57415068 312.26682164 130.26312279 326.47516103 102 329 C99.69 329 97.38 329 95 329 C95 342.53 95 356.06 95 370 C96.65 370.33 98.3 370.66 100 371 C113.13824469 377.68539 120.43136685 387.52551363 125.14453125 401.359375 C127.94821045 413.29101432 126.6317919 425.88817195 120.5390625 436.55859375 C119.10387498 438.77694198 117.58961814 440.890699 116 443 C115.4225 443.86625 114.845 444.7325 114.25 445.625 C106.31151568 454.00451123 95.40918614 459.45408529 83.87109375 460.203125 C68.48179217 460.41321785 57.1025281 456.93115673 45.75 446.375 C35.69915211 435.88166195 32.46228832 424.03282735 32.6875 409.88671875 C33.48707469 399.94200853 36.94247903 391.82695472 43 384 C44.0828125 382.453125 44.0828125 382.453125 45.1875 380.875 C50.01323698 375.26331237 56.85914714 371.42817057 64 370 C64 356.47 64 342.94 64 329 C38.92 329 13.84 329 -12 329 C-12 358.7 -12 388.4 -12 419 C-9.69 419.66 -7.38 420.32 -5 421 C6.58026746 427.85362768 14.83268058 437.84951974 18.53051758 450.86767578 C21.15787125 462.80075275 19.43986422 476.06241781 13.52734375 486.6328125 C6.31159431 497.78907759 -3.85118241 506.14682616 -17 509 C-31.71194055 510.23094713 -43.79950072 508.74549063 -56 500 C-57.5159375 498.9171875 -57.5159375 498.9171875 -59.0625 497.8125 C-68.03902509 489.96109795 -73.3131345 478.10096785 -74.203125 466.30859375 C-74.43399375 452.16788296 -70.48989257 439.78767572 -60.8125 429.1875 C-56.52284753 425.2112468 -49.00476039 419 -43 419 C-43 389.3 -43 359.6 -43 329 C-67.75 329 -92.5 329 -118 329 C-118 342.53 -118 356.06 -118 370 C-116.35 370.33 -114.7 370.66 -113 371 C-100.31024272 378.22214482 -92.52311427 388.02587386 -88.08203125 401.859375 C-85.2176557 414.85479696 -87.56209687 428.30729354 -94.60546875 439.56640625 C-102.17544779 449.80406669 -112.09918086 457.06051659 -124.7265625 459.71484375 C-139.16358315 461.5256728 -152.20682159 458.64694177 -164 450 C-174.19340883 441.73562272 -179.51474794 430.15614315 -180.875 417.3125 C-181.59839491 403.35700653 -177.69876771 392.30469628 -168.75 381.8125 C-163.20606136 375.88048566 -158.03847678 371.60769536 -150 370 C-150 356.47 -150 342.94 -150 329 C-154.95 329.0928125 -154.95 329.0928125 -160 329.1875 C-188.58960538 329.33312843 -213.48420846 318.63935575 -233.8125 298.5625 C-254.15088008 277.90934867 -262.45134575 252.25149298 -262.36352539 223.70800781 C-261.94631155 195.39680365 -249.84844478 171.37277217 -229.90673828 151.47241211 C-212.88028217 135.16830642 -188.23276818 124.67154193 -164.5625 124.9375 C-163.51191406 124.94652344 -162.46132812 124.95554687 -161.37890625 124.96484375 C-160.20134766 124.98224609 -160.20134766 124.98224609 -159 125 C-159.03480469 124.11441406 -159.06960937 123.22882813 -159.10546875 122.31640625 C-159.82493955 89.39205187 -146.09772295 58.60738064 -123.8046875 34.76220703 C-93.02230469 3.03968218 -43.102817 -12.44351358 0 0 Z M-147.4375 404.5625 C-149.65808657 409.44779046 -149.75542291 413.7199086 -149 419 C-146.88193186 423.85390614 -143.95245744 426.26254688 -139.21484375 428.37109375 C-133.8707498 429.88855253 -129.45167302 428.75271934 -124.625 426.25 C-121.04630128 423.18254395 -119.46425777 420.64275825 -118.1875 416.125 C-117.8881397 411.13566163 -119.07903036 407.447238 -121.75 403.25 C-125.52644278 399.47355722 -128.63154151 398.15205094 -133.9375 397.5625 C-139.78800818 397.81978812 -143.4901568 400.41272894 -147.4375 404.5625 Z M67.1875 404 C63.96331446 408.42174017 63.54973865 411.5968638 64 417 C65.8642842 421.85321811 68.65749375 425.10499583 73 428 C77.66252858 429.55417619 81.48753327 429.54448802 86.125 427.875 C90.41090933 425.07984174 93.34925239 421.95224283 95 417 C95.50201239 410.87544882 95.09928344 407.87482354 91 403 C86.58039013 399.10653416 84.07664241 397.68080213 78.08984375 397.7890625 C73.34052431 398.26843306 70.23086688 400.50447576 67.1875 404 Z M-37.73828125 451.48046875 C-41.11385091 455.00105095 -42.91673518 458.10152269 -43.1640625 463.01953125 C-42.74527877 468.07484914 -40.71393122 471.64467035 -36.9375 474.875 C-31.95376932 478.48025198 -28.0625581 478.66221789 -22 478 C-17.16141452 475.67031069 -14.32968931 472.83858548 -12 468 C-11.2028361 463.00552411 -11.42092107 459.20270239 -13.625 454.625 C-17.19187589 450.68266349 -20.28193817 448.46856232 -25.4375 447.0625 C-30.48340834 446.97397529 -33.86809823 448.1842904 -37.73828125 451.48046875 Z " fill="#183B56" transform="translate(283,3)"/>
</svg>
