<?xml version="1.0" encoding="UTF-8"?>
<svg version="1.1" xmlns="http://www.w3.org/2000/svg" width="512" height="512">
<path d="M0 0 C1.01790619 0.00215515 2.03581238 0.0043103 3.08456421 0.00653076 C17.69363523 0.05620146 32.02575853 0.30709809 46.375 3.3125 C47.34985352 3.51117676 48.32470703 3.70985352 49.32910156 3.91455078 C97.7109774 14.03517194 141.69928269 35.9516877 177.375 70.3125 C178.3640332 71.26068604 178.3640332 71.26068604 179.37304688 72.22802734 C188.86130305 81.37247479 197.6012044 90.66984009 205.375 101.3125 C206.23306152 102.46355017 207.09113451 103.61459177 207.94921875 104.765625 C213.98736829 112.95680614 219.34595521 121.47054105 224.375 130.3125 C224.73948242 130.94430176 225.10396484 131.57610352 225.47949219 132.22705078 C247.08534998 169.97532572 256.85198095 212.74189997 256.6875 255.9375 C256.68534485 256.95540619 256.6831897 257.97331238 256.68096924 259.02206421 C256.63129854 273.63113523 256.38040191 287.96325853 253.375 302.3125 C253.07698486 303.77478027 253.07698486 303.77478027 252.77294922 305.26660156 C242.65232806 353.6484774 220.7358123 397.63678269 186.375 433.3125 C185.74287598 433.97185547 185.11075195 434.63121094 184.45947266 435.31054688 C175.31502521 444.79880305 166.01765991 453.5387044 155.375 461.3125 C154.22394983 462.17056152 153.07290823 463.02863451 151.921875 463.88671875 C143.73224019 469.92427396 135.22961724 475.30707302 126.375 480.3125 C125.66778809 480.7146875 124.96057617 481.116875 124.23193359 481.53125 C101.09654164 494.5566741 75.92537591 503.30551461 49.9375 508.625 C49.21860596 508.77235596 48.49971191 508.91971191 47.7590332 509.0715332 C33.08339502 511.86090125 18.55831162 512.66142619 3.64770508 512.62817383 C0.70811513 512.6250221 -2.2304558 512.64854926 -5.16992188 512.67382812 C-18.54306192 512.71848737 -31.43916711 511.51301542 -44.625 509.3125 C-46.33055054 509.03031616 -46.33055054 509.03031616 -48.07055664 508.74243164 C-91.33802759 500.97044532 -132.38793216 480.98345309 -165.625 452.3125 C-166.37007813 451.67828125 -167.11515625 451.0440625 -167.8828125 450.390625 C-181.38779833 438.57948485 -194.05918743 425.82889772 -204.625 411.3125 C-205.48149066 410.16255169 -206.33826433 409.01281411 -207.1953125 407.86328125 C-213.23534209 399.67315742 -218.61867614 391.16870382 -223.625 382.3125 C-224.0271875 381.60528809 -224.429375 380.89807617 -224.84375 380.16943359 C-237.8691741 357.03404164 -246.61801461 331.86287591 -251.9375 305.875 C-252.08485596 305.15610596 -252.23221191 304.43721191 -252.3840332 303.6965332 C-255.35789088 288.05024391 -255.99800362 272.57681954 -255.9375 256.6875 C-255.93534485 255.66959381 -255.9331897 254.65168762 -255.93096924 253.60293579 C-255.88129854 238.99386477 -255.63040191 224.66174147 -252.625 210.3125 C-252.42632324 209.33764648 -252.22764648 208.36279297 -252.02294922 207.35839844 C-241.90232806 158.9765226 -219.9858123 114.98821731 -185.625 79.3125 C-184.99287598 78.65314453 -184.36075195 77.99378906 -183.70947266 77.31445312 C-174.56502521 67.82619695 -165.26765991 59.0862956 -154.625 51.3125 C-153.47394983 50.45443848 -152.32290823 49.59636549 -151.171875 48.73828125 C-142.98224019 42.70072604 -134.47961724 37.31792698 -125.625 32.3125 C-124.91778809 31.9103125 -124.21057617 31.508125 -123.48193359 31.09375 C-100.34654164 18.0683259 -75.17537591 9.31948539 -49.1875 4 C-48.46860596 3.85264404 -47.74971191 3.70528809 -47.0090332 3.5534668 C-31.36274391 0.57960912 -15.88931954 -0.06050362 0 0 Z M-48.625 149.3125 C-57.73750782 159.64596475 -69.625 176.91667491 -69.625 191.3125 C-70.91470703 191.35117188 -70.91470703 191.35117188 -72.23046875 191.390625 C-89.54711658 192.22152195 -103.16313599 197.68511314 -115.26171875 210.3046875 C-125.10341231 222.8304793 -128.71592172 236.55474183 -127.625 252.3125 C-125.44036928 267.25610846 -117.37022424 279.43154327 -105.5625 288.6875 C-94.926162 296.1350345 -83.82064095 298.64926131 -71 299.5 C-67.24625 299.768125 -63.4925 300.03625 -59.625 300.3125 C-59.295 314.8325 -58.965 329.3525 -58.625 344.3125 C-60.275 344.3125 -61.925 344.3125 -63.625 344.3125 C-63.83125 343.466875 -64.0375 342.62125 -64.25 341.75 C-67.27908346 334.17729135 -72.07884755 330.63344937 -79.35546875 327.2578125 C-86.44031897 324.30680776 -93.65970349 324.27458046 -100.875 326.9375 C-109.24843062 330.77973873 -113.6417309 335.69358194 -117.51953125 344.09375 C-120.26375998 352.08401315 -119.30167349 359.53903857 -115.81640625 367.12890625 C-111.87156954 374.35895124 -106.14266015 378.2042586 -98.8125 381.625 C-90.13093214 383.49749503 -82.39418556 382.71160838 -74.625 378.3125 C-70.077056 375.04849938 -65.93867081 371.51825931 -63.625 366.3125 C-63.625 365.3225 -63.625 364.3325 -63.625 363.3125 C-62.76777344 363.33570313 -61.91054687 363.35890625 -61.02734375 363.3828125 C-50.69385928 363.95241507 -50.69385928 363.95241507 -41.75 359.625 C-38.64729333 353.24721407 -39.49430284 345.38284784 -39.52734375 338.47265625 C-39.5287587 337.35056259 -39.53017365 336.22846893 -39.53163147 335.07237244 C-39.537206 331.50655392 -39.54975384 327.94079938 -39.5625 324.375 C-39.56751829 321.9498707 -39.57208062 319.52474041 -39.57617188 317.09960938 C-39.58631399 311.17052875 -39.60589446 305.24158556 -39.625 299.3125 C-29.065 299.3125 -18.505 299.3125 -7.625 299.3125 C-7.604375 303.64375 -7.58375 307.975 -7.5625 312.4375 C-7.532771 313.79246582 -7.50304199 315.14743164 -7.47241211 316.54345703 C-7.61817323 325.23859371 -7.61817323 325.23859371 -10.56347656 328.38012695 C-12.85715316 329.8736456 -15.17396166 331.10037374 -17.625 332.3125 C-23.11806874 337.29350301 -27.21382445 342.79536014 -27.90234375 350.359375 C-28.23219795 361.8119127 -25.89944464 367.77141537 -18.0390625 376.10546875 C-12.07043559 381.56222313 -5.16735088 383.69899143 2.8046875 383.59375 C10.24698746 382.77939499 17.25223837 379.79266361 22.375 374.3125 C28.14017764 366.2690353 31.38567593 358.85290882 30.02734375 348.88671875 C27.64273595 339.47679935 20.76300854 333.14583768 13.375 327.3125 C12.715 326.9825 12.055 326.6525 11.375 326.3125 C11.045 317.4025 10.715 308.4925 10.375 299.3125 C20.935 299.3125 31.495 299.3125 42.375 299.3125 C42.34019531 303.28539062 42.30539062 307.25828125 42.26953125 311.3515625 C42.24612781 315.20393149 42.22791563 319.05629253 42.21020508 322.90869141 C42.19682449 325.58399721 42.17466615 328.25882149 42.14868164 330.93408203 C42.11224916 334.78163751 42.09526172 338.62886586 42.08203125 342.4765625 C42.06654739 343.67052643 42.05106354 344.86449036 42.03511047 346.09463501 C41.9579084 354.15292184 41.9579084 354.15292184 45.375 361.3125 C49.78780204 363.52522309 53.87505113 363.52948017 58.75 363.4375 C59.99523437 363.41945313 61.24046875 363.40140625 62.5234375 363.3828125 C63.46445312 363.35960937 64.40546875 363.33640625 65.375 363.3125 C65.643125 364.21871094 65.91125 365.12492188 66.1875 366.05859375 C68.64054627 372.78026331 73.26125688 377.02957146 79.5625 380.25 C87.54958936 383.96053758 94.49854776 384.09313533 102.88671875 381.34375 C110.67014221 378.11796696 115.36948699 372.58895096 119.375 365.3125 C121.65784137 358.46397589 121.54447101 349.0145923 118.75 342.3125 C117.65782982 340.22850992 117.65782982 340.22850992 116.375 338.3125 C115.75625 337.36117187 115.75625 337.36117187 115.125 336.390625 C110.61139797 330.38958593 103.69985071 326.76572689 96.375 325.3125 C88.11018621 324.31417596 79.67522305 326.50031286 73 331.5625 C67.60283761 337.17302718 67.60283761 337.17302718 65.375 344.3125 C63.725 344.3125 62.075 344.3125 60.375 344.3125 C60.375 329.4625 60.375 314.6125 60.375 299.3125 C66.975 299.3125 73.575 299.3125 80.375 299.3125 C89.55002082 297.53030171 97.69919381 295.7188117 105.375 290.3125 C106.19355469 289.74789062 107.01210938 289.18328125 107.85546875 288.6015625 C118.3334603 280.83421627 125.38466165 270.60074563 128.125 257.8125 C129.29682195 241.40699273 128.26230706 223.38328931 117.28515625 210.30859375 C105.84384886 198.35254451 87.66648116 192.20112624 71.375 191.3125 C71.28025391 190.39984375 71.28025391 190.39984375 71.18359375 189.46875 C69.1967484 175.24712009 62.6100327 163.12830406 53.375 152.3125 C52.83488281 151.66023438 52.29476562 151.00796875 51.73828125 150.3359375 C42.96238199 140.65371111 30.71463297 134.86368821 18.375 131.3125 C17.52550781 131.06757813 16.67601562 130.82265625 15.80078125 130.5703125 C-7.22884901 125.01274883 -32.05961464 132.69435864 -48.625 149.3125 Z " fill="#183B56" transform="translate(255.625,-0.3125)"/>
<path d="M0 0 C3.12068856 1.79273598 4.54965052 3.24259405 6.375 6.3125 C7.21219504 9.91243865 6.89539601 12.41841597 6 16 C4.17660948 18.70567626 2.92542564 20.53728718 0 22 C-4.50728651 22.54016597 -7.94994123 22.60322525 -11.9375 20.3125 C-15.1938779 16.66140963 -16.05062582 14.41752283 -15.875 9.5 C-14.92080906 5.68323625 -13.71834365 3.8007177 -11 1 C-7.53472176 -0.73263912 -3.78892972 -0.4719774 0 0 Z " fill="#183B56" transform="translate(261,343)"/>
<path d="M0 0 C3.50313626 1.4012545 4.74726213 2.62931779 6.875 5.75 C8.26442204 9.76388589 8.18482882 11.92715094 7 16 C4.81008403 18.58297781 3.03168312 20.48415844 0 22 C-3.63776343 22.27454818 -6.32977182 22.2589518 -9.75 20.9375 C-12.84068038 18.27608079 -13.81617805 15.88030529 -15 12 C-14.90201481 7.10074058 -13.32801643 4.5297144 -10 1 C-6.801457 -0.5992715 -3.47898371 -0.36127908 0 0 Z " fill="#183B56" transform="translate(169,343)"/>
<path d="M0 0 C3.01784991 1.75607646 5.41468217 3.82936435 7 7 C7.40710593 11.23390162 7.25575965 13.51588352 5.25 17.3125 C3.07137329 19.91474857 2.06369987 20.80700535 -1 22 C-5.99239508 22.42868509 -9.20431495 21.66577728 -13.0625 18.4375 C-15.55327708 14.01837937 -15.56482546 12.00273979 -15 7 C-14.13327966 4.08466794 -13.22900289 3.18859062 -10.875 1.25 C-7.18149599 -0.35587131 -3.92211218 -0.84264129 0 0 Z " fill="#183B56" transform="translate(352,343)"/>
</svg>
