<svg width="175" height="39" viewBox="0 0 175 39" fill="none" xmlns="http://www.w3.org/2000/svg">
<path fill-rule="evenodd" clip-rule="evenodd" d="M21.2596 1.01025C27.1362 0.965487 32.1325 2.75608 36.2484 6.37872L40.3381 9.97821L37.1961 12.7437L25.3412 23.4504L25.2511 23.5313C23.3666 25.1899 20.3092 25.19 18.4267 23.5315C16.6249 21.9457 16.5461 19.4182 18.1885 17.7496L18.1903 17.7496C18.2654 17.672 18.3443 17.596 18.4269 17.5233C18.5245 17.4374 18.6239 17.3565 18.7271 17.2805L27.1191 9.98684C25.3135 9.08492 23.2976 8.61417 21.0735 8.57128C17.6012 8.5053 14.6376 9.55436 12.1844 11.7135C9.72934 13.8744 8.5393 16.4812 8.61428 19.5373C8.68925 22.5918 9.95232 25.2002 12.4072 27.3609L12.4542 27.4022C10.9189 26.5383 9.56753 25.453 8.45081 24.2008C6.75978 22.3028 5.61126 20.0214 5.19091 17.5402C4.73866 14.8772 5.16105 12.2225 6.3173 9.84865C8.92262 4.49622 14.7373 1.05833 21.2614 1.0086L21.2596 1.01025ZM39.9321 29.2599L39.6186 29.5358L36.0242 32.6994C31.8836 36.3437 26.8873 38.199 21.0351 38.2653C15.1829 38.3315 10.1997 36.5525 6.08378 32.9299C1.96784 29.3072 -0.0590622 24.9031 0.0030414 19.7209C0.065145 14.5371 2.15431 10.1329 6.27048 6.51167C6.48633 6.32169 6.70594 6.13667 6.92742 5.95495C6.04712 6.97753 5.31318 8.08933 4.74257 9.26058C3.46431 11.8856 2.99684 14.8211 3.496 17.76C3.96326 20.5072 5.23385 23.0346 7.10506 25.1326C12.5066 31.1902 23.6573 33.1755 30.1121 27.4926L34.0181 24.0548L39.9321 29.2599Z" fill="white"/>
<path d="M49.4097 13.9202C51.8131 14.5132 55.0593 15.3558 55.0592 18.446C55.0591 21.0992 52.2186 23.253 48.7226 23.2531C45.8198 23.2532 43.3539 21.7238 42.6361 19.6949L45.8511 18.852C46.132 19.6636 47.3493 20.2878 48.7227 20.2878C50.3459 20.2878 51.6881 19.4449 51.6881 18.4461C51.6881 17.7282 50.9078 17.3849 48.4731 16.7919C46.1633 16.1989 42.6674 15.2938 42.6675 12.0475C42.6676 9.5192 45.3833 7.45902 48.7232 7.45893C51.4388 7.45885 53.7485 8.8322 54.4976 10.6738L51.2513 11.5167C50.8768 10.8924 49.878 10.4554 48.7231 10.4555C47.2872 10.4555 46.0386 11.1734 46.0386 12.0474C46.0386 12.9214 46.8814 13.296 49.4097 13.9202ZM70.0502 7.70806L70.0501 11.2352L65.5553 11.2666L65.5549 23.0342L61.9966 23.0343L61.9969 11.2667L57.5021 11.2668L57.5023 7.7084L70.0502 7.70806ZM86.8143 11.5781C87.064 12.0151 87.7195 13.3573 87.7506 15.1989C87.7818 16.6972 87.376 17.8521 87.1575 18.3203C86.7829 19.2255 86.0025 20.6301 84.473 21.6915C82.3192 23.1586 80.1342 23.0338 79.5099 23.0026C78.9481 22.9402 76.7943 22.7217 74.9216 21.005C73.6418 19.8189 73.0488 18.4767 72.7991 17.5715C72.5494 16.8224 72.0813 14.8872 72.8929 12.671C73.0802 12.1403 73.9231 10.0802 76.1705 8.73795C77.8249 7.73906 79.4168 7.67659 80.1659 7.67657C81.0087 7.67655 82.4133 7.80137 83.9115 8.67531C85.597 9.61168 86.471 10.9539 86.8143 11.5781ZM84.161 15.9793C84.1922 15.6984 84.3796 14.3562 83.5056 13.0453C82.7253 11.8592 81.508 11.3598 80.5716 11.2349C80.0722 11.1413 79.6664 11.2037 79.5727 11.2037C78.0433 11.3911 77.138 12.4524 76.9195 12.7021C75.9518 13.8882 75.983 15.2304 76.0142 15.5426C76.0142 15.8235 76.1078 17.353 77.4187 18.5078C77.6685 18.7263 78.6361 19.5066 80.1031 19.4754C81.7886 19.4753 82.85 18.414 83.0685 18.1955C83.88 17.3215 84.0986 16.3227 84.161 15.9793ZM106.545 7.64464L106.576 23.033L102.987 23.0019L95.121 13.3259L95.1207 23.0021L91.5623 23.0022L91.5628 7.64505L95.1212 7.61374L102.987 17.3522L102.987 7.64474L106.545 7.64464ZM116.661 14.1056C119.065 14.7298 122.03 15.5413 122.061 18.5378C122.061 21.1286 119.377 23.2512 116.131 23.2513C113.384 23.2514 111.074 21.7532 110.418 19.7555L112.603 19.1312C113.009 20.2236 114.445 21.0664 116.131 21.0663C118.097 21.0663 119.751 19.9113 119.751 18.5379C119.752 17.3206 118.565 16.8524 116.037 16.1658C113.54 15.5103 110.481 14.6676 110.481 11.515C110.481 9.04916 113.01 7.0514 116.131 7.05132C118.628 7.05125 120.782 8.36217 121.5 10.1726L119.284 10.7969C118.815 9.8917 117.567 9.20503 116.131 9.20507C114.321 9.20512 112.791 10.2664 112.791 11.515C112.791 12.8884 114.04 13.3878 116.661 14.1056ZM140.255 14.8853C140.286 15.4472 140.348 16.6957 139.787 18.1316C139.256 19.4738 138.476 20.3166 138.101 20.6912C137.726 21.0969 136.634 22.1895 134.917 22.7201C134.823 22.7514 134.262 22.9074 133.512 23.0011C132.326 23.126 131.39 22.9387 131.078 22.8763C130.079 22.6891 129.361 22.3145 128.955 22.096C128.643 21.9088 127.832 21.4406 127.02 20.5666C125.865 19.2557 125.428 17.9447 125.335 17.6325C125.023 16.6025 125.023 15.7285 125.054 15.2915C125.054 14.8545 125.054 14.0118 125.397 12.9505C125.522 12.5759 125.865 11.6083 126.708 10.5782C127.894 9.11111 129.268 8.4868 129.798 8.26829C130.516 7.98734 132.264 7.42545 134.356 7.8936C134.668 7.98723 137.009 8.54902 138.663 10.7027C139.662 11.9512 139.974 13.1998 140.036 13.4495C140.192 14.0738 140.224 14.6044 140.255 14.8853ZM137.446 17.5386C137.633 17.1016 138.07 15.9467 137.82 14.4796C137.602 13.1374 136.915 12.2635 136.603 11.8889C136.228 11.4831 135.417 10.6716 134.106 10.2971C133.638 10.141 132.483 9.89133 131.109 10.2971C129.517 10.7654 128.643 11.8891 128.363 12.2949C127.676 13.2626 127.488 14.2302 127.426 14.792C127.27 16.103 127.644 17.1019 127.769 17.414C128.362 18.8498 129.424 19.5989 129.829 19.8486C130.953 20.5665 132.014 20.6289 132.389 20.6601C132.545 20.6601 132.795 20.6913 133.107 20.6601C134.605 20.5352 135.635 19.7548 135.916 19.5051C136.291 19.1929 136.977 18.5686 137.446 17.5386ZM146.378 10.0782L146.378 13.8863L154.463 13.9173L154.462 16.2584L146.378 16.2898L146.409 22.9695L144.037 22.9696L144.037 7.70605L156.055 7.70573L156.086 10.078L146.378 10.0782ZM157.938 7.70568L170.455 7.70534L170.455 10.0776L165.367 10.0777L165.367 23.0002L162.995 23.0003L163.026 10.0778L157.938 10.1091L157.938 7.70568Z" fill="white"/>
<rect width="7.96869" height="2.69919" transform="matrix(-3.20059e-05 1 -1 2.70857e-05 134.207 6.64488)" fill="#1F2836"/>
<rect width="7.96869" height="2.69919" transform="matrix(-3.20059e-05 1 -1 2.70857e-05 81.7005 7)" fill="#1F2836"/>
<ellipse cx="2.02439" cy="1.99217" rx="2.02439" ry="1.99217" transform="matrix(1 -2.71288e-05 -3.19615e-05 1 131.001 13.0001)" fill="white"/>
<ellipse cx="2.02439" cy="1.99217" rx="2.02439" ry="1.99217" transform="matrix(1 -2.71288e-05 -3.19615e-05 1 78.0012 13.0001)" fill="white"/>
<path d="M50.0224 26.7884L50.0223 28.7396L47.5359 28.7569L47.5357 35.2666L45.5672 35.2667L45.5674 28.7569L43.0809 28.757L43.081 26.7885L50.0224 26.7884ZM58.6876 35.2663L56.7018 35.2491L56.702 31.8302L53.7493 31.8303L53.7492 35.2492L51.7807 35.2665L51.781 26.7365L53.7494 26.7365L53.7493 29.8618L56.6847 29.8617L56.7021 26.7364L58.6706 26.7363L58.6876 35.2663ZM63.1567 26.7362L63.1737 35.2662L61.1879 35.249L61.1882 26.7363L63.1567 26.7362ZM73.9599 26.7532L73.9769 35.2659L71.9911 35.2487L67.64 29.896L67.6398 35.2488L65.6713 35.2489L65.6716 26.7534L67.6401 26.7361L71.9912 32.1233L71.9914 26.7532L73.9599 26.7532ZM83.2815 34.575C83.316 34.7994 83.3333 35.0239 83.3333 35.0239C83.3333 35.1275 83.3333 35.1966 83.3333 35.2657C82.6771 35.2657 82.021 35.2657 81.3648 35.2657L81.3475 35.1966C81.3476 35.1103 81.3476 35.0067 81.3303 34.8686C81.2612 34.3851 81.054 34.0743 80.985 33.9879C80.8468 33.7635 80.6742 33.6253 80.5878 33.5735C80.5533 33.5217 80.5015 33.4872 80.4152 33.4527C80.208 33.3318 80.0353 33.3318 79.9317 33.3318C79.6727 33.3146 79.4827 33.4009 79.4309 33.4182C79.2583 33.4872 79.1547 33.5909 79.0683 33.6772C78.7575 33.9707 78.6194 34.2988 78.5676 34.437C78.5503 34.506 78.4639 34.7132 78.4467 35.0068C78.4294 35.1104 78.4294 35.1967 78.4294 35.2658L76.4609 35.2658L76.4612 26.7531L78.4297 26.7531L78.4295 30.759L81.0025 26.753L83.3508 26.7529L80.3807 31.3979C80.398 31.3979 80.4325 31.3979 80.4843 31.4151C80.6915 31.4669 81.1232 31.5705 81.5894 31.8468C82.0383 32.1231 82.2973 32.4511 82.47 32.6583C82.7808 33.0555 82.9535 33.4181 83.0225 33.6253C83.0225 33.6253 83.1952 34.057 83.2815 34.575ZM91.6294 26.7354L91.6464 35.2654L89.6606 35.2482L89.6609 26.7355L91.6294 26.7354ZM102.433 26.7524L102.45 35.2651L100.464 35.2479L96.1127 29.8952L96.1125 35.248L94.144 35.2481L94.1443 26.7526L96.1128 26.7353L100.464 32.1226L100.464 26.7525L102.433 26.7524ZM113.239 26.7521L113.256 35.2648L111.271 35.2476L106.92 29.8949L106.919 35.2478L104.951 35.2478L104.951 26.7523L106.92 26.735L111.271 32.1223L111.271 26.7522L113.239 26.7521ZM123.235 28.9275C123.373 29.1692 123.735 29.9117 123.753 30.9305C123.77 31.7593 123.545 32.3982 123.424 32.6572C123.217 33.158 122.786 33.935 121.939 34.5221C120.748 35.3337 119.539 35.2647 119.194 35.2474C118.883 35.2129 117.692 35.0921 116.656 34.1424C115.948 33.4862 115.62 32.7438 115.482 32.243C115.343 31.8286 115.084 30.7581 115.533 29.5321C115.637 29.2385 116.103 28.0989 117.347 27.3564C118.262 26.8038 119.142 26.7692 119.557 26.7692C120.023 26.7692 120.8 26.8382 121.629 27.3217C122.561 27.8397 123.045 28.5822 123.235 28.9275ZM121.767 31.3622C121.784 31.2068 121.888 30.4643 121.404 29.7391C120.973 29.083 120.299 28.8067 119.781 28.7377C119.505 28.6859 119.28 28.7204 119.229 28.7204C118.383 28.824 117.882 29.4111 117.761 29.5493C117.226 30.2054 117.243 30.9479 117.26 31.1206C117.26 31.276 117.312 32.1221 118.037 32.761C118.175 32.8818 118.71 33.3135 119.522 33.2962C120.454 33.2962 121.042 32.7091 121.162 32.5882C121.611 32.1047 121.732 31.5522 121.767 31.3622ZM130.488 26.7344L132.594 26.7343L129.555 35.2644L127.535 35.2472L124.928 26.7345L126.983 26.7517L128.606 32.0182L130.488 26.7344ZM140.629 28.9961C140.837 29.5314 140.871 30.0149 140.871 30.3084L140.871 35.2296L138.902 35.2469L138.902 33.7274L135.829 33.7275L135.829 35.247L133.843 35.2643C133.843 35.2643 133.878 30.9993 133.861 30.5849C133.861 30.3604 133.861 30.1705 133.878 29.9633C133.912 29.6179 133.964 29.3934 133.981 29.3416C134.016 29.2208 134.085 29.0136 134.206 28.7718C134.275 28.6164 134.482 28.1674 134.931 27.7358C135.259 27.4077 135.57 27.235 135.656 27.1832C136.278 26.8206 136.865 26.7515 137.124 26.7342C137.418 26.7169 137.901 26.7169 138.454 26.8896C138.609 26.9586 139.213 27.1658 139.783 27.7356C140.319 28.2364 140.543 28.7716 140.629 28.9961ZM138.885 31.7589L138.903 30.3257C138.903 30.1703 138.868 29.8595 138.713 29.5487C138.557 29.2379 138.35 29.0652 138.281 29.0307C137.953 28.7717 137.608 28.7199 137.538 28.7026C137.072 28.6509 136.71 28.8408 136.606 28.9099C136.209 29.1344 136.036 29.4797 135.984 29.6179C135.898 29.8078 135.864 29.9805 135.829 30.274C135.812 30.4812 135.829 31.759 135.829 31.759L138.885 31.7589ZM149.318 26.7857L149.318 28.7369L146.832 28.7542L146.832 35.2639L144.863 35.264L144.863 28.7543L142.377 28.7543L142.377 26.7859L149.318 26.7857ZM153.045 26.7338L153.062 35.2638L151.077 35.2466L151.077 26.7338L153.045 26.7338ZM160.343 26.7336L162.45 26.7335L159.411 35.2636L157.39 35.2464L154.783 26.7337L156.838 26.7509L158.461 32.0174L160.343 26.7336ZM166.092 33.2777L170.806 33.2776L170.823 35.2633L164.124 35.2635L164.141 26.7507L170.806 26.7333L170.824 28.719L166.092 28.7191L166.11 29.9796L169.926 29.9795L169.926 31.948L166.092 31.9654L166.092 33.2777Z" fill="#A9F66C"/>
</svg>
