<?xml version="1.0" encoding="UTF-8"?>
<svg version="1.1" xmlns="http://www.w3.org/2000/svg" width="512" height="512">
<path d="M0 0 C0.77633789 -0.00287018 1.55267578 -0.00574036 2.35253906 -0.00869751 C3.98633559 -0.0107299 5.62015691 -0.00525797 7.25390625 0.00732422 C9.74274538 0.02339067 12.22996087 0.00744846 14.71875 -0.01171875 C16.31250355 -0.00973617 17.9062561 -0.00589219 19.5 0 C20.23766602 -0.00607269 20.97533203 -0.01214539 21.73535156 -0.0184021 C26.49106352 0.04575901 29.79662219 0.72355383 33.75 3.3984375 C37.43399705 7.72127575 38.25079418 10.8238421 38.2890625 16.44140625 C38.30085541 17.09168289 38.31264832 17.74195953 38.32479858 18.41194153 C38.35983166 20.47018885 38.36920747 22.5274173 38.375 24.5859375 C38.39654404 27.30904017 38.43391218 30.03094981 38.4765625 32.75390625 C38.48252441 33.95684326 38.48848633 35.15978027 38.49462891 36.39916992 C38.52269534 39.57976776 38.52269534 39.57976776 40.75 42.3984375 C42.70280461 43.32239634 42.70280461 43.32239634 45.01171875 43.94140625 C45.87659912 44.20687256 46.74147949 44.47233887 47.63256836 44.74584961 C48.5581958 45.02307861 49.48382324 45.30030762 50.4375 45.5859375 C58.10785278 47.98239031 65.07756042 50.7318346 71.95385742 54.90893555 C75.78954696 57.176424 78.31862485 57.89913216 82.75 57.3984375 C85.21846989 55.72039397 85.21846989 55.72039397 87.3515625 53.3125 C88.17140625 52.46429688 88.99125 51.61609375 89.8359375 50.7421875 C90.67382812 49.845 91.51171875 48.9478125 92.375 48.0234375 C94.05023258 46.26137885 95.72975193 44.50338324 97.4140625 42.75 C98.15092285 41.96447754 98.8877832 41.17895508 99.64697266 40.36962891 C103.01861844 37.20934703 105.91021075 36.06250353 110.5 35.8359375 C114.54075468 35.97966904 116.51131809 36.56140285 119.4609375 39.328125 C120.48670898 40.28078247 120.48670898 40.28078247 121.53320312 41.25268555 C122.26474609 41.96078369 122.99628906 42.66888184 123.75 43.3984375 C124.93239258 44.53309448 124.93239258 44.53309448 126.13867188 45.69067383 C128.65559809 48.13495826 131.14318064 50.60604502 133.625 53.0859375 C134.47835938 53.92705078 135.33171875 54.76816406 136.2109375 55.63476562 C137.025625 56.44751953 137.8403125 57.26027344 138.6796875 58.09765625 C139.78159424 59.19339966 139.78159424 59.19339966 140.90576172 60.3112793 C144.35477227 64.21458764 144.97812054 67.07110164 145.11328125 72.30078125 C144.30158798 76.98765529 141.07479521 80.31434766 137.7734375 83.53515625 C136.64421875 84.64793945 136.64421875 84.64793945 135.4921875 85.78320312 C134.71101563 86.54310547 133.92984375 87.30300781 133.125 88.0859375 C131.56813812 89.60845683 130.01334169 91.13309199 128.4609375 92.66015625 C127.42912354 93.66502075 127.42912354 93.66502075 126.37646484 94.69018555 C124.26675755 96.90597989 123.79082831 98.01476323 123.46484375 101.078125 C123.81453551 105.14987835 125.36034326 108.02678551 127.3125 111.5234375 C131.1739009 118.74415366 133.90925904 126.10126507 136.31469727 133.92236328 C136.57694092 134.73688965 136.83918457 135.55141602 137.109375 136.390625 C137.33077148 137.11620605 137.55216797 137.84178711 137.78027344 138.58935547 C139.10091359 141.05308748 140.09992912 141.52484601 142.75 142.3984375 C145.94557735 142.68451896 145.94557735 142.68451896 149.4921875 142.63671875 C151.46251953 142.66088867 151.46251953 142.66088867 153.47265625 142.68554688 C155.54856621 142.70197565 157.62373758 142.71094181 159.69970703 142.70385742 C172.77760781 142.68676009 172.77760781 142.68676009 176.5703125 145.56640625 C181.85298288 152.43009089 181.08982343 160.31813823 181.06567383 168.56567383 C181.06251365 170.82617424 181.08600839 173.08536406 181.11132812 175.34570312 C181.11360163 176.79947753 181.11430437 178.25325542 181.11328125 179.70703125 C181.11775269 181.66854126 181.11775269 181.66854126 181.12231445 183.66967773 C180.60458291 188.85480159 179.15651448 192.72820156 175.75 196.7734375 C172.04763187 199.78161161 168.60057884 199.53205891 164 199.57421875 C162.65623416 199.59740673 161.31248408 199.62152365 159.96875 199.64648438 C157.85535959 199.68165835 155.74255443 199.71098463 153.62890625 199.72436523 C151.58522465 199.73982605 149.54323507 199.78000084 147.5 199.82421875 C146.27796875 199.83880127 145.0559375 199.85338379 143.796875 199.8684082 C140.69569841 200.11136747 140.69569841 200.11136747 138.91088867 202.19897461 C137.15460524 205.52649458 136.14324864 209.06111045 135.0625 212.6484375 C132.79889544 219.87371008 129.9767466 226.48016743 126.2902832 233.09472656 C124.11660778 237.11239535 123.22956697 239.85115391 123.75 244.3984375 C125.42804353 246.86690739 125.42804353 246.86690739 127.8359375 249 C128.68414062 249.81984375 129.53234375 250.6396875 130.40625 251.484375 C131.3034375 252.32226562 132.200625 253.16015625 133.125 254.0234375 C134.88705865 255.69867008 136.64505426 257.37818943 138.3984375 259.0625 C139.18395996 259.79936035 139.96948242 260.5362207 140.77880859 261.29541016 C143.77661596 264.49371492 145.06145575 267.28049578 145.25 271.6484375 C144.8728621 281.01770655 135.47177471 288.01335321 129.25 294.2109375 C128.42113281 295.05591797 127.59226562 295.90089844 126.73828125 296.77148438 C117.67097572 305.84599762 117.67097572 305.84599762 111.4765625 306.71875 C103.8905825 306.01373327 100.33245564 302.14216123 95.23144531 296.81152344 C94.10848758 295.63971275 92.98141276 294.47183583 91.85058594 293.30761719 C90.71782573 292.13639314 89.59809962 290.95239226 88.49316406 289.75488281 C86.0049944 287.1631029 84.22206636 285.57743195 80.82421875 284.2890625 C76.68719078 284.43625028 73.7192482 286.04822049 70.1875 288.0234375 C68.77201273 288.77422845 67.35400096 289.52027784 65.93359375 290.26171875 C65.23089355 290.62861816 64.52819336 290.99551758 63.80419922 291.37353516 C58.17609797 294.18156571 52.17877175 296.21996385 46.23828125 298.26171875 C41.76234374 299.78973226 41.76234374 299.78973226 38.75 303.3984375 C38.4291771 306.51738197 38.4291771 306.51738197 38.44140625 310.078125 C38.41624252 311.41276471 38.39084455 312.74740003 38.36523438 314.08203125 C38.33653187 316.17755963 38.31250382 318.27301153 38.29370117 320.36865234 C38.27195806 322.39721303 38.23251281 324.42487749 38.19140625 326.453125 C38.17795166 327.66468262 38.16449707 328.87624023 38.15063477 330.12451172 C37.58376221 334.75690717 36.17757799 337.20302052 32.61523438 340.18603516 C28.6566395 341.86108476 25.16348856 341.8287298 20.90625 341.796875 C20.05953735 341.79974518 19.21282471 341.80261536 18.3404541 341.80557251 C16.55525033 341.80760854 14.77002402 341.802111 12.98486328 341.78955078 C10.25893062 341.77349012 7.53448053 341.78941468 4.80859375 341.80859375 C3.07030924 341.80661124 1.33202565 341.80276739 -0.40625 341.796875 C-1.21783569 341.80294769 -2.02942139 341.80902039 -2.86560059 341.8152771 C-8.46447052 341.74600315 -11.67961004 340.6016289 -16 336.8984375 C-18.79059388 333.54972484 -18.40128923 329.79864377 -18.4609375 325.6484375 C-18.48899458 324.30467508 -18.51765896 322.96092522 -18.546875 321.6171875 C-18.5881961 319.5039083 -18.62509411 317.39086678 -18.65136719 315.27734375 C-18.67895576 313.23388677 -18.72480693 311.19148748 -18.7734375 309.1484375 C-18.79325684 307.92640625 -18.81307617 306.704375 -18.83349609 305.4453125 C-19.00492014 302.44495477 -19.00492014 302.44495477 -20.55053711 300.55932617 C-23.52649633 298.52647369 -27.01628192 297.73079245 -30.4375 296.7109375 C-37.66870347 294.45173601 -44.29308899 291.64813633 -50.94604492 288.02661133 C-54.71189532 286.00931566 -57.94650437 284.56232238 -62.25 284.3984375 C-64.22518361 285.30919998 -64.22518361 285.30919998 -65.8125 287.0234375 C-66.48023438 287.65894531 -67.14796875 288.29445313 -67.8359375 288.94921875 C-69.71942842 290.86013915 -71.59880259 292.77486771 -73.4765625 294.69140625 C-74.04689209 295.27003418 -74.61722168 295.84866211 -75.20483398 296.44482422 C-76.343621 297.6055943 -77.47367559 298.77500844 -78.59399414 299.95361328 C-82.47651921 303.94892349 -85.52618444 306.05071637 -91.1875 306.7734375 C-97.44385552 306.00735315 -101.77066502 301.17869813 -106.05078125 296.86328125 C-106.57262497 296.34335098 -107.09446869 295.82342072 -107.63212585 295.28773499 C-108.72441162 294.1968009 -109.81421336 293.10337447 -110.90161133 292.00756836 C-112.56826879 290.3301314 -114.24542285 288.66372026 -115.92382812 286.99804688 C-116.98762159 285.93293291 -118.05079508 284.86719929 -119.11328125 283.80078125 C-119.61426834 283.30384262 -120.11525543 282.80690399 -120.63142395 282.29490662 C-123.9598733 278.92094523 -125.13858582 276.87467532 -125.5 272.0859375 C-124.91625146 263.47564655 -119.02657172 258.89966372 -113.125 253.2734375 C-111.46970514 251.69465858 -109.8209402 250.10899675 -108.1796875 248.515625 C-107.44991699 247.82065918 -106.72014648 247.12569336 -105.96826172 246.40966797 C-104.14272798 244.27287528 -103.43966346 243.18828216 -103.25 240.3984375 C-103.9251383 238.22855106 -103.9251383 238.22855106 -105.12890625 236.046875 C-105.55300781 235.20350586 -105.97710937 234.36013672 -106.4140625 233.49121094 C-106.87554687 232.5943457 -107.33703125 231.69748047 -107.8125 230.7734375 C-111.71684552 222.94560751 -114.9353831 215.20139482 -117.44750977 206.82177734 C-118.00143455 204.99907812 -118.6195406 203.19609878 -119.25 201.3984375 C-122.11149688 199.96768906 -124.60148399 200.25227477 -127.796875 200.22265625 C-129.13022391 200.19944589 -130.46355727 200.17532806 -131.796875 200.15039062 C-133.89463521 200.11537899 -135.99182788 200.08599001 -138.08984375 200.07250977 C-140.11788618 200.05693524 -142.14427518 200.01666173 -144.171875 199.97265625 C-145.38456055 199.95807373 -146.59724609 199.94349121 -147.84667969 199.9284668 C-152.7002132 199.17258292 -155.537191 196.9666455 -159.09790039 193.70654297 C-160.91768795 190.06079777 -160.69771913 186.48883662 -160.68359375 182.46875 C-160.6888356 181.60079803 -160.69407745 180.73284607 -160.69947815 179.83859253 C-160.70589392 178.00454781 -160.7045671 176.17046192 -160.69604492 174.33642578 C-160.68755012 171.53993801 -160.7162765 168.74550399 -160.74804688 165.94921875 C-160.74965949 164.16406311 -160.7490802 162.37890387 -160.74609375 160.59375 C-160.75732773 159.76231476 -160.76856171 158.93087952 -160.78013611 158.07424927 C-160.71634426 152.71936394 -159.82853658 149.63045303 -156.25 145.3984375 C-152.63218453 142.98656052 -150.8420982 143.12090862 -146.53515625 143.0546875 C-145.88300644 143.0400647 -145.23085663 143.02544189 -144.5589447 143.01037598 C-142.47685845 142.96393551 -140.39486602 142.92970787 -138.3125 142.8984375 C-135.57387036 142.85720741 -132.83590182 142.80349576 -130.09765625 142.7421875 C-128.88086182 142.72349609 -127.66406738 142.70480469 -126.41040039 142.68554688 C-123.38736238 142.41091631 -121.68080943 142.1824723 -119.25 140.3984375 C-118.19910589 138.57888061 -118.19910589 138.57888061 -117.609375 136.390625 C-117.34721191 135.5759375 -117.08504883 134.76125 -116.81494141 133.921875 C-116.54601074 133.04789063 -116.27708008 132.17390625 -116 131.2734375 C-113.50780391 123.62978236 -110.59737004 116.52476432 -106.82714844 109.42529297 C-104.34174114 105.12381564 -104.34174114 105.12381564 -103.25 100.3984375 C-105.13865222 96.82318524 -107.29290075 94.13217813 -110.19140625 91.33203125 C-110.93970703 90.59919922 -111.68800781 89.86636719 -112.45898438 89.11132812 C-113.23564453 88.36044922 -114.01230469 87.60957031 -114.8125 86.8359375 C-116.36012281 85.33943353 -117.90328626 83.83830061 -119.44140625 82.33203125 C-120.12404541 81.67259521 -120.80668457 81.01315918 -121.51000977 80.33374023 C-124.87524337 76.59076188 -125.48692903 73.62375829 -125.7109375 68.59375 C-124.52961265 62.96744012 -119.83402527 58.73460405 -115.8984375 54.81640625 C-115.3983316 54.31675858 -114.89822571 53.8171109 -114.38296509 53.30232239 C-113.33483128 52.25718734 -112.2842907 51.21446082 -111.23144531 50.17407227 C-109.61718445 48.57821103 -108.0112125 46.97434778 -106.40625 45.36914062 C-97.24443436 36.25130758 -97.24443436 36.25130758 -91.5 36.0859375 C-90.65953125 36.04855469 -89.8190625 36.01117188 -88.953125 35.97265625 C-80.69411 37.27357046 -74.8796864 45.76573603 -69.52734375 51.55078125 C-65.49340695 55.89246695 -65.49340695 55.89246695 -60.1875 58.14453125 C-56.40067355 57.18271762 -53.14967299 55.58040381 -49.75 53.7109375 C-42.42250355 49.85350908 -35.09673889 47.06144992 -27.25 44.3984375 C-22.44836007 42.89234159 -22.44836007 42.89234159 -19.25 39.3984375 C-19.14282243 37.21799188 -19.09445313 35.03454686 -19.07421875 32.8515625 C-19.05100839 31.51821359 -19.02689056 30.18488023 -19.00195312 28.8515625 C-18.96694149 26.75380229 -18.93755251 24.65660962 -18.92407227 22.55859375 C-18.90849774 20.53055132 -18.86822423 18.50416232 -18.82421875 16.4765625 C-18.80963623 15.26387695 -18.79505371 14.05119141 -18.7800293 12.80175781 C-18.13552841 8.66341492 -16.96007615 6.57890887 -14.25 3.3984375 C-9.64644141 0.28363688 -5.41400491 -0.04456975 0 0 Z M-67.06640625 101.91015625 C-85.24040223 122.62005865 -94.7073139 149.83178187 -93.40234375 177.31445312 C-91.73272238 200.15401723 -82.89155329 222.57306295 -67.25 239.3984375 C-66.81349121 239.88119141 -66.37698242 240.36394531 -65.92724609 240.86132812 C-46.61466452 262.08813736 -20.51836312 272.81078918 7.8828125 274.52734375 C34.88692211 275.29742292 62.47803441 263.65087224 81.98828125 245.25390625 C102.31075003 224.24156582 113.38660393 197.76461622 113.1015625 168.49145508 C112.26948228 140.16316828 99.91193968 114.55559758 79.546875 94.921875 C57.36273212 74.90657291 30.1800488 67.10783607 0.7578125 68.20751953 C-25.2900176 69.86088018 -49.15144541 83.42038384 -67.06640625 101.91015625 Z " fill="#183B56" transform="translate(242.25,154.6015625)"/>
<path d="M0 0 C15.38334534 12.0869142 26.3363431 27.24699657 32.1640625 45.94140625 C32.48246094 46.93398438 32.80085937 47.9265625 33.12890625 48.94921875 C37.63070495 65.83615026 36.94001277 85.48468236 31.1640625 101.94140625 C30.80183594 102.98941406 30.43960938 104.03742188 30.06640625 105.1171875 C25.82062729 116.21378269 19.29095399 128.1096834 10.1640625 135.94140625 C9.1740625 135.94140625 8.1840625 135.94140625 7.1640625 135.94140625 C7.01710938 135.2865625 6.87015625 134.63171875 6.71875 133.95703125 C3.96430906 122.74930603 -0.29569824 111.98301142 -9.8359375 104.94140625 C-20.73038482 98.37613669 -30.81798943 95.62658944 -43.54296875 95.640625 C-44.43022141 95.63633987 -45.31747406 95.63205475 -46.23161316 95.62763977 C-48.09458571 95.62194042 -49.95758049 95.62136342 -51.82055664 95.62573242 C-54.63141888 95.62888715 -57.44122078 95.60539561 -60.25195312 95.58007812 C-77.51806394 95.51888599 -91.68536365 97.48945388 -104.765625 109.7265625 C-111.8224611 117.27604565 -114.42975253 126.11850997 -116.8359375 135.94140625 C-122.29695462 135.03915125 -124.64891743 131.17356246 -127.8359375 126.94140625 C-143.10573167 104.64634556 -148.80628131 79.55150165 -143.8359375 52.94140625 C-140.49745377 37.62116101 -133.3710526 23.57107877 -122.8359375 11.94140625 C-122.11019531 11.12285156 -121.38445312 10.30429687 -120.63671875 9.4609375 C-89.04333054 -24.22126977 -36.58626577 -26.55779898 0 0 Z M-80.8359375 21.94140625 C-87.94651623 31.10696042 -91.67902953 40.57542024 -90.62109375 52.328125 C-89.00354268 61.15533224 -83.93247766 70.2282127 -76.6484375 75.53515625 C-67.63751781 81.27961755 -58.41957374 84.56233613 -47.765625 82.28515625 C-36.74844733 79.31997618 -29.53524545 74.17492047 -23.27734375 64.62109375 C-18.3286551 55.42109262 -17.73011078 46.42962158 -20.3984375 36.50390625 C-24.30634343 24.69820442 -31.56854737 18.91790274 -42.1484375 13.12890625 C-56.1615994 8.6161931 -70.20738292 11.6001099 -80.8359375 21.94140625 Z " fill="#183B56" transform="translate(306.8359375,253.05859375)"/>
<path d="M0 0 C2.46174651 0.37923846 3.72354632 0.716276 5.48535156 2.52441406 C5.9490918 3.18151367 6.41283203 3.83861328 6.890625 4.515625 C7.426875 5.26134766 7.963125 6.00707031 8.515625 6.77539062 C9.08796875 7.59201172 9.6603125 8.40863281 10.25 9.25 C11.50344469 10.99605908 12.75872126 12.74080426 14.015625 14.484375 C14.66853516 15.39380859 15.32144531 16.30324219 15.99414062 17.24023438 C19.25055236 21.72057496 22.62615837 26.10781798 26 30.5 C32.95267131 39.58293402 39.79956696 48.74030416 46.53271484 57.98730469 C47.51622246 59.33639567 48.5062223 60.68077605 49.50244141 62.02050781 C53 66.77797264 53 66.77797264 53 69 C45.08 69.33 37.16 69.66 29 70 C28.96241577 72.53675415 28.96241577 72.53675415 28.92407227 75.12475586 C28.84031176 80.70079432 28.75204041 86.27674903 28.66066074 91.85266781 C28.60540198 95.23467122 28.55197744 98.61668324 28.50268555 101.9987793 C28.44599054 105.88339427 28.38142415 109.76785878 28.31640625 113.65234375 C28.29969376 114.87211411 28.28298126 116.09188446 28.26576233 117.34861755 C28.24581711 118.46970413 28.22587189 119.59079071 28.20532227 120.74584961 C28.18977798 121.73846298 28.1742337 122.73107635 28.15821838 123.75376892 C28 126 28 126 27 127 C25.6058526 127.10850631 24.20681383 127.1557511 22.80859375 127.17578125 C21.94556641 127.19962891 21.08253906 127.22347656 20.19335938 127.24804688 C18.38368864 127.29037085 16.57372882 127.32196426 14.76367188 127.34179688 C7.56406874 127.5706091 2.37593323 129.20962687 -3.20703125 133.82421875 C-3.73683594 134.43910156 -4.26664063 135.05398437 -4.8125 135.6875 C-5.35519531 136.28949219 -5.89789063 136.89148438 -6.45703125 137.51171875 C-11.0306108 144.88733944 -11.49987065 152.56557095 -11.6875 161.0625 C-11.72166016 162.11888672 -11.75582031 163.17527344 -11.79101562 164.26367188 C-11.87269295 166.84234157 -11.94209943 169.42070562 -12 172 C-13.41396902 172.50757862 -14.83131729 173.00574925 -16.25 173.5 C-17.43335938 173.91765625 -17.43335938 173.91765625 -18.640625 174.34375 C-21 175 -21 175 -25 175 C-25.33 140.35 -25.66 105.7 -26 70 C-33.92 69.67 -41.84 69.34 -50 69 C-49.0319638 65.12785519 -48.26513293 63.72070955 -45.89453125 60.68359375 C-45.24806641 59.84699219 -44.60160156 59.01039062 -43.93554688 58.1484375 C-43.23494141 57.25382812 -42.53433594 56.35921875 -41.8125 55.4375 C-40.33854225 53.5309534 -38.86591038 51.6233811 -37.39453125 49.71484375 C-36.65283691 48.75433105 -35.91114258 47.79381836 -35.14697266 46.80419922 C-32.03934249 42.74526812 -29.01534783 38.62769561 -26 34.5 C-18.99134137 24.92813993 -11.80318876 15.49642483 -4.5871582 6.08032227 C-3.04704793 4.06166673 -1.52045366 2.03348841 0 0 Z " fill="#183B56
" transform="translate(223,16)"/>
<path d="M0 0 C4.94549663 3.44434961 7.99061713 7.78304278 11.4375 12.625 C16.17898269 19.17777926 20.99961828 25.64249293 26 32 C32.67998194 40.51560851 39.14671017 49.1813036 45.50048828 57.94287109 C46.4922587 59.30344705 47.49572854 60.65557897 48.51123047 61.99853516 C52 66.67512724 52 66.67512724 52 70 C43.75 70 35.5 70 27 70 C27 115.21 27 160.42 27 207 C22.05 207 17.1 207 12 207 C11.54109375 205.7934375 11.0821875 204.586875 10.609375 203.34375 C9.98979448 201.72908563 9.36999087 200.11450685 8.75 198.5 C8.44964844 197.70851563 8.14929688 196.91703125 7.83984375 196.1015625 C6.05653319 191.47254361 4.10997748 187.11661805 1.64550781 182.80664062 C0.80063283 180.44201323 1.07637563 179.31571611 2 177 C3.22753906 175.49536133 3.22753906 175.49536133 4.765625 174.08203125 C5.32411133 173.55464355 5.88259766 173.02725586 6.45800781 172.48388672 C7.04936523 171.9323291 7.64072266 171.38077148 8.25 170.8125 C15.71519546 163.55590875 20.64385709 157.49095651 21.125 146.6953125 C20.52574229 133.77381806 10.22347592 124.86221151 1.625 116.25 C0.82578125 115.42628906 0.0265625 114.60257812 -0.796875 113.75390625 C-8.84880995 105.66288424 -14.72837952 102.50480455 -26 100 C-26 90.1 -26 80.2 -26 70 C-34.25 70 -42.5 70 -51 70 C-50.0319638 66.12785519 -49.26513293 64.72070955 -46.89453125 61.68359375 C-46.24806641 60.84699219 -45.60160156 60.01039063 -44.93554688 59.1484375 C-44.23494141 58.25382812 -43.53433594 57.35921875 -42.8125 56.4375 C-41.33854225 54.5309534 -39.86591038 52.6233811 -38.39453125 50.71484375 C-37.65283691 49.75433105 -36.91114258 48.79381836 -36.14697266 47.80419922 C-33.03934085 43.74526597 -30.0154258 39.62764069 -27 35.5 C-21.86292707 28.48664932 -16.64536486 21.53876045 -11.375 14.625 C-10.36179687 13.2956543 -10.36179687 13.2956543 -9.328125 11.93945312 C-6.26055847 7.92491514 -3.18203402 3.92504704 0 0 Z " fill="#183B56
" transform="translate(378,78)"/>
<path d="M0 0 C0.91154846 -0.00960754 1.82309692 -0.01921509 2.76226807 -0.02911377 C3.73629578 -0.03336365 4.71032349 -0.03761353 5.71386719 -0.04199219 C6.7286615 -0.04769226 7.74345581 -0.05339233 8.78900146 -0.05926514 C10.9340308 -0.06869682 13.0790745 -0.07524183 15.22412109 -0.07910156 C18.485287 -0.08879155 21.74581819 -0.11982644 25.00683594 -0.15136719 C27.09667597 -0.15789957 29.18652048 -0.16314911 31.27636719 -0.16699219 C32.72526337 -0.18551239 32.72526337 -0.18551239 34.20343018 -0.20440674 C44.65153615 -0.17047766 52.8078853 2.68025766 60.26074219 10.16113281 C64.41576456 15.61238012 67.4245216 21.32593844 68.26074219 28.16113281 C68.40125 29.13566406 68.54175781 30.11019531 68.68652344 31.11425781 C69.31907839 38.78044623 69.31907839 38.78044623 66.81152344 42.05175781 C64.38586896 43.80746963 62.01166128 44.96990257 59.26074219 46.16113281 C57.47990234 46.94423828 57.47990234 46.94423828 55.66308594 47.74316406 C32.32310162 57.44715955 6.844256 58.21099848 -16.67675781 48.56738281 C-21.5076676 46.34910791 -26.14876495 43.8381537 -30.73925781 41.16113281 C-31.22185447 29.60562406 -31.39488553 20.07714732 -24.17675781 10.41113281 C-17.85503754 3.60560742 -9.16341174 0.0785336 0 0 Z " fill="#183B56" transform="translate(233.7392578125,360.8388671875)"/>
<path d="M0 0 C4.92924563 3.83055835 8.30242089 7.90868674 10 14 C10.81680825 21.39211468 10.66665201 27.95545074 6 34 C1.47861221 38.76680758 -2.88214568 42.4634311 -9.578125 43.3359375 C-17.22439936 43.44772514 -23.22585316 42.39168071 -29.04296875 37.1640625 C-34.62327192 31.15804548 -36.52554138 25.75753124 -36.3046875 17.5859375 C-35.41663679 10.04889172 -31.85869138 5.02749021 -26 0.375 C-18.51152966 -4.77332336 -7.78431273 -4.57045747 0 0 Z " fill="#183B56" transform="translate(265,280)"/>
</svg>
