<?xml version="1.0" encoding="UTF-8"?>
<svg version="1.1" xmlns="http://www.w3.org/2000/svg" width="512" height="512">
<path d="M0 0 C7.0318295 4.11188691 9.6351706 10.92976523 12.09375 18.39257812 C14.87065731 26.38217136 20.03962748 33.39996321 27.62890625 37.23046875 C33.16398657 39.0268622 38.8553088 39.12843238 44.62841797 39.14526367 C45.35625488 39.14862228 46.0840918 39.1519809 46.83398438 39.15544128 C49.22006984 39.16487506 51.60608459 39.16689048 53.9921875 39.16796875 C55.66456124 39.17118633 57.3369347 39.17455077 59.00930786 39.17805481 C62.50767672 39.18402695 66.00602094 39.18589666 69.50439453 39.18530273 C73.96832672 39.18520116 78.43209969 39.19885701 82.89599419 39.21607494 C86.34828404 39.22723884 89.8005359 39.2292206 93.25284195 39.22869301 C94.89773228 39.22986637 96.54262381 39.23425164 98.18749619 39.24202538 C115.22272179 39.57499892 115.22272179 39.57499892 130 32 C132.31877019 29.17277659 134.16220413 26.15555609 136 23 C136.46921875 22.22527344 136.9384375 21.45054688 137.421875 20.65234375 C137.90140625 19.85957031 138.3809375 19.06679688 138.875 18.25 C139.38804687 17.43136475 139.90109375 16.61272949 140.4296875 15.76928711 C142.11267863 12.94948022 142.11267863 12.94948022 143.3828125 9.51391602 C145.2079346 5.48206039 146.67843631 2.95207277 150 0 C156.09137421 -1.95732619 162.65017707 -1.48873096 168.96289062 -1.20043945 C171.99306649 -1.06281491 175.0139027 -1.01609692 178.046875 -0.98632812 C179.98970174 -0.94538192 181.93242892 -0.89932763 183.875 -0.84765625 C184.77105957 -0.82751968 185.66711914 -0.80738312 186.59033203 -0.78663635 C193.53901635 -0.44787489 198.96323196 1.33886006 204.2421875 5.96484375 C204.78101563 6.61582031 205.31984375 7.26679687 205.875 7.9375 C206.42929687 8.58589844 206.98359375 9.23429687 207.5546875 9.90234375 C210.80273457 14.61640126 211.24200278 18.59666251 211.1953125 24.26953125 C211.19106766 25.29103523 211.19106766 25.29103523 211.18673706 26.33317566 C211.17560525 28.49313455 211.15051457 30.65266794 211.125 32.8125 C211.11496111 34.28319711 211.10583685 35.75390076 211.09765625 37.22460938 C211.07568913 40.81654286 211.0412082 44.40822985 211 48 C209.22496094 48.07347656 209.22496094 48.07347656 207.4140625 48.1484375 C189.0718015 48.76713181 189.0718015 48.76713181 173 57 C171.22768591 58.97379822 169.71509179 60.95656258 168.25390625 63.16796875 C163.89429646 69.5376167 156.33830756 72.35095942 149 74 C145.5494998 74.28518202 142.14570489 74.23662785 138.6875 74.125 C127.38967613 73.79379687 121.32329894 75.54262276 112.8125 83.3125 C110.85084154 85.18542781 108.92621832 87.09010556 107 89 C106.29359375 89.65742187 105.5871875 90.31484375 104.859375 90.9921875 C99.17924948 96.35126245 94.93349292 102.35554188 93 110 C92.95228223 112.27205915 93.05863287 114.50782701 93.18188477 116.77685547 C93.74534284 127.71531443 92.30757485 137.76815865 86 147 C83.79949815 149.01776122 81.78744367 150.31845925 79.1484375 151.6875 C74.32003848 154.63721286 71.81839701 160.05143569 69.6875 165.125 C66.42344149 178.77469923 65.77717495 196.75195133 72.625 209.3125 C75.25315455 213.38065078 78.14216734 216.08604745 82.16796875 218.74609375 C88.4551508 223.04926099 91.28410699 230.76280609 93 238 C93.0923448 241.69379193 92.77332301 245.12227837 92.32421875 248.78515625 C91.4258189 257.69338608 94.57634619 265.06608182 100 272 C102.38274186 274.68103383 104.85637452 277.25914769 107.375 279.8125 C107.99914795 280.44696045 108.6232959 281.0814209 109.26635742 281.73510742 C115.09213175 287.4520594 122.47332925 293.89659803 131.06494141 294.03271484 C132.63617104 293.97563384 134.20690376 293.90339382 135.77685547 293.81811523 C146.71531443 293.25465716 156.76815865 294.69242515 166 301 C168.01776122 303.20050185 169.31845925 305.21255633 170.6875 307.8515625 C173.63721286 312.67996152 179.05143569 315.18160299 184.125 317.3125 C190.33505943 318.79751421 196.5845728 319.23042754 202.9375 319.5625 C203.71673828 319.60568359 204.49597656 319.64886719 205.29882812 319.69335938 C207.19907117 319.79828077 209.09951669 319.8995245 211 320 C211.09359702 334.33437185 211.16378798 348.66869605 211.20724869 363.00331116 C211.22810935 369.65971946 211.25639972 376.31586764 211.30175781 382.97216797 C211.34526877 389.39772559 211.36914858 395.82308571 211.37950897 402.2487793 C211.38689081 404.69835519 211.4013058 407.14792046 211.42292023 409.59741211 C211.45202288 413.03262561 211.45595298 416.46702649 211.45410156 419.90234375 C211.46848267 420.91151352 211.48286377 421.92068329 211.49768066 422.96043396 C211.4549225 430.30861158 209.92399599 435.66327296 205.03515625 441.2421875 C204.38417969 441.78101563 203.73320312 442.31984375 203.0625 442.875 C202.41410156 443.42929687 201.76570313 443.98359375 201.09765625 444.5546875 C195.68168276 448.28636384 190.78226122 448.28918435 184.41716003 448.26742554 C182.96139044 448.27422221 182.96139044 448.27422221 181.47621137 448.28115618 C178.22131594 448.29382531 174.9665873 448.29217817 171.71166992 448.29052734 C169.37911259 448.29651102 167.04655725 448.3033162 164.71400452 448.31088257 C158.37511206 448.32856623 152.03627358 448.33323896 145.69735885 448.33451414 C140.40659238 448.33641252 135.1158385 448.34376937 129.82507688 448.35085833 C118.05571567 448.36650227 106.28637787 448.37219544 94.51700719 448.37084763 C93.45804298 448.37072776 93.45804298 448.37072776 92.37768555 448.37060547 C91.67084522 448.37052371 90.9640049 448.37044195 90.23574517 448.37035771 C78.78272615 448.36954496 67.32983869 448.38868028 55.87685772 448.4168822 C44.11096231 448.44562551 32.34513102 448.45942169 20.57919961 448.45769465 C13.97595445 448.45718459 7.37285816 448.46289236 0.76964378 448.48405075 C-5.44135178 448.50340864 -11.65205609 448.50357408 -17.8630619 448.48901749 C-20.14147873 448.48692526 -22.41991367 448.49165482 -24.69829941 448.5037384 C-27.81127848 448.51917775 -30.92325165 448.50989065 -34.03620911 448.49447632 C-34.93554147 448.50476344 -35.83487383 448.51505057 -36.76145869 448.52564943 C-43.72231707 448.44960279 -48.97066002 446.65463068 -54.2421875 442.03515625 C-54.78101562 441.38417969 -55.31984375 440.73320312 -55.875 440.0625 C-56.42929688 439.41410156 -56.98359375 438.76570313 -57.5546875 438.09765625 C-60.74581818 433.46620442 -61.25099608 429.51329992 -61.25726891 423.94151592 C-61.26077498 423.23915677 -61.26428105 422.53679761 -61.26789337 421.81315485 C-61.27721544 419.45386434 -61.27228203 417.09482024 -61.26742554 414.73551941 C-61.27116139 413.02923627 -61.27576265 411.32295485 -61.28115618 409.61667615 C-61.29340959 404.92314668 -61.29312296 400.22968835 -61.29076743 395.53614652 C-61.29035986 390.47603653 -61.30139273 385.41594954 -61.31088257 380.35585022 C-61.32750633 370.44036696 -61.33299273 360.52490747 -61.33410732 350.60941144 C-61.33505714 342.55086122 -61.33916409 334.49231886 -61.34550858 326.43377113 C-61.36312467 303.59409643 -61.37234686 280.75444054 -61.37084763 257.914759 C-61.37076772 256.68307164 -61.3706878 255.45138427 -61.37060547 254.18237305 C-61.37052371 252.94918452 -61.37044195 251.715996 -61.37035771 250.44543812 C-61.36954468 230.45662835 -61.38868556 210.4678939 -61.4168822 190.47910591 C-61.44559554 169.96239847 -61.45942335 149.44572778 -61.45769465 128.92899972 C-61.45703022 117.40734287 -61.46254587 105.88576498 -61.48405075 94.36412621 C-61.50224213 84.55476622 -61.50662668 74.745521 -61.4930319 64.93615147 C-61.48649197 59.93061163 -61.48642206 54.92529212 -61.5037384 49.9197731 C-61.51942879 45.33715485 -61.51664682 40.75493234 -61.49917014 36.17232398 C-61.49609134 34.5148706 -61.49976568 32.85738798 -61.51089029 31.19996908 C-61.57054643 21.68126963 -61.59590479 14.24463091 -55.03515625 6.7578125 C-54.38417969 6.21898437 -53.73320313 5.68015625 -53.0625 5.125 C-52.41410156 4.57070313 -51.76570313 4.01640625 -51.09765625 3.4453125 C-39.30552571 -4.67961916 -13.35478321 -3.41090724 0 0 Z M16.7890625 324.3515625 C16.13545746 325.00321381 15.48185242 325.65486511 14.80844116 326.32626343 C13.43364945 327.70504714 12.06746644 329.09246159 10.70947266 330.48779297 C8.63182303 332.61800435 6.52403353 334.71439417 4.41015625 336.80859375 C3.07621021 338.15435472 1.744114 339.50195233 0.4140625 340.8515625 C-0.21503021 341.47680817 -0.84412292 342.10205383 -1.49227905 342.74624634 C-4.19676101 345.55468702 -5.82570894 347.47457895 -7.06884766 351.22216797 C-6.98806733 354.48145371 -6.57148882 355.30579978 -4.3125 357.59375 C-3.6628125 358.27050781 -3.013125 358.94726562 -2.34375 359.64453125 C-1.5703125 360.42183594 -0.796875 361.19914062 0 362 C1.39321494 363.47929 2.78636437 364.95864244 4.17822266 366.43920898 C6.22813227 368.60152872 8.31055875 370.73085447 10.39746094 372.85742188 C11.47300227 373.95983536 12.54131024 375.06934885 13.60253906 376.18554688 C15.15587927 377.81793505 16.73098565 379.42620046 18.3125 381.03125 C18.77938232 381.53112427 19.24626465 382.03099854 19.72729492 382.54602051 C22.43070253 385.2334753 23.86599128 385.98508658 27.703125 386.41210938 C31.02372911 386.24660802 31.02372911 386.24660802 33.4375 384.375 C35.46245449 381.29706917 35.38061272 379.6384764 35 376 C33.52419597 373.57825202 33.52419597 373.57825202 31.3125 371.4375 C30.50554687 370.59316406 29.69859375 369.74882812 28.8671875 368.87890625 C27.91308522 367.91765331 26.95721647 366.95815186 26 366 C25.43829102 365.4313623 24.87658203 364.86272461 24.29785156 364.27685547 C20.55801634 360.49111392 16.78910434 356.73639655 13 353 C14.47519496 349.56737194 16.39986666 347.37863556 19.0625 344.77734375 C19.85914063 343.99166016 20.65578125 343.20597656 21.4765625 342.39648438 C22.30929688 341.58501953 23.14203125 340.77355469 24 339.9375 C25.64805762 338.32388321 27.29398864 336.70809078 28.9375 335.08984375 C29.66839844 334.37691162 30.39929688 333.66397949 31.15234375 332.92944336 C33.62125196 330.35124812 34.91761734 328.64533085 35.375 325.0625 C35.22504066 321.95929311 35.22504066 321.95929311 33.4375 319.625 C26.39106219 314.92737479 21.69988129 319.27801437 16.7890625 324.3515625 Z M75.98339844 319.80908203 C73.09031152 324.46351901 72.04697197 329.32263989 70.765625 334.6171875 C70.48273621 335.74770538 70.19984741 336.87822327 69.90838623 338.04299927 C69.31407028 340.43028841 68.72609553 342.81916395 68.14404297 345.20947266 C67.25398358 348.85866756 66.34153071 352.50170846 65.42578125 356.14453125 C64.85022198 358.4684184 64.27595988 360.79262729 63.703125 363.1171875 C63.43131409 364.20280975 63.15950317 365.28843201 62.87945557 366.4069519 C61.59898296 371.70989766 60.49230829 376.53910667 61 382 C62.47993156 384.56338689 62.47993156 384.56338689 65 386 C67.95691709 386.75015195 67.95691709 386.75015195 71 386 C76.83339728 381.75012547 77.72374204 376.16094953 79.33203125 369.3828125 C79.6135051 368.25229462 79.89497894 367.12177673 80.1849823 365.95700073 C80.77547536 363.57022781 81.35743043 361.18132847 81.93139648 358.79052734 C82.80881286 355.14033907 83.71357428 351.49778719 84.62304688 347.85546875 C85.19433367 345.53164897 85.76404784 343.20744189 86.33203125 340.8828125 C86.73504204 339.25437912 86.73504204 339.25437912 87.14619446 337.5930481 C88.40971722 332.2911155 89.49575887 327.45563642 89 322 C87.58333333 319.41666667 87.58333333 319.41666667 85 318 C81.08278237 317.37044717 79.01000717 317.09392819 75.98339844 319.80908203 Z M116.5625 319.625 C114.53754551 322.70293083 114.61938728 324.3615236 115 328 C116.47580403 330.42174798 116.47580403 330.42174798 118.6875 332.5625 C119.89792969 333.82900391 119.89792969 333.82900391 121.1328125 335.12109375 C122.08691478 336.08234669 123.04278353 337.04184814 124 338 C124.56170898 338.5686377 125.12341797 339.13727539 125.70214844 339.72314453 C129.44198366 343.50888608 133.21089566 347.26360345 137 351 C135.52480504 354.43262806 133.60013334 356.62136444 130.9375 359.22265625 C130.14085937 360.00833984 129.34421875 360.79402344 128.5234375 361.60351562 C127.69070312 362.41498047 126.85796875 363.22644531 126 364.0625 C124.35194238 365.67611679 122.70601136 367.29190922 121.0625 368.91015625 C120.33160156 369.62308838 119.60070312 370.33602051 118.84765625 371.07055664 C116.37874804 373.64875188 115.08238266 375.35466915 114.625 378.9375 C114.74843776 382.06970509 114.74843776 382.06970509 116.75 384.3125 C119.59497668 386.47047877 119.59497668 386.47047877 123 387 C127.60406544 384.69948778 130.9640655 381.37381423 134.578125 377.79296875 C135.19016785 377.18995438 135.80221069 376.58694 136.43280029 375.96565247 C137.71962101 374.69328891 139.00369181 373.41813885 140.28515625 372.14038086 C142.24549991 370.1919727 144.22372973 368.26301023 146.203125 366.33398438 C147.45427083 365.09229933 148.70430943 363.84949741 149.953125 362.60546875 C150.54474426 362.03338181 151.13636353 361.46129486 151.74591064 360.87187195 C154.39183273 358.19640877 155.8547287 356.44283331 157.04589844 352.81176758 C156.99216293 349.519896 156.59096796 348.71392909 154.3125 346.40625 C153.33796875 345.39111328 153.33796875 345.39111328 152.34375 344.35546875 C151.5703125 343.57816406 150.796875 342.80085938 150 342 C148.60678506 340.52071 147.21363563 339.04135756 145.82177734 337.56079102 C143.77186773 335.39847128 141.68944125 333.26914553 139.60253906 331.14257812 C138.52699773 330.04016464 137.45868976 328.93065115 136.39746094 327.81445312 C134.84412073 326.18206495 133.26901435 324.57379954 131.6875 322.96875 C131.22061768 322.46887573 130.75373535 321.96900146 130.27270508 321.45397949 C127.56929747 318.7665247 126.13400872 318.01491342 122.296875 317.58789062 C118.97627089 317.75339198 118.97627089 317.75339198 116.5625 319.625 Z " fill="#183B56" transform="translate(125,32)"/>
<path d="M0 0 C2.07229211 -0.00436681 4.14244072 -0.04069138 6.21435547 -0.07861328 C8.18855469 -0.08441406 8.18855469 -0.08441406 10.20263672 -0.09033203 C11.40259277 -0.0985498 12.60254883 -0.10676758 13.83886719 -0.11523438 C19.18920674 0.65574142 22.2340969 3.13037414 25.52294922 7.30810547 C27.07578968 10.12622334 27.83771102 12.20233081 28.21044922 15.37060547 C29.50337891 15.61681641 30.79630859 15.86302734 32.12841797 16.11669922 C37.26022754 17.257213 41.78272267 19.20076626 46.52294922 21.43310547 C48.08019554 22.15606699 49.63874678 22.87622589 51.19873047 23.59326172 C51.87460205 23.91045166 52.55047363 24.2276416 53.24682617 24.55444336 C55.23841451 25.38222899 57.08617063 25.99375761 59.21044922 26.37060547 C60.5545744 25.72597401 61.88717543 25.05702277 63.21044922 24.37060547 C65.79638672 24.06982422 65.79638672 24.06982422 68.58544922 24.05810547 C69.50068359 24.04134766 70.41591797 24.02458984 71.35888672 24.00732422 C78.92858564 24.97168312 83.37731117 30.10859522 88.46044922 35.30810547 C89.17974609 36.02417969 89.89904297 36.74025391 90.64013672 37.47802734 C95.73492688 42.62529194 98.49850431 45.76778082 98.46044922 53.24560547 C98.46818359 54.75767578 98.46818359 54.75767578 98.47607422 56.30029297 C98.21044922 59.37060547 98.21044922 59.37060547 96.99951172 62.30810547 C95.92409911 66.48198412 97.38273118 68.89062372 99.33544922 72.49560547 C100.00077431 73.81201622 100.66088324 75.13107542 101.31591797 76.45263672 C101.64124512 77.10699707 101.96657227 77.76135742 102.30175781 78.43554688 C104.52741512 83.1750847 107.21044922 89.05826005 107.21044922 94.37060547 C108.05607422 94.41185547 108.90169922 94.45310547 109.77294922 94.49560547 C114.72790344 95.75686654 118.51453264 98.71258979 121.28417969 103.0534668 C123.17680984 107.78803526 122.58224387 113.12636457 122.58105469 118.16015625 C122.58542149 120.23244836 122.62174607 122.30259697 122.65966797 124.37451172 C122.66353516 125.69064453 122.66740234 127.00677734 122.67138672 128.36279297 C122.67960449 129.56274902 122.68782227 130.76270508 122.69628906 131.99902344 C121.92531327 137.34936299 119.45068055 140.39425315 115.27294922 143.68310547 C112.41523424 145.25776474 110.37388445 145.82998456 107.21044922 146.37060547 C107.05189453 147.02544922 106.89333984 147.68029297 106.72998047 148.35498047 C104.62992721 156.56955343 102.04842143 164.81526222 97.53857422 172.05419922 C95.94547456 174.31775019 95.94547456 174.31775019 96.46044922 177.05810547 C97.14422003 179.36270108 97.14422003 179.36270108 98.21044922 181.37060547 C98.35877606 183.11629834 98.43173204 184.86885784 98.46044922 186.62060547 C98.49912109 188.02052734 98.49912109 188.02052734 98.53857422 189.44873047 C97.68336283 197.06418427 92.48387691 201.52630553 87.27294922 206.62060547 C86.556875 207.33990234 85.84080078 208.05919922 85.10302734 208.80029297 C79.95576275 213.89508313 76.81327387 216.65866056 69.33544922 216.62060547 C68.32740234 216.62576172 67.31935547 216.63091797 66.28076172 216.63623047 C63.21044922 216.37060547 63.21044922 216.37060547 60.27294922 215.15966797 C56.09907057 214.08425536 53.69043097 215.54288743 50.08544922 217.49560547 C48.76903846 218.16093056 47.44997926 218.82103949 46.12841797 219.47607422 C45.47405762 219.80140137 44.81969727 220.12672852 44.14550781 220.46191406 C39.40596999 222.68757137 33.52279464 225.37060547 28.21044922 225.37060547 C28.16919922 226.21623047 28.12794922 227.06185547 28.08544922 227.93310547 C26.82418814 232.88805969 23.8684649 236.67468889 19.52758789 239.44433594 C14.79301942 241.33696609 9.45469012 240.74240012 4.42089844 240.74121094 C2.34860633 240.74557774 0.27845772 240.78190232 -1.79345703 240.81982422 C-3.10958984 240.82369141 -4.42572266 240.82755859 -5.78173828 240.83154297 C-6.98169434 240.83976074 -8.18165039 240.84797852 -9.41796875 240.85644531 C-14.7683083 240.08546952 -17.81319846 237.6108368 -21.10205078 233.43310547 C-22.65489124 230.6149876 -23.41681259 228.53888013 -23.78955078 225.37060547 C-24.94455078 225.18498047 -26.09955078 224.99935547 -27.28955078 224.80810547 C-32.18032929 223.73775937 -36.60108317 221.87921018 -41.16455078 219.87060547 C-42.21739258 219.40738892 -42.21739258 219.40738892 -43.29150391 218.93481445 C-46.30063782 217.58324814 -49.03889249 216.20437766 -51.78955078 214.37060547 C-54.42389332 214.69186675 -56.41665175 215.18415595 -58.78955078 216.37060547 C-60.53524365 216.51893231 -62.28780315 216.59188829 -64.03955078 216.62060547 C-65.43947266 216.65927734 -65.43947266 216.65927734 -66.86767578 216.69873047 C-74.48312958 215.84351908 -78.94525084 210.64403316 -84.03955078 205.43310547 C-84.75884766 204.71703125 -85.47814453 204.00095703 -86.21923828 203.26318359 C-91.31402845 198.115919 -94.07760587 194.97343012 -94.03955078 187.49560547 C-94.04470703 186.48755859 -94.04986328 185.47951172 -94.05517578 184.44091797 C-93.78955078 181.37060547 -93.78955078 181.37060547 -92.57861328 178.43310547 C-91.50320067 174.25922682 -92.96183274 171.85058722 -94.91455078 168.24560547 C-95.57987587 166.92919471 -96.2399848 165.61013551 -96.89501953 164.28857422 C-97.22034668 163.63421387 -97.54567383 162.97985352 -97.88085938 162.30566406 C-100.10651668 157.56612624 -102.78955078 151.68295089 -102.78955078 146.37060547 C-103.63517578 146.32935547 -104.48080078 146.28810547 -105.35205078 146.24560547 C-110.307005 144.98434439 -114.09363421 142.02862115 -116.86328125 137.68774414 C-118.7559114 132.95317567 -118.16134543 127.61484637 -118.16015625 122.58105469 C-118.16452306 120.50876258 -118.20084763 118.43861397 -118.23876953 116.36669922 C-118.24263672 115.05056641 -118.24650391 113.73443359 -118.25048828 112.37841797 C-118.25870605 111.17846191 -118.26692383 109.97850586 -118.27539062 108.7421875 C-117.50441483 103.39184795 -115.02978211 100.34695779 -110.85205078 97.05810547 C-108.03393291 95.50526501 -105.95782544 94.74334366 -102.78955078 94.37060547 C-102.60392578 93.21560547 -102.41830078 92.06060547 -102.22705078 90.87060547 C-101.15670469 85.97982696 -99.29815549 81.55907308 -97.28955078 76.99560547 C-96.98073975 76.29371094 -96.67192871 75.59181641 -96.35375977 74.86865234 C-95.00219346 71.85951843 -93.62332298 69.12126376 -91.78955078 66.37060547 C-92.11081207 63.73626293 -92.60310126 61.7435045 -93.78955078 59.37060547 C-93.96410773 57.45906377 -94.05670224 55.5395649 -94.10205078 53.62060547 C-94.13943359 52.59451172 -94.17681641 51.56841797 -94.21533203 50.51123047 C-93.24065035 43.3218353 -87.22787751 38.5013983 -82.28955078 33.62060547 C-81.62568359 32.94900391 -80.96181641 32.27740234 -80.27783203 31.58544922 C-79.63201172 30.94220703 -78.98619141 30.29896484 -78.32080078 29.63623047 C-77.73878906 29.05647461 -77.15677734 28.47671875 -76.55712891 27.87939453 C-72.79798487 24.67062241 -69.80615285 24.09571182 -64.91455078 24.12060547 C-63.90650391 24.11544922 -62.89845703 24.11029297 -61.85986328 24.10498047 C-58.78955078 24.37060547 -58.78955078 24.37060547 -55.85205078 25.58154297 C-51.67817213 26.65695558 -49.26953253 25.19832351 -45.66455078 23.24560547 C-44.34814003 22.58028038 -43.02908083 21.92017145 -41.70751953 21.26513672 C-41.05315918 20.93980957 -40.39879883 20.61448242 -39.72460938 20.27929688 C-34.98507155 18.05363957 -29.1018962 15.37060547 -23.78955078 15.37060547 C-23.74830078 14.52498047 -23.70705078 13.67935547 -23.66455078 12.80810547 C-22.40328971 7.85315125 -19.44756646 4.06652204 -15.10668945 1.296875 C-10.37212099 -0.59575515 -5.03379168 -0.00118918 0 0 Z M-43.53955078 75.55810547 C-56.89742379 90.04574884 -62.04650154 106.54713921 -61.27001953 126.01513672 C-60.0860547 142.77852796 -51.93048498 156.93188664 -39.78955078 168.37060547 C-26.3860459 179.41396626 -10.53556451 184.96183187 6.84326172 184.21435547 C23.66607882 182.25733871 40.45123679 174.88217456 51.21044922 161.37060547 C63.19995336 145.41245013 67.40234204 129.33662069 65.21044922 109.37060547 C62.43731673 92.97221639 52.68522784 78.29146754 39.27294922 68.55810547 C12.18998993 50.79536211 -19.58694434 53.80803755 -43.53955078 75.55810547 Z " fill="#183B56" transform="translate(325.78955078125,95.62939453125)"/>
<path d="M0 0 C38.28 0 76.56 0 116 0 C109.16923077 12.52307692 109.16923077 12.52307692 105.75 17.625 C105.08484375 18.62789062 104.4196875 19.63078125 103.734375 20.6640625 C102 23 102 23 100 24 C97.37226192 24.11909003 94.77019685 24.17833516 92.14135742 24.19287109 C90.92401665 24.20513733 90.92401665 24.20513733 89.68208313 24.21765137 C86.98988588 24.24251297 84.29774138 24.25902306 81.60546875 24.2734375 C80.68680841 24.27876118 79.76814808 24.28408485 78.82164955 24.28956985 C73.95947732 24.31630443 69.09733081 24.33567857 64.23510742 24.35009766 C59.2110213 24.36674883 54.18759073 24.41152949 49.16375256 24.4624691 C45.30242655 24.49611177 41.44125673 24.50767178 37.57979774 24.51332474 C35.72780661 24.52004519 33.87582603 24.53528787 32.02397728 24.55921555 C29.43104884 24.59080771 26.83989625 24.59091331 24.24682617 24.58349609 C23.4824826 24.59990143 22.71813904 24.61630676 21.93063354 24.63320923 C17.93276521 24.58642039 16.2125809 24.17481948 13.0831604 21.60128784 C11.25791082 19.32205887 9.61073248 17.10819649 8.10546875 14.609375 C7.62529297 13.81789063 7.14511719 13.02640625 6.65039062 12.2109375 C6.16763672 11.39882813 5.68488281 10.58671875 5.1875 9.75 C4.68541016 8.92242187 4.18332031 8.09484375 3.66601562 7.2421875 C0 1.15710034 0 1.15710034 0 0 Z " fill="#183B56" transform="translate(142,32)"/>
</svg>
