<?xml version="1.0" encoding="UTF-8"?>
<svg version="1.1" xmlns="http://www.w3.org/2000/svg" width="512" height="512">
<path d="M0 0 C100.32 0 200.64 0 304 0 C304 108.57 304 217.14 304 329 C203.68 329 103.36 329 0 329 C0 220.43 0 111.86 0 0 Z M87 57 C76.04152306 69.74538333 72.03944187 83.58775989 71 100 C70.12601563 100.11214844 70.12601563 100.11214844 69.234375 100.2265625 C56.8593436 102.21123735 47.69368639 108.18167294 39 117 C38.42507812 117.56460938 37.85015625 118.12921875 37.2578125 118.7109375 C26.92254717 129.68881 23.34928816 144.67003883 23.72265625 159.3359375 C24.82016586 173.83543063 31.29318126 187.10783051 42 197 C54.28598154 207.11545814 66.20612367 211 82 211 C82 201.43 82 191.86 82 182 C77.05 181.67 72.1 181.34 67 181 C66 175 66 175 67.59765625 172.203125 C68.41105469 171.22859375 69.22445312 170.2540625 70.0625 169.25 C70.99152412 168.10989515 71.91987076 166.96923804 72.84765625 165.828125 C73.35441895 165.21646484 73.86118164 164.60480469 74.38330078 163.97460938 C77.33029188 160.37520376 80.15432192 156.67960908 83 153 C84.19103178 151.46976055 85.38243417 149.93980947 86.57421875 148.41015625 C90.47556889 143.39444679 94.34521903 138.35477904 98.20703125 133.30859375 C100 131 100 131 101 130 C103.33297433 129.95907063 105.66705225 129.95758277 108 130 C108.2774707 130.5882959 108.55494141 131.1765918 108.84082031 131.78271484 C109.93374002 133.87325756 111.10855648 135.61278915 112.546875 137.4765625 C113.05549072 138.13873779 113.56410645 138.80091309 114.08813477 139.4831543 C114.63655029 140.18996338 115.18496582 140.89677246 115.75 141.625 C116.318396 142.36339111 116.88679199 143.10178223 117.47241211 143.86254883 C120.5772976 147.89013054 123.70181916 151.90224003 126.83203125 155.91015625 C127.45561523 156.70921387 128.07919922 157.50827148 128.72167969 158.33154297 C129.9218284 159.86754232 131.12419802 161.40180973 132.32910156 162.93408203 C140.87233168 173.85098512 140.87233168 173.85098512 141.3125 177.8125 C141 180 141 180 140 181 C135.38 181.33 130.76 181.66 126 182 C126 191.57 126 201.14 126 211 C143.16 211 160.32 211 178 211 C178.28889385 198.06126199 178.28889385 198.06126199 178.56811523 185.12231445 C178.60625898 183.49429517 178.64472987 181.8662835 178.68359375 180.23828125 C178.70006958 179.40018921 178.71654541 178.56209717 178.73352051 177.6986084 C178.83334143 173.68485077 179.02134999 169.9180828 180 166 C185.51756476 165.9506479 191.03500171 165.91430338 196.55273438 165.89013672 C198.43068682 165.88006466 200.30862353 165.86640638 202.18652344 165.84912109 C204.8822009 165.82492547 207.57767146 165.81352917 210.2734375 165.8046875 C211.11619232 165.79436493 211.95894714 165.78404236 212.82723999 165.77340698 C214.88621247 165.77300856 216.94467935 165.87742412 219 166 C221.38443668 168.38443668 221.26183505 168.92459782 221.31884766 172.17431641 C221.34865219 173.46542831 221.34865219 173.46542831 221.37905884 174.78262329 C221.39638565 176.1779982 221.39638565 176.1779982 221.4140625 177.6015625 C221.43342865 178.55316254 221.4527948 179.50476257 221.4727478 180.48519897 C221.53264132 183.53170747 221.57896795 186.57825354 221.625 189.625 C221.66317079 191.6875167 221.70222198 193.7500173 221.7421875 195.8125 C221.83835086 200.87486966 221.92234563 205.93731395 222 211 C238.06103209 211.42133201 252.12513756 206.30768305 263.9375 195.19140625 C275.58313736 182.81791656 280.53022217 168.52030063 280.24609375 151.7734375 C279.2604847 136.66076534 272.66176331 124.51106701 262 114 C261.43539062 113.42507812 260.87078125 112.85015625 260.2890625 112.2578125 C253.93967381 106.28009534 245.63919353 102.09113143 237 101 C237.350625 99.741875 237.70125 98.48375 238.0625 97.1875 C240.33534757 86.56981791 237.73664692 78.07220859 232 69 C226.96236837 62.27906219 219.29092923 57.56432627 211 56 C201.26686213 55.04174451 193.83104491 56.95303998 185 61 C184.46632813 60.35933594 183.93265625 59.71867187 183.3828125 59.05859375 C172.70124865 46.65836997 158.52547649 37.11436277 141.80419922 35.83154297 C119.98537715 34.75745471 102.010843 40.89983603 87 57 Z M83 213 C82.95875 219.703125 82.9175 226.40625 82.875 233.3125 C82.85679199 235.42567627 82.83858398 237.53885254 82.81982422 239.71606445 C82.81398325 241.39013413 82.80888675 243.06420665 82.8046875 244.73828125 C82.79445557 245.60819702 82.78422363 246.47811279 82.77368164 247.37438965 C82.77343994 248.20643921 82.77319824 249.03848877 82.77294922 249.89575195 C82.768508 250.61745071 82.76406677 251.33914948 82.75949097 252.0827179 C82.89615353 254.32828931 82.89615353 254.32828931 85 257 C90.19337319 258.7311244 95.75909206 258.22546607 101.19628906 258.24023438 C103.36041785 258.24993464 105.52359419 258.28096767 107.6875 258.3125 C109.07030688 258.31903127 110.45312053 258.32428126 111.8359375 258.328125 C113.08938965 258.3374707 114.3428418 258.34681641 115.63427734 258.35644531 C119.26858583 257.97155554 121.14506839 257.25045867 124 255 C125.31580899 251.05257303 125.12311039 247.28912951 125.09765625 243.17578125 C125.09664917 242.41213257 125.09564209 241.64848389 125.09460449 240.86169434 C125.08937664 238.01194759 125.07541536 235.16222227 125.0625 232.3125 C125.041875 225.939375 125.02125 219.56625 125 213 C111.14 213 97.28 213 83 213 Z M179 213 C179 222.57 179 232.14 179 242 C174.71 242 170.42 242 166 242 C165.01 242.66 164.02 243.32 163 244 C163.43388827 249.25314725 165.02126922 251.72753311 168.5 255.625 C169.42432396 256.68537021 170.34614653 257.74792538 171.265625 258.8125 C171.72904297 259.34617187 172.19246094 259.87984375 172.66992188 260.4296875 C174.63628849 262.75121285 176.44241274 265.1786413 178.25 267.625 C182.23511599 272.98601471 186.25078895 278.32168581 190.3125 283.625 C190.9115918 284.41986816 191.51068359 285.21473633 192.12792969 286.03369141 C192.7005957 286.77796387 193.27326172 287.52223633 193.86328125 288.2890625 C194.37157471 288.95631348 194.87986816 289.62356445 195.40356445 290.31103516 C197.13154003 292.13916409 198.69987037 293.02067833 201 294 C204.85199015 290.28782801 208.24494971 286.38030006 211.5625 282.1875 C212.07844727 281.5387793 212.59439453 280.89005859 213.12597656 280.22167969 C221.70988559 269.37091158 229.91412477 258.22509738 238 247 C236.77992056 244.3094472 236.77992056 244.3094472 235 242 C230.38 242 225.76 242 221 242 C221 232.43 221 222.86 221 213 C207.14 213 193.28 213 179 213 Z " fill="#183B56" transform="translate(104,75)"/>
<path d="M0 0 C100.32 0 200.64 0 304 0 C304 67.32075472 304 67.32075472 296.6875 75.875 C291.01131572 81.03959686 285.22397667 84.1190984 277.46963882 84.13142776 C276.10656865 84.13718948 276.10656865 84.13718948 274.71596169 84.1430676 C273.72142346 84.14220112 272.72688523 84.14133463 271.70220947 84.14044189 C270.11296429 84.14489858 270.11296429 84.14489858 268.49161315 84.1494453 C264.92962219 84.15813988 261.3676648 84.15964119 257.80566406 84.16113281 C255.25650968 84.16576044 252.707356 84.17078502 250.15820312 84.17617798 C243.22423941 84.18930911 236.29028678 84.19578499 229.35631275 84.20018864 C225.0257664 84.20295223 220.69522228 84.2071898 216.36467743 84.21169281 C204.37198654 84.22388467 192.37929744 84.23418411 180.38660049 84.2375679 C179.61917455 84.23778747 178.8517486 84.23800703 178.06106733 84.23823325 C177.29181693 84.23845153 176.52256652 84.23866981 175.7300055 84.2388947 C174.17124065 84.23933817 172.61247579 84.23978473 171.05371094 84.24023438 C170.28051159 84.2404558 169.50731224 84.24067723 168.7106826 84.24090537 C156.18418626 84.24485276 143.65774812 84.26230533 131.13127425 84.2855939 C118.2670455 84.30931712 105.40284594 84.3217702 92.53859496 84.32293582 C85.31720418 84.32385204 78.09588922 84.32959102 70.87451935 84.34775543 C64.08165237 84.36478192 57.2889538 84.36640178 50.49606323 84.35761642 C48.00317754 84.35684493 45.51028418 84.36120349 43.01741791 84.37107468 C39.61334835 84.38376325 36.20979104 84.37793367 32.8057251 84.36749268 C31.82010975 84.37554908 30.8344944 84.38360548 29.81901193 84.39190602 C21.50232453 84.33227919 15.12731901 82.60508512 8.75 76.9375 C7.94046875 76.24527344 7.1309375 75.55304688 6.296875 74.83984375 C-9.20211747 55.67697381 0 14.9419607 0 0 Z M123.125 35.1875 C121.51813654 39.20465866 121.33029893 42.73347745 122 47 C124.42142408 52.02911154 126.88003027 53.95924959 132 56 C135.03425888 56.42618633 138.02917091 56.44452412 141.08984375 56.43359375 C141.95259415 56.4388356 142.81534454 56.44407745 143.70423889 56.44947815 C145.52213468 56.4558785 147.340072 56.45458717 149.15795898 56.44604492 C151.92572425 56.4375362 154.69142269 56.46632063 157.45898438 56.49804688 C159.23177022 56.49965925 161.00455969 56.49908065 162.77734375 56.49609375 C163.5973436 56.50732773 164.41734344 56.51856171 165.26219177 56.53013611 C170.97451484 56.46151707 174.2870866 55.25947222 179 52 C182.21334048 48.37203494 182.52312153 44.90152459 182.3515625 40.21484375 C181.6522738 35.80932496 179.3513263 33.0774935 175.94702148 30.36303711 C171.78625583 28.43862698 168.06853726 28.5511805 163.53515625 28.56640625 C162.16876259 28.55854347 162.16876259 28.55854347 160.77476501 28.55052185 C158.85253924 28.54411234 156.93027418 28.54542477 155.00805664 28.55395508 C152.07562017 28.56246194 149.14513468 28.53369429 146.21289062 28.50195312 C144.34114641 28.5003408 142.46939877 28.50091923 140.59765625 28.50390625 C139.28958763 28.48705528 139.28958763 28.48705528 137.95509338 28.46986389 C131.46683682 28.54370533 127.47957947 30.10715729 123.125 35.1875 Z " fill="#183B56" transform="translate(104,419)"/>
<path d="M0 0 C0.90871345 -0.00384115 1.81742691 -0.00768229 2.75367713 -0.01163983 C3.74821536 -0.01077335 4.7427536 -0.00990687 5.76742935 -0.00901413 C7.35667453 -0.01347081 7.35667453 -0.01347081 8.97802567 -0.01801753 C12.54001664 -0.02671211 16.10197402 -0.02821343 19.66397476 -0.02970505 C22.21312914 -0.03433267 24.76228283 -0.03935726 27.3114357 -0.04475021 C34.24539941 -0.05788135 41.17935205 -0.06435723 48.11332607 -0.06876087 C52.44387243 -0.07152446 56.77441655 -0.07576203 61.1049614 -0.08026505 C73.09765228 -0.09245691 85.09034138 -0.10275634 97.08303833 -0.10614014 C97.85046428 -0.1063597 98.61789022 -0.10657927 99.4085715 -0.10680549 C100.1778219 -0.10702377 100.9470723 -0.10724204 101.73963332 -0.10746694 C103.29839818 -0.1079104 104.85716303 -0.10835696 106.41592789 -0.10880661 C107.18912724 -0.10902804 107.96232659 -0.10924947 108.75895622 -0.10947761 C121.28545256 -0.113425 133.81189071 -0.13087757 146.33836457 -0.15416613 C159.20259332 -0.17788936 172.06679288 -0.19034243 184.93104386 -0.19150805 C192.15243465 -0.19242428 199.3737496 -0.19816326 206.59511948 -0.21632767 C213.38798645 -0.23335416 220.18068503 -0.23497402 226.97357559 -0.22618866 C229.46646128 -0.22541717 231.95935465 -0.22977573 234.45222092 -0.23964691 C237.85629048 -0.25233549 241.25984779 -0.2465059 244.66391373 -0.23606491 C245.64952907 -0.24412132 246.63514442 -0.25217772 247.6506269 -0.26047826 C256.10713759 -0.19984895 262.40385952 1.55393779 268.78213882 7.44392776 C269.60327164 8.18256058 270.42440445 8.92119339 271.27042007 9.68220901 C281.43802581 21.00563494 277.46963882 36.92294828 277.46963882 51.13142776 C177.14963882 51.13142776 76.82963882 51.13142776 -26.53036118 51.13142776 C-26.53036118 16.81067305 -26.53036118 16.81067305 -19.21786118 8.25642776 C-13.54167689 3.09183091 -7.75433785 0.01232936 0 0 Z M97.46963882 21.13142776 C96.29853433 23.99102836 96.29853433 23.99102836 96.46963882 27.13142776 C98.24003332 29.87859163 99.53255726 31.66288698 102.46963882 33.13142776 C103.92349898 33.24097412 105.38212977 33.29043768 106.84000015 33.30842972 C107.74466522 33.32126495 108.64933029 33.33410019 109.58140945 33.34732437 C110.56159546 33.3547113 111.54178146 33.36209824 112.55167007 33.36970901 C114.06116478 33.38181664 114.06116478 33.38181664 115.60115433 33.39416885 C117.73381194 33.40801493 119.86649176 33.41873474 121.99917984 33.42659378 C125.25864102 33.4438037 128.51708729 33.48768529 131.77627945 33.53181839 C133.84723552 33.54194544 135.91820023 33.5504615 137.98917007 33.55720901 C138.96328339 33.5747171 139.9373967 33.59222519 140.94102859 33.61026382 C145.29101706 33.59634206 147.77735904 33.55099293 151.56216812 31.25716019 C153.8121208 28.7497574 154.46963882 27.50239863 154.46963882 24.13142776 C152.71850357 20.41881549 152.71850357 20.41881549 149.46963882 18.13142776 C147.9490313 18.02652998 146.42398517 17.98274046 144.89981461 17.97029495 C143.95188034 17.96068741 143.00394608 17.95107986 142.02728653 17.94118118 C141.00021591 17.9369313 139.97314529 17.93268143 138.91495132 17.92830276 C137.86185776 17.92260269 136.80876419 17.91690262 135.7237587 17.91102982 C133.49274071 17.90157206 131.2617087 17.89504277 129.03067398 17.89119339 C125.61555006 17.8814872 122.20102766 17.8504704 118.78604507 17.81892776 C116.62068407 17.81239793 114.45531876 17.80714738 112.28995132 17.80330276 C111.26692917 17.79095596 110.24390701 17.77860916 109.18988419 17.76588821 C108.2356456 17.76888931 107.28140701 17.77189041 106.29825211 17.77498245 C105.46045212 17.77133682 104.62265213 17.76769119 103.75946426 17.76393509 C100.91182293 18.22095129 99.55646317 19.16703864 97.46963882 21.13142776 Z " fill="#183B56" transform="translate(130.5303611755371,8.868572235107422)"/>
</svg>
