<?xml version="1.0" standalone="no"?>
<!DOCTYPE svg PUBLIC "-//W3C//DTD SVG 20010904//EN"
 "http://www.w3.org/TR/2001/REC-SVG-20010904/DTD/svg10.dtd">
<svg version="1.0" xmlns="http://www.w3.org/2000/svg"
 width="512.000000pt" height="512.000000pt" viewBox="0 0 512.000000 512.000000"
 preserveAspectRatio="xMidYMid meet">

<g transform="translate(0.000000,512.000000) scale(0.100000,-0.100000)"
fill="#183B56" stroke="none">
<path d="M2467 4950 c-62 -16 -126 -54 -267 -160 -151 -113 -229 -156 -310
-170 -30 -5 -134 -14 -230 -19 -97 -6 -197 -17 -223 -25 -101 -30 -200 -115
-243 -210 -13 -28 -39 -118 -58 -201 -70 -296 -74 -304 -281 -501 -138 -131
-161 -158 -193 -224 -35 -71 -37 -79 -37 -175 l0 -102 103 -209 c66 -134 106
-229 112 -265 9 -45 6 -99 -14 -270 -27 -236 -25 -280 17 -373 29 -62 83 -126
141 -165 23 -15 97 -51 166 -80 284 -121 304 -137 461 -376 58 -88 125 -177
149 -199 83 -75 215 -114 323 -96 29 5 129 32 222 60 234 72 276 72 510 0 94
-28 193 -55 222 -60 108 -18 240 21 323 96 24 22 82 98 128 169 173 264 189
278 448 390 87 38 175 79 194 91 52 32 119 109 146 169 41 90 45 146 24 328
-22 181 -25 307 -9 358 6 19 54 124 107 233 l97 200 0 100 c0 93 -2 106 -33
171 -29 61 -53 89 -180 212 -81 79 -151 142 -157 142 -5 0 -91 -95 -190 -211
l-181 -210 19 -86 c25 -118 27 -346 4 -462 -50 -254 -165 -469 -346 -651 -240
-240 -529 -359 -871 -359 -260 0 -465 61 -685 204 -372 242 -594 708 -545
1145 62 556 444 980 990 1097 62 13 128 18 240 18 112 0 178 -5 240 -18 171
-37 351 -114 471 -203 33 -24 63 -44 67 -46 9 -2 452 499 452 511 0 11 -49 38
-102 56 -28 9 -116 20 -210 26 -307 20 -341 32 -553 189 -178 132 -239 162
-343 167 -42 2 -94 -1 -115 -6z"/>
<path d="M4175 4692 c-32 -15 -197 -199 -800 -895 l-760 -875 -225 223 c-144
143 -238 230 -262 239 -43 18 -124 21 -165 5 -40 -15 -101 -77 -114 -116 -15
-48 -13 -113 6 -159 19 -46 587 -622 650 -659 81 -48 168 -42 239 17 53 43
298 321 791 893 478 557 650 754 806 927 116 127 137 170 124 246 -8 52 -47
111 -92 142 -48 33 -141 38 -198 12z"/>
<path d="M1256 1488 c-18 -40 -117 -254 -220 -475 -103 -221 -186 -410 -184
-420 2 -10 14 -19 26 -21 13 -2 145 17 293 43 149 26 272 45 274 44 2 -2 65
-110 140 -239 75 -129 142 -241 149 -249 33 -32 50 -4 235 396 102 219 187
402 189 407 2 4 -11 5 -29 1 -65 -14 -191 -7 -264 15 -157 49 -248 128 -373
327 -77 124 -172 243 -193 243 -5 0 -24 -33 -43 -72z"/>
<path d="M3762 1505 c-29 -31 -89 -115 -134 -188 -102 -162 -177 -239 -279
-289 -41 -20 -98 -41 -127 -48 -58 -13 -181 -16 -231 -5 -28 6 -30 5 -23 -13
4 -10 88 -193 187 -405 181 -390 198 -418 231 -386 7 8 74 120 149 249 76 129
139 237 140 239 2 2 125 -18 274 -44 148 -25 280 -45 293 -43 14 2 24 11 26
23 3 22 -430 957 -445 962 -6 2 -33 -21 -61 -52z"/>
</g>
</svg>
