<?xml version="1.0" encoding="UTF-8"?>
<svg version="1.1" xmlns="http://www.w3.org/2000/svg" width="512" height="512">
<path d="M0 0 C2.62165267 1.31800501 5.06708111 2.66432992 7.5625 4.1875 C8.29355957 4.62674805 9.02461914 5.06599609 9.77783203 5.51855469 C32.0144157 19.03683022 53.04159197 34.31889513 73 51 C73.58555664 51.48645996 74.17111328 51.97291992 74.77441406 52.47412109 C83.38769786 59.64862255 91.66622457 67.15430928 99.71875 74.953125 C102.49609677 77.63146215 105.33961961 80.12673017 108.34375 82.546875 C115.21742626 88.29838402 119.57601552 92.93021967 120.68237305 102.07836914 C120.94443258 106.05310485 121.02118042 110.0044797 120.99804688 113.98730469 C121.0005946 117.91716319 121.23639249 121.81873414 121.46606445 125.74072266 C121.72783971 130.49127999 121.86932012 135.24427736 122 140 C122.02336426 140.80953125 122.04672852 141.6190625 122.07080078 142.453125 C122.38114525 155.05467503 121.74147756 167.60836948 121.0625 180.1875 C121.01902435 180.9946344 120.97554871 181.8017688 120.93075562 182.63336182 C120.72164769 186.45606293 120.49342343 190.27513482 120.22290039 194.09399414 C119.94220779 197.82978952 119.94220779 197.82978952 120.13452148 200.88842773 C120.24714767 206.05833291 118.74886011 208.71889956 115.27366638 212.57801819 C112.58283077 215.37653042 109.76897102 218.03267412 106.9375 220.6875 C105.80332438 221.78503178 104.67114363 222.88462896 103.54101562 223.98632812 C98.36061424 229.00878237 93.08356578 233.90470595 87.61254883 238.6105957 C85.4876967 240.44141076 83.43525232 242.34707604 81.375 244.25 C75.77927399 249.29211537 69.89893178 253.91387607 63.93457031 258.50683594 C61.94730333 260.040673 59.96952424 261.58620164 57.9921875 263.1328125 C41.79068342 275.7422663 24.82460529 287.10283352 7.21679688 297.65673828 C5.81094058 298.50861288 4.41924836 299.3846971 3.04882812 300.29248047 C0.25664118 302.07926604 -1.61912947 302.99849458 -4.96484375 303.01171875 C-8.79997123 301.73334292 -12.13029907 299.90746922 -15.5625 297.8125 C-16.29355957 297.37325195 -17.02461914 296.93400391 -17.77783203 296.48144531 C-40.01319439 282.96391225 -61.0461639 267.68503782 -81 251 C-81.59087402 250.50822266 -82.18174805 250.01644531 -82.79052734 249.50976562 C-91.08226747 242.58804553 -99.10449845 235.39757331 -106.875 227.89453125 C-109.65676516 225.21775097 -112.51967118 222.71470922 -115.5 220.26171875 C-122.38771182 214.38340644 -127.56837681 209.49502221 -128.75488281 200.20800781 C-129.00420765 196.42547002 -129.06227203 192.67079242 -129.01416016 188.88085938 C-129.00012319 186.0250631 -129.12039533 183.20955601 -129.29296875 180.359375 C-130.76244317 156.06686354 -130.12767375 131.80706985 -128.22290039 107.56030273 C-127.9422792 104.13136217 -127.9422792 104.13136217 -128.13452148 101.22290039 C-128.24783976 96.01704828 -126.77851792 93.30287536 -123.27366638 89.4181366 C-120.58024733 86.62358152 -117.76823593 83.96663665 -114.9375 81.3125 C-113.80332438 80.21496822 -112.67114363 79.11537104 -111.54101562 78.01367188 C-106.36061424 72.99121763 -101.08356578 68.09529405 -95.61254883 63.3894043 C-93.4876967 61.55858924 -91.43525232 59.65292396 -89.375 57.75 C-83.77927399 52.70788463 -77.89893178 48.08612393 -71.93457031 43.49316406 C-69.94730333 41.959327 -67.96952424 40.41379836 -65.9921875 38.8671875 C-49.79068342 26.2577337 -32.82460529 14.89716648 -15.21679688 4.34326172 C-13.81094058 3.49138712 -12.41924836 2.6153029 -11.04882812 1.70751953 C-6.93421445 -0.92551775 -4.65758192 -1.55252731 0 0 Z M20 78 C14.86782562 87.93669861 10.25471029 98.03901144 5.80596924 108.296875 C3.85996381 112.78251044 1.9008786 117.26242185 -0.05859375 121.7421875 C-0.46168762 122.66408875 -0.86478149 123.58598999 -1.28009033 124.53582764 C-7.4918914 138.71817231 -13.88018929 152.822323 -20.26210022 166.92874146 C-20.86598987 168.26432597 -21.46826146 169.60064346 -22.06878662 170.93774414 C-22.7402246 172.424704 -23.42020132 173.90781858 -24.10552979 175.38842773 C-24.4691864 176.18321533 -24.83284302 176.97800293 -25.20751953 177.796875 C-25.54107452 178.51842773 -25.87462952 179.23998047 -26.21829224 179.98339844 C-27.29908707 182.77156641 -27.43089979 185.05551813 -27 188 C-25.07467257 190.38030743 -25.07467257 190.38030743 -21.63793945 190.11523438 C-17.66252929 188.92482707 -17.66252929 188.92482707 -15.74682617 185.68164062 C-15.0674241 184.18562983 -14.41817075 182.67570974 -13.79296875 181.15625 C-13.42991135 180.33653717 -13.06685394 179.51682434 -12.6927948 178.67227173 C-11.49831468 175.95874982 -10.34329935 173.23019508 -9.1875 170.5 C-8.36078952 168.60288896 -7.53148821 166.70690501 -6.69970703 164.81201172 C-4.97334342 160.86754675 -3.26278259 156.91678535 -1.56494141 152.95996094 C0.89904834 147.2216659 3.40516228 141.50267292 5.92578125 135.7890625 C9.35934758 128.00345992 9.35934758 128.00345992 12.77270508 120.20898438 C13.29103661 119.02178802 13.29103661 119.02178802 13.81983948 117.81060791 C14.5013948 116.24809584 15.18178625 114.68507553 15.86094666 113.121521 C17.69615915 108.91317605 19.5795966 104.73309471 21.52246094 100.57324219 C21.939664 99.672258 22.35686707 98.7712738 22.78671265 97.84298706 C23.59027017 96.11251775 24.40295501 94.38624717 25.22622681 92.66506958 C27.23360603 88.32608375 28.71624796 84.8920204 28 80 C26.10244856 77.65026182 26.10244856 77.65026182 22.875 77.875 C21.92625 77.91625 20.9775 77.9575 20 78 Z M-62.21875 103.0078125 C-63.05962158 103.65830566 -63.90049316 104.30879883 -64.7668457 104.97900391 C-66.11975708 106.04127197 -66.11975708 106.04127197 -67.5 107.125 C-69.39871782 108.59507063 -71.29848026 110.06379294 -73.19921875 111.53125 C-74.1639209 112.27761719 -75.12862305 113.02398437 -76.12255859 113.79296875 C-80.47475042 117.13115084 -84.88792507 120.38367979 -89.3125 123.625 C-92.61185938 126.04230443 -92.61185938 126.04230443 -95.90087891 128.47363281 C-97.3394159 129.51965901 -98.80182314 130.53340534 -100.28271484 131.51855469 C-104.81133179 134.52447723 -104.81133179 134.52447723 -107 139.375 C-107 140.24125 -107 141.1075 -107 142 C-98.97497381 148.81676382 -90.59440189 155.0716371 -82.0859375 161.265625 C-78.59421239 163.81170274 -75.1491585 166.40865031 -71.7265625 169.046875 C-70.87191406 169.69825439 -70.01726562 170.34963379 -69.13671875 171.02075195 C-67.49222085 172.27570462 -65.85637781 173.54210034 -64.23046875 174.82104492 C-63.48667969 175.38412354 -62.74289063 175.94720215 -61.9765625 176.52734375 C-61.32768066 177.02999756 -60.67879883 177.53265137 -60.01025391 178.05053711 C-57.27061276 179.34449684 -55.81896126 178.99882858 -53 178 C-50.73112153 175.25231313 -50.73112153 175.25231313 -51.15527344 172.49926758 C-52.14657158 169.566343 -53.00483693 168.76366761 -55.515625 167.01171875 C-56.26287842 166.47756348 -57.01013184 165.9434082 -57.7800293 165.39306641 C-58.59511963 164.83022949 -59.41020996 164.26739258 -60.25 163.6875 C-61.97144057 162.46158281 -63.69143624 161.23363472 -65.41015625 160.00390625 C-66.31652832 159.35953613 -67.22290039 158.71516602 -68.15673828 158.05126953 C-73.07269136 154.50465801 -77.87675956 150.81238049 -82.6875 147.125 C-83.61401367 146.41690186 -84.54052734 145.70880371 -85.49511719 144.97924805 C-87.66454081 143.3209656 -89.8328405 141.66123952 -92 140 C-87.81632037 135.51449178 -83.15010422 132.02293413 -78.1875 128.4375 C-76.49600142 127.19804266 -74.80459689 125.95845696 -73.11328125 124.71875 C-69.83198938 122.32511756 -66.53655778 119.95297292 -63.23046875 117.59375 C-61.77850199 116.5418652 -60.3266721 115.48979142 -58.875 114.4375 C-57.85442505 113.72388306 -57.85442505 113.72388306 -56.81323242 112.99584961 C-54.03872223 110.97079881 -52.21404013 109.55521689 -50.9609375 106.3046875 C-50.77636657 103.823071 -50.77636657 103.823071 -52.75 101.6875 C-56.74630654 98.6902701 -58.68494101 100.24405512 -62.21875 103.0078125 Z M42.75 101.125 C40.79439267 102.87045704 40.79439267 102.87045704 40.62109375 105.37109375 C41.14146832 108.9815276 42.43933406 109.73575675 45.3125 111.9375 C46.30894531 112.70835937 47.30539062 113.47921875 48.33203125 114.2734375 C49.55305424 115.18448473 50.77587449 116.09312573 52 117 C52.72880371 117.54430664 53.45760742 118.08861328 54.20849609 118.64941406 C59.77827114 122.8040409 65.38254035 126.91017143 71 131 C72.22268133 131.8918927 73.44534039 132.78381594 74.66796875 133.67578125 C77.10948084 135.45401062 79.55298698 137.22935238 82 139 C77.83394901 143.46600666 73.19418052 146.93417285 68.25 150.5 C66.56066281 151.73755112 64.87187328 152.97585015 63.18359375 154.21484375 C60.61214743 156.09611833 58.03782618 157.97272018 55.45361328 159.83642578 C53.06235517 161.56409918 50.68649166 163.31121133 48.3125 165.0625 C47.20793457 165.84753906 47.20793457 165.84753906 46.08105469 166.6484375 C42.12424236 169.42551609 42.12424236 169.42551609 40.46875 173.75390625 C41.11218408 176.47430768 41.61276103 177.51826547 44 179 C47.66315811 178.586649 49.98260549 177.60581494 52.90625 175.40234375 C54.00694824 174.58237915 54.00694824 174.58237915 55.12988281 173.74584961 C55.91202148 173.14909424 56.69416016 172.55233887 57.5 171.9375 C58.32081055 171.32205322 59.14162109 170.70660645 59.98730469 170.07250977 C62.66625483 168.05875314 65.33417998 166.03110097 68 164 C68.93263672 163.29101562 69.86527344 162.58203125 70.82617188 161.8515625 C74.51514209 159.04622345 78.20346111 156.24017668 81.88085938 153.41967773 C82.70908203 152.78489502 83.53730469 152.1501123 84.390625 151.49609375 C85.17373047 150.89265137 85.95683594 150.28920898 86.76367188 149.66748047 C88.81253261 148.13978191 90.90838143 146.74485614 93.046875 145.34765625 C96.11734019 143.28146355 96.11734019 143.28146355 97.140625 140.40234375 C97.20691386 137.97745997 97.20691386 137.97745997 95.796875 136.25390625 C88.82057207 130.48913685 81.54590957 125.14831455 74.2265625 119.828125 C70.60613219 117.19134324 67.02304126 114.51193125 63.4609375 111.796875 C62.55835205 111.11052979 61.6557666 110.42418457 60.72583008 109.71704102 C58.97974948 108.38647286 57.23725681 107.05118021 55.4987793 105.71069336 C54.70640869 105.10878174 53.91403809 104.50687012 53.09765625 103.88671875 C52.40164307 103.35264404 51.70562988 102.81856934 50.98852539 102.26831055 C47.9321671 100.31892058 46.07272602 99.46363699 42.75 101.125 Z " fill="#183B56" transform="translate(260,105)"/>
<path d="M0 0 C14.05184689 13.21026622 20.87223317 31.22683872 21.59765625 50.2578125 C22.48689524 91.09367781 6.30015321 128.94394591 -14.6875 163.375 C-18.90339475 161.86454338 -20.74115007 158.82064676 -23.125 155.25 C-31.3797008 143.30261209 -40.84031587 132.28709112 -50.25 121.2421875 C-51.4565625 119.82292969 -51.4565625 119.82292969 -52.6875 118.375 C-53.56792969 117.56804687 -54.44835937 116.76109375 -55.35546875 115.9296875 C-59.0739509 111.4219528 -59.08061664 105.36245553 -59.74224854 99.765625 C-60.18976631 96.04899144 -60.72384112 92.34510702 -61.26171875 88.640625 C-61.37302124 87.872948 -61.48432373 87.105271 -61.59899902 86.31433105 C-66.4693399 53.65791768 -76.74450041 21.34016651 -90.83056641 -8.46972656 C-91.77045245 -10.83363369 -92.25898902 -13.12196914 -92.6875 -15.625 C-61.59098233 -21.82024433 -25.61081933 -21.01060308 0 0 Z " fill="#183B56" transform="translate(445.6875,82.625)"/>
<path d="M0 0 C4.21589475 1.51045662 6.05365007 4.55435324 8.4375 8.125 C16.6922008 20.07238791 26.15281587 31.08790888 35.5625 42.1328125 C36.366875 43.07898438 37.17125 44.02515625 38 45 C39.31677734 46.21236328 39.31677734 46.21236328 40.66015625 47.44921875 C44.3759557 51.94706268 44.46567056 57.99447051 45.17010498 63.58395386 C45.62888442 67.19308507 46.16232793 70.79123844 46.69140625 74.390625 C46.85038391 75.48412514 46.85038391 75.48412514 47.01257324 76.59971619 C51.7854023 108.83677628 61.0177788 141.71676212 75.61303711 170.9140625 C78 175.71610615 78 175.71610615 78 179 C49.31547414 184.71471211 16.98502805 184.51363429 -8.203125 167.95703125 C-9.12609375 167.31121094 -10.0490625 166.66539062 -11 166 C-11.67546875 165.52949219 -12.3509375 165.05898438 -13.046875 164.57421875 C-25.71116265 154.72744463 -33.74712398 137.9804111 -35.78466797 122.28320312 C-39.95787164 78.03399593 -22.17348723 37.24911215 0 0 Z " fill="#183B56" transform="translate(81,266)"/>
<path d="M0 0 C2.81242558 2.6395782 4.84533356 5.12226269 6.69921875 8.5 C7.18165039 9.37640137 7.66408203 10.25280273 8.16113281 11.15576172 C8.66483398 12.09436035 9.16853516 13.03295898 9.6875 14 C10.21569336 14.9811377 10.74388672 15.96227539 11.28808594 16.97314453 C30.38371869 52.87131681 46.22528787 95.87020168 33.93359375 136.52734375 C31.33370771 143.88081681 27.79014628 149.87489493 23 156 C22.278125 157.010625 21.55625 158.02125 20.8125 159.0625 C8.21711974 173.44561166 -11.47897347 180.19493294 -30 182 C-65.9260224 184.0369888 -65.9260224 184.0369888 -76 179 C-75.41891814 175.6057677 -74.57105975 172.75047526 -73.1015625 169.640625 C-59.39823414 139.86169591 -48.90457762 107.51684601 -44.75 74.91015625 C-44.65181976 74.16430267 -44.55363953 73.4184491 -44.45248413 72.6499939 C-43.98937149 69.09304973 -43.57354936 65.54293912 -43.24853516 61.97070312 C-42.03838736 51.76996742 -38.33527311 46.94928066 -31 40 C-27.90879481 36.40586063 -24.95589132 32.70596725 -22 29 C-21.57605957 28.47035645 -21.15211914 27.94071289 -20.71533203 27.39501953 C-13.56083829 18.44209989 -6.72090632 9.28187063 0 0 Z " fill="#183B56" transform="translate(429,266)"/>
<path d="M0 0 C-0.62406092 4.21241123 -2.09419033 7.45602705 -4 11.25 C-17.79605793 39.86229804 -27.13836303 72.96182475 -31.1328125 104.4375 C-31.32401833 105.87630709 -31.5152617 107.31510919 -31.70654297 108.75390625 C-32.07023436 111.50888226 -32.37608206 114.26207475 -32.64892578 117.02734375 C-33.9477565 127.19098432 -37.69214936 132.05917153 -45 139 C-46.48359155 140.72863884 -47.94574783 142.47616958 -49.375 144.25 C-50.10589844 145.15621094 -50.83679688 146.06242188 -51.58984375 146.99609375 C-52.38519531 147.98738281 -53.18054688 148.97867188 -54 150 C-54.95915669 151.17877511 -55.91881803 152.35713972 -56.87890625 153.53515625 C-63.58704178 161.80119211 -69.91631852 170.26480247 -76 179 C-78.92470067 176.27109027 -80.96061848 173.66999753 -82.8828125 170.16796875 C-83.40536621 169.21656006 -83.92791992 168.26515137 -84.46630859 167.28491211 C-85.01367676 166.26276611 -85.56104492 165.24062012 -86.125 164.1875 C-86.69686035 163.12088135 -87.2687207 162.0542627 -87.85791016 160.95532227 C-106.35812152 125.9431436 -121.50789367 84.00590903 -110.25 44.25 C-104.17938746 26.34721175 -93.80878756 13.60209013 -77 5 C-57.33266096 -3.99916087 -20.13114228 -10.06557114 0 0 Z " fill="#183B56" transform="translate(159,67)"/>
<path d="M0 0 C2.23230446 0.93226923 4.2916719 2.02677562 6.40063477 3.2121582 C8.0919569 4.08328292 9.78613091 4.94888619 11.48266602 5.80981445 C12.38710449 6.27532715 13.29154297 6.74083984 14.22338867 7.22045898 C31.229675 15.70476103 49.1594113 21.97727836 67.2331543 27.7355957 C71.1970043 29.00467851 75.14260923 30.32482277 79.08813477 31.6496582 C77.73112914 36.55119218 75.52090452 40.29147383 72.52563477 44.3371582 C72.08018311 44.9472876 71.63473145 45.55741699 71.17578125 46.18603516 C57.57314003 64.66140829 42.8094341 80.06024706 21.08813477 88.6496582 C20.26700195 88.9899707 19.44586914 89.3302832 18.59985352 89.6809082 C2.4344905 95.24983709 -16.53690821 92.3056799 -31.55419922 85.06591797 C-40.02284759 80.74922232 -46.96856399 75.08173914 -53.91186523 68.6496582 C-54.69948242 67.94325195 -55.48709961 67.2368457 -56.29858398 66.5090332 C-65.48369088 57.86810678 -76.0591509 45.3870116 -80.91186523 33.6496582 C-80.58186523 32.6596582 -80.25186523 31.6696582 -79.91186523 30.6496582 C-77.85595703 29.74926758 -77.85595703 29.74926758 -75.11108398 28.9934082 C-74.08490967 28.69885742 -73.05873535 28.40430664 -72.00146484 28.10083008 C-70.87877197 27.78694336 -69.7560791 27.47305664 -68.59936523 27.1496582 C-36.49231801 18.03100485 -36.49231801 18.03100485 -7.20654297 2.41455078 C-4.85558231 0.76458448 -2.92956949 -0.53683211 0 0 Z " fill="#183B56" transform="translate(256.911865234375,420.350341796875)"/>
<path d="M0 0 C2.76704973 2.19632112 5.39322164 4.47894502 7.99609375 6.8671875 C9.33220703 8.08148437 9.33220703 8.08148437 10.6953125 9.3203125 C20.5104229 18.67337063 31.76513672 31.21497124 36.99609375 43.8671875 C36.66609375 44.8571875 36.33609375 45.8471875 35.99609375 46.8671875 C34.1237793 47.67578125 34.1237793 47.67578125 31.6328125 48.3046875 C30.69703369 48.55404053 29.76125488 48.80339355 28.79711914 49.06030273 C27.25592407 49.45971069 27.25592407 49.45971069 25.68359375 49.8671875 C6.73330564 55.08559095 -11.63467616 62.38788117 -29.29296875 71.015625 C-29.8866626 71.2930957 -30.48035645 71.57056641 -31.09204102 71.85644531 C-33.10625261 72.8654465 -33.10625261 72.8654465 -35.17944336 74.43261719 C-37.85398708 76.18596863 -39.86092673 77.21997689 -43.00390625 77.8671875 C-47.47889187 76.71838724 -51.34225503 74.69704087 -55.34921265 72.4616394 C-58.72298321 70.58463573 -62.16769424 68.84596902 -65.60546875 67.08984375 C-66.30425644 66.728871 -67.00304413 66.36789825 -67.7230072 65.99598694 C-85.15636488 57.07739942 -104.17603549 51.06183869 -123.00390625 45.8671875 C-121.64690062 40.96565352 -119.43667601 37.22537187 -116.44140625 33.1796875 C-115.77322876 32.26449341 -115.77322876 32.26449341 -115.09155273 31.33081055 C-100.53687952 11.56236895 -82.23791932 -7.95742823 -57.296875 -13.73046875 C-35.93871253 -16.3400663 -17.60180252 -12.49750868 0 0 Z " fill="#183B56" transform="translate(299.00390625,14.1328125)"/>
<path d="M0 0 C26.02724751 4.68859636 51.7374298 15.69334996 75 28 C71.3380092 32.23915239 66.79006655 34.61983028 62 37.375 C41.08562221 49.67836171 21.55677916 64.39000551 3 80 C2.46842285 80.44666016 1.9368457 80.89332031 1.38916016 81.35351562 C-9.66050695 90.66181314 -20.55728361 100.18454719 -30.51171875 110.671875 C-32 112 -32 112 -34 112 C-31.33957313 82.04726304 -22.40002289 22.40002289 0 0 Z " fill="#183B56" transform="translate(170,69)"/>
<path d="M0 0 C-3.42102528 38.51602594 -16.54982153 76.26169102 -33 111 C-39.70687138 111.50206806 -45.38886195 109.69136801 -51.75 107.6875 C-52.88163574 107.33429688 -54.01327148 106.98109375 -55.17919922 106.6171875 C-73.73400792 100.67147591 -91.81206136 93.18620304 -109 84 C-105.86522348 80.54093625 -102.38951889 78.29182358 -98.375 76 C-76.62315035 63.22923071 -56.32311693 48.17995718 -37 32 C-36.39317383 31.49227051 -35.78634766 30.98454102 -35.16113281 30.46142578 C-24.17643336 21.2343968 -13.37145306 11.74037453 -3.48828125 1.328125 C-2 0 -2 0 0 0 Z " fill="#183B56" transform="translate(376,331)"/>
<path d="M0 0 C2.80428566 1.27505242 4.81604371 2.57977124 6.953125 4.79296875 C7.48534668 5.33695312 8.01756836 5.8809375 8.56591797 6.44140625 C9.12166504 7.01761719 9.67741211 7.59382813 10.25 8.1875 C14.29862709 12.30664506 18.33690169 16.34870999 22.74609375 20.0859375 C24.59253564 21.65397307 26.41090044 23.24399941 28.22265625 24.8515625 C36.7799491 32.41384811 45.61046879 39.4975293 54.76123047 46.32763672 C57.04623847 48.03454019 59.32188081 49.75346936 61.59765625 51.47265625 C76.42737228 62.60690148 91.80390675 72.9473056 108 82 C107 85 107 85 103.5546875 86.9453125 C102.00106309 87.68519038 100.44054116 88.41068287 98.875 89.125 C98.03259766 89.51534424 97.19019531 89.90568848 96.32226562 90.30786133 C80.6293573 97.46509992 64.50909974 103.54255438 47.96484375 108.41748047 C46.08408051 108.97507255 44.21355488 109.56685278 42.34375 110.16015625 C39.07846369 110.98029242 36.34919916 111.16337557 33 111 C16.61076316 76.6884229 2.82662376 38.23581603 0 0 Z " fill="#183B56" transform="translate(136,331)"/>
<path d="M0 0 C16.38923684 34.3115771 30.17337624 72.76418397 33 111 C30.19571434 109.72494758 28.18395629 108.42022876 26.046875 106.20703125 C25.51465332 105.66304688 24.98243164 105.1190625 24.43408203 104.55859375 C23.87833496 103.98238281 23.32258789 103.40617187 22.75 102.8125 C17.9975963 97.97732012 13.1714464 93.38681316 8 89 C6.88926737 88.02759024 5.78004102 87.05345869 4.671875 86.078125 C-3.66761938 78.75395913 -12.16251732 71.71469923 -21 65 C-21.69013184 64.47325684 -22.38026367 63.94651367 -23.09130859 63.40380859 C-39.60379187 50.85373537 -56.83230854 39.04106818 -75 29 C-74 26 -74 26 -70.66015625 24.08984375 C-69.13429871 23.35826588 -67.60102729 22.64204325 -66.0625 21.9375 C-65.22420654 21.54900879 -64.38591309 21.16051758 -63.5222168 20.76025391 C-47.99542465 13.6996791 -32.04923287 7.69162537 -15.6875 2.875 C-14.68565674 2.57964355 -13.68381348 2.28428711 -12.65161133 1.97998047 C-8.28085993 0.74284006 -4.57141924 -0.15331134 0 0 Z " fill="#183B56" transform="translate(343,70)"/>
<path d="M0 0 C1.1958009 3.5874027 0.86423218 6.56282992 0.5703125 10.2578125 C-0.10897218 20.13737924 -0.15149957 29.99258543 -0.13037109 39.89208984 C-0.12501925 42.86430997 -0.13034797 45.83637821 -0.13671875 48.80859375 C-0.14047349 60.90409847 0.22608254 72.92935576 1 85 C-2.06914132 83.65621604 -3.90568361 82.26248828 -6.03125 79.68359375 C-6.86789185 78.67268677 -6.86789185 78.67268677 -7.72143555 77.64135742 C-8.30836182 76.91408447 -8.89528809 76.18681152 -9.5 75.4375 C-10.11077393 74.68895752 -10.72154785 73.94041504 -11.35083008 73.16918945 C-17.20548604 65.90747738 -22.61765554 58.35033922 -27.84912109 50.63037109 C-29.05786335 48.8584318 -29.05786335 48.8584318 -30.89453125 46.83203125 C-32 45 -32 45 -31.93359375 42.625 C-30.75911915 39.32271158 -29.09507436 36.85774954 -27.0625 34 C-26.66208496 33.43603516 -26.26166992 32.87207031 -25.84912109 32.29101562 C-9.64068598 9.64068598 -9.64068598 9.64068598 0 0 Z " fill="#183B56" transform="translate(121,213)"/>
<path d="M0 0 C3.06914132 1.34378396 4.90568361 2.73751172 7.03125 5.31640625 C7.58901123 5.99034424 8.14677246 6.66428223 8.72143555 7.35864258 C9.30836182 8.08591553 9.89528809 8.81318848 10.5 9.5625 C11.11077393 10.31104248 11.72154785 11.05958496 12.35083008 11.83081055 C18.20548604 19.09252262 23.61765554 26.64966078 28.84912109 34.36962891 C30.05786335 36.1415682 30.05786335 36.1415682 31.89453125 38.16796875 C33 40 33 40 32.93359375 42.375 C31.75911915 45.67728842 30.09507436 48.14225046 28.0625 51 C27.66208496 51.56396484 27.26166992 52.12792969 26.84912109 52.70898438 C20.56571917 61.48966702 13.94008821 69.97959465 7 78.25 C6.53094238 78.81138672 6.06188477 79.37277344 5.57861328 79.95117188 C2.24356692 83.87821654 2.24356692 83.87821654 0 85 C0.10610596 83.23571655 0.10610596 83.23571655 0.21435547 81.43579102 C0.90805633 69.24413551 1.15676289 57.09185892 1.13037109 44.8815918 C1.12499723 41.93598301 1.13036573 38.99052619 1.13671875 36.04492188 C1.14048317 23.99839414 0.76927075 12.02182677 0 0 Z " fill="#183B56" transform="translate(390,214)"/>
</svg>
