<svg width="121" height="87" viewBox="0 0 121 87" fill="none" xmlns="http://www.w3.org/2000/svg">
<mask id="mask0_1022_471" style="mask-type:alpha" maskUnits="userSpaceOnUse" x="0" y="-1" width="121" height="88">
<path d="M34.5714 -0.00012207C17.9103 -0.00012207 4.32143 13.5887 4.32143 30.2499C4.32143 32.073 4.64216 33.761 4.96289 35.4491C2.02567 39.7705 0 44.8347 0 50.5066C0 65.3952 12.0696 77.4986 26.9076 77.7181C32.3432 82.9004 39.4499 86.4284 47.5357 86.4284C55.841 86.4284 63.0827 82.7147 68.552 77.2961C68.8053 77.3129 68.839 77.3298 69.1429 77.3298C76.047 77.3298 81.6683 73.5654 85.517 68.4506C87.2388 68.7545 88.9269 69.1427 90.75 69.1427C107.411 69.1427 121 55.5539 121 38.8927C121 22.2316 107.411 8.64273 90.75 8.64273C87.7453 8.64273 84.9768 9.41925 82.2422 10.2295C77.2962 6.66771 71.3711 4.32131 64.8214 4.32131C60.7363 4.32131 57.0564 5.67175 53.4777 7.15724C48.2785 2.88646 41.8301 -0.00012207 34.5714 -0.00012207ZM34.5714 8.64273C40.4628 8.64273 45.7295 10.9723 49.6289 14.7873L51.8909 16.9817L54.6762 15.4963C57.6978 13.8757 61.1415 12.9642 64.8214 12.9642C70.1219 12.9642 74.9329 14.8548 78.6804 18.0115L80.6385 19.6489L83.0187 18.7373C85.4495 17.8089 88.0322 17.2856 90.75 17.2856C102.735 17.2856 112.357 26.9075 112.357 38.8927C112.357 50.8779 102.735 60.4999 90.75 60.4999C88.8425 60.4999 86.9688 60.2129 85.1457 59.7402L81.7864 58.8287L80.1996 61.9178C78.0896 65.9523 73.9876 68.687 69.1429 68.687C69.1091 68.687 68.704 68.6363 67.8431 68.535L65.5642 68.3156L64.0787 70.0712C60.1117 74.7808 54.2035 77.7856 47.5357 77.7856C41.0873 77.7856 35.3648 74.9665 31.3979 70.4932L30.0306 68.957L27.988 69.0583C27.0596 69.0921 26.8401 69.1427 27.279 69.1427C16.9312 69.1427 8.64286 60.8544 8.64286 50.5066C8.64286 46.1514 10.1959 42.2013 12.7617 38.9771L14.0784 37.3397L13.572 35.2972C13.1837 33.626 12.9643 31.9548 12.9643 30.2499C12.9643 18.2647 22.5862 8.64273 34.5714 8.64273ZM40.0407 30.2499C39.9563 30.2499 39.8888 30.3174 39.8888 30.4187V43.0285C39.8888 43.1298 39.9563 43.2142 40.0407 43.2142H41.5093C41.6106 43.2142 41.6613 43.1298 41.6613 43.0285V30.4187C41.6613 30.3343 41.5938 30.2499 41.5093 30.2499H40.0407ZM65.6823 30.2499C64.6357 30.2499 63.8255 30.5368 63.2515 31.1277C62.6776 31.7016 62.2725 32.6807 62.0699 33.8286L61.9686 34.5713H60.6688C60.6688 34.5713 60.5 34.6219 60.4831 34.7908L60.2637 35.9893C60.2468 36.0906 60.2974 36.175 60.4494 36.175H61.7154L60.4494 43.231C60.3481 43.8219 60.2299 44.2945 60.0949 44.649C59.9767 45.0035 59.8585 45.2736 59.7066 45.4593C59.5547 45.6618 59.4196 45.7969 59.1833 45.8644C58.9808 45.9319 58.7613 45.9657 58.5081 45.9657C58.3731 45.9657 58.1874 45.9488 58.0523 45.9151C57.9173 45.8813 57.8498 45.8644 57.7316 45.8138C57.7316 45.8138 57.5965 45.7631 57.529 45.9151C57.4784 46.0332 57.1408 46.9617 57.107 47.0629C57.0732 47.1811 57.1239 47.2655 57.1914 47.2993C57.3602 47.3668 57.4953 47.4005 57.7316 47.4512C58.0354 47.5356 58.3055 47.5356 58.5419 47.5356C59.082 47.5356 59.5547 47.4512 59.9598 47.3161C60.365 47.1642 60.7026 46.9279 61.0233 46.5903C61.344 46.2189 61.5635 45.8307 61.766 45.3074C61.9686 44.7841 62.1205 44.1257 62.2556 43.3661L63.5385 36.175H65.4291C65.4291 36.175 65.5979 36.175 65.6317 35.9893L65.8343 34.8076C65.8511 34.6895 65.8005 34.5713 65.6486 34.5713H63.8255C63.8424 34.5375 63.9605 33.4234 64.18 32.8157C64.2644 32.5625 64.4332 32.3431 64.5682 32.208C64.7202 32.0561 64.889 31.9548 65.0578 31.9042C65.2434 31.8535 65.446 31.8198 65.6823 31.8198C65.8511 31.8198 66.02 31.8367 66.155 31.8704C66.3238 31.9042 66.3913 31.9211 66.442 31.9379C66.6277 31.9886 66.6445 31.9379 66.6952 31.8535L67.1172 30.655C67.1678 30.52 67.0665 30.4693 67.0328 30.4524C66.8471 30.3849 66.6783 30.3512 66.4588 30.3174C66.2394 30.2668 65.9693 30.2499 65.6823 30.2499ZM26.0299 34.5713C24.1561 34.5713 22.8563 35.6179 22.8563 37.1034V37.1372C22.8563 38.6902 24.2912 39.2135 25.6416 39.568L25.861 39.6355C26.8401 39.9056 27.6842 40.1419 27.6842 40.7834V40.8002C27.6842 41.3911 27.1271 41.8131 26.2493 41.8131C25.9117 41.8131 24.8145 41.8131 23.6328 41.121C23.4809 41.0534 23.3965 41.0028 23.2952 40.9353C23.2277 40.9015 23.0926 40.8509 23.0251 41.0197L22.62 42.0494C22.5525 42.2013 22.6369 42.2351 22.6537 42.2688C22.8563 42.387 23.042 42.4714 23.2277 42.5727C24.2405 43.0622 25.2027 43.2142 26.1987 43.2142C28.2412 43.2142 29.5073 42.2182 29.5073 40.5977V40.5808C29.5073 39.0784 28.0724 38.5382 26.7388 38.15L26.57 38.0993C25.5572 37.7955 24.6794 37.5423 24.6794 36.9346V36.8839C24.6794 36.3606 25.1858 35.9893 25.9792 35.9893C26.857 35.9893 27.8867 36.2425 28.5619 36.597C28.5619 36.597 28.7645 36.6983 28.832 36.5295C28.8827 36.4282 29.2203 35.5841 29.254 35.4997C29.2878 35.3984 29.2203 35.3309 29.1528 35.2972C28.3931 34.8583 27.3297 34.5713 26.2324 34.5713H26.0299ZM34.5208 34.5713C34.0819 34.5713 33.4067 34.6219 32.9847 34.7063C32.9847 34.7063 31.7186 34.9258 31.1953 35.314C31.1953 35.314 31.094 35.3647 31.1616 35.5166L31.5667 36.5295C31.6173 36.6645 31.7524 36.6139 31.7524 36.6139C31.7524 36.6139 31.7861 36.597 31.8368 36.5801C32.9509 36.0062 34.352 36.0399 34.352 36.0399C34.9766 36.0399 35.4492 36.1412 35.7868 36.3775C36.0907 36.597 36.2595 36.9515 36.2595 37.6604V37.8799C35.77 37.8124 35.3142 37.7617 35.3142 37.7617C35.0779 37.7449 34.774 37.7449 34.4026 37.7449C33.9131 37.7449 33.4404 37.7955 32.9847 37.9137C32.5289 38.0318 32.1237 38.2006 31.7861 38.437C31.4316 38.6733 31.1616 38.9603 30.959 39.3147C30.7395 39.6692 30.6383 40.0913 30.6383 40.547C30.6383 41.0197 30.7227 41.4248 30.8915 41.7624C31.0772 42.1 31.3304 42.387 31.6511 42.6065C31.9718 42.809 32.377 42.9778 32.8158 43.0791C33.2716 43.1635 33.7949 43.2142 34.352 43.2142C34.9428 43.2142 35.5336 43.1635 36.1076 43.0791C36.6815 42.9947 37.3567 42.8597 37.5593 42.809C37.745 42.7753 37.9475 42.7246 37.9475 42.7246C38.0995 42.6909 38.0826 42.5558 38.0826 42.5558V37.6773C38.0826 36.597 37.7787 35.8036 37.171 35.314C36.5633 34.8245 35.6687 34.5713 34.5208 34.5713ZM47.4851 34.5713C46.7761 34.5713 46.1177 34.6726 45.5944 34.9089C45.0712 35.1452 44.6154 35.466 44.2778 35.8542C43.9233 36.2425 43.6532 36.7151 43.4844 37.2384C43.3156 37.7617 43.2312 38.3357 43.2312 38.9434C43.2312 39.568 43.3325 40.1419 43.5013 40.6483C43.6701 41.1716 43.957 41.6274 44.3453 41.9988C44.7167 42.387 45.1893 42.6909 45.7801 42.8934C46.3541 43.1129 47.0631 43.2142 47.8733 43.2142C49.5445 43.1973 50.4054 42.8597 50.7768 42.674C50.8274 42.6402 50.895 42.5896 50.8274 42.4208L50.4392 41.4417C50.3885 41.2898 50.2197 41.3404 50.2197 41.3404C49.7977 41.4923 49.2238 41.7456 47.8564 41.7456C46.9618 41.7456 46.3034 41.5092 45.8983 41.121C45.4594 40.7327 45.2568 40.1588 45.2231 39.3485H50.9794C50.9794 39.3485 51.1313 39.3485 51.1482 39.2135C51.1482 39.1459 51.3507 38.0993 50.9794 36.9008C50.8443 36.3944 50.4729 35.888 50.2366 35.6517C49.8652 35.2803 49.5107 35.0271 49.1563 34.892C48.6836 34.6895 48.1097 34.5713 47.4851 34.5713ZM55.7059 34.5713C53.8491 34.5713 52.5324 35.6179 52.5324 37.1034V37.1372C52.5324 38.6902 53.9841 39.2135 55.3177 39.568L55.554 39.6355C56.5331 39.9056 57.3771 40.1419 57.3771 40.7834V40.8002C57.3771 41.3911 56.82 41.8131 55.9254 41.8131C55.5878 41.8131 54.4905 41.8131 53.3089 41.121C53.1738 41.0534 53.0725 41.0028 52.9713 40.9353C52.9375 40.9184 52.7687 40.8509 52.7012 41.0197L52.3129 42.0494C52.2454 42.2013 52.3298 42.2351 52.3467 42.2688C52.5324 42.387 52.7181 42.4714 52.9206 42.5727C53.9335 43.0622 54.8788 43.2142 55.8916 43.2142C57.9173 43.2142 59.2002 42.2182 59.2002 40.5977V40.5808C59.2002 39.0784 57.7654 38.5382 56.4318 38.15L56.2461 38.0993C55.2333 37.7955 54.3555 37.5423 54.3555 36.9346V36.8839C54.3555 36.3606 54.8788 35.9893 55.6553 35.9893C56.5331 35.9893 57.5797 36.2425 58.2549 36.597C58.2549 36.597 58.4575 36.6983 58.525 36.5295C58.5587 36.4282 58.8963 35.5841 58.947 35.4997C58.9808 35.3984 58.9132 35.3309 58.8288 35.2972C58.0692 34.8583 57.0057 34.5713 55.9085 34.5713H55.7059ZM69.835 34.5713C69.1429 34.5713 68.5183 34.6895 67.995 34.9089C67.4886 35.1284 67.0497 35.4491 66.7121 35.8373C66.3576 36.2256 66.0875 36.6814 65.9187 37.2047C65.7667 37.728 65.6823 38.3019 65.6823 38.9096C65.6823 39.5173 65.7667 40.0913 65.9187 40.5977C66.0875 41.121 66.3576 41.5936 66.7121 41.9819C67.0497 42.3532 67.4886 42.674 68.0119 42.8934C68.5352 43.1129 69.1429 43.2142 69.835 43.2142C70.5271 43.2142 71.1348 43.1129 71.6581 42.8765C72.1814 42.6571 72.6203 42.3533 72.9748 41.965C73.3124 41.5767 73.5825 41.121 73.7344 40.5977C73.9032 40.0744 73.9876 39.5004 73.9876 38.8927C73.9876 38.3019 73.9032 37.728 73.7344 37.2047C73.5825 36.6814 73.3124 36.2256 72.9748 35.8373C72.6203 35.4491 72.1814 35.1284 71.6581 34.9089C71.1348 34.6895 70.5271 34.5713 69.835 34.5713ZM84.8924 34.5713C84.1835 34.5713 83.542 34.6895 82.9849 34.9089C82.4448 35.1284 81.989 35.4491 81.6345 35.8373C81.2631 36.2087 80.9761 36.6814 80.8073 37.2047C80.6048 37.7111 80.5204 38.3019 80.5204 38.8927C80.5204 40.2094 80.8917 41.2729 81.6514 42.0494C82.411 42.8259 83.5251 43.2142 85.0106 43.2142C85.8884 43.2142 86.7831 43.0454 87.4245 42.809C87.4245 42.809 87.5427 42.7584 87.4921 42.6233L87.07 41.5599C87.0194 41.4079 86.8506 41.4586 86.8506 41.4586C86.6143 41.5599 86.3442 41.6274 86.0741 41.6611C85.7871 41.7118 85.4664 41.7287 85.1288 41.7287C84.3016 41.7287 83.6433 41.5092 83.1875 41.0534C82.7149 40.6146 82.4448 39.8887 82.4448 38.8927C82.4616 38.0149 82.6811 37.3397 83.1031 36.8164C83.5251 36.31 84.1497 36.0568 84.9937 36.0568C85.6858 36.0568 86.226 36.1412 86.7831 36.2931C86.7831 36.2931 86.935 36.3438 86.9856 36.1918C87.1376 35.8036 87.2557 35.5335 87.4076 35.1115C87.4583 34.9764 87.3401 34.9258 87.3064 34.9089C87.07 34.8414 86.5636 34.7063 86.1585 34.6388C85.804 34.5882 85.3651 34.5713 84.8924 34.5713ZM91.9485 34.5713C91.2395 34.5713 90.5812 34.6726 90.0579 34.9089C89.5177 35.1452 89.0788 35.466 88.7243 35.8542C88.3698 36.2425 88.0998 36.7151 87.9309 37.2384C87.779 37.7617 87.6946 38.3357 87.6946 38.9434C87.6946 39.568 87.779 40.1419 87.9647 40.6483C88.1335 41.1716 88.4036 41.6274 88.7919 41.9988C89.1801 42.387 89.6528 42.6909 90.2267 42.8934C90.8175 43.1129 91.5265 43.2142 92.3199 43.2142C93.9911 43.1973 94.8689 42.8597 95.2234 42.674C95.2909 42.6402 95.3584 42.5896 95.274 42.4208L94.8857 41.4417C94.8351 41.2898 94.6663 41.3404 94.6663 41.3404C94.2612 41.4923 93.6703 41.7456 92.303 41.7456C91.4252 41.7456 90.7669 41.5092 90.3449 41.121C89.9229 40.7327 89.7203 40.1588 89.6696 39.3485H95.4259C95.4259 39.3485 95.5779 39.3485 95.6116 39.2135C95.6116 39.1459 95.7973 38.0993 95.4259 36.9008C95.2909 36.3944 94.9195 35.888 94.6832 35.6517C94.3118 35.2803 93.9573 35.0271 93.6028 34.892C93.1302 34.6895 92.5731 34.5713 91.9485 34.5713ZM79.4569 34.5713C78.7141 34.5375 78.309 34.6557 77.9545 34.8076C77.6 34.9596 77.2118 35.2128 76.9754 35.4997V34.8245C76.9754 34.7232 76.9248 34.6557 76.8235 34.6557H75.3549C75.2536 34.6557 75.1692 34.7232 75.1692 34.8245V43.0454C75.1692 43.1298 75.2536 43.2142 75.3549 43.2142H76.8573C76.9586 43.2142 77.043 43.1298 77.043 43.0454V38.9434C77.043 38.3863 77.1105 37.8293 77.2287 37.4748C77.3468 37.1372 77.5156 36.8671 77.7351 36.6645C77.9545 36.4788 78.1908 36.3438 78.4609 36.2594C78.7141 36.175 79.018 36.1581 79.2206 36.1581C79.5244 36.1581 79.862 36.2425 79.862 36.2425C79.9633 36.2425 80.0308 36.175 80.0646 36.0737C80.1659 35.8373 80.436 35.0777 80.4866 34.9258C80.5373 34.8076 80.4529 34.7401 80.4191 34.7232C80.3178 34.6895 79.8283 34.6051 79.4569 34.5713ZM47.35 35.9893C48.1097 35.9893 48.6161 36.2594 48.9706 36.7658C49.2069 37.1034 49.3082 37.5254 49.3588 38.0149H45.24C45.3244 37.5085 45.4763 37.1034 45.7126 36.7658C46.0502 36.2594 46.5904 35.9893 47.35 35.9893ZM91.8135 35.9893C92.5731 35.9893 93.0626 36.2594 93.434 36.7658C93.6703 37.1034 93.7716 37.5254 93.8054 38.0149H89.7034C89.7878 37.5085 89.9397 37.1034 90.1592 36.7658C90.5137 36.2594 91.0539 35.9893 91.8135 35.9893ZM69.835 36.023C70.5946 36.023 71.1348 36.2594 71.4893 36.7658C71.8606 37.2722 72.0463 37.9812 72.0463 38.8927C72.0463 39.8212 71.8606 40.5301 71.5061 41.0534C71.1348 41.543 70.5946 41.7962 69.835 41.7962C69.0753 41.7962 68.5352 41.543 68.1975 41.0534C67.8262 40.5301 67.6574 39.8212 67.6574 38.8927C67.6574 37.9812 67.8262 37.2722 68.1807 36.7658C68.5352 36.2762 69.0753 36.023 69.835 36.023ZM34.6896 39.0953C35.5167 39.1122 36.2595 39.2303 36.2595 39.2303V41.6611C36.2595 41.6611 35.5167 41.7962 34.7065 41.8468C33.5248 41.8975 33.0015 41.5261 33.0184 41.5261C32.7821 41.3573 32.7652 41.3067 32.6808 41.2054C32.5626 41.0366 32.512 40.8171 32.512 40.5133C32.512 40.0406 32.6808 39.703 33.0184 39.4836C33.0184 39.4836 33.5079 39.0784 34.6896 39.0953Z" fill="black"/>
</mask>
<g mask="url(#mask0_1022_471)">
<rect y="-3.27826" width="120.802" height="89.5603" fill="#163153"/>
</g>
</svg>
