<?xml version="1.0" standalone="no"?>
<!DOCTYPE svg PUBLIC "-//W3C//DTD SVG 20010904//EN"
 "http://www.w3.org/TR/2001/REC-SVG-20010904/DTD/svg10.dtd">
<svg version="1.0" xmlns="http://www.w3.org/2000/svg"
 width="512.000000pt" height="512.000000pt" viewBox="0 0 512.000000 512.000000"
 preserveAspectRatio="xMidYMid meet">

<g transform="translate(0.000000,512.000000) scale(0.100000,-0.100000)"
fill="#183B56" stroke="none">
<path d="M2193 4910 c-229 -32 -447 -140 -604 -299 -91 -93 -147 -174 -205
-295 -70 -149 -88 -233 -90 -428 -2 -92 -5 -176 -8 -186 -9 -29 -50 -42 -125
-42 -218 0 -423 -165 -476 -381 -31 -126 -9 -282 54 -385 19 -31 19 -32 73
-22 87 16 320 4 418 -21 114 -30 251 -96 329 -159 l64 -52 92 0 c87 0 92 1
119 28 l27 29 -25 49 c-13 27 -30 68 -38 92 l-13 42 -63 0 c-111 0 -128 41
-120 290 5 168 14 183 113 190 l67 5 23 61 c13 34 31 76 40 93 l16 33 -45 48
c-29 31 -46 58 -46 74 0 45 122 187 233 270 66 49 95 48 155 -8 l47 -44 40 21
c22 11 63 28 90 38 l50 17 3 65 c4 91 19 103 145 117 70 8 124 8 194 0 126
-14 141 -26 145 -117 l3 -65 50 -17 c28 -10 68 -27 90 -38 l40 -21 47 44 c62
58 88 58 165 0 107 -82 223 -218 223 -262 0 -16 -17 -43 -46 -74 l-45 -48 16
-33 c9 -17 27 -59 40 -93 l23 -61 67 -5 c99 -7 108 -22 113 -190 8 -250 -9
-290 -120 -290 l-64 0 -12 -42 c-7 -24 -24 -65 -37 -93 l-24 -49 21 -23 c20
-21 30 -23 125 -23 l104 0 67 52 c125 96 338 178 464 178 46 0 49 2 98 63 199
245 226 611 65 885 -104 178 -259 299 -465 363 -64 20 -97 24 -215 24 -120 0
-151 -3 -218 -24 -111 -34 -120 -30 -172 90 -139 321 -409 543 -748 615 -89
18 -253 25 -334 14z"/>
<path d="M2546 3998 c-3 -7 -6 -37 -9 -66 -5 -66 -23 -86 -93 -101 -31 -7 -99
-35 -152 -62 -63 -31 -104 -47 -117 -43 -11 3 -39 25 -63 47 l-42 41 -60 -59
c-33 -33 -60 -63 -60 -68 0 -5 16 -27 35 -48 52 -58 53 -76 7 -160 -22 -41
-50 -108 -63 -149 -30 -102 -38 -110 -115 -110 l-63 0 -6 -54 c-4 -30 -4 -73
0 -95 l7 -41 56 0 c80 -1 98 -18 121 -113 6 -27 32 -89 56 -138 25 -49 45 -96
45 -104 0 -9 -20 -37 -44 -63 l-44 -47 36 -41 c21 -22 49 -50 64 -63 l27 -24
47 42 c26 22 57 41 70 41 12 0 55 -18 96 -39 40 -22 105 -49 143 -60 39 -12
75 -25 81 -29 21 -14 34 -51 34 -101 l0 -51 90 0 90 0 0 51 c0 50 13 87 34
101 6 4 43 17 81 29 39 11 103 38 143 60 41 21 84 39 96 39 13 0 44 -18 69
-41 l47 -40 33 25 c18 14 47 43 64 64 l32 39 -40 39 c-22 21 -42 48 -45 60 -4
14 11 54 39 110 25 49 54 121 66 159 24 82 40 95 115 95 l54 0 7 41 c4 22 4
65 0 95 l-6 54 -63 0 c-77 0 -85 8 -115 110 -13 41 -41 108 -63 149 -46 84
-45 102 7 160 19 21 35 43 35 48 0 5 -27 35 -60 68 l-60 59 -42 -41 c-24 -22
-52 -44 -63 -47 -13 -4 -54 12 -117 43 -53 27 -121 55 -152 62 -72 16 -88 34
-95 111 l-6 63 -83 3 c-60 2 -83 -1 -86 -10z m289 -333 c145 -58 249 -153 315
-290 64 -134 77 -257 40 -399 -27 -108 -63 -169 -150 -257 -181 -184 -425
-228 -659 -118 -67 31 -98 54 -160 116 -88 90 -123 150 -151 259 -37 142 -24
265 40 399 63 131 164 227 297 283 83 35 121 41 243 38 99 -2 125 -7 185 -31z"/>
<path d="M2556 3549 c-80 -13 -188 -72 -242 -132 -72 -80 -107 -163 -112 -268
-9 -189 78 -336 248 -418 72 -34 80 -36 180 -36 100 0 108 2 180 36 170 82
257 229 248 418 -5 105 -40 188 -112 268 -57 63 -162 119 -251 133 -67 11 -70
11 -139 -1z m126 -56 c11 -10 18 -30 18 -55 l0 -38 62 0 c50 0 66 -4 85 -22
33 -30 31 -80 -3 -107 -24 -19 -40 -21 -165 -21 -101 0 -138 -3 -142 -12 -10
-31 5 -38 87 -38 100 0 147 -12 190 -50 45 -40 59 -79 54 -145 -7 -80 -56
-139 -129 -154 -31 -6 -35 -11 -40 -49 -3 -25 -13 -48 -25 -57 -47 -36 -114
-1 -114 59 l0 33 -67 6 c-53 4 -71 10 -85 27 -24 29 -23 75 2 100 18 18 33 20
160 20 125 0 140 2 149 18 17 33 -6 42 -106 42 -74 0 -102 4 -133 20 -55 28
-83 72 -88 140 -7 96 46 169 136 186 29 6 32 10 32 42 0 19 7 44 17 54 20 23
80 24 105 1z"/>
<path d="M868 2730 c-265 -33 -491 -207 -559 -431 -31 -103 -24 -220 18 -309
25 -54 32 -62 38 -45 54 146 144 220 303 251 58 12 112 14 217 10 130 -6 145
-5 206 17 78 28 158 79 214 136 32 34 46 41 77 41 33 0 41 -5 77 -53 57 -75
111 -197 131 -297 l18 -85 18 60 c27 86 25 259 -4 337 -65 180 -246 313 -482
357 -84 16 -198 20 -272 11z"/>
<path d="M4160 2730 c-256 -32 -490 -213 -546 -424 -18 -66 -17 -117 2 -256
22 -158 16 -401 -13 -482 l-20 -57 156 -85 c174 -94 196 -94 112 1 -112 125
-172 293 -173 478 0 171 26 266 85 309 25 19 48 22 195 27 182 6 233 18 309
71 24 16 54 49 69 74 39 67 79 81 126 44 20 -15 26 -31 31 -76 12 -120 88
-215 182 -230 58 -8 74 -22 85 -69 17 -72 12 -245 -10 -331 -27 -107 -90 -230
-156 -302 -50 -55 -65 -83 -46 -81 4 0 75 37 157 83 167 91 159 80 130 186
-24 89 -24 286 0 462 21 157 16 215 -29 311 -104 219 -399 377 -646 347z"/>
<path d="M1329 2184 c-57 -42 -131 -81 -199 -105 -58 -20 -86 -22 -260 -23
-193 -1 -196 -1 -252 -29 -96 -47 -124 -108 -115 -252 13 -225 134 -428 305
-512 73 -36 80 -38 177 -38 94 0 105 2 169 34 131 64 235 198 286 370 21 66
22 87 17 230 -3 86 -11 174 -17 196 -16 54 -61 155 -69 155 -4 0 -23 -12 -42
-26z"/>
<path d="M4331 2175 c-77 -54 -238 -88 -391 -83 l-95 3 -13 -70 c-33 -185 22
-387 141 -512 149 -158 361 -156 507 4 81 88 124 187 141 326 15 117 10 129
-66 166 -67 33 -130 95 -159 156 -10 19 -20 35 -24 35 -4 -1 -23 -12 -41 -25z"/>
<path d="M2410 2003 c-8 -3 -23 -12 -32 -21 -16 -14 -18 -42 -18 -319 l0 -303
-154 0 c-167 0 -207 -8 -225 -46 -16 -35 -14 -47 10 -78 l20 -26 224 0 c204 0
225 2 246 19 l24 19 0 357 0 357 -28 24 c-28 24 -39 27 -67 17z"/>
<path d="M2784 1987 l-29 -25 0 -357 0 -357 24 -19 c21 -17 42 -19 246 -19
l224 0 20 26 c24 31 26 43 10 78 -18 38 -58 46 -225 46 l-154 0 0 303 c0 277
-2 305 -17 320 -33 29 -68 31 -99 4z"/>
<path d="M4050 1238 c0 -65 17 -111 52 -145 123 -119 298 -31 298 150 0 20 -1
37 -2 37 -2 0 -25 -7 -52 -15 -62 -19 -198 -19 -251 0 -22 8 -41 15 -42 15 -2
0 -3 -19 -3 -42z"/>
<path d="M640 1125 l-40 -34 79 -60 80 -61 45 52 c48 55 54 68 33 68 -7 0 -45
16 -84 34 l-72 35 -41 -34z"/>
<path d="M1220 1125 c-25 -13 -67 -29 -93 -36 l-49 -11 48 -49 c27 -27 52 -49
57 -49 14 0 142 101 142 112 0 6 -13 21 -30 33 l-30 23 -45 -23z"/>
<path d="M3691 1134 c-126 -34 -249 -132 -306 -243 -46 -91 -55 -161 -55 -438
l0 -253 410 0 c226 0 410 2 410 5 0 3 -54 214 -120 470 -66 257 -120 468 -120
471 0 10 -170 1 -219 -12z"/>
<path d="M4536 1133 c-11 -39 -236 -919 -236 -926 0 -4 183 -6 408 -5 l407 3
0 265 c0 302 -9 357 -74 458 -93 143 -243 222 -422 222 -65 0 -78 -3 -83 -17z"/>
<path d="M342 1009 c-122 -20 -234 -104 -292 -218 -40 -81 -52 -174 -48 -406
l3 -180 112 -3 112 -3 3 182 c3 176 4 181 27 200 30 25 62 24 95 -2 l26 -20 0
-180 0 -179 181 0 181 0 -7 23 c-16 52 -15 83 14 313 17 133 31 246 31 253 0
6 -9 11 -20 11 -10 0 -85 50 -165 110 -156 117 -152 116 -253 99z"/>
<path d="M1341 910 c-82 -63 -153 -110 -165 -110 l-22 0 33 -266 c31 -245 32
-268 18 -297 -8 -16 -15 -32 -15 -34 0 -1 81 -3 180 -3 l180 0 0 159 c0 89 5
172 11 190 19 54 79 69 117 28 21 -22 22 -32 22 -200 l0 -177 115 0 115 0 0
233 c0 252 -7 299 -56 383 -35 59 -115 131 -179 160 -49 23 -142 44 -190 44
-11 0 -85 -50 -164 -110z"/>
<path d="M936 950 c-14 -18 -24 -36 -20 -41 3 -5 27 -9 55 -9 58 0 63 13 20
54 l-28 27 -27 -31z"/>
<path d="M4130 887 c0 -13 93 -367 96 -365 2 3 94 363 94 369 0 2 -43 4 -95 4
-52 0 -95 -4 -95 -8z"/>
<path d="M925 738 c-2 -7 -16 -111 -31 -230 l-26 -216 23 -44 c23 -41 26 -43
76 -46 l52 -3 25 49 24 48 -24 195 c-35 284 -28 259 -75 259 -23 0 -41 -5 -44
-12z"/>
</g>
</svg>
