<?xml version="1.0" encoding="UTF-8"?>
<svg version="1.1" xmlns="http://www.w3.org/2000/svg" width="512" height="512">
<path d="M0 0 C1.30661087 0.00273422 1.30661087 0.00273422 2.63961792 0.00552368 C16.729049 0.05495011 30.49327416 0.72857479 44.375 3.3125 C45.80851807 3.57788574 45.80851807 3.57788574 47.27099609 3.84863281 C109.01490628 15.64527495 168.26585064 49.71311136 205.375 101.3125 C205.85340332 101.96250977 206.33180664 102.61251953 206.82470703 103.28222656 C229.31000989 133.83455536 244.06838279 167.34699118 252.375 204.3125 C252.71821289 205.80910156 252.71821289 205.80910156 253.06835938 207.3359375 C259.95522212 238.9519351 259.69732067 276.81489839 252.375 308.3125 C252.15537598 309.31587402 251.93575195 310.31924805 251.70947266 311.35302734 C245.30323268 340.3919283 234.51286584 368.25127053 218.375 393.3125 C217.94751465 393.97652832 217.5200293 394.64055664 217.07958984 395.32470703 C207.24007407 410.42849133 195.81073038 424.28193648 183.375 437.3125 C182.54355469 438.18519531 181.71210938 439.05789063 180.85546875 439.95703125 C175.05706632 445.90153516 168.90154823 451.18638519 162.375 456.3125 C161.38886719 457.10398437 160.40273438 457.89546875 159.38671875 458.7109375 C125.10328497 485.77905334 84.47489593 503.33327823 41.375 510.3125 C40.36679199 510.48910156 39.35858398 510.66570312 38.31982422 510.84765625 C26.12755109 512.75936644 13.93983528 512.71062047 1.625 512.6875 C-0.07825439 512.68618576 -0.07825439 512.68618576 -1.81591797 512.68484497 C-18.74556903 512.64170887 -35.05645824 512.09905854 -51.625 508.3125 C-52.73584961 508.06580566 -53.84669922 507.81911133 -54.99121094 507.56494141 C-93.5928721 498.7947732 -128.60655707 481.84834191 -159.625 457.3125 C-160.1622168 456.89242676 -160.69943359 456.47235352 -161.25292969 456.03955078 C-176.07738678 444.35444537 -190.38995085 430.49947252 -201.625 415.3125 C-202.09921387 414.68762695 -202.57342773 414.06275391 -203.06201172 413.41894531 C-230.99684525 376.55560036 -248.92751901 333.25213693 -254.625 287.3125 C-254.72071289 286.54542725 -254.81642578 285.77835449 -254.91503906 284.98803711 C-255.91186838 275.72806445 -255.86864144 266.42779455 -255.875 257.125 C-255.87567474 256.23644318 -255.87634949 255.34788635 -255.87704468 254.43240356 C-255.85991001 240.19413325 -255.19832576 226.34696383 -252.625 212.3125 C-252.46402832 211.39404297 -252.30305664 210.47558594 -252.13720703 209.52929688 C-248.07939479 186.96770491 -240.76069618 164.87308387 -230.625 144.3125 C-230.0669165 143.16974609 -230.0669165 143.16974609 -229.49755859 142.00390625 C-221.06008546 124.89721914 -210.67881027 109.08887148 -198.625 94.3125 C-198.17189453 93.75643066 -197.71878906 93.20036133 -197.25195312 92.62744141 C-186.56184133 79.6167395 -174.96344556 67.62733419 -161.625 57.3125 C-160.34851588 56.29612835 -159.07250814 55.27915824 -157.796875 54.26171875 C-147.87621465 46.42489794 -137.63158468 39.5297447 -126.625 33.3125 C-125.75101563 32.81862793 -124.87703125 32.32475586 -123.9765625 31.81591797 C-100.16597744 18.53207351 -74.69800122 9.29841215 -47.9375 4.0625 C-46.78278198 3.83566528 -46.78278198 3.83566528 -45.60473633 3.60424805 C-30.45219201 0.83573923 -15.37298285 -0.06731939 0 0 Z M-10.87890625 102.85546875 C-13.85978037 107.39429102 -14.30561657 110.95264448 -13.625 116.3125 C-11.37703542 120.64191327 -8.79139414 123.75584905 -4.625 126.3125 C1.04711712 127.80026843 4.51239236 127.54173681 9.61328125 124.60546875 C13.5650311 121.70518228 15.42390095 118.14682539 16.375 113.4375 C16.74011649 108.67272981 15.25825506 105.06820977 12.375 101.3125 C8.93685442 98.14976143 5.43404489 97.06147212 0.8125 96.8125 C-4.29575511 97.08181277 -7.60723657 98.82958239 -10.87890625 102.85546875 Z M-42.22924805 145.30004883 C-45.5585047 149.48630153 -45.26716929 152.57550223 -45.11328125 157.76953125 C-45.10620651 158.67249435 -45.09913177 159.57545746 -45.09184265 160.50578308 C-45.06393319 163.37971088 -45.00120232 166.25166472 -44.9375 169.125 C-44.91241262 171.07744575 -44.88960022 173.02992215 -44.86914062 174.98242188 C-44.81411789 179.75987102 -44.72786998 184.53585126 -44.625 189.3125 C-40.665 189.3125 -36.705 189.3125 -32.625 189.3125 C-32.295 177.4325 -31.965 165.5525 -31.625 153.3125 C-28.985 153.3125 -26.345 153.3125 -23.625 153.3125 C-21.31445633 156.96072684 -21.28193772 160.51260148 -21.2109375 164.703125 C-21.17532715 165.99250977 -21.1397168 167.28189453 -21.10302734 168.61035156 C-21.06902832 170.24456055 -21.0350293 171.87876953 -21 173.5625 C-20.87625 178.76 -20.7525 183.9575 -20.625 189.3125 C-6.435 189.3125 7.755 189.3125 22.375 189.3125 C22.62462671 178.21335538 22.62462671 178.21335538 22.85302734 167.11376953 C22.88822667 165.72426412 22.92414719 164.3347767 22.9609375 162.9453125 C22.97229736 162.22142334 22.98365723 161.49753418 22.99536133 160.75170898 C23.1468564 155.5406436 23.1468564 155.5406436 25.375 153.3125 C28.375 153 28.375 153 31.375 153.3125 C33.77927111 156.91890667 33.72078876 159.64931206 33.7890625 163.82421875 C33.80842865 164.55244339 33.8277948 165.28066803 33.8477478 166.03096008 C33.90746376 168.35385475 33.95389617 170.67679919 34 173 C34.03818721 174.57619332 34.07723938 176.15236595 34.1171875 177.72851562 C34.21315848 181.58967535 34.29721849 185.45093276 34.375 189.3125 C38.335 189.3125 42.295 189.3125 46.375 189.3125 C46.49893636 183.72583036 46.58949755 178.13996717 46.6496582 172.55224609 C46.67474604 170.65301569 46.70882468 168.7538813 46.75219727 166.85498047 C46.8131033 164.11922479 46.84126653 161.3847493 46.86328125 158.6484375 C46.88908768 157.80445404 46.9148941 156.96047058 46.94148254 156.09091187 C46.94345179 151.91741894 46.7040446 149.16529135 44.05541992 145.83447266 C33.36678675 135.77767507 10.854538 135.86292926 -3.0625 136.09375 C-15.70638365 136.5413211 -31.88444666 137.40494916 -42.22924805 145.30004883 Z M-100.625 174.3125 C-127.0100271 201.01257219 -141.19907339 236.29571376 -141.875 273.75 C-141.67730616 286.1256343 -140.52317829 298.51401371 -136.625 310.3125 C-133.985 309.9825 -131.345 309.6525 -128.625 309.3125 C-127.13093666 304.40484825 -128.16945615 300.22614733 -129.0625 295.3125 C-134.53139254 261.8501367 -127.16288299 227.60677625 -108.25 199.375 C-106.74151303 197.32927995 -105.19840301 195.30872304 -103.625 193.3125 C-102.95645996 192.46099365 -102.95645996 192.46099365 -102.27441406 191.59228516 C-90.49301432 176.75839508 -75.90985373 164.08036976 -58.42114258 156.33666992 C-57.82841553 155.99869385 -57.23568848 155.66071777 -56.625 155.3125 C-55.92126983 152.66462912 -55.92126983 152.66462912 -55.875 149.6875 C-55.78992188 148.18316406 -55.78992188 148.18316406 -55.703125 146.6484375 C-55.67734375 145.87757813 -55.6515625 145.10671875 -55.625 144.3125 C-70.57109416 144.3125 -90.56624301 164.3658183 -100.625 174.3125 Z M56.375 144.3125 C56.27093572 148.35614061 56.70411139 151.60705878 58.375 155.3125 C62.15177041 158.24419195 66.24127726 160.19916435 70.50878906 162.31787109 C97.58365553 176.74788234 117.16495183 205.83681453 126.25 234.5 C127.00849109 237.09447078 127.69528508 239.69493118 128.375 242.3125 C128.69339844 243.45460938 129.01179688 244.59671875 129.33984375 245.7734375 C134.01549356 265.63956249 132.61524267 288.49946133 128.375 308.3125 C131.88276784 309.91605101 134.51854879 310.53286864 138.375 310.3125 C147.08274388 272.21612053 142.59838215 233.1499796 122 199.5625 C112.55550168 185.41721729 101.91183103 172.69640107 88.375 162.3125 C87.52292969 161.64476562 86.67085938 160.97703125 85.79296875 160.2890625 C80.42947579 156.22020577 74.84015318 152.7057798 69 149.375 C68.32171143 148.98505859 67.64342285 148.59511719 66.94458008 148.19335938 C63.43735694 146.24069625 60.42419877 144.80497012 56.375 144.3125 Z M-1.875 217.9375 C-3.92212875 219.28622834 -3.92212875 219.28622834 -4.625 222.3125 C-4.68021661 223.66774864 -4.67903189 225.0257836 -4.63989258 226.3815918 C-4.61171196 227.60382698 -4.61171196 227.60382698 -4.58296204 228.85075378 C-4.56202988 229.72887222 -4.54109772 230.60699066 -4.51953125 231.51171875 C-4.49550642 234.35570781 -4.48202076 237.19964443 -4.46850586 240.04370117 C-4.44792595 242.0059225 -4.40773025 243.96804136 -4.34741211 245.92944336 C-3.87579099 262.24368413 -3.87579099 262.24368413 -8.09960938 267.23925781 C-11.18953485 269.29694231 -14.22898217 270.82526466 -17.625 272.3125 C-19.04292145 273.22035572 -20.44061881 274.16151307 -21.8046875 275.1484375 C-22.41683105 275.56810791 -23.02897461 275.98777832 -23.65966797 276.42016602 C-24.26697754 276.83838623 -24.87428711 277.25660645 -25.5 277.6875 C-26.16273926 278.14374756 -26.82547852 278.59999512 -27.50830078 279.07006836 C-32.19527847 282.3059435 -36.8586728 285.57398806 -41.5 288.875 C-42.38341064 289.50124268 -42.38341064 289.50124268 -43.28466797 290.14013672 C-45.55299076 291.76209861 -47.64926188 293.33676188 -49.625 295.3125 C-49.69772562 297.86710214 -49.69772562 297.86710214 -48.625 300.3125 C-46.58285117 302.002343 -46.58285117 302.002343 -43.625 302.3125 C-40.63585579 301.04314298 -38.12000602 299.1498741 -35.5 297.25 C-34.72172852 296.70794922 -33.94345703 296.16589844 -33.14160156 295.60742188 C-31.48428001 294.45225883 -29.83206374 293.28974267 -28.18457031 292.12060547 C-24.77259053 289.71034963 -21.32093996 287.36055922 -17.86767578 285.01000977 C-15.48562025 283.38783228 -13.10929617 281.75759804 -10.734375 280.125 C-10.02861328 279.64546875 -9.32285156 279.1659375 -8.59570312 278.671875 C-7.34437494 277.80871899 -6.10659907 276.9253029 -4.88867188 276.015625 C-1.1132351 273.25610676 -1.1132351 273.25610676 1.25830078 273.5300293 C3.79047443 274.46608657 5.72777814 275.72716543 7.9453125 277.26953125 C8.8336377 277.88231934 9.72196289 278.49510742 10.63720703 279.12646484 C11.58192871 279.78598145 12.52665039 280.44549805 13.5 281.125 C15.47874477 282.48889355 17.45791819 283.85216539 19.4375 285.21484375 C20.43007813 285.90046387 21.42265625 286.58608398 22.4453125 287.29248047 C26.78070875 290.28173618 31.13265401 293.2451587 35.5 296.1875 C36.23879395 296.6925708 36.97758789 297.1976416 37.73876953 297.71801758 C38.42567871 298.17974365 39.11258789 298.64146973 39.8203125 299.1171875 C40.41344238 299.51921387 41.00657227 299.92124023 41.61767578 300.33544922 C43.54850039 301.4089641 45.19286125 301.97431084 47.375 302.3125 C49.24859395 301.27290481 49.24859395 301.27290481 50.375 299.3125 C50.83891037 296.88149695 50.83891037 296.88149695 50.375 294.3125 C48.62140087 292.39238048 48.62140087 292.39238048 46.0625 290.8125 C45.06347656 290.13058594 44.06445312 289.44867188 43.03515625 288.74609375 C42.17494873 288.17544189 42.17494873 288.17544189 41.29736328 287.59326172 C39.14099804 286.15659775 37.00551313 284.69172065 34.87109375 283.22265625 C31.61171687 280.98026573 28.34587857 278.7478665 25.07421875 276.5234375 C22.14501197 274.52860307 19.22929681 272.51750415 16.33203125 270.4765625 C15.73116699 270.05431396 15.13030273 269.63206543 14.51123047 269.19702148 C12.92049092 268.0760965 11.33316491 266.95033166 9.74609375 265.82421875 C7.56259985 264.13330187 7.56259985 264.13330187 5.375 264.3125 C5.40118408 262.99531982 5.42736816 261.67813965 5.4543457 260.32104492 C5.54475439 255.44035793 5.60221556 250.55974508 5.6496582 245.6784668 C5.67482363 243.56473348 5.70895926 241.45108735 5.75219727 239.33764648 C5.81275941 236.30170202 5.84118909 233.26690638 5.86328125 230.23046875 C5.88908768 229.28350632 5.9148941 228.33654388 5.94148254 227.36088562 C5.94253367 224.90966706 5.90494996 222.70570926 5.375 220.3125 C2.73098182 217.92399731 1.62108212 216.96636608 -1.875 217.9375 Z M-109.98046875 284.04296875 C-112.54987795 288.43639541 -113.16486555 292.19619291 -112.29296875 297.203125 C-110.70834254 302.20720778 -107.67260157 304.7110991 -103.25 307.25 C-99.08616598 308.47043411 -96.79914475 308.45090311 -92.625 307.3125 C-87.56327319 304.4896139 -84.46600279 301.83550837 -82.625 296.3125 C-82.065633 290.49508317 -83.04856899 286.81367797 -86.625 282.3125 C-89.98844073 279.26193748 -92.59648133 278.04795337 -97.0625 277.8125 C-102.5321218 278.10715976 -106.55507262 279.6699126 -109.98046875 284.04296875 Z M87 284.9375 C84.79760671 289.51170145 84.57156685 293.32147586 85.375 298.3125 C87.55954275 302.7624945 89.83353654 305.30580685 94.375 307.3125 C100.03565179 308.78007639 103.27913507 308.14353607 108.375 305.3125 C112.37980178 302.19765417 114.31780266 299.33956337 115.28125 294.4296875 C115.45116429 290.59245653 114.37872268 287.55728275 112.375 284.3125 C109.63112251 281.37211139 106.5242639 278.5747102 102.421875 278.07421875 C95.3574993 277.84594811 91.81794615 279.61240163 87 284.9375 Z M-142.625 328.3125 C-144.31696504 331.69643008 -143.74486549 335.53727791 -143.72265625 339.2578125 C-143.7212413 340.1428244 -143.71982635 341.0278363 -143.71836853 341.93966675 C-143.7127614 344.77231191 -143.70020771 347.60487864 -143.6875 350.4375 C-143.68248592 352.35546761 -143.67792285 354.27343646 -143.67382812 356.19140625 C-143.66278966 360.89846782 -143.64552025 365.6054706 -143.625 370.3125 C-139.665 370.3125 -135.705 370.3125 -131.625 370.3125 C-131.60518066 369.2930127 -131.58536133 368.27352539 -131.56494141 367.22314453 C-131.48897192 363.44717352 -131.40024191 359.67159227 -131.30761719 355.89599609 C-131.26929148 354.2606576 -131.23444493 352.62523376 -131.203125 350.98974609 C-131.15755158 348.6412909 -131.09954633 346.29342505 -131.0390625 343.9453125 C-131.02751129 343.21192657 -131.01596008 342.47854065 -131.00405884 341.72293091 C-130.85274341 336.54024341 -130.85274341 336.54024341 -128.625 334.3125 C-125.625 334 -125.625 334 -122.625 334.3125 C-120.22104175 337.91843738 -120.27897234 340.64876142 -120.2109375 344.82421875 C-120.19329346 345.46991821 -120.17564941 346.11561768 -120.1574707 346.78088379 C-120.09452683 349.18700511 -120.048255 351.59353928 -120 354 C-119.87625 359.383125 -119.7525 364.76625 -119.625 370.3125 C-105.435 370.3125 -91.245 370.3125 -76.625 370.3125 C-76.37549376 359.58750608 -76.37549376 359.58750608 -76.14697266 348.86206055 C-76.1117623 347.51609319 -76.07584055 346.17014418 -76.0390625 344.82421875 C-76.02770264 344.12703735 -76.01634277 343.42985596 -76.00463867 342.71154785 C-75.8950593 339.05384126 -75.70874375 337.43811563 -73.625 334.3125 C-70.985 334.3125 -68.345 334.3125 -65.625 334.3125 C-65.13 352.1325 -65.13 352.1325 -64.625 370.3125 C-60.665 370.3125 -56.705 370.3125 -52.625 370.3125 C-52.50122396 364.56510242 -52.41057752 358.81848373 -52.3503418 353.07006836 C-52.32522719 351.11550377 -52.29112869 349.16103283 -52.24780273 347.20678711 C-52.18701566 344.39413332 -52.15876017 341.58272298 -52.13671875 338.76953125 C-52.11091232 337.89851273 -52.0851059 337.0274942 -52.05851746 336.13008118 C-52.05646533 331.67173109 -52.15567881 329.90263087 -55.02075195 326.30004883 C-72.69519539 312.81100373 -126.9818608 310.82093735 -142.625 328.3125 Z M54.375 328.3125 C53.0591191 332.2601427 53.25199727 336.02339356 53.27734375 340.13671875 C53.2787587 340.99811966 53.28017365 341.85952057 53.28163147 342.74702454 C53.2872286 345.49805169 53.29978054 348.24899744 53.3125 351 C53.31751537 352.8652332 53.32207821 354.73046767 53.32617188 356.59570312 C53.33719708 361.16800011 53.35445973 365.74023625 53.375 370.3125 C57.335 370.3125 61.295 370.3125 65.375 370.3125 C65.39481934 369.36407227 65.41463867 368.41564453 65.43505859 367.43847656 C65.51325761 363.91217636 65.59995366 360.38629639 65.69238281 356.86035156 C65.73061266 355.33569342 65.765476 353.81094693 65.796875 352.28613281 C65.84265662 350.09147619 65.90062766 347.8974246 65.9609375 345.703125 C65.97826431 344.68415131 65.97826431 344.68415131 65.99594116 343.64459229 C66.10734916 340.0541264 66.43458376 337.37631512 68.375 334.3125 C71.015 334.3125 73.655 334.3125 76.375 334.3125 C76.87 352.1325 76.87 352.1325 77.375 370.3125 C91.895 370.3125 106.415 370.3125 121.375 370.3125 C121.705 358.4325 122.035 346.5525 122.375 334.3125 C129.375 334.3125 129.375 334.3125 131.375 335.3125 C131.705 346.8625 132.035 358.4125 132.375 370.3125 C136.665 370.3125 140.955 370.3125 145.375 370.3125 C145.42453293 364.99228261 145.46078256 359.67220024 145.48486328 354.35180664 C145.49490487 352.54286357 145.5085408 350.73393667 145.52587891 348.92504883 C145.55020832 346.32108565 145.56150161 343.71733758 145.5703125 341.11328125 C145.58063507 340.30788406 145.59095764 339.50248688 145.60159302 338.67268372 C145.60243182 334.45034733 145.42823976 331.1199943 143.375 327.3125 C132.99992176 317.01126574 111.1755658 316.97134524 97.4362793 317.00561523 C83.67600618 317.30025835 64.4799235 317.9484759 54.375 328.3125 Z M-90.625 382.3125 C-69.01420649 405.0925342 -33.75075554 415.13248065 -3.27734375 416.55859375 C30.42495876 417.12306581 64.47419807 406.17622422 90.375 384.3125 C90.705 383.6525 91.035 382.9925 91.375 382.3125 C79.63415024 380.77439741 73.30235833 383.44491782 63.55859375 389.70703125 C36.97178972 406.74139753 0.47428175 408.82818401 -29.625 402.3125 C-43.20388431 399.054669 -56.66049246 393.87612363 -68.125 385.875 C-75.45412214 381.09032781 -82.21968705 381.53562897 -90.625 382.3125 Z " fill="#183B56" transform="translate(255.625,-0.3125)"/>
</svg>
