<?xml version="1.0" encoding="UTF-8"?>
<svg version="1.1" xmlns="http://www.w3.org/2000/svg" width="512" height="512">
<path d="M0 0 C0.90041016 0.16628906 1.80082031 0.33257812 2.72851562 0.50390625 C43.34674174 8.27635207 77.94180569 27.22147813 109 54 C109.77601563 54.65097656 110.55203125 55.30195312 111.3515625 55.97265625 C115.32712506 59.34190714 118.81386132 62.88967397 122.17578125 66.87109375 C123.40919972 68.31052216 124.67913567 69.71932121 125.98046875 71.09765625 C154.89385419 101.8016703 171.5571936 141.96460973 179 183 C179.13277344 183.72977051 179.26554687 184.45954102 179.40234375 185.21142578 C183.38498722 208.60945618 182.34899909 234.76538673 178 258 C177.83371094 258.90041016 177.66742188 259.80082031 177.49609375 260.72851562 C169.72364793 301.34674174 150.77852187 335.94180569 124 367 C123.34902344 367.77601563 122.69804687 368.55203125 122.02734375 369.3515625 C118.65809286 373.32712506 115.11032603 376.81386132 111.12890625 380.17578125 C109.68947784 381.40919972 108.28067879 382.67913567 106.90234375 383.98046875 C76.1983297 412.89385419 36.03539027 429.5571936 -5 437 C-5.72977051 437.13277344 -6.45954102 437.26554687 -7.21142578 437.40234375 C-30.62327707 441.38733971 -56.75003272 440.32767413 -80 436 C-80.88977539 435.83902832 -81.77955078 435.67805664 -82.69628906 435.51220703 C-123.25269842 427.92700722 -158.06178761 408.67507288 -189 382 C-189.77601563 381.34902344 -190.55203125 380.69804687 -191.3515625 380.02734375 C-195.32712506 376.65809286 -198.81386132 373.11032603 -202.17578125 369.12890625 C-203.40919972 367.68947784 -204.67913567 366.28067879 -205.98046875 364.90234375 C-234.89385419 334.1983297 -251.5571936 294.03539027 -259 253 C-259.19916016 251.90534424 -259.19916016 251.90534424 -259.40234375 250.78857422 C-263.38498722 227.39054382 -262.34899909 201.23461327 -258 178 C-257.83371094 177.09958984 -257.66742188 176.19917969 -257.49609375 175.27148438 C-249.72364793 134.65325826 -230.77852187 100.05819431 -204 69 C-203.34902344 68.22398438 -202.69804687 67.44796875 -202.02734375 66.6484375 C-198.65809286 62.67287494 -195.11032603 59.18613868 -191.12890625 55.82421875 C-189.68947784 54.59080028 -188.28067879 53.32086433 -186.90234375 52.01953125 C-156.1983297 23.10614581 -116.03539027 6.4428064 -75 -1 C-73.90534424 -1.19916016 -73.90534424 -1.19916016 -72.78857422 -1.40234375 C-49.39054382 -5.38498722 -23.23461327 -4.34899909 0 0 Z M-64 58 C-65.0621875 58.36222656 -66.124375 58.72445312 -67.21875 59.09765625 C-88.67708261 67.25514094 -103.93036399 83.91816276 -113.78515625 104.1640625 C-115.13125549 106.79220545 -115.13125549 106.79220545 -115 109 C-115.77601563 108.96519531 -116.55203125 108.93039063 -117.3515625 108.89453125 C-140.9693723 108.30267683 -161.84847145 118.12273063 -179 134 C-195.1991479 150.9867888 -204.51090888 173.73060473 -204.1484375 197.21875 C-202.81952429 222.118387 -192.44820059 243.34834726 -174.5 260.37109375 C-159.48110108 273.04328971 -140.45765211 280.99405647 -120.75 281.25 C-119.54859375 281.27578125 -118.3471875 281.3015625 -117.109375 281.328125 C-114.03667976 281.26254162 -114.03667976 281.26254162 -112.1015625 279.640625 C-110.5214499 277.2872658 -110.584185 275.77209997 -111 273 C-111.9698437 271.23755388 -111.9698437 271.23755388 -114 270 C-116.76586674 269.58173261 -119.40634647 269.30984833 -122.1875 269.125 C-143.1474787 267.23896136 -161.40952064 258.53815885 -175.19140625 242.34375 C-188.96141638 224.49924444 -193.3732876 203.8318107 -190.72314453 181.68652344 C-187.76961633 163.39559562 -176.78685792 146.04026274 -162 135 C-149.29995208 126.69553753 -135.28507911 120.82446668 -119.86328125 121.01171875 C-112.38812907 121.36206234 -112.38812907 121.36206234 -106.08203125 118.13671875 C-104.76834997 115.47109362 -103.88292396 112.83662805 -103 110 C-95.55321578 93.23924378 -83.80581186 79.85573996 -67 72 C-47.26098706 64.42662504 -26.16510759 63.14766527 -6.45874023 71.61499023 C1.65472489 75.32510466 8.5353455 79.78233396 15 86 C16.07121094 87.01126953 16.07121094 87.01126953 17.1640625 88.04296875 C25.56736927 96.68961452 30.95674503 108.01784687 33.91796875 119.609375 C35.39113001 122.86415728 36.72494931 123.60655025 40 125 C42.67970818 125.40012467 45.24579887 125.68162979 47.9375 125.875 C66.9201838 127.71585654 83.80177934 136.74252324 96.03125 151.44140625 C108.93148664 169.06607166 113.4823864 188.66669199 110.71875 210.19042969 C107.52658726 228.66325781 97.27556444 244.13879805 82.5625 255.375 C70.04620663 263.93877967 57.73082627 267.98915665 42.74926758 269.17871094 C38.6566699 269.5399451 38.6566699 269.5399451 35.0625 271.375 C33.81390177 273.13413918 33.81390177 273.13413918 33 276 C34.00499132 278.62843884 34.44807371 279.72403685 37 281 C58.08946424 282.68198181 78.10623084 274.78935558 94.12890625 261.4296875 C110.76237728 247.07700837 122.26894114 226.21882107 123.90625 204.07421875 C123.9371875 203.38972656 123.968125 202.70523438 124 202 C124.0515625 201.28457031 124.103125 200.56914062 124.15625 199.83203125 C125.05146552 177.56354528 115.81624067 156.39830314 101.58984375 139.69140625 C86.37503742 123.87994085 66.02097999 114.03628141 44 113 C43.84724609 111.72382813 43.84724609 111.72382813 43.69140625 110.421875 C41.5719016 99.93212317 34.88730819 90.90182869 28 83 C27.31550781 82.10087891 27.31550781 82.10087891 26.6171875 81.18359375 C15.52103361 66.86490416 -3.97770594 57.1268185 -21.63720703 54.28125 C-36.05666154 52.56486112 -50.24720027 53.27634694 -64 58 Z M-69.25 150.5625 C-74.53111451 158.1441548 -76.96466352 167.23455665 -75.59765625 176.37890625 C-73.58724449 185.1958101 -69.98086557 192.08878319 -63 198 C-57.80746605 201.22869098 -53.19192356 204 -47 204 C-47 212.91 -47 221.82 -47 231 C-49.64 231.33 -52.28 231.66 -55 232 C-66.52586015 235.95511843 -74.7036559 244.23755718 -80 255 C-80.3403125 255.67289062 -80.680625 256.34578125 -81.03125 257.0390625 C-85.02189012 266.60920872 -84.26756677 278.69611494 -80.75 288.25 C-79.01206089 292.39101541 -76.91549813 295.58612612 -74 299 C-75.32120828 301.93230193 -76.74638197 303.98664899 -79.0390625 306.234375 C-79.90917969 307.09482422 -79.90917969 307.09482422 -80.796875 307.97265625 C-81.70179688 308.85244141 -81.70179688 308.85244141 -82.625 309.75 C-83.23601562 310.35199219 -83.84703125 310.95398438 -84.4765625 311.57421875 C-85.97988624 313.05405305 -87.48934856 314.52764676 -89 316 C-89.75023437 315.65066406 -90.50046875 315.30132812 -91.2734375 314.94140625 C-102.68169916 309.86947128 -111.07217396 308.77074312 -123 313 C-131.18102513 316.62342982 -137.69682457 323.57673086 -141.5 331.625 C-144.58715751 340.47301395 -144.49376896 351.14140744 -140.44921875 359.65625 C-134.60414916 369.10919273 -127.44318824 374.51893725 -117 378 C-105.67061398 378.83768794 -96.57237646 378.08157966 -87.625 370.5625 C-80.18410441 363.49514335 -75.62498867 355.94037028 -74.96484375 345.5390625 C-75.07496358 337.58596372 -77.7133379 331.11835829 -81 324 C-78.62888231 321.45489625 -76.22455365 318.94379202 -73.8125 316.4375 C-72.80219727 315.35178711 -72.80219727 315.35178711 -71.77148438 314.24414062 C-71.11083984 313.56416016 -70.45019531 312.88417969 -69.76953125 312.18359375 C-69.16729736 311.54993896 -68.56506348 310.91628418 -67.94458008 310.26342773 C-66 309 -66 309 -63.40307617 309.24243164 C-60.99288681 310.00224243 -58.78975407 310.9335392 -56.5 312 C-46.27154634 316.14297901 -36.30113029 315.60926821 -26 312 C-24.845 311.401875 -23.69 310.80375 -22.5 310.1875 C-21.2625 309.5996875 -21.2625 309.5996875 -20 309 C-14.96552882 310.86533364 -11.44366284 315.06968593 -7.6875 318.75 C-6.93404297 319.45382812 -6.18058594 320.15765625 -5.40429688 320.8828125 C-0.01870177 326.16531053 -0.01870177 326.16531053 0.07421875 330.3125 C-0.72643271 332.31558439 -1.59601955 334.29137569 -2.5 336.25 C-5.90618372 343.88454973 -5.51764955 352.1589621 -3 360 C1.46642284 370.60123709 8.54619621 376.57723686 19 381 C26.85984989 383.61994996 37.18652214 382.99733948 44.65625 379.44921875 C54.10919273 373.60414916 59.51893725 366.44318824 63 356 C63.88573603 344.0207832 62.76589867 335.23538985 55 325.75 C48.03068841 318.49506088 39.70747964 314.29835653 29.6015625 313.890625 C24.14913842 314.11985604 19.59590276 315.17135818 14.75 317.6875 C11.4534606 319.26084835 10.42719068 319.07292462 7 318 C4.96362305 316.41772461 4.96362305 316.41772461 3.01171875 314.40234375 C2.30595703 313.68369141 1.60019531 312.96503906 0.87304688 312.22460938 C0.15181641 311.46986328 -0.56941406 310.71511719 -1.3125 309.9375 C-2.42334961 308.79958008 -2.42334961 308.79958008 -3.55664062 307.63867188 C-5.38043834 305.76780841 -7.19424304 303.88825508 -9 302 C-7.78673517 299.56452736 -6.55656005 297.14077109 -5.30859375 294.72265625 C-4.68475523 293.50267605 -4.06106084 292.28262215 -3.4375 291.0625 C-3.12103516 290.45470703 -2.80457031 289.84691406 -2.47851562 289.22070312 C2.28949842 279.83652262 2.47860088 268.86363778 -0.5 258.8125 C-5.12399527 246.61752656 -13.10092321 238.67015631 -24.6875 233.1875 C-28.27062466 231.58520547 -31.06474578 230.78705084 -35 230 C-35.495 217.13 -35.495 217.13 -36 204 C-32.535 203.505 -32.535 203.505 -29 203 C-19.70261131 199.12608805 -13.79360701 192.29070268 -9.5625 183.3125 C-6.41488356 174.55095294 -6.71305525 164.73388276 -10.68359375 156.30859375 C-16.03629383 146.92151437 -22.40995768 141.63601693 -32.4375 137.625 C-46.9184452 135.0844833 -59.68089426 139.22752438 -69.25 150.5625 Z " fill="#183B56" transform="translate(296,38)"/>
<path d="M0 0 C7.24947563 6.73974687 10.58061585 13.81408372 11.25 23.6875 C11.08595607 32.41463723 7.76050303 40.47891107 2 47 C-6.87460012 54.4273087 -15.60853804 55.99329525 -27 55 C-34.21943155 53.34843141 -40.20260769 49.63960118 -45 44 C-50.27941921 35.47675854 -51.86237023 27.97885552 -51 18 C-48.88664934 9.11374243 -43.64185446 2.29034057 -36.1875 -2.875 C-24.84805411 -9.28330754 -10.28531011 -7.95504454 0 0 Z " fill="#183B56" transform="translate(275,286)"/>
<path d="M0 0 C5.47994667 2.77925611 8.84179318 6.74608635 11.5625 12.1875 C13.10718803 20.21987776 12.92201646 26.94190162 8.88671875 34.203125 C5.38683317 38.80527339 0.61696075 41.62767975 -4.8125 43.4375 C-13.77439487 44.32065927 -19.62846093 42.86080469 -26.5625 37.1875 C-31.44266534 31.22285348 -33.59677829 26.0594421 -33.25 18.24609375 C-32.32688149 12.32000261 -30.16818655 7.46726845 -25.58203125 3.515625 C-17.65147843 -1.91803272 -9.19787547 -3.65416445 0 0 Z " fill="#183B56" transform="translate(196.8125,361.5625)"/>
<path d="M0 0 C5.13086452 4.84436955 7.04184705 9.85927557 7.375 16.8125 C7.21686094 22.99852804 5.50205919 28.03123547 1.4921875 32.7890625 C-3.3511823 37.36210468 -8.85507648 39.78760485 -15.515625 40.12890625 C-22.48729618 39.77604559 -27.5436522 37.35081046 -32.53515625 32.51171875 C-37.64960043 26.74119427 -38.46462594 21.48427309 -38.30859375 14.00390625 C-37.66681107 7.75667989 -35.12529799 3.762901 -30.5 -0.375 C-21.00772876 -8.09825705 -9.34568938 -7.59082194 0 0 Z " fill="#183B56" transform="translate(270,192)"/>
<path d="M0 0 C4.60214839 3.49988558 7.42455475 8.269758 9.234375 13.69921875 C9.83002667 20.14829359 9.43525015 25.97605398 6.234375 31.69921875 C1.54852404 37.27158205 -3.73152034 41.08099537 -10.9921875 41.97265625 C-17.87856491 42.26426181 -23.19896294 40.86702942 -28.765625 36.69921875 C-34.19679385 30.40875747 -36.14793935 24.85916506 -36.0390625 16.6171875 C-35.4488991 10.31930094 -33.04214386 5.53162741 -28.390625 1.26171875 C-19.86964608 -5.22788756 -9.20274845 -5.11426626 0 0 Z " fill="#183B56" transform="translate(338.765625,367.30078125)"/>
</svg>
