<?xml version="1.0" encoding="UTF-8"?>
<svg version="1.1" xmlns="http://www.w3.org/2000/svg" width="512" height="512">
<path d="M0 0 C0.77355835 0.00247742 1.5471167 0.00495483 2.34411621 0.00750732 C3.56627586 -0.00015907 3.56627586 -0.00015907 4.81312561 -0.00798035 C7.51501751 -0.02191662 10.21665547 -0.02091654 12.9185791 -0.01861572 C14.79183549 -0.0225005 16.66509099 -0.02683472 18.53834534 -0.03160095 C22.46842298 -0.03907189 26.39841081 -0.03876562 30.32849121 -0.0335083 C35.37055201 -0.02771318 40.41224552 -0.04464144 45.45424557 -0.06785297 C49.32408303 -0.08256883 53.19383161 -0.08346494 57.06369209 -0.08034325 C58.92287486 -0.08085756 60.78206246 -0.08611593 62.64121819 -0.09615517 C65.23904306 -0.10846049 67.83614705 -0.10176368 70.43395996 -0.09014893 C71.20549408 -0.09779266 71.9770282 -0.1054364 72.77194214 -0.11331177 C75.71085462 -0.08419624 77.90563158 -0.06215336 80.4336853 1.52597046 C81.72697491 3.75259535 81.81592988 5.18101626 81.79431152 7.75360107 C81.79408493 8.65430832 81.79385834 9.55501556 81.79362488 10.48301697 C81.77814102 11.45185318 81.76265717 12.42068939 81.7467041 13.41888428 C81.74245926 14.41346146 81.73821442 15.40803864 81.73384094 16.43275452 C81.71703688 19.61199927 81.67938111 22.79061209 81.64123535 25.96966553 C81.62619077 28.12395325 81.61250197 30.27825091 81.60021973 32.43255615 C81.56712779 37.7159752 81.51691127 42.99902522 81.45373535 48.28216553 C82.03490112 48.3352739 82.61606689 48.38838226 83.21484375 48.44309998 C90.16341858 49.13592618 96.336913 50.87247336 102.95373535 53.09466553 C104.12412354 53.48629883 105.29451172 53.87793213 106.50036621 54.28143311 C122.62662176 59.86180817 137.9608278 67.28677275 152.45373535 76.28216553 C155.48033309 73.28052704 158.50344797 70.27543412 161.52355957 67.26727295 C162.54868034 66.24714099 163.57470168 65.22791308 164.60168457 64.20965576 C171.53468836 57.37110765 171.53468836 57.37110765 178.03967285 50.12982178 C180.8213989 46.84846532 181.41956637 46.44763256 185.57873535 45.78216553 C189.67030086 46.31010946 190.31322134 46.68056062 193.1920166 49.31732178 C193.88907715 49.95363525 194.5861377 50.58994873 195.30432129 51.24554443 C198.7603963 54.52025795 202.15942763 57.84332255 205.51623535 61.21966553 C206.18461426 61.88417725 206.85299316 62.54868896 207.54162598 63.2333374 C210.70537869 66.4032393 213.76963037 69.60489045 216.6763916 73.01263428 C221.73109562 78.87167497 227.32658461 84.223486 232.82873535 89.65716553 C235.00608455 91.80793854 237.18009637 93.96200676 239.35217285 96.11810303 C239.85002289 96.60765472 240.34787292 97.09720642 240.86080933 97.60159302 C244.14152825 100.85864163 245.33026854 102.29232949 245.91271973 106.96185303 C245.84103917 111.47416956 244.14649744 113.49901662 241.03222656 116.61004639 C240.39788696 117.2030957 239.76354736 117.79614502 239.10998535 118.40716553 C238.46630005 119.03953125 237.82261475 119.67189697 237.15942383 120.32342529 C235.10893449 122.32930366 233.03237242 124.30551204 230.95373535 126.28216553 C229.55478178 127.64097324 228.15762391 129.00163232 226.7623291 130.36419678 C223.34655913 133.69199013 219.90713399 136.99345575 216.45373535 140.28216553 C216.97322754 141.1782251 217.49271973 142.07428467 218.0279541 142.99749756 C244.45373535 188.77049909 244.45373535 188.77049909 244.45373535 211.28216553 C245.28938774 211.27217278 245.28938774 211.27217278 246.141922 211.26197815 C251.93289426 211.19567987 257.72375896 211.15038803 263.51501465 211.11737061 C265.67716856 211.10227109 267.83929178 211.08178982 270.00134277 211.05584717 C273.10664435 211.01951535 276.2115415 211.0024509 279.3170166 210.98919678 C280.28585281 210.97371292 281.25468903 210.95822906 282.25288391 210.942276 C283.60394478 210.94193611 283.60394478 210.94193611 284.9822998 210.94158936 C285.77505814 210.93492752 286.56781647 210.92826569 287.38459778 210.92140198 C289.45373535 211.28216553 289.45373535 211.28216553 291.2089386 212.3089447 C293.16643314 215.41191632 292.87030576 218.63879094 292.84191895 222.1942749 C292.8471759 222.99944046 292.85243286 223.80460602 292.85784912 224.63417053 C292.8710636 227.29828229 292.86230608 229.96179758 292.85217285 232.62591553 C292.85419317 234.47532262 292.85710426 236.32472894 292.86087036 238.1741333 C292.86529567 242.05120423 292.85885602 245.92806789 292.84484863 249.80511475 C292.82775661 254.77879076 292.83759669 259.75198115 292.85556602 264.72563934 C292.86639828 268.54487783 292.86296009 272.36400087 292.85518265 276.1832428 C292.85317909 278.01729896 292.85564534 279.85136555 292.86262131 281.68540955 C292.87022666 284.24724148 292.85864486 286.80828319 292.84191895 289.37005615 C292.84799164 290.13066849 292.85406433 290.89128082 292.86032104 291.67494202 C292.8250026 294.58978556 292.78819462 296.75198902 291.2089386 299.25538635 C288.98258332 300.55778551 287.55894534 300.64439418 284.9822998 300.6227417 C284.08159256 300.62251511 283.18088531 300.62228851 282.25288391 300.62205505 C280.79962959 300.59882927 280.79962959 300.59882927 279.3170166 300.57513428 C278.32243942 300.57088943 277.32786224 300.56664459 276.30314636 300.56227112 C273.12390161 300.54546705 269.94528879 300.50781129 266.76623535 300.46966553 C264.61194763 300.45462094 262.45764997 300.44093214 260.30334473 300.4286499 C255.01992568 300.39555797 249.73687566 300.34534145 244.45373535 300.28216553 C244.4047963 300.85245483 244.35585724 301.42274414 244.30543518 302.01031494 C243.82908532 306.94116675 243.00687527 311.39841491 241.4498291 316.12591553 C241.04296875 317.36414063 240.6361084 318.60236572 240.21691895 319.87811279 C239.77627634 321.17988814 239.33435754 322.48123213 238.89123535 323.78216553 C238.66720032 324.44690887 238.44316528 325.11165222 238.21234131 325.79653931 C233.271958 340.40731517 227.49092185 353.851083 218.8248291 366.64544678 C217.23552894 369.08762521 217.23552894 369.08762521 217.71276855 371.27139282 C218.95543531 374.64363623 221.66907291 376.83953409 224.20373535 379.28997803 C224.7770459 379.85667206 225.35035645 380.42336609 225.94104004 381.00723267 C227.77164276 382.81444836 229.61210655 384.61119298 231.45373535 386.40716553 C233.2935944 388.21197507 235.13130414 390.01890042 236.96643066 391.82852173 C238.10846916 392.95356847 239.25357056 394.07551602 240.40197754 395.19406128 C243.91840265 398.64414262 245.33036027 400.05222134 245.82958984 405.02911377 C245.75424318 409.70537983 243.70238375 412.17204319 240.44006348 415.33099365 C239.90671387 415.87836182 239.37336426 416.42572998 238.82385254 416.98968506 C237.06375925 418.78485153 235.2761748 420.54931563 233.48498535 422.31341553 C232.24744414 423.55634925 231.01109227 424.8004682 229.77587891 426.04571533 C227.18585954 428.64751276 224.5819664 431.2343333 221.96740723 433.8114624 C218.62202617 437.11126163 215.31385492 440.44568592 212.01526642 443.79218292 C209.46970648 446.36669308 206.90534576 448.92179263 204.33494568 451.47148132 C203.10750934 452.69359239 201.88595661 453.92164297 200.67054749 455.15571594 C198.96654061 456.88011462 197.23884611 458.57667867 195.50256348 460.26849365 C195.00768433 460.77956665 194.51280518 461.29063965 194.00292969 461.81719971 C191.14925459 464.53736954 189.07328705 465.59763296 185.21026611 465.66705322 C181.43286428 465.28002711 180.2362384 465.06963795 177.62561035 462.46966553 C176.96625488 461.83029053 176.30689941 461.19091553 175.62756348 460.53216553 C174.9102002 459.78966553 174.19283691 459.04716553 173.45373535 458.28216553 C172.61777832 457.43654053 171.78182129 456.59091553 170.92053223 455.71966553 C167.68984017 452.4305734 164.46616043 449.13456608 161.28820801 445.79437256 C159.92263803 444.36253575 158.53999082 442.94704648 157.15686035 441.53216553 C155.94498047 440.2714624 155.94498047 440.2714624 154.70861816 438.98529053 C152.65257724 437.05500364 152.65257724 437.05500364 150.41369629 437.37762451 C148.33724379 438.33592752 146.36449186 439.3469167 144.39123535 440.50482178 C143.60482666 440.95704102 142.81841797 441.40926025 142.00817871 441.87518311 C140.74372925 442.6025769 140.74372925 442.6025769 139.45373535 443.34466553 C126.29219632 450.73130478 112.5988216 456.06401974 98.26623535 460.71966553 C97.51269775 460.96692383 96.75916016 461.21418213 95.98278809 461.46893311 C92.21472623 462.64260545 88.614663 463.4534943 84.6829834 463.85272217 C83.88676071 463.93534805 83.09053802 464.01797394 82.27018738 464.10310364 C81.37104362 464.19173927 81.37104362 464.19173927 80.45373535 464.28216553 C80.45595596 464.85401581 80.45817657 465.42586609 80.46046448 466.01504517 C80.48254018 471.95189796 80.49765155 477.88873915 80.50866699 483.82562256 C80.51370444 486.04307529 80.52053457 488.26052469 80.5291748 490.47796631 C80.54126607 493.66010357 80.54696945 496.84219703 80.5513916 500.02435303 C80.55655289 501.0202243 80.56171417 502.01609558 80.56703186 503.04214478 C80.56714516 504.42335007 80.56714516 504.42335007 80.56726074 505.8324585 C80.56948135 506.64520233 80.57170197 507.45794617 80.57398987 508.2953186 C80.45373535 510.28216553 80.45373535 510.28216553 79.45373535 512.28216553 C68.27528702 512.32843507 57.09686133 512.36400727 45.91833687 512.38578987 C40.72811637 512.39624258 35.53796121 512.41042881 30.34777832 512.43304443 C25.34222646 512.45471991 20.33673758 512.46672294 15.33114243 512.47192001 C13.4180998 512.47562532 11.50506075 512.48286049 9.59204483 512.49362564 C6.91972559 512.50807026 4.24766915 512.51014644 1.57531738 512.50921631 C0.77834442 512.51640686 -0.01862854 512.52359741 -0.8397522 512.53100586 C-6.31816033 512.51026985 -6.31816033 512.51026985 -8.54626465 510.28216553 C-8.78677368 508.33328247 -8.78677368 508.33328247 -8.77331543 505.92425537 C-8.77308884 504.57308121 -8.77308884 504.57308121 -8.77285767 503.1946106 C-8.75737381 501.73361435 -8.75737381 501.73361435 -8.74157715 500.24310303 C-8.73874725 499.2471109 -8.73591736 498.25111877 -8.73300171 497.22494507 C-8.72178305 494.03556434 -8.69667546 490.84646175 -8.67126465 487.65716553 C-8.66123703 485.49831541 -8.6521108 483.3394609 -8.6439209 481.18060303 C-8.62183826 475.88102854 -8.58834423 470.5816169 -8.54626465 465.28216553 C-9.29541641 465.14948273 -10.04456818 465.01679993 -10.81642151 464.88009644 C-11.80242844 464.70356537 -12.78843536 464.5270343 -13.80432129 464.34515381 C-14.78034805 464.17122101 -15.75637482 463.99728821 -16.76197815 463.81808472 C-39.13670487 459.51139954 -59.97156019 448.48107778 -79.54626465 437.28216553 C-80.38399414 438.12513184 -81.22172363 438.96809814 -82.08483887 439.83660889 C-85.18712913 442.95696948 -88.29270338 446.07404376 -91.39929199 449.19012451 C-92.74459521 450.54046328 -94.08900046 451.89169728 -95.43249512 453.24383545 C-97.36130393 455.1847438 -99.29329596 457.12243288 -101.22595215 459.05950928 C-101.8280954 459.66681381 -102.43023865 460.27411835 -103.05062866 460.89982605 C-108.22008225 466.06997634 -108.22008225 466.06997634 -112.67126465 466.78216553 C-121.90266173 465.59101752 -129.3928671 454.58283519 -135.7923584 448.16888428 C-136.85455509 447.1073626 -137.91690008 446.04598929 -138.97938538 444.98475647 C-141.18876976 442.77683589 -143.39636141 440.56714299 -145.60266113 438.35614014 C-148.43277145 435.5202911 -151.267405 432.68901225 -154.10336208 429.85901165 C-156.29012038 427.67585893 -158.47450136 425.49034014 -160.65815926 423.30408669 C-161.70324351 422.25833532 -162.74907121 421.21332636 -163.79565239 420.1690731 C-165.25067857 418.71657789 -166.70247574 417.26093127 -168.15344238 415.80438232 C-168.97980698 414.97722214 -169.80617157 414.15006195 -170.65757751 413.2978363 C-173.0446648 410.75025603 -173.48905851 409.63970386 -174.04626465 406.15716553 C-173.08840667 398.7337662 -166.21206581 393.89362922 -161.01501465 388.86419678 C-160.53060913 388.39449463 -160.04620361 387.92479248 -159.54711914 387.44085693 C-157.53431421 385.49207399 -155.52159114 383.54403943 -153.48571777 381.61932373 C-151.98164405 380.19372548 -150.49726846 378.74992312 -149.01501465 377.30169678 C-148.13265137 376.45711914 -147.25028809 375.6125415 -146.34118652 374.74237061 C-144.26179784 372.43204797 -144.26179784 372.43204797 -144.67126465 369.63275146 C-145.77008217 366.68090573 -147.29002279 364.33660528 -149.04626465 361.71966553 C-157.09355093 349.10638712 -162.44781862 335.27948949 -167.04626465 321.09466553 C-167.38464355 320.05600342 -167.72302246 319.01734131 -168.07165527 317.94720459 C-168.53861816 316.45205322 -168.53861816 316.45205322 -169.01501465 314.92669678 C-169.42396973 313.61729126 -169.42396973 313.61729126 -169.84118652 312.28143311 C-170.77434786 308.31194314 -171.16849313 304.33737226 -171.54626465 300.28216553 C-172.38191704 300.29215828 -172.38191704 300.29215828 -173.23445129 300.30235291 C-179.02542355 300.36865119 -184.81628826 300.41394303 -190.60754395 300.44696045 C-192.76969785 300.46205997 -194.93182108 300.48254123 -197.09387207 300.50848389 C-200.19917365 300.5448157 -203.30407079 300.56188015 -206.4095459 300.57513428 C-207.37838211 300.59061813 -208.34721832 300.60610199 -209.34541321 300.62205505 C-210.69647408 300.62239494 -210.69647408 300.62239494 -212.0748291 300.6227417 C-213.2639666 300.63273445 -213.2639666 300.63273445 -214.47712708 300.64292908 C-216.54626465 300.28216553 -216.54626465 300.28216553 -218.3014679 299.25538635 C-220.25896244 296.15241473 -219.96283506 292.92554011 -219.93444824 289.37005615 C-219.9397052 288.56489059 -219.94496216 287.75972504 -219.95037842 286.93016052 C-219.9635929 284.26604876 -219.95483538 281.60253347 -219.94470215 278.93841553 C-219.94672247 277.08900843 -219.94963356 275.23960212 -219.95339966 273.39019775 C-219.95782497 269.51312683 -219.95138532 265.63626316 -219.93737793 261.75921631 C-219.92028591 256.78554029 -219.93012599 251.8123499 -219.94809532 246.83869171 C-219.95892758 243.01945323 -219.95548939 239.20033019 -219.94771194 235.38108826 C-219.94570839 233.54703209 -219.94817464 231.7129655 -219.9551506 229.87892151 C-219.96275595 227.31708957 -219.95117416 224.75604787 -219.93444824 222.1942749 C-219.94052094 221.43366257 -219.94659363 220.67305023 -219.95285034 219.88938904 C-219.9175319 216.9745455 -219.88072392 214.81234204 -218.3014679 212.3089447 C-216.07511262 211.00654554 -214.65147464 210.91993687 -212.0748291 210.94158936 C-211.17412186 210.94181595 -210.27341461 210.94204254 -209.34541321 210.942276 C-207.89215889 210.96550179 -207.89215889 210.96550179 -206.4095459 210.98919678 C-204.91768013 210.99556404 -204.91768013 210.99556404 -203.39567566 211.00205994 C-200.2164309 211.018864 -197.03781808 211.05651977 -193.85876465 211.09466553 C-191.70447692 211.10971011 -189.55017927 211.12339891 -187.39587402 211.13568115 C-182.11245498 211.16877309 -176.82940496 211.2189896 -171.54626465 211.28216553 C-171.49315628 210.70099976 -171.44004791 210.11983398 -171.3853302 209.52105713 C-170.69250399 202.5724823 -168.95595681 196.39898788 -166.73376465 189.78216553 C-166.34213135 188.61177734 -165.95049805 187.44138916 -165.54699707 186.23553467 C-159.96662201 170.10927912 -152.54165742 154.77507308 -143.54626465 140.28216553 C-146.70866285 137.0948756 -149.87446444 133.91101561 -153.04333496 130.73016357 C-154.11879976 129.64969886 -155.1933618 128.56833472 -156.26696777 127.48602295 C-157.81858266 125.92215088 -159.37351591 124.36164238 -160.92907715 122.80169678 C-161.40120636 122.32440628 -161.87333557 121.84711578 -162.35977173 121.35536194 C-164.75560626 118.95913404 -167.20393074 116.70742423 -169.83166504 114.57318115 C-172.56919217 112.2628156 -173.43332284 111.44304866 -173.85876465 107.96966553 C-173.92086179 104.15424426 -173.31255302 102.47729736 -170.72131348 99.69207764 C-170.08078033 98.99967987 -169.44024719 98.3072821 -168.78030396 97.59390259 C-164.37219618 93.03248503 -159.923297 88.5162624 -155.4329834 84.03607178 C-154.37146172 82.97387508 -153.31008841 81.9115301 -152.24885559 80.8490448 C-150.04093501 78.63966042 -147.83124211 76.43206876 -145.62023926 74.22576904 C-142.78439022 71.39565873 -139.95311138 68.56102518 -137.12311077 65.72506809 C-134.93995805 63.5383098 -132.75443926 61.35392881 -130.56818581 59.17027092 C-129.52243444 58.12518666 -128.47742548 57.07935897 -127.43317223 56.03277779 C-125.98067701 54.5777516 -124.52503039 53.12595444 -123.06848145 51.67498779 C-122.24132126 50.8486232 -121.41416107 50.02225861 -120.56193542 49.17085266 C-118.01435515 46.78376537 -116.90380298 46.33937166 -113.42126465 45.78216553 C-105.99786532 46.7400235 -101.15772834 53.61636436 -96.1282959 58.81341553 C-95.65859375 59.29782104 -95.1888916 59.78222656 -94.70495605 60.28131104 C-92.75617311 62.29411596 -90.80813856 64.30683903 -88.88342285 66.3427124 C-87.4578246 67.84678613 -86.01402224 69.33116171 -84.5657959 70.81341553 C-83.72121826 71.69577881 -82.87664062 72.57814209 -82.00646973 73.48724365 C-79.69614709 75.56663234 -79.69614709 75.56663234 -76.89685059 75.15716553 C-73.94500485 74.05834801 -71.6007044 72.53840739 -68.98376465 70.78216553 C-56.37048624 62.73487925 -42.54358861 57.38061156 -28.35876465 52.78216553 C-27.32010254 52.44378662 -26.28144043 52.10540771 -25.21130371 51.7567749 C-23.71615234 51.28981201 -23.71615234 51.28981201 -22.1907959 50.81341553 C-21.31785889 50.54077881 -20.44492188 50.26814209 -19.54553223 49.98724365 C-15.57604226 49.05408232 -11.60147138 48.65993705 -7.54626465 48.28216553 C-7.55070587 47.71031525 -7.55514709 47.13846497 -7.5597229 46.54928589 C-7.60387416 40.61245211 -7.63409677 34.67566474 -7.65612793 28.7387085 C-7.66620289 26.52124132 -7.67986324 24.30378748 -7.69714355 22.08636475 C-7.72132628 18.90420241 -7.73273262 15.72221528 -7.74157715 12.53997803 C-7.75189972 11.54410675 -7.76222229 10.54823547 -7.77285767 9.52218628 C-7.77300873 8.60138275 -7.77315979 7.68057922 -7.77331543 6.73187256 C-7.77775665 5.91912872 -7.78219788 5.10638489 -7.78677368 4.26901245 C-7.2216765 -0.39925958 -3.91675078 0.03934957 0 0 Z M-35.54626465 108.28216553 C-36.17726074 108.58880127 -36.80825684 108.89543701 -37.45837402 109.21136475 C-52.81299144 116.75954441 -65.86132997 126.88216455 -78.54626465 138.28216553 C-79.2217334 138.88415771 -79.89720215 139.4861499 -80.59313965 140.10638428 C-107.66211225 165.69300838 -126.27800949 206.40555031 -127.67053223 243.60150146 C-128.00353658 259.62282536 -128.30778914 275.60745699 -124.54626465 291.28216553 C-124.34758789 292.11715576 -124.14891113 292.952146 -123.94421387 293.81243896 C-118.16345573 317.30786493 -107.85569531 339.46432367 -92.54626465 358.28216553 C-92.09380371 358.84145752 -91.64134277 359.40074951 -91.1751709 359.97698975 C-64.04008538 393.29836 -24.84143212 415.14081639 18.03283691 420.10125732 C49.48936908 422.45193203 79.97420809 418.29273255 108.45373535 404.28216553 C109.08473145 403.97552979 109.71572754 403.66889404 110.36584473 403.35296631 C149.2520174 384.23690436 178.57523391 349.48242051 192.57873535 308.65716553 C206.05893595 267.99871952 203.37936098 222.75261931 184.45373535 184.28216553 C183.99378174 183.33567139 183.99378174 183.33567139 183.52453613 182.37005615 C164.40847418 143.48388347 129.65399033 114.16066697 88.82873535 100.15716553 C48.17028935 86.67696493 2.92418913 89.3565399 -35.54626465 108.28216553 Z " fill="#183B56" transform="translate(219.5462646484375,-0.28216552734375)"/>
<path d="M0 0 C1.82927032 -0.01073296 1.82927032 -0.01073296 3.69549561 -0.02168274 C5.04409764 -0.02452282 6.39269996 -0.02723457 7.74130249 -0.02983093 C9.16407435 -0.03609876 10.58684458 -0.04274584 12.00961304 -0.04974365 C16.67976753 -0.07075275 21.34992222 -0.08114475 26.02011108 -0.09111023 C27.63082267 -0.0951593 29.24153409 -0.09927627 30.85224533 -0.10346031 C38.42239333 -0.12250697 45.99253162 -0.13673774 53.56269896 -0.14507228 C62.28565169 -0.1548358 71.00835006 -0.18113423 79.73121321 -0.22157317 C86.48298877 -0.25179401 93.23469167 -0.26654689 99.98653352 -0.26985329 C104.01443871 -0.27219744 108.04207202 -0.28107426 112.06990433 -0.30631447 C115.86374613 -0.32970437 119.65713915 -0.33378507 123.45103455 -0.32355309 C124.83687717 -0.32306021 126.22274271 -0.32930674 127.60851669 -0.34310913 C137.24150414 -0.43361874 145.53918025 0.52421477 153.41854858 6.45967102 C158.69424905 11.8609834 161.13170487 17.42542986 161.22055054 24.95649719 C161.23980339 26.38399544 161.23980339 26.38399544 161.25944519 27.84033203 C161.26683212 28.86326859 161.27421906 29.88620514 161.28182983 30.94013977 C161.28990158 32.00074112 161.29797333 33.06134247 161.30628967 34.15408325 C161.32011398 36.39923984 161.33084352 38.64441731 161.3387146 40.88960266 C161.35022586 43.17742603 161.37066396 45.46522273 161.40023804 47.75288391 C161.44306002 51.0654875 161.45910534 54.3772932 161.46932983 57.69013977 C161.48683792 58.70295517 161.50434601 59.71577057 161.52238464 60.75927734 C161.49764943 68.93871394 159.39772054 74.64954412 154.85604858 81.39717102 C148.54499486 87.56797911 141.85450932 90.25890125 133.12506104 90.29434204 C131.91396164 90.30149734 130.70286224 90.30865265 129.45506287 90.31602478 C128.11590602 90.31886485 126.77674889 90.32157661 125.43759155 90.32417297 C124.02467177 90.33044086 122.61175363 90.33708794 121.19883728 90.34408569 C116.56114848 90.36509419 111.92345949 90.37548676 107.28573608 90.38545227 C105.6861685 90.38950137 104.08660108 90.39361834 102.48703384 90.39780235 C94.9692116 90.41684891 87.45139912 90.43107968 79.93355739 90.43941432 C71.2711644 90.44917768 62.60902756 90.47547574 53.94672477 90.51591522 C47.24165794 90.5461371 40.53666428 90.56088903 33.83153069 90.56419533 C29.83157037 90.56653937 25.83188384 90.57541471 21.83199692 90.60065651 C18.06441903 90.62404825 14.29729304 90.6281264 10.52966118 90.61789513 C8.50146979 90.6171688 6.47330078 90.63618266 4.44520569 90.65596008 C-4.43623479 90.60574007 -11.06646392 89.03670909 -18.70645142 84.52217102 C-24.3357201 78.58016519 -28.02939447 71.85449491 -28.13345337 63.62910461 C-28.1462886 62.74072906 -28.15912384 61.85235352 -28.17234802 60.9370575 C-28.17973495 59.98287933 -28.18712189 59.02870117 -28.19473267 58.04560852 C-28.20280441 57.05396698 -28.21087616 56.06232544 -28.2191925 55.04063416 C-28.23301502 52.94091022 -28.24374536 50.84116398 -28.25161743 48.7414093 C-28.26311594 46.60592512 -28.28353377 44.47046919 -28.31314087 42.3351593 C-28.3560642 39.23844504 -28.37202272 36.14258433 -28.38223267 33.04560852 C-28.39974075 32.10357574 -28.41724884 31.16154297 -28.43528748 30.19096375 C-28.409099 22.06928988 -26.24112251 15.60681582 -21.76895142 8.83467102 C-15.38013546 2.72980244 -8.74889543 0.03527263 0 0 Z M77.04354858 6.14717102 C74.66523534 7.04482972 74.66523534 7.04482972 73.94955444 10.3170929 C73.54425944 11.74772656 73.14792367 13.18091508 72.75839233 14.61592102 C72.54112991 15.39155396 72.32386749 16.16718689 72.10002136 16.96632385 C71.38571334 19.52446154 70.68305589 22.08563278 69.98104858 24.64717102 C69.49296354 26.40935988 69.00435246 28.17140312 68.51522827 29.93330383 C67.51281831 33.54958511 66.51554371 37.16723262 65.52157593 40.7858429 C64.34507966 45.06369555 63.15138849 49.33643195 61.948349 53.60688782 C61.0918673 56.65030859 60.24260429 59.69571038 59.3951416 62.74165344 C58.99496686 64.17548605 58.59220607 65.60859948 58.18682861 67.04096985 C57.62576748 69.02735015 57.0754802 71.0164078 56.52792358 73.00654602 C56.21564819 74.12513 55.9033728 75.24371399 55.58163452 76.39619446 C54.79463979 79.22120551 54.79463979 79.22120551 56.04354858 82.14717102 C58.47274724 82.28157881 58.47274724 82.28157881 61.04354858 81.14717102 C64.20874665 74.04568109 66.02789176 66.42367728 68.09042358 58.94404602 C68.46963509 57.57499587 68.84888791 56.20595717 69.22817993 54.83692932 C70.0175669 51.98342151 70.80368051 49.12903356 71.58798218 46.27412415 C72.59320015 42.61765272 73.61089686 38.96477806 74.63154221 35.31258774 C75.41705254 32.49369211 76.1938068 29.67243844 76.96814728 26.85045624 C77.33973456 25.50197792 77.71454093 24.15438231 78.09264374 22.80771637 C78.61901452 20.92960898 79.13188613 19.04773399 79.64413452 17.16572571 C79.93930969 16.09731445 80.23448486 15.0289032 80.53860474 13.92811584 C81.03664943 11.18516766 81.2048975 9.67429626 80.04354858 7.14717102 C79.05354858 6.81717102 78.06354858 6.48717102 77.04354858 6.14717102 Z M95.04354858 12.14717102 C95.28292735 15.75726155 95.92288555 17.02362132 98.49276733 19.65498352 C99.56147927 20.54047328 100.64173012 21.41215788 101.73104858 22.27217102 C102.5914978 22.9751532 102.5914978 22.9751532 103.46932983 23.69233704 C105.31560417 25.1926847 107.17713539 26.67197108 109.04354858 28.14717102 C109.98641724 28.8966803 109.98641724 28.8966803 110.94833374 29.66133118 C113.93747739 32.03463271 116.93635359 34.39464776 119.94979858 36.73701477 C120.97073608 37.53236633 121.99167358 38.3277179 123.04354858 39.14717102 C124.00261108 39.87033508 124.96167358 40.59349915 125.94979858 41.33857727 C126.64073608 41.93541321 127.33167358 42.53224915 128.04354858 43.14717102 C128.04354858 43.80717102 128.04354858 44.46717102 128.04354858 45.14717102 C126.20266109 46.70978482 124.35808778 48.15309322 122.41854858 49.58467102 C121.22528905 50.48367946 120.03260057 51.38344626 118.84042358 52.28388977 C118.21716187 52.75230286 117.59390015 53.22071594 116.95175171 53.70332336 C113.82951329 56.06577449 110.7469776 58.4780486 107.66854858 60.89717102 C106.78634644 61.58988098 106.78634644 61.58988098 105.88632202 62.29658508 C101.84660905 65.48196421 97.90334294 68.74687599 94.04354858 72.14717102 C94.37354858 73.46717102 94.70354858 74.78717102 95.04354858 76.14717102 C96.86734919 76.87513019 96.86734919 76.87513019 99.04354858 77.14717102 C100.8459728 76.25915914 100.8459728 76.25915914 102.47714233 74.75263977 C103.11957886 74.21405334 103.76201538 73.67546692 104.42391968 73.12055969 C105.10277222 72.53121643 105.78162476 71.94187317 106.48104858 71.33467102 C107.91863459 70.12489114 109.35745302 68.91657436 110.79745483 67.70967102 C111.51304565 67.10510071 112.22863647 66.5005304 112.96591187 65.87763977 C115.88691748 63.44472698 118.89077722 61.132296 121.91854858 58.83467102 C122.95108765 58.04060852 123.98362671 57.24654602 125.04745483 56.42842102 C127.04148641 54.91014926 129.04942174 53.40996334 131.07089233 51.92842102 C131.9899939 51.23748352 132.90909546 50.54654602 133.85604858 49.83467102 C134.6668689 49.24041321 135.47768921 48.6461554 136.31307983 48.03388977 C138.23008029 46.25386139 138.23008029 46.25386139 138.61386108 43.69795227 C137.79411226 40.03154143 136.04401675 38.95022257 133.10604858 36.64717102 C132.57970825 36.22846741 132.05336792 35.80976379 131.51107788 35.37837219 C129.70227311 33.94943977 127.87475649 32.54726289 126.04354858 31.14717102 C124.62164888 30.04954677 123.19977482 28.95188931 121.77792358 27.85420227 C118.85910312 25.6082845 115.92980959 23.37700675 112.99276733 21.15498352 C109.16648524 18.25603774 105.41480386 15.27133124 101.70761108 12.22138977 C99.22900887 10.62135313 97.62479308 10.85654877 95.04354858 12.14717102 Z M35.04354858 12.14717102 C34.26753296 12.81361633 33.49151733 13.48006165 32.69198608 14.16670227 C26.29253734 19.63619667 19.80914568 24.9630696 13.16757202 30.13594055 C7.71809911 34.3834593 2.36932554 38.74525333 -2.95645142 43.14717102 C-2.38689842 46.47411218 -1.49443464 47.93278865 1.07089233 50.10029602 C2.00409302 50.89923279 2.00409302 50.89923279 2.95614624 51.71430969 C3.9584729 52.54732605 3.9584729 52.54732605 4.98104858 53.39717102 C6.00657837 54.26595886 6.00657837 54.26595886 7.05282593 55.15229797 C16.48829925 63.11299237 26.24040456 70.64884143 36.04354858 78.14717102 C38.02354858 77.15717102 38.02354858 77.15717102 40.04354858 76.14717102 C39.84884654 72.39412129 39.18217678 71.27565074 36.37557983 68.67451477 C35.21151598 67.79898388 34.03763668 66.9364037 32.85604858 66.08467102 C31.58296936 65.12932322 30.3122066 64.17088222 29.04354858 63.20967102 C28.38612671 62.71338196 27.72870483 62.2170929 27.05136108 61.70576477 C23.09631744 58.63560443 19.3476468 55.32223188 15.57601929 52.0316925 C13.13062833 49.90605868 10.7441967 47.9476031 8.04354858 46.14717102 C7.54854858 44.66217102 7.54854858 44.66217102 7.04354858 43.14717102 C7.92623413 42.7364032 7.92623413 42.7364032 8.82675171 42.31733704 C10.97165532 41.18512085 12.65263436 39.97223025 14.51229858 38.42451477 C15.16061646 37.89019836 15.80893433 37.35588196 16.47689819 36.80537415 C17.15889282 36.23754211 17.84088745 35.66971008 18.54354858 35.08467102 C24.49244356 30.16144759 30.52205281 25.53075896 36.88339233 21.14717102 C39.38455203 18.83144993 39.77069905 17.4910291 40.04354858 14.14717102 C37.56854858 13.15717102 37.56854858 13.15717102 35.04354858 12.14717102 Z " fill="#183B56" transform="translate(188.95645141601563,244.8528289794922)"/>
<path d="M0 0 C7.37795483 1.77070916 12.05625915 10.00765264 16.59375 15.6484375 C18.91607533 18.51970992 21.31619007 21.31838151 23.73266602 24.1105957 C25.77000933 26.46655923 27.7904277 28.83666166 29.80810547 31.20947266 C30.93527198 32.52805269 32.07748755 33.83374281 33.22265625 35.13671875 C35.85894512 38.3089907 37.50333933 40.76406036 37.875 44.9375 C37.13616586 48.69324022 36.46937176 50.58217849 33.32421875 52.8515625 C28.53872213 54.80656112 23.23270127 54.66663989 18.125 54.75 C17.10954234 57.79637299 16.9708023 59.94777098 16.91967773 63.1394043 C16.89973251 64.24031906 16.87978729 65.34123383 16.85923767 66.47550964 C16.83416893 68.25687065 16.83416893 68.25687065 16.80859375 70.07421875 C16.78781265 71.29075638 16.76703156 72.50729401 16.74562073 73.76069641 C16.68015283 77.65290596 16.62125285 81.54518385 16.5625 85.4375 C16.51931218 88.07357482 16.4756978 90.70964269 16.43164062 93.34570312 C16.32367036 99.81373301 16.22457575 106.28181358 16.125 112.75 C5.565 112.75 -4.995 112.75 -15.875 112.75 C-15.93558594 108.57472656 -15.99617188 104.39945312 -16.05859375 100.09765625 C-16.10953007 96.77701098 -16.16145157 93.45638439 -16.21404266 90.13576508 C-16.26936127 86.62577967 -16.32292709 83.11578719 -16.37231445 79.60571289 C-16.42900668 75.58209856 -16.49357401 71.55864469 -16.55859375 67.53515625 C-16.57530624 66.27163834 -16.59201874 65.00812042 -16.60923767 63.70631409 C-16.62918289 62.545186 -16.64912811 61.38405792 -16.66967773 60.18774414 C-16.69299416 58.6455294 -16.69299416 58.6455294 -16.71678162 57.07215881 C-16.61671871 54.78914647 -16.61671871 54.78914647 -17.875 53.75 C-19.78993967 53.61783392 -21.70725092 53.51935514 -23.625 53.4375 C-28.55121801 53.07433054 -31.47909129 52.61430991 -34.875 48.75 C-36.58562211 45.32875578 -36.7769679 42.39347558 -35.875 38.75 C-33.28848521 34.71162078 -30.11987441 31.26929257 -26.875 27.75 C-26.04742187 26.83863281 -25.21984375 25.92726562 -24.3671875 24.98828125 C-22.70471654 23.1616478 -21.03672593 21.34002286 -19.36328125 19.5234375 C-16.09356147 15.87900886 -13.02803115 12.08870707 -9.98046875 8.2578125 C-3.90214187 1.01795005 -3.90214187 1.01795005 0 0 Z " fill="#183B56" transform="translate(255.875,125.25)"/>
</svg>
